<svg width="256" height="256" viewBox="0 0 256 256" fill="none" xmlns="http://www.w3.org/2000/svg">
<path d="M0 36C0 16.1178 16.1178 0 36 0H220C239.882 0 256 16.1178 256 36V220C256 239.882 239.882 256 220 256H36C16.1178 256 0 239.882 0 220V36Z" fill="#2B2C30"/>
<path d="M0 202.715V220C0 239.882 16.1178 256 36 256H147.688L193.588 223.494L0 202.715Z" fill="#E67E25"/>
<path d="M256 35.933C255.964 16.0815 239.86 0 220 0H36C20.3339 0 7.00494 10.0069 2.0565 23.9773L256 106.788V35.933Z" fill="#E67E25"/>
<path d="M0 42.5273V106.992L56 72.001L0 42.5273Z" fill="#E67E25"/>
<path d="M157.175 139.671H114.793V104.872L74.7068 96L31.9844 137.83L152.045 176L196.015 154.288L239.984 132.576L157.175 114.246V139.671Z" fill="white"/>
</svg>
