<?xml version="1.0" standalone="no"?>
<!DOCTYPE svg PUBLIC "-//W3C//DTD SVG 20010904//EN"
 "http://www.w3.org/TR/2001/REC-SVG-20010904/DTD/svg10.dtd">
<svg version="1.0" xmlns="http://www.w3.org/2000/svg"
 width="700.000000pt" height="700.000000pt" viewBox="0 0 700.000000 700.000000"
 preserveAspectRatio="xMidYMid meet">
<metadata>
Created by potrace 1.11, written by Peter Selinger 2001-2013
</metadata>
<g transform="translate(0.000000,700.000000) scale(0.100000,-0.100000)"
fill="#000000" stroke="none">
<path d="M3278 6345 c-2 -2 -35 -7 -73 -10 -310 -25 -691 -137 -992 -291 -161
-83 -419 -246 -463 -294 -3 -3 -39 -32 -79 -65 -104 -82 -291 -272 -382 -385
-74 -93 -199 -266 -199 -275 0 -2 -16 -30 -36 -61 -46 -72 -143 -261 -174
-339 -13 -33 -27 -64 -30 -70 -14 -19 -101 -296 -125 -398 -24 -103 -29 -128
-40 -202 -3 -23 -8 -52 -10 -65 -20 -103 -28 -529 -12 -685 18 -183 72 -428
136 -616 217 -643 659 -1190 1246 -1541 100 -59 338 -178 358 -178 7 0 17 -4
23 -9 20 -18 341 -123 424 -137 14 -3 41 -9 60 -14 19 -4 69 -14 110 -20 41
-7 82 -14 91 -15 69 -13 207 -20 389 -20 258 0 323 6 565 50 17 3 82 19 145
35 317 80 607 211 894 402 187 126 466 380 596 544 115 146 215 290 273 394
68 124 107 201 132 260 15 36 33 79 40 95 52 119 126 367 149 499 3 16 10 52
15 80 28 144 36 248 36 486 0 323 -29 535 -113 815 -50 168 -83 251 -168 431
-208 439 -572 854 -989 1129 -143 94 -176 113 -320 184 -285 140 -603 236
-880 267 -27 3 -63 8 -80 11 -35 6 -511 14 -517 8z m417 -1378 c11 -2 42 -8
70 -12 27 -4 88 -18 135 -31 409 -117 749 -402 930 -779 46 -97 87 -205 97
-254 2 -14 6 -28 8 -31 2 -4 7 -22 10 -41 3 -19 11 -59 17 -89 13 -60 17 -348
5 -420 -15 -98 -19 -118 -38 -190 -36 -136 -129 -350 -175 -401 -8 -8 -14 -19
-14 -23 0 -14 -108 -151 -172 -217 -125 -130 -280 -244 -430 -313 -81 -39
-263 -102 -318 -111 -19 -3 -42 -8 -50 -10 -69 -19 -327 -27 -450 -13 -426 48
-824 298 -1063 668 -30 47 -64 104 -76 128 -58 114 -121 303 -136 407 -4 22
-9 51 -11 65 -10 49 -12 306 -3 370 16 113 19 134 30 175 96 375 311 681 629
892 180 120 434 213 630 230 36 3 67 7 69 10 6 4 278 -4 306 -10z"/>
</g>
</svg>
