<?xml version="1.0" standalone="no"?>
<!DOCTYPE svg PUBLIC "-//W3C//DTD SVG 20010904//EN"
 "http://www.w3.org/TR/2001/REC-SVG-20010904/DTD/svg10.dtd">
<svg version="1.0" xmlns="http://www.w3.org/2000/svg"
 width="700.000000pt" height="700.000000pt" viewBox="0 0 700.000000 700.000000"
 preserveAspectRatio="xMidYMid meet">
<metadata>
Created by potrace 1.14, written by Peter Selinger 2001-2017
</metadata>
<g transform="translate(0.000000,700.000000) scale(0.100000,-0.100000)"
fill="#000000" stroke="none">
<path d="M808 6984 c-340 -61 -630 -307 -748 -632 -64 -177 -61 5 -58 -2892
l3 -2635 22 -77 c106 -370 359 -622 726 -721 l82 -22 2665 0 2665 0 81 22
c368 98 629 359 727 727 l22 81 0 2665 0 2665 -22 81 c-97 366 -351 621 -721
727 l-77 22 -2645 2 c-2221 1 -2657 -1 -2722 -13z m1797 -2733 l530 -118 3
-476 2 -477 580 0 580 0 0 345 c0 293 2 345 14 345 19 0 2229 -489 2234 -495
5 -5 -176 -95 -1411 -705 l-979 -483 -1631 518 c-898 285 -1635 521 -1640 525
-12 10 1145 1139 1168 1139 11 0 259 -53 550 -118z"/>
</g>
</svg>
