<svg width="1280" height="790" viewBox="0 0 1280 790" fill="none" xmlns="http://www.w3.org/2000/svg">
<g clip-path="url(#clip0)">
<g opacity="0.45">
<path opacity="0.45" d="M79 -2128.36C217.867 -2077.41 496.797 -1945.95 345.906 -1628C195.016 -1310.05 -337.953 -1456.58 -337.953 -757.219C-337.953 -57.8594 1033.97 -532.552 1033.97 412.188C1033.97 1356.93 -337.953 742.625 -337.953 1807.27C-337.953 2508.76 902.156 2134.06 902.156 3351.94C902.156 3872.52 350.32 3935.04 350.32 4495.75" stroke="url(#paint0_linear)" stroke-width="2" stroke-linecap="round" stroke-dasharray="1 24"/>
<path opacity="0.9" d="M99 -2128.36C237.867 -2077.41 516.797 -1945.95 365.906 -1628C215.016 -1310.05 -317.953 -1456.58 -317.953 -757.219C-317.953 -57.8594 1053.97 -532.552 1053.97 412.188C1053.97 1356.93 -317.953 742.625 -317.953 1807.27C-317.953 2508.76 922.156 2134.06 922.156 3351.94C922.156 3872.52 370.32 3935.04 370.32 4495.75" stroke="url(#paint1_linear)" stroke-width="2" stroke-linecap="round" stroke-dasharray="1 24"/>
<path opacity="0.8" d="M119 -2128.36C257.867 -2077.41 536.797 -1945.95 385.906 -1628C235.016 -1310.05 -297.953 -1456.58 -297.953 -757.219C-297.953 -57.8594 1073.97 -532.552 1073.97 412.188C1073.97 1356.93 -297.953 742.625 -297.953 1807.27C-297.953 2508.76 942.156 2134.06 942.156 3351.94C942.156 3872.52 390.32 3935.04 390.32 4495.75" stroke="url(#paint2_linear)" stroke-width="2" stroke-linecap="round" stroke-dasharray="1 24"/>
<path opacity="0.7" d="M139 -2128.36C277.867 -2077.41 556.797 -1945.95 405.906 -1628C255.016 -1310.05 -277.953 -1456.58 -277.953 -757.219C-277.953 -57.8594 1093.97 -532.552 1093.97 412.188C1093.97 1356.93 -277.953 742.625 -277.953 1807.27C-277.953 2508.76 962.156 2134.06 962.156 3351.94C962.156 3872.52 410.32 3935.04 410.32 4495.75" stroke="url(#paint3_linear)" stroke-width="2" stroke-linecap="round" stroke-dasharray="1 24"/>
<path opacity="0.6" d="M159 -2128.36C297.867 -2077.41 576.797 -1945.95 425.906 -1628C275.016 -1310.05 -257.953 -1456.58 -257.953 -757.219C-257.953 -57.8594 1113.97 -532.552 1113.97 412.188C1113.97 1356.93 -257.953 742.625 -257.953 1807.27C-257.953 2508.76 982.156 2134.06 982.156 3351.94C982.156 3872.52 430.32 3935.04 430.32 4495.75" stroke="url(#paint4_linear)" stroke-width="2" stroke-linecap="round" stroke-dasharray="1 24"/>
<path opacity="0.5" d="M179 -2128.36C317.867 -2077.41 596.797 -1945.95 445.906 -1628C295.016 -1310.05 -237.953 -1456.58 -237.953 -757.219C-237.953 -57.8594 1133.97 -532.552 1133.97 412.188C1133.97 1356.93 -237.953 742.625 -237.953 1807.27C-237.953 2508.76 1002.16 2134.06 1002.16 3351.94C1002.16 3872.52 450.32 3935.04 450.32 4495.75" stroke="url(#paint5_linear)" stroke-width="2" stroke-linecap="round" stroke-dasharray="1 24"/>
<path opacity="0.4" d="M199 -2128.36C337.867 -2077.41 616.797 -1945.95 465.906 -1628C315.016 -1310.05 -217.953 -1456.58 -217.953 -757.219C-217.953 -57.8594 1153.97 -532.552 1153.97 412.188C1153.97 1356.93 -217.953 742.625 -217.953 1807.27C-217.953 2508.76 1022.16 2134.06 1022.16 3351.94C1022.16 3872.52 470.32 3935.04 470.32 4495.75" stroke="url(#paint6_linear)" stroke-width="2" stroke-linecap="round" stroke-dasharray="1 24"/>
<path opacity="0.3" d="M219 -2128.36C357.867 -2077.41 636.797 -1945.95 485.906 -1628C335.016 -1310.05 -197.953 -1456.58 -197.953 -757.219C-197.953 -57.8594 1173.97 -532.552 1173.97 412.188C1173.97 1356.93 -197.953 742.625 -197.953 1807.27C-197.953 2508.76 1042.16 2134.06 1042.16 3351.94C1042.16 3872.52 490.32 3935.04 490.32 4495.75" stroke="url(#paint7_linear)" stroke-width="2" stroke-linecap="round" stroke-dasharray="1 24"/>
<path opacity="0.2" d="M239 -2128.36C377.867 -2077.41 656.797 -1945.95 505.906 -1628C355.016 -1310.05 -177.953 -1456.58 -177.953 -757.219C-177.953 -57.8594 1193.97 -532.552 1193.97 412.188C1193.97 1356.93 -177.953 742.625 -177.953 1807.27C-177.953 2508.76 1062.16 2134.06 1062.16 3351.94C1062.16 3872.52 510.32 3935.04 510.32 4495.75" stroke="url(#paint8_linear)" stroke-width="2" stroke-linecap="round" stroke-dasharray="1 24"/>
<path opacity="0.1" d="M259 -2128.36C397.867 -2077.41 676.797 -1945.95 525.906 -1628C375.016 -1310.05 -157.953 -1456.58 -157.953 -757.219C-157.953 -57.8594 1213.97 -532.552 1213.97 412.188C1213.97 1356.93 -157.953 742.625 -157.953 1807.27C-157.953 2508.76 1082.16 2134.06 1082.16 3351.94C1082.16 3872.52 530.32 3935.04 530.32 4495.75" stroke="url(#paint9_linear)" stroke-width="2" stroke-linecap="round" stroke-dasharray="1 24"/>
</g>
</g>
<g clip-path="url(#clip1)">
<g opacity="0.45">
<path opacity="0.45" d="M495 -904.359C633.867 -853.406 912.797 -721.953 761.906 -404C611.016 -86.0469 78.0469 -232.578 78.0469 466.781C78.0469 1166.14 1449.97 691.448 1449.97 1636.19C1449.97 2580.93 78.0469 1966.62 78.0469 3031.27C78.0469 3732.76 1318.16 3358.06 1318.16 4575.94C1318.16 5096.52 766.32 5159.04 766.32 5719.75" stroke="url(#paint10_linear)" stroke-width="2" stroke-linecap="round" stroke-dasharray="1 24"/>
<path opacity="0.9" d="M515 -904.359C653.867 -853.406 932.797 -721.953 781.906 -404C631.016 -86.0469 98.0469 -232.578 98.0469 466.781C98.0469 1166.14 1469.97 691.448 1469.97 1636.19C1469.97 2580.93 98.0469 1966.62 98.0469 3031.27C98.0469 3732.76 1338.16 3358.06 1338.16 4575.94C1338.16 5096.52 786.32 5159.04 786.32 5719.75" stroke="url(#paint11_linear)" stroke-width="2" stroke-linecap="round" stroke-dasharray="1 24"/>
<path opacity="0.8" d="M535 -904.359C673.867 -853.406 952.797 -721.953 801.906 -404C651.016 -86.0469 118.047 -232.578 118.047 466.781C118.047 1166.14 1489.97 691.448 1489.97 1636.19C1489.97 2580.93 118.047 1966.62 118.047 3031.27C118.047 3732.76 1358.16 3358.06 1358.16 4575.94C1358.16 5096.52 806.32 5159.04 806.32 5719.75" stroke="url(#paint12_linear)" stroke-width="2" stroke-linecap="round" stroke-dasharray="1 24"/>
<path opacity="0.7" d="M555 -904.359C693.867 -853.406 972.797 -721.953 821.906 -404C671.016 -86.0469 138.047 -232.578 138.047 466.781C138.047 1166.14 1509.97 691.448 1509.97 1636.19C1509.97 2580.93 138.047 1966.62 138.047 3031.27C138.047 3732.76 1378.16 3358.06 1378.16 4575.94C1378.16 5096.52 826.32 5159.04 826.32 5719.75" stroke="url(#paint13_linear)" stroke-width="2" stroke-linecap="round" stroke-dasharray="1 24"/>
<path opacity="0.6" d="M575 -904.359C713.867 -853.406 992.797 -721.953 841.906 -404C691.016 -86.0469 158.047 -232.578 158.047 466.781C158.047 1166.14 1529.97 691.448 1529.97 1636.19C1529.97 2580.93 158.047 1966.62 158.047 3031.27C158.047 3732.76 1398.16 3358.06 1398.16 4575.94C1398.16 5096.52 846.32 5159.04 846.32 5719.75" stroke="url(#paint14_linear)" stroke-width="2" stroke-linecap="round" stroke-dasharray="1 24"/>
<path opacity="0.5" d="M595 -904.359C733.867 -853.406 1012.8 -721.953 861.906 -404C711.016 -86.0469 178.047 -232.578 178.047 466.781C178.047 1166.14 1549.97 691.448 1549.97 1636.19C1549.97 2580.93 178.047 1966.62 178.047 3031.27C178.047 3732.76 1418.16 3358.06 1418.16 4575.94C1418.16 5096.52 866.32 5159.04 866.32 5719.75" stroke="url(#paint15_linear)" stroke-width="2" stroke-linecap="round" stroke-dasharray="1 24"/>
<path opacity="0.4" d="M615 -904.359C753.867 -853.406 1032.8 -721.953 881.906 -404C731.016 -86.0469 198.047 -232.578 198.047 466.781C198.047 1166.14 1569.97 691.448 1569.97 1636.19C1569.97 2580.93 198.047 1966.62 198.047 3031.27C198.047 3732.76 1438.16 3358.06 1438.16 4575.94C1438.16 5096.52 886.32 5159.04 886.32 5719.75" stroke="url(#paint16_linear)" stroke-width="2" stroke-linecap="round" stroke-dasharray="1 24"/>
<path opacity="0.3" d="M635 -904.359C773.867 -853.406 1052.8 -721.953 901.906 -404C751.016 -86.0469 218.047 -232.578 218.047 466.781C218.047 1166.14 1589.97 691.448 1589.97 1636.19C1589.97 2580.93 218.047 1966.62 218.047 3031.27C218.047 3732.76 1458.16 3358.06 1458.16 4575.94C1458.16 5096.52 906.32 5159.04 906.32 5719.75" stroke="url(#paint17_linear)" stroke-width="2" stroke-linecap="round" stroke-dasharray="1 24"/>
<path opacity="0.2" d="M655 -904.359C793.867 -853.406 1072.8 -721.953 921.906 -404C771.016 -86.0469 238.047 -232.578 238.047 466.781C238.047 1166.14 1609.97 691.448 1609.97 1636.19C1609.97 2580.93 238.047 1966.62 238.047 3031.27C238.047 3732.76 1478.16 3358.06 1478.16 4575.94C1478.16 5096.52 926.32 5159.04 926.32 5719.75" stroke="url(#paint18_linear)" stroke-width="2" stroke-linecap="round" stroke-dasharray="1 24"/>
<path opacity="0.1" d="M675 -904.359C813.867 -853.406 1092.8 -721.953 941.906 -404C791.016 -86.0469 258.047 -232.578 258.047 466.781C258.047 1166.14 1629.97 691.448 1629.97 1636.19C1629.97 2580.93 258.047 1966.62 258.047 3031.27C258.047 3732.76 1498.16 3358.06 1498.16 4575.94C1498.16 5096.52 946.32 5159.04 946.32 5719.75" stroke="url(#paint19_linear)" stroke-width="2" stroke-linecap="round" stroke-dasharray="1 24"/>
</g>
</g>
<defs>
<linearGradient id="paint0_linear" x1="348.008" y1="-2128.36" x2="994.853" y2="3998.59" gradientUnits="userSpaceOnUse">
<stop stop-color="#D48343"/>
<stop offset="1" stop-color="#D48343"/>
</linearGradient>
<linearGradient id="paint1_linear" x1="368.008" y1="-2128.36" x2="1014.85" y2="3998.59" gradientUnits="userSpaceOnUse">
<stop stop-color="#D48343"/>
<stop offset="1" stop-color="#D48343"/>
</linearGradient>
<linearGradient id="paint2_linear" x1="388.008" y1="-2128.36" x2="1034.85" y2="3998.59" gradientUnits="userSpaceOnUse">
<stop stop-color="#D48343"/>
<stop offset="1" stop-color="#D48343"/>
</linearGradient>
<linearGradient id="paint3_linear" x1="408.008" y1="-2128.36" x2="1054.85" y2="3998.59" gradientUnits="userSpaceOnUse">
<stop stop-color="#D48343"/>
<stop offset="1" stop-color="#D48343"/>
</linearGradient>
<linearGradient id="paint4_linear" x1="428.008" y1="-2128.36" x2="1074.85" y2="3998.59" gradientUnits="userSpaceOnUse">
<stop stop-color="#D48343"/>
<stop offset="1" stop-color="#D48343"/>
</linearGradient>
<linearGradient id="paint5_linear" x1="448.008" y1="-2128.36" x2="1094.85" y2="3998.59" gradientUnits="userSpaceOnUse">
<stop stop-color="#D48343"/>
<stop offset="1" stop-color="#D48343"/>
</linearGradient>
<linearGradient id="paint6_linear" x1="468.008" y1="-2128.36" x2="1114.85" y2="3998.59" gradientUnits="userSpaceOnUse">
<stop stop-color="#D48343"/>
<stop offset="1" stop-color="#D48343"/>
</linearGradient>
<linearGradient id="paint7_linear" x1="488.008" y1="-2128.36" x2="1134.85" y2="3998.59" gradientUnits="userSpaceOnUse">
<stop stop-color="#D48343"/>
<stop offset="1" stop-color="#D48343"/>
</linearGradient>
<linearGradient id="paint8_linear" x1="508.008" y1="-2128.36" x2="1154.85" y2="3998.59" gradientUnits="userSpaceOnUse">
<stop stop-color="#D48343"/>
<stop offset="1" stop-color="#D48343"/>
</linearGradient>
<linearGradient id="paint9_linear" x1="528.008" y1="-2128.36" x2="1174.85" y2="3998.59" gradientUnits="userSpaceOnUse">
<stop stop-color="#D48343"/>
<stop offset="1" stop-color="#D48343"/>
</linearGradient>
<linearGradient id="paint10_linear" x1="764.008" y1="-904.359" x2="1410.85" y2="5222.59" gradientUnits="userSpaceOnUse">
<stop stop-color="#D48343"/>
<stop offset="1" stop-color="#D48343"/>
</linearGradient>
<linearGradient id="paint11_linear" x1="784.008" y1="-904.359" x2="1430.85" y2="5222.59" gradientUnits="userSpaceOnUse">
<stop stop-color="#D48343"/>
<stop offset="1" stop-color="#D48343"/>
</linearGradient>
<linearGradient id="paint12_linear" x1="804.008" y1="-904.359" x2="1450.85" y2="5222.59" gradientUnits="userSpaceOnUse">
<stop stop-color="#D48343"/>
<stop offset="1" stop-color="#D48343"/>
</linearGradient>
<linearGradient id="paint13_linear" x1="824.008" y1="-904.359" x2="1470.85" y2="5222.59" gradientUnits="userSpaceOnUse">
<stop stop-color="#D48343"/>
<stop offset="1" stop-color="#D48343"/>
</linearGradient>
<linearGradient id="paint14_linear" x1="844.008" y1="-904.359" x2="1490.85" y2="5222.59" gradientUnits="userSpaceOnUse">
<stop stop-color="#D48343"/>
<stop offset="1" stop-color="#D48343"/>
</linearGradient>
<linearGradient id="paint15_linear" x1="864.008" y1="-904.359" x2="1510.85" y2="5222.59" gradientUnits="userSpaceOnUse">
<stop stop-color="#D48343"/>
<stop offset="1" stop-color="#D48343"/>
</linearGradient>
<linearGradient id="paint16_linear" x1="884.008" y1="-904.359" x2="1530.85" y2="5222.59" gradientUnits="userSpaceOnUse">
<stop stop-color="#D48343"/>
<stop offset="1" stop-color="#D48343"/>
</linearGradient>
<linearGradient id="paint17_linear" x1="904.008" y1="-904.359" x2="1550.85" y2="5222.59" gradientUnits="userSpaceOnUse">
<stop stop-color="#D48343"/>
<stop offset="1" stop-color="#D48343"/>
</linearGradient>
<linearGradient id="paint18_linear" x1="924.008" y1="-904.359" x2="1570.85" y2="5222.59" gradientUnits="userSpaceOnUse">
<stop stop-color="#D48343"/>
<stop offset="1" stop-color="#D48343"/>
</linearGradient>
<linearGradient id="paint19_linear" x1="944.008" y1="-904.359" x2="1590.85" y2="5222.59" gradientUnits="userSpaceOnUse">
<stop stop-color="#D48343"/>
<stop offset="1" stop-color="#D48343"/>
</linearGradient>
<clipPath id="clip0">
<rect width="1560" height="800" fill="white" transform="translate(-342)"/>
</clipPath>
<clipPath id="clip1">
<rect width="1560" height="800" fill="white" transform="translate(74)"/>
</clipPath>
</defs>
</svg>
