<svg width="1680" height="130" viewBox="0 0 1680 130" fill="none" xmlns="http://www.w3.org/2000/svg">
    <mask id="header-background-mask0" mask-type="alpha" maskUnits="userSpaceOnUse" x="0" y="0" width="1680" height="130">
        <rect width="1680" height="130" fill="white"/>
    </mask>
    <g mask="url(#header-background-mask0)">
        <rect width="1680" height="130" fill="white"/>
        <g opacity="0.1">
            <path d="M339.68 3.83482C340.221 3.83427 340.757 3.94046 341.258 4.14719C341.758 4.35392 342.213 4.65715 342.596 5.03969C342.979 5.42222 343.283 5.87651 343.491 6.37659C343.699 6.87667 343.806 7.41273 343.806 7.95419C343.806 8.49623 343.7 9.03307 343.493 9.53391C343.285 10.0348 342.981 10.4898 342.598 10.8731C342.215 11.2564 341.76 11.5606 341.259 11.768C340.758 11.9754 340.222 12.0821 339.68 12.082C339.138 12.0818 338.601 11.9748 338.101 11.7673C337.6 11.5597 337.146 11.2556 336.763 10.8723C336.38 10.489 336.076 10.0339 335.869 9.53326C335.662 9.03258 335.556 8.496 335.556 7.95419C335.557 6.86113 335.991 5.81312 336.765 5.04061C337.538 4.26809 338.586 3.83433 339.68 3.83482Z" fill="black"/>
            <path opacity="0.76" d="M230.281 -10.831C230.281 -10.5964 230.373 -10.3711 230.537 -10.2039L249.32 8.70766C249.403 8.79176 249.501 8.8585 249.61 8.90401C249.719 8.94951 249.835 8.97286 249.953 8.97265L339.938 8.97265C340.054 8.97312 340.17 8.95046 340.278 8.90594C340.386 8.86143 340.485 8.79593 340.567 8.71327C340.65 8.63062 340.715 8.53245 340.76 8.42436C340.804 8.31628 340.827 8.20045 340.827 8.08356C340.827 7.9665 340.805 7.8504 340.76 7.74211C340.716 7.63382 340.65 7.53547 340.568 7.45255C340.485 7.36964 340.387 7.30387 340.279 7.25906C340.171 7.21424 340.055 7.19118 339.938 7.19134L250.327 7.19133L231.8 -11.4611C231.633 -11.6264 231.407 -11.7192 231.171 -11.7197C230.936 -11.7202 230.71 -11.6284 230.541 -11.4639C230.376 -11.2948 230.282 -11.0678 230.281 -10.831Z" fill="black"/>
            <path d="M315.908 79.6591C315.909 80.7555 316.346 81.8065 317.121 82.5815C317.897 83.3565 318.948 83.7922 320.044 83.793C321.141 83.7926 322.193 83.3571 322.969 82.5821C323.745 81.8071 324.182 80.756 324.184 79.6591C324.182 78.5624 323.745 77.5112 322.969 76.7362C322.193 75.9612 321.141 75.5257 320.044 75.5252C318.948 75.5261 317.897 75.9618 317.121 76.7368C316.346 77.5118 315.909 78.5628 315.908 79.6591ZM322.51 79.6591C322.509 80.3121 322.248 80.9378 321.786 81.3988C321.324 81.8598 320.697 82.1184 320.044 82.1178C319.392 82.1177 318.766 81.8588 318.304 81.3979C317.843 80.9369 317.583 80.3116 317.582 79.6591C317.583 79.0069 317.843 78.3819 318.305 77.9211C318.767 77.4603 319.392 77.2013 320.044 77.2007C320.697 77.2006 321.323 77.4593 321.785 77.9202C322.248 78.381 322.508 79.0064 322.51 79.6591Z" fill="black"/>
            <path d="M318.711 33.9798C318.712 34.9532 319.1 35.8863 319.789 36.5742C320.477 37.2621 321.411 37.6485 322.384 37.6484C322.867 37.6495 323.346 37.5555 323.792 37.3718C324.239 37.188 324.645 36.9181 324.987 36.5774C325.329 36.2368 325.601 35.832 325.786 35.3863C325.972 34.9406 326.068 34.4627 326.069 33.9798C326.068 33.0033 325.68 32.0671 324.989 31.377C324.298 30.6869 323.361 30.2993 322.384 30.2994C321.41 30.3015 320.475 30.6902 319.787 31.3802C319.098 32.0701 318.711 33.005 318.711 33.9798ZM325.308 33.9798C325.305 34.7529 324.996 35.4933 324.448 36.0386C323.899 36.5839 323.158 36.8896 322.384 36.8887C321.613 36.888 320.873 36.5814 320.327 36.0361C319.781 35.4909 319.473 34.7515 319.471 33.9798C319.47 33.2063 319.777 32.4642 320.323 31.9165C320.87 31.3688 321.611 31.0603 322.384 31.0589C323.159 31.0586 323.903 31.3662 324.451 31.914C324.999 32.4618 325.308 33.2048 325.308 33.9798Z" fill="black"/>
            <path d="M318.255 33.9854C318.258 35.08 318.694 36.1292 319.468 36.9029C320.242 37.6766 321.292 38.1119 322.386 38.1133C323.482 38.1136 324.534 37.6792 325.311 36.9055C326.087 36.1317 326.525 35.0816 326.529 33.9854C326.528 32.8874 326.091 31.8346 325.314 31.0584C324.537 30.2822 323.484 29.846 322.386 29.8455C321.29 29.8477 320.239 30.2848 319.464 31.061C318.69 31.8372 318.255 32.889 318.255 33.9854ZM324.852 33.9854C324.849 34.637 324.588 35.2607 324.125 35.7199C323.663 36.1791 323.038 36.4363 322.386 36.4351C321.736 36.4348 321.113 36.1769 320.652 35.7177C320.192 35.2585 319.933 34.6356 319.931 33.9854C319.93 33.3335 320.188 32.7079 320.649 32.2464C321.109 31.7848 321.734 31.5249 322.386 31.524C323.04 31.5235 323.666 31.7826 324.129 32.2442C324.591 32.7057 324.851 33.3321 324.852 33.9854Z" fill="black"/>
            <path d="M287.007 94.8977C287.009 95.873 287.397 96.8079 288.087 97.4977C288.776 98.1874 289.711 98.5759 290.686 98.5781C291.662 98.5761 292.597 98.1877 293.286 97.4978C293.976 96.808 294.364 95.8731 294.365 94.8977C294.365 93.922 293.977 92.9864 293.287 92.2963C292.597 91.6063 291.662 91.2182 290.686 91.2173C289.711 91.2184 288.775 91.6066 288.086 92.2966C287.396 92.9866 287.008 93.9221 287.007 94.8977ZM293.604 94.8977C293.603 95.6716 293.296 96.4134 292.749 96.9609C292.202 97.5083 291.46 97.8166 290.686 97.8183C289.913 97.8161 289.171 97.5076 288.625 96.9603C288.078 96.413 287.77 95.6714 287.768 94.8977C287.77 94.1242 288.077 93.3826 288.624 92.8356C289.171 92.2886 289.913 91.9809 290.686 91.9798C291.46 91.9804 292.202 92.288 292.749 92.8351C293.296 93.3821 293.604 94.124 293.604 94.8977Z" fill="black"/>
            <path d="M286.551 94.8956C286.551 95.9928 286.987 97.0448 287.763 97.8208C288.539 98.5969 289.59 99.0335 290.687 99.0352C291.784 99.0335 292.836 98.5969 293.612 97.8208C294.387 97.0448 294.823 95.9928 294.824 94.8956C294.823 93.7989 294.386 92.7476 293.611 91.9721C292.835 91.1966 291.784 90.7603 290.687 90.7588C289.591 90.7603 288.539 91.1966 287.764 91.9721C286.988 92.7476 286.552 93.7989 286.551 94.8956ZM293.149 94.8956C293.148 95.5482 292.889 96.1739 292.427 96.6354C291.966 97.0968 291.34 97.3564 290.687 97.3571C290.035 97.3564 289.409 97.0968 288.948 96.6354C288.486 96.1739 288.227 95.5482 288.226 94.8956C288.227 94.2432 288.487 93.6178 288.948 93.1565C289.41 92.6951 290.035 92.4354 290.687 92.4342C291.34 92.4354 291.965 92.6951 292.427 93.1565C292.888 93.6178 293.148 94.2432 293.149 94.8956Z" fill="black"/>
            <path d="M299.686 64.434C299.686 65.4109 300.075 66.3476 300.766 67.0382C301.456 67.7288 302.393 68.1169 303.37 68.1172C304.346 68.1157 305.282 67.727 305.971 67.0365C306.661 66.346 307.049 65.41 307.049 64.434C307.048 63.4587 306.66 62.5238 305.97 61.8343C305.281 61.1448 304.345 60.7571 303.37 60.7564C302.394 60.7559 301.458 61.143 300.767 61.8326C300.076 62.5222 299.687 63.4579 299.686 64.434ZM306.288 64.434C306.287 65.2078 305.979 65.9495 305.432 66.4969C304.885 67.0443 304.144 67.3528 303.37 67.3547C302.595 67.354 301.853 67.0461 301.305 66.4986C300.757 65.9512 300.448 65.2087 300.447 64.434C300.448 63.66 300.757 62.9183 301.305 62.3718C301.853 61.8253 302.596 61.5186 303.37 61.5192C304.143 61.5198 304.885 61.8271 305.432 62.3735C305.979 62.9199 306.287 63.6609 306.288 64.434Z" fill="black"/>
            <path d="M299.229 64.4385C299.231 65.5364 299.668 66.5888 300.445 67.3649C301.221 68.1409 302.274 68.5772 303.372 68.5781C304.469 68.5763 305.521 68.1395 306.296 67.3635C307.072 66.5875 307.508 65.5356 307.509 64.4385C307.507 63.3422 307.07 62.2913 306.295 61.5164C305.519 60.7414 304.468 60.3057 303.372 60.3047C302.275 60.3047 301.222 60.74 300.446 61.515C299.669 62.29 299.232 63.3414 299.229 64.4385ZM305.832 64.4385C305.832 65.0909 305.572 65.7165 305.111 66.178C304.65 66.6394 304.024 66.899 303.372 66.9C302.719 66.8999 302.092 66.6407 301.63 66.1792C301.168 65.7178 300.907 65.0917 300.906 64.4385C300.908 63.7856 301.168 63.16 301.63 62.699C302.093 62.238 302.719 61.9793 303.372 61.9798C304.024 61.9802 304.649 62.2393 305.111 62.7003C305.572 63.1612 305.831 63.7864 305.832 64.4385Z" fill="black"/>
            <path d="M162.803 80.328C162.804 81.0557 163.02 81.7667 163.425 82.3714C163.83 82.976 164.405 83.447 165.077 83.7249C165.75 84.0028 166.489 84.0752 167.203 83.9327C167.916 83.7902 168.572 83.4394 169.086 82.9245C169.6 82.4097 169.95 81.754 170.092 81.0403C170.233 80.3265 170.16 79.5869 169.881 78.9148C169.603 78.2426 169.131 77.6683 168.526 77.2642C167.921 76.8601 167.209 76.6445 166.482 76.6447C165.506 76.6461 164.57 77.0347 163.88 77.7253C163.191 78.4159 162.803 79.352 162.803 80.328ZM169.401 80.328C169.401 80.9051 169.229 81.4692 168.908 81.9489C168.587 82.4285 168.131 82.8022 167.598 83.0228C167.065 83.2434 166.478 83.301 165.912 83.1882C165.346 83.0753 164.826 82.7972 164.418 82.389C164.01 81.9808 163.732 81.4609 163.62 80.8948C163.507 80.3288 163.565 79.7421 163.786 79.2089C164.007 78.6757 164.381 78.2199 164.861 77.8992C165.34 77.5785 165.905 77.4073 166.482 77.4072C167.256 77.4093 167.997 77.7178 168.544 78.2652C169.091 78.8125 169.399 79.5541 169.401 80.328Z" fill="black"/>
            <path d="M162.346 80.3334C162.347 81.1517 162.59 81.9515 163.045 82.6316C163.5 83.3117 164.146 83.8418 164.902 84.1546C165.658 84.4673 166.49 84.5489 167.293 84.3889C168.095 84.2289 168.832 83.8346 169.411 83.2558C169.989 82.677 170.383 81.9397 170.542 81.1371C170.702 80.3345 170.62 79.5026 170.306 78.7467C169.993 77.9908 169.462 77.3448 168.782 76.8904C168.101 76.4359 167.302 76.1934 166.483 76.1936C165.386 76.1955 164.335 76.6323 163.559 77.4084C162.784 78.1844 162.347 79.2363 162.346 80.3334ZM168.945 80.3334C168.944 80.8199 168.799 81.2952 168.528 81.6994C168.257 82.1035 167.873 82.4183 167.423 82.604C166.974 82.7897 166.479 82.838 166.002 82.7427C165.525 82.6473 165.087 82.4127 164.743 82.0685C164.399 81.7243 164.165 81.286 164.07 80.8088C163.976 80.3316 164.025 79.837 164.211 79.3876C164.397 78.9382 164.712 78.5541 165.117 78.2838C165.521 78.0135 165.997 77.8691 166.483 77.869C167.136 77.8697 167.762 78.1296 168.224 78.5917C168.686 79.0538 168.945 79.6803 168.945 80.3334Z" fill="black"/>
            <path d="M144.355 81.7181C144.355 82.4461 144.571 83.1577 144.976 83.7629C145.381 84.3681 145.956 84.8398 146.628 85.1183C147.301 85.3968 148.041 85.4697 148.755 85.3277C149.469 85.1857 150.125 84.8353 150.64 84.3206C151.155 83.8059 151.505 83.1501 151.648 82.4361C151.79 81.7222 151.717 80.9821 151.439 80.3093C151.161 79.6366 150.689 79.0614 150.084 78.6565C149.479 78.2517 148.768 78.0353 148.04 78.0347C147.556 78.0341 147.077 78.129 146.629 78.3139C146.182 78.4988 145.776 78.7701 145.434 79.1122C145.091 79.4543 144.82 79.8606 144.635 80.3078C144.45 80.7549 144.355 81.2341 144.355 81.7181ZM150.957 81.7181C150.957 82.2958 150.785 82.8603 150.464 83.3403C150.142 83.8203 149.686 84.1943 149.152 84.4148C148.618 84.6353 148.03 84.6925 147.464 84.5792C146.898 84.4659 146.377 84.1873 145.969 83.7784C145.561 83.3695 145.284 82.8487 145.171 82.282C145.059 81.7153 145.118 81.1281 145.339 80.5946C145.561 80.0612 145.936 79.6054 146.417 79.285C146.897 78.9645 147.462 78.7938 148.04 78.7945C148.423 78.7946 148.803 78.8703 149.158 79.0173C149.512 79.1644 149.834 79.3798 150.105 79.6514C150.376 79.9229 150.591 80.2453 150.737 80.5999C150.883 80.9545 150.958 81.3345 150.957 81.7181Z" fill="black"/>
            <path d="M143.887 81.7186C143.888 82.5371 144.131 83.3371 144.586 84.0174C145.041 84.6977 145.688 85.2279 146.444 85.5409C147.2 85.8539 148.032 85.9356 148.835 85.7758C149.638 85.616 150.375 85.2218 150.954 84.6431C151.533 84.0643 151.927 83.327 152.087 82.5243C152.247 81.7215 152.165 80.8894 151.852 80.1331C151.539 79.3768 151.009 78.7302 150.329 78.2751C149.648 77.8199 148.848 77.5767 148.03 77.5761C147.486 77.5758 146.947 77.6828 146.444 77.8909C145.942 78.099 145.485 78.4041 145.1 78.7888C144.715 79.1736 144.41 79.6303 144.202 80.133C143.994 80.6357 143.887 81.1745 143.887 81.7186ZM150.49 81.7186C150.49 82.2058 150.345 82.6819 150.074 83.0868C149.803 83.4917 149.418 83.8072 148.968 83.9933C148.517 84.1794 148.022 84.2278 147.544 84.1323C147.067 84.0369 146.628 83.8019 146.284 83.4571C145.94 83.1122 145.705 82.6732 145.611 82.1952C145.516 81.7173 145.566 81.222 145.752 80.7721C145.939 80.3222 146.256 79.9378 146.661 79.6676C147.066 79.3974 147.543 79.2535 148.03 79.2541C148.353 79.2541 148.674 79.3179 148.972 79.4418C149.271 79.5657 149.543 79.7473 149.771 79.9762C149.999 80.2051 150.181 80.4768 150.304 80.7758C150.427 81.0748 150.49 81.3952 150.49 81.7186Z" fill="black"/>
            <path d="M119.357 108.134C119.357 108.861 119.573 109.573 119.977 110.178C120.382 110.783 120.956 111.254 121.629 111.533C122.301 111.811 123.041 111.884 123.755 111.742C124.469 111.6 125.124 111.249 125.639 110.734C126.153 110.22 126.503 109.564 126.645 108.85C126.787 108.136 126.714 107.396 126.435 106.724C126.157 106.052 125.685 105.477 125.08 105.073C124.475 104.669 123.763 104.453 123.035 104.453C122.06 104.455 121.125 104.844 120.436 105.533C119.746 106.223 119.358 107.158 119.357 108.134ZM125.955 108.134C125.955 108.711 125.784 109.275 125.463 109.755C125.143 110.235 124.687 110.61 124.154 110.831C123.621 111.052 123.034 111.11 122.468 110.997C121.901 110.885 121.381 110.607 120.973 110.199C120.565 109.791 120.287 109.271 120.174 108.704C120.061 108.138 120.119 107.552 120.339 107.018C120.56 106.485 120.934 106.029 121.414 105.708C121.894 105.387 122.458 105.216 123.035 105.216C123.809 105.216 124.551 105.524 125.098 106.071C125.646 106.618 125.954 107.36 125.955 108.134Z" fill="black"/>
            <path d="M118.9 108.135C118.899 108.953 119.142 109.753 119.596 110.434C120.051 111.114 120.697 111.645 121.453 111.958C122.209 112.272 123.041 112.354 123.844 112.194C124.647 112.034 125.384 111.64 125.963 111.062C126.542 110.483 126.936 109.746 127.095 108.943C127.255 108.14 127.173 107.308 126.86 106.552C126.546 105.796 126.016 105.15 125.335 104.695C124.655 104.241 123.855 103.998 123.036 103.998C121.94 103.999 120.888 104.436 120.113 105.211C119.337 105.987 118.901 107.038 118.9 108.135ZM125.498 108.135C125.498 108.621 125.353 109.097 125.083 109.502C124.812 109.906 124.428 110.221 123.979 110.407C123.529 110.594 123.034 110.642 122.557 110.547C122.08 110.452 121.641 110.218 121.297 109.874C120.953 109.53 120.719 109.091 120.624 108.614C120.529 108.137 120.578 107.642 120.764 107.193C120.95 106.743 121.265 106.359 121.67 106.088C122.074 105.818 122.55 105.673 123.036 105.673C123.689 105.673 124.315 105.933 124.777 106.394C125.238 106.856 125.498 107.482 125.498 108.135Z" fill="black"/>
            <path d="M135.261 49.2096C135.261 50.0284 135.504 50.8286 135.959 51.5093C136.414 52.1899 137.061 52.7202 137.818 53.0332C138.574 53.3462 139.407 53.4278 140.209 53.2677C141.012 53.1076 141.75 52.7131 142.328 52.1338C142.907 51.5546 143.301 50.8167 143.46 50.0136C143.619 49.2105 143.537 48.3783 143.223 47.6221C142.909 46.8659 142.378 46.2198 141.697 45.7654C141.016 45.3111 140.215 45.069 139.396 45.0698C138.299 45.0715 137.248 45.5083 136.473 46.2845C135.697 47.0606 135.262 48.1126 135.261 49.2096ZM141.865 49.2096C141.866 49.697 141.722 50.1735 141.452 50.579C141.181 50.9846 140.797 51.3009 140.347 51.488C139.897 51.6751 139.402 51.7245 138.923 51.6301C138.445 51.5357 138.006 51.3016 137.661 50.9576C137.316 50.6135 137.08 50.1747 136.985 49.6969C136.889 49.2191 136.937 48.7237 137.123 48.2732C137.308 47.8226 137.624 47.4373 138.028 47.1658C138.433 46.8944 138.909 46.7491 139.396 46.7482C140.05 46.7477 140.677 47.0067 141.14 47.4682C141.603 47.9297 141.864 48.556 141.865 49.2096Z" fill="black"/>
            <path d="M309.753 106.006C310.295 106.006 310.832 106.112 311.333 106.32C311.834 106.527 312.289 106.831 312.672 107.214C313.056 107.598 313.36 108.053 313.567 108.554C313.774 109.055 313.88 109.592 313.88 110.134C313.878 111.227 313.443 112.275 312.669 113.047C311.895 113.818 310.846 114.251 309.753 114.25C308.661 114.251 307.613 113.818 306.839 113.046C306.066 112.274 305.631 111.226 305.63 110.134C305.629 109.592 305.735 109.055 305.942 108.555C306.149 108.054 306.453 107.599 306.836 107.215C307.219 106.832 307.674 106.528 308.174 106.32C308.675 106.113 309.211 106.006 309.753 106.006Z" fill="black"/>
            <path d="M262.167 75.5462C262.982 75.5468 263.779 75.7891 264.457 76.2427C265.135 76.6962 265.663 77.3406 265.974 78.0942C266.286 78.8478 266.367 79.6768 266.207 80.4765C266.048 81.2762 265.655 82.0107 265.078 82.5869C264.501 83.1632 263.766 83.5555 262.966 83.7142C262.166 83.8728 261.337 83.7908 260.584 83.4783C259.831 83.1659 259.187 82.6371 258.734 81.9589C258.281 81.2806 258.04 80.4834 258.04 79.6679C258.041 78.5742 258.476 77.5254 259.25 76.7524C260.024 75.9794 261.073 75.5456 262.167 75.5462Z" fill="black"/>
            <path d="M180.776 60.3078C181.592 60.3086 182.388 60.5512 183.066 61.0047C183.743 61.4583 184.271 62.1024 184.583 62.8559C184.894 63.6093 184.975 64.4382 184.816 65.2377C184.656 66.0373 184.264 66.7716 183.687 67.3479C183.11 67.9242 182.376 68.3166 181.576 68.4756C180.776 68.6345 179.947 68.5528 179.194 68.2409C178.441 67.9289 177.797 67.4006 177.344 66.7228C176.891 66.045 176.649 65.2481 176.649 64.4328C176.648 63.8909 176.755 63.3542 176.963 62.8535C177.17 62.3528 177.474 61.8979 177.857 61.5148C178.241 61.1316 178.696 60.8278 179.197 60.6207C179.698 60.4136 180.234 60.3073 180.776 60.3078Z" fill="black"/>
            <path d="M331.527 125.348C331.527 126.445 331.962 127.497 332.737 128.273C333.512 129.049 334.563 129.486 335.66 129.488C336.757 129.488 337.809 129.052 338.585 128.277C339.361 127.501 339.796 126.449 339.796 125.351C339.796 124.254 339.361 123.202 338.585 122.426C337.809 121.65 336.757 121.215 335.66 121.215C334.564 121.216 333.513 121.652 332.739 122.427C331.964 123.202 331.528 124.253 331.527 125.348ZM338.125 125.348C338.125 126.003 337.865 126.63 337.403 127.093C336.941 127.556 336.314 127.817 335.66 127.819C335.007 127.816 334.381 127.554 333.921 127.091C333.461 126.628 333.203 126.001 333.204 125.348C333.204 124.697 333.462 124.071 333.923 123.61C334.383 123.148 335.008 122.888 335.66 122.887C336.313 122.887 336.939 123.146 337.402 123.608C337.864 124.069 338.124 124.695 338.125 125.348Z" fill="black"/>
            <path d="M200.83 110.126C200.831 110.854 201.048 111.565 201.453 112.169C201.858 112.774 202.433 113.245 203.106 113.522C203.779 113.8 204.519 113.872 205.232 113.729C205.946 113.587 206.601 113.235 207.115 112.72C207.629 112.205 207.979 111.549 208.121 110.835C208.262 110.122 208.189 109.382 207.91 108.71C207.631 108.037 207.159 107.463 206.554 107.059C205.948 106.655 205.237 106.44 204.509 106.44C204.025 106.44 203.546 106.535 203.1 106.721C202.653 106.906 202.247 107.178 201.905 107.52C201.564 107.863 201.293 108.269 201.108 108.716C200.924 109.163 200.829 109.642 200.83 110.126ZM207.433 110.126C207.432 110.704 207.261 111.268 206.94 111.749C206.618 112.229 206.162 112.604 205.628 112.825C205.094 113.046 204.507 113.103 203.94 112.991C203.373 112.878 202.853 112.599 202.444 112.191C202.035 111.782 201.757 111.262 201.644 110.695C201.532 110.128 201.589 109.541 201.81 109.007C202.031 108.473 202.406 108.016 202.886 107.695C203.366 107.374 203.931 107.203 204.509 107.202C205.284 107.203 206.028 107.511 206.576 108.059C207.124 108.607 207.432 109.351 207.433 110.126Z" fill="black"/>
            <path d="M180.782 -0.612235C181.599 -0.611965 182.396 -0.369618 183.075 0.0842799C183.754 0.538177 184.282 1.18319 184.594 1.93763C184.906 2.69208 184.987 3.52207 184.827 4.32262C184.667 5.12318 184.273 5.85831 183.696 6.43499C183.118 7.01166 182.382 7.40398 181.581 7.56229C180.78 7.7206 179.95 7.6378 179.196 7.32435C178.443 7.01091 177.799 6.4809 177.346 5.80141C176.894 5.12191 176.653 4.32352 176.654 3.50714C176.655 2.9656 176.762 2.42939 176.97 1.92926C177.177 1.42913 177.482 0.974804 177.865 0.592266C178.248 0.209729 178.703 -0.0935457 179.204 -0.30023C179.704 -0.506913 180.241 -0.612885 180.782 -0.612235Z" fill="black"/>
            <path d="M328.924 45.6465C329.74 45.645 330.539 45.8858 331.219 46.3385C331.899 46.7912 332.429 47.4354 332.743 48.1895C333.056 48.9437 333.139 49.7739 332.981 50.5752C332.822 51.3764 332.43 52.1126 331.853 52.6907C331.276 53.2687 330.54 53.6626 329.739 53.8225C328.938 53.9824 328.108 53.901 327.353 53.5889C326.599 53.2767 325.953 52.7476 325.499 52.0687C325.046 51.3897 324.803 50.5912 324.803 49.7745C324.804 48.6812 325.238 47.633 326.011 46.8593C326.783 46.0855 327.83 45.6494 328.924 45.6465Z" fill="black"/>
            <path d="M339.68 4.59262C340.774 4.5928 341.823 5.02746 342.597 5.80099C343.371 6.57451 343.806 7.62358 343.806 8.7177C343.807 9.25951 343.7 9.7961 343.493 10.2967C343.285 10.7973 342.981 11.2521 342.598 11.635C342.215 12.0179 341.76 12.3214 341.259 12.5281C340.758 12.7349 340.221 12.8408 339.68 12.8398C339.138 12.8405 338.602 12.7344 338.101 12.5275C337.601 12.3206 337.146 12.0169 336.763 11.634C336.38 11.2512 336.076 10.7966 335.869 10.2961C335.662 9.7957 335.555 9.25928 335.556 8.7177C335.556 7.62405 335.991 6.57529 336.764 5.80182C337.537 5.02834 338.586 4.59344 339.68 4.59262Z" fill="black"/>
            <path opacity="0.78" d="M261.267 79.6596C261.266 79.7771 261.289 79.8936 261.333 80.0023C261.378 80.111 261.443 80.2097 261.526 80.2929C261.609 80.3761 261.708 80.4421 261.817 80.4871C261.925 80.532 262.041 80.5549 262.159 80.5547L316.738 80.5547C316.855 80.5545 316.971 80.5311 317.079 80.486C317.187 80.4408 317.285 80.3746 317.367 80.2914C317.449 80.2083 317.514 80.1096 317.559 80.0012C317.603 79.8927 317.625 79.7767 317.624 79.6596C317.624 79.5434 317.601 79.4282 317.556 79.3209C317.512 79.2136 317.446 79.1162 317.364 79.0341C317.282 78.9521 317.184 78.8871 317.076 78.8429C316.969 78.7987 316.854 78.7761 316.738 78.7765L262.159 78.7765C262.042 78.7756 261.927 78.7979 261.819 78.8418C261.711 78.8858 261.612 78.9506 261.529 79.0327C261.446 79.1147 261.381 79.2123 261.336 79.3199C261.29 79.4275 261.267 79.543 261.267 79.6596Z" fill="black"/>
            <path opacity="0.96" d="M179.897 64.4302C179.898 64.666 179.991 64.8923 180.156 65.0601L195.386 80.2942C195.554 80.4604 195.781 80.5534 196.018 80.5531L241.335 80.5531L256.305 95.5222C256.388 95.6051 256.486 95.6708 256.594 95.7152C256.702 95.7597 256.817 95.7821 256.934 95.7812L287.397 95.7812C287.514 95.7813 287.63 95.7585 287.738 95.7139C287.846 95.6693 287.944 95.6038 288.027 95.5212C288.11 95.4386 288.175 95.3406 288.22 95.2327C288.265 95.1247 288.288 95.009 288.288 94.8921C288.289 94.7751 288.266 94.6592 288.221 94.551C288.177 94.4429 288.111 94.3446 288.028 94.262C287.945 94.1793 287.847 94.1138 287.739 94.0694C287.63 94.0249 287.514 94.0024 287.397 94.003L257.3 94.003L242.338 79.0339C242.255 78.9511 242.156 78.8855 242.047 78.841C241.938 78.7965 241.822 78.7741 241.705 78.7749L196.385 78.7749L181.415 63.8001C181.291 63.6754 181.132 63.5903 180.96 63.5559C180.787 63.5214 180.608 63.5391 180.445 63.6066C180.282 63.6742 180.144 63.7885 180.046 63.9351C179.949 64.0818 179.897 64.2541 179.897 64.4302Z" fill="black"/>
            <path opacity="0.37" d="M167.47 82.4851C167.47 82.7193 167.563 82.9437 167.729 83.1095L180.151 95.5345C180.233 95.618 180.331 95.684 180.439 95.7285C180.547 95.773 180.664 95.7951 180.781 95.7935L210.872 95.7935L225.837 110.762C225.92 110.846 226.018 110.912 226.125 110.957C226.233 111.003 226.349 111.027 226.466 111.027L310.235 111.027C310.352 111.028 310.467 111.005 310.575 110.96C310.683 110.916 310.782 110.85 310.864 110.768C310.947 110.685 311.012 110.587 311.057 110.479C311.101 110.371 311.124 110.255 311.124 110.138C311.123 109.903 311.03 109.677 310.863 109.51C310.696 109.343 310.471 109.25 310.235 109.249L226.833 109.249L211.871 94.2743C211.703 94.1083 211.477 94.0153 211.241 94.0154L181.15 94.0154L168.987 81.855C168.905 81.7717 168.807 81.7057 168.699 81.6606C168.591 81.6155 168.475 81.5924 168.358 81.5924C168.241 81.5924 168.125 81.6155 168.017 81.6606C167.909 81.7057 167.811 81.7717 167.729 81.855C167.645 81.9374 167.58 82.0356 167.535 82.1439C167.491 82.2521 167.468 82.3681 167.47 82.4851Z" fill="black"/>
            <path opacity="0.91" d="M92.5028 -7.71406C92.5023 -7.47796 92.5956 -7.25127 92.7621 -7.08389L119.227 19.3737C119.309 19.457 119.407 19.5228 119.516 19.5673C119.624 19.6118 119.74 19.6341 119.857 19.6328L150.317 19.6328C150.435 19.6341 150.551 19.6118 150.659 19.5673C150.767 19.5228 150.865 19.457 150.948 19.3737L165.918 4.40466L180.779 4.40466C181.015 4.40466 181.241 4.31101 181.408 4.14427C181.575 3.97753 181.668 3.75138 181.668 3.51557C181.668 3.27976 181.575 3.0536 181.408 2.88686C181.241 2.72012 181.015 2.62647 180.779 2.62647L165.55 2.62647C165.314 2.62657 165.088 2.71965 164.92 2.88548L149.948 17.8545L120.226 17.8545L94.0206 -8.34415C93.8529 -8.50961 93.6269 -8.60242 93.3913 -8.60242C93.1558 -8.60242 92.9297 -8.50961 92.7621 -8.34415C92.5971 -8.17578 92.5041 -7.94982 92.5028 -7.71406Z" fill="black"/>
            <path opacity="0.54" d="M88.5014 -26.9457C88.5012 -26.8281 88.5243 -26.7117 88.5693 -26.603C88.6143 -26.4944 88.6804 -26.3958 88.7637 -26.3128L119.224 4.14336C119.306 4.22667 119.404 4.29254 119.513 4.33704C119.621 4.38154 119.737 4.40368 119.854 4.40227L150.315 4.40228C150.432 4.40364 150.548 4.38145 150.656 4.33695C150.764 4.29245 150.862 4.22664 150.945 4.14336L165.915 -10.8255L196.007 -10.8255C196.125 -10.8252 196.241 -10.8481 196.349 -10.8929C196.457 -10.9377 196.555 -11.0035 196.638 -11.0864C196.72 -11.1693 196.786 -11.2678 196.83 -11.3761C196.875 -11.4845 196.897 -11.6005 196.897 -11.7176L196.897 -26.5775L211.603 -41.2816L272.159 -41.2816C272.395 -41.2816 272.621 -41.3753 272.788 -41.542C272.955 -41.7088 273.048 -41.9348 273.048 -42.1706C273.048 -42.4065 272.955 -42.6326 272.788 -42.7994C272.621 -42.9661 272.395 -43.0598 272.159 -43.0598L211.237 -43.0598C211.12 -43.061 211.004 -43.0386 210.896 -42.9941C210.788 -42.9496 210.69 -42.8839 210.608 -42.8008L195.376 -27.5698C195.293 -27.4883 195.228 -27.3911 195.183 -27.2839C195.139 -27.1767 195.116 -27.0617 195.117 -26.9457L195.117 -12.604L165.547 -12.604C165.43 -12.6041 165.314 -12.581 165.206 -12.536C165.098 -12.491 164.999 -12.4251 164.917 -12.342L149.945 2.62409L120.223 2.62409L90.0221 -27.5698C89.9399 -27.6531 89.8419 -27.7192 89.7339 -27.7643C89.6259 -27.8094 89.51 -27.8328 89.3929 -27.8328C89.2758 -27.8328 89.1599 -27.8094 89.0519 -27.7643C88.9439 -27.7192 88.8459 -27.6531 88.7637 -27.5698C88.6801 -27.4889 88.6138 -27.3918 88.5687 -27.2846C88.5236 -27.1773 88.5007 -27.062 88.5014 -26.9457Z" fill="black"/>
            <path opacity="0.83" d="M149.427 79.6707C149.426 79.8473 149.478 80.0201 149.576 80.1672C149.673 80.3144 149.812 80.4292 149.975 80.4973C150.138 80.5654 150.318 80.5837 150.491 80.5498C150.664 80.5159 150.824 80.4314 150.949 80.3069L181.15 50.0979L195.642 50.0979L210.612 65.0728C210.78 65.2385 211.005 65.3317 211.241 65.3321L300.071 65.3321C300.188 65.3326 300.304 65.3099 300.412 65.2654C300.52 65.2209 300.618 65.1554 300.701 65.0727C300.784 64.9901 300.849 64.8919 300.894 64.7838C300.938 64.6757 300.961 64.5598 300.96 64.4429C300.961 64.3256 300.939 64.2093 300.895 64.1007C300.85 63.9921 300.785 63.8934 300.702 63.8102C300.619 63.7269 300.521 63.661 300.413 63.6159C300.304 63.5709 300.188 63.5478 300.071 63.5478L211.608 63.5478L196.636 48.5817C196.47 48.4168 196.246 48.3229 196.012 48.3197L180.781 48.3197C180.544 48.3217 180.318 48.4156 180.15 48.5817L149.69 79.0466C149.607 79.1282 149.541 79.2253 149.496 79.3324C149.451 79.4395 149.427 79.5545 149.427 79.6707Z" fill="black"/>
            <path opacity="0.83" d="M144 65.3504C144 65.527 144.052 65.6998 144.149 65.8469C144.247 65.994 144.386 66.1089 144.549 66.177C144.712 66.2451 144.891 66.2634 145.065 66.2295C145.238 66.1956 145.397 66.111 145.523 65.9866L175.724 35.7776L220.216 35.7776L235.186 50.7525C235.353 50.9182 235.579 51.0113 235.815 51.0118L324.645 51.0118C324.762 51.0123 324.877 50.9896 324.986 50.9451C325.094 50.9006 325.192 50.8351 325.275 50.7524C325.357 50.6698 325.423 50.5716 325.467 50.4635C325.512 50.3554 325.535 50.2395 325.534 50.1226C325.535 50.0053 325.513 49.889 325.468 49.7804C325.424 49.6718 325.359 49.5731 325.276 49.4898C325.193 49.4066 325.095 49.3406 324.987 49.2956C324.878 49.2506 324.762 49.2274 324.645 49.2275L236.181 49.2275L221.209 34.2614C221.043 34.0965 220.82 34.0026 220.585 33.9994L175.354 33.9994C175.118 34.0014 174.892 34.0953 174.724 34.2614L144.264 64.7263C144.181 64.8079 144.115 64.905 144.07 65.0121C144.025 65.1192 144.001 65.2342 144 65.3504Z" fill="black"/>
            <path opacity="0.25" d="M108.044 51.7933L108.044 64.4389C108.044 64.5558 108.066 64.6716 108.111 64.7796C108.155 64.8877 108.221 64.9858 108.304 65.0685C108.386 65.1511 108.484 65.2166 108.592 65.2611C108.7 65.3057 108.816 65.3285 108.933 65.3281L124.163 65.3281C124.28 65.3286 124.396 65.3059 124.504 65.2614C124.612 65.2169 124.71 65.1515 124.793 65.0688C124.876 64.9862 124.941 64.888 124.986 64.7799C125.031 64.6718 125.054 64.5559 125.053 64.4389L125.053 50.0939L136.349 50.0939C136.585 50.0939 136.811 50.0003 136.978 49.8336C137.145 49.6668 137.238 49.4407 137.238 49.2049C137.238 48.969 137.145 48.7429 136.978 48.5761C136.811 48.4094 136.585 48.3158 136.349 48.3158L124.163 48.3158C124.045 48.3158 123.929 48.3391 123.821 48.3841C123.713 48.4292 123.614 48.4952 123.532 48.5784C123.449 48.6616 123.384 48.7603 123.34 48.8688C123.295 48.9774 123.273 49.0937 123.273 49.2109L123.273 63.5439L109.822 63.5439L109.822 51.7933C109.822 51.5575 109.728 51.3313 109.562 51.1646C109.395 50.9978 109.169 50.9042 108.933 50.9042C108.697 50.9042 108.471 50.9978 108.304 51.1646C108.138 51.3313 108.044 51.5575 108.044 51.7933Z" fill="black"/>
            <path opacity="0.34" d="M42.8172 -26.9409C42.8176 -26.7049 42.9116 -26.4787 43.0786 -26.312C43.2456 -26.1453 43.4719 -26.0516 43.7079 -26.0517L58.5693 -26.0517L119.228 34.61C119.311 34.6936 119.409 34.76 119.517 34.8055C119.625 34.851 119.741 34.8746 119.858 34.875L150.319 34.875C150.436 34.8745 150.552 34.8509 150.66 34.8054C150.768 34.7599 150.867 34.6935 150.949 34.61L165.919 19.6352L180.781 19.6352C180.897 19.6361 181.013 19.6136 181.121 19.5691C181.229 19.5247 181.327 19.4591 181.409 19.3762L196.38 4.4071L226.097 4.4071L241.073 19.3762C241.155 19.459 241.252 19.5246 241.36 19.5691C241.467 19.6136 241.582 19.6361 241.699 19.6352L256.559 19.6352L271.535 34.61C271.617 34.6934 271.715 34.7598 271.823 34.8052C271.931 34.8507 272.046 34.8744 272.163 34.875L319.088 34.875C319.205 34.8757 319.321 34.8532 319.43 34.8088C319.538 34.7644 319.637 34.699 319.72 34.6163C319.803 34.5337 319.868 34.4354 319.913 34.3272C319.958 34.219 319.981 34.103 319.98 33.9859C319.98 33.8689 319.957 33.753 319.913 33.6449C319.868 33.5368 319.802 33.4387 319.719 33.3561C319.636 33.2735 319.538 33.208 319.43 33.1635C319.321 33.119 319.205 33.0964 319.088 33.0968L272.532 33.0968L257.561 18.122C257.478 18.0382 257.38 17.9715 257.271 17.926C257.163 17.8805 257.046 17.857 256.928 17.8569L242.067 17.8569L227.096 2.88792C226.928 2.72208 226.702 2.62902 226.466 2.62892L196.012 2.62892C195.775 2.62878 195.548 2.72185 195.38 2.88792L180.414 17.8569L165.551 17.8569C165.434 17.8573 165.318 17.881 165.21 17.9265C165.102 17.972 165.004 18.0384 164.921 18.122L149.949 33.0968L120.228 33.0968L59.5691 -27.565C59.4864 -27.6491 59.3879 -27.7161 59.2792 -27.7621C59.1706 -27.808 59.0539 -27.8322 58.9359 -27.833L43.7079 -27.833C43.5908 -27.8329 43.4749 -27.8098 43.3668 -27.7649C43.2586 -27.72 43.1604 -27.6543 43.0777 -27.5714C42.995 -27.4886 42.9294 -27.3902 42.8847 -27.282C42.84 -27.1738 42.8171 -27.0579 42.8172 -26.9409Z" fill="black"/>
            <path opacity="0.83" d="M87.5777 79.6562C87.5769 79.7737 87.5994 79.8902 87.6439 79.999C87.6885 80.1077 87.7541 80.2066 87.8371 80.2898C87.92 80.373 88.0186 80.4391 88.1273 80.484C88.2359 80.5288 88.3523 80.5517 88.4698 80.5513L133.792 80.5513L178.963 125.717L178.963 140.583C178.963 140.7 178.985 140.816 179.03 140.924C179.074 141.032 179.14 141.13 179.223 141.213L194.455 156.438C194.621 156.605 194.846 156.7 195.082 156.703L225.545 156.703C225.781 156.7 226.006 156.605 226.173 156.438L256.374 126.238L332.158 126.238C332.394 126.238 332.62 126.144 332.787 125.977C332.955 125.81 333.048 125.584 333.048 125.348C333.048 125.111 332.955 124.885 332.787 124.718C332.62 124.551 332.394 124.457 332.158 124.457L256.006 124.457C255.888 124.457 255.772 124.48 255.663 124.525C255.555 124.571 255.456 124.638 255.374 124.722L225.176 154.925L195.452 154.925L180.742 140.215L180.742 125.346C180.742 125.23 180.718 125.115 180.673 125.008C180.628 124.9 180.562 124.803 180.478 124.722L134.791 79.0321C134.708 78.9493 134.61 78.8836 134.502 78.8392C134.393 78.7947 134.277 78.7723 134.16 78.7731L88.4698 78.7731C88.3532 78.7721 88.2374 78.7942 88.1294 78.8382C88.0213 78.8821 87.9229 78.9469 87.84 79.029C87.7571 79.1111 87.6912 79.2088 87.6462 79.3164C87.6012 79.4241 87.5779 79.5396 87.5777 79.6562Z" fill="black"/>
            <path opacity="0.58" d="M-190 -26.1833C-189.999 -25.948 -189.905 -25.7227 -189.738 -25.5566C-189.572 -25.3904 -189.346 -25.2971 -189.111 -25.2969L-154.659 -25.2969L-139.687 -10.325C-139.605 -10.2414 -139.506 -10.175 -139.398 -10.1295C-139.29 -10.084 -139.173 -10.0604 -139.056 -10.0601L-123.45 -10.0601L-109.244 4.89118C-109.16 4.9783 -109.06 5.04772 -108.949 5.09526C-108.837 5.1428 -108.718 5.16749 -108.597 5.16795L-62.9053 5.16795C-62.6696 5.16611 -62.4439 5.07202 -62.2767 4.90572L-47.3065 -10.0601L-17.2109 -10.0601C-16.9755 -10.062 -16.7505 -10.1573 -16.5853 -10.325L-1.61807 -25.2969L13.2419 -25.2969C13.3592 -25.2954 13.4755 -25.3173 13.5842 -25.3613C13.6929 -25.4053 13.7918 -25.4705 13.875 -25.5531L28.8411 -40.522L104.255 -40.5219L119.226 -25.5531C119.308 -25.4708 119.407 -25.4057 119.515 -25.3617C119.623 -25.3177 119.739 -25.2957 119.856 -25.2969L165.548 -25.2969C165.665 -25.296 165.78 -25.3181 165.888 -25.3621C165.996 -25.4061 166.093 -25.471 166.176 -25.5531L181.148 -40.5219L196.009 -40.5219C196.243 -40.5227 196.467 -40.6159 196.633 -40.7812L211.605 -55.756L302.618 -55.756L333.088 -55.9502C333.204 -55.9497 333.319 -55.9723 333.426 -56.0165C333.534 -56.0607 333.631 -56.1258 333.714 -56.2079C333.796 -56.29 333.861 -56.3876 333.905 -56.4949C333.95 -56.6023 333.972 -56.7174 333.972 -56.8335L333.972 -56.8396C333.972 -56.9569 333.949 -57.073 333.903 -57.1813C333.858 -57.2895 333.792 -57.3877 333.709 -57.4703C333.625 -57.553 333.527 -57.6183 333.418 -57.6626C333.309 -57.707 333.193 -57.7294 333.076 -57.7287L211.238 -57.5342C211.122 -57.5347 211.006 -57.512 210.898 -57.4676C210.79 -57.4231 210.692 -57.3578 210.61 -57.2753L195.639 -42.3034L180.778 -42.3034C180.661 -42.3045 180.544 -42.2818 180.436 -42.2367C180.328 -42.1917 180.23 -42.1251 180.148 -42.0411L165.179 -27.0754L120.225 -27.0754L105.253 -42.0411C105.171 -42.1249 105.073 -42.1913 104.965 -42.2364C104.857 -42.2814 104.74 -42.3042 104.623 -42.3034L28.473 -42.3034C28.3559 -42.3041 28.24 -42.2812 28.132 -42.2361C28.024 -42.191 27.9262 -42.1247 27.8443 -42.0411L12.8741 -27.0754L-1.98739 -27.0754C-2.2222 -27.0735 -2.4469 -26.9794 -2.61301 -26.8134L-17.5791 -11.8443L-47.6743 -11.8443C-47.791 -11.8442 -47.9065 -11.821 -48.0142 -11.776C-48.1219 -11.7311 -48.2196 -11.6652 -48.3017 -11.5824L-63.272 3.38949L-108.214 3.38949L-122.419 -11.5618C-122.502 -11.6504 -122.602 -11.7212 -122.714 -11.7698C-122.825 -11.8184 -122.945 -11.8437 -123.067 -11.8443L-138.689 -11.8443L-153.66 -26.8134C-153.827 -26.9806 -154.053 -27.0749 -154.29 -27.0754L-189.111 -27.0755C-189.347 -27.075 -189.573 -26.9807 -189.74 -26.8134C-189.907 -26.6461 -190 -26.4195 -190 -26.1833Z" fill="black"/>
            <path opacity="0.53" d="M149.164 126.003L118.581 96.551L118.939 94.7728C119.169 94.7716 119.391 94.8603 119.557 95.02L150.404 124.722L166.016 139.962C166.101 140.044 166.169 140.142 166.215 140.251C166.26 140.36 166.283 140.477 166.282 140.595L166.282 155.479L180.254 170.925L225.185 170.925L255.383 140.728C255.465 140.643 255.563 140.576 255.672 140.53C255.78 140.484 255.897 140.46 256.015 140.46L370.408 140.46C370.525 140.459 370.641 140.483 370.749 140.527C370.858 140.572 370.956 140.638 371.039 140.721C371.122 140.803 371.187 140.902 371.232 141.01C371.277 141.119 371.3 141.235 371.3 141.352C371.299 141.588 371.204 141.813 371.037 141.98C370.87 142.146 370.643 142.239 370.408 142.238L256.383 142.238L226.181 172.444C226.015 172.609 225.789 172.702 225.554 172.703L179.861 172.703C179.738 172.705 179.615 172.68 179.501 172.63C179.388 172.58 179.286 172.507 179.203 172.415L164.732 156.421C164.585 156.256 164.504 156.044 164.504 155.823L164.504 140.975L149.164 126.003Z" fill="black"/>
        </g>
        <g opacity="0.3">
            <path d="M62.9072 41.6591C62.9087 42.7555 63.3451 43.8065 64.1206 44.5815C64.8961 45.3565 65.9474 45.7922 67.0437 45.793C68.1405 45.7926 69.1924 45.3571 69.9685 44.5821C70.7446 43.8071 71.1816 42.756 71.1836 41.6591C71.1816 40.5624 70.7446 39.5112 69.9685 38.7362C69.1923 37.9612 68.1405 37.5257 67.0437 37.5252C65.9474 37.5261 64.8961 37.9618 64.1206 38.7368C63.3452 39.5118 62.9087 40.5628 62.9072 41.6591ZM69.5097 41.6591C69.5084 42.3121 69.2479 42.9378 68.7855 43.3988C68.3231 43.8598 67.6967 44.1184 67.0437 44.1178C66.3913 44.1177 65.7656 43.8588 65.3039 43.3979C64.8422 42.9369 64.5822 42.3116 64.5811 41.6591C64.5827 41.0069 64.8429 40.3819 65.3045 39.9211C65.7661 39.4603 66.3915 39.2013 67.0437 39.2007C67.6965 39.2006 68.3227 39.4593 68.7849 39.9202C69.2472 40.381 69.5078 41.0064 69.5097 41.6591Z" fill="black"/>
            <path d="M65.2554 -4.01456C65.2576 -2.91995 65.6936 -1.87083 66.4679 -1.09711C67.2422 -0.323385 68.2916 0.111879 69.3862 0.113281C70.4824 0.113558 71.534 -0.320782 72.3106 -1.09453C73.0871 -1.86828 73.5252 -2.91836 73.5288 -4.01456C73.5276 -5.11263 73.0907 -6.16538 72.314 -6.94158C71.5373 -7.71778 70.4843 -8.15401 69.3862 -8.15445C68.2897 -8.15232 67.2389 -7.71518 66.4644 -6.939C65.69 -6.16283 65.2551 -5.11104 65.2554 -4.01456ZM71.8522 -4.01456C71.849 -3.36302 71.5877 -2.73927 71.1254 -2.28008C70.6632 -1.82089 70.0378 -1.56373 69.3862 -1.56489C68.7361 -1.56516 68.1126 -1.82311 67.6523 -2.28229C67.1921 -2.74147 66.9326 -3.36442 66.9308 -4.01456C66.9302 -4.66653 67.1884 -5.29206 67.6489 -5.75364C68.1093 -6.21522 68.7343 -6.47507 69.3862 -6.47601C70.0396 -6.4765 70.6664 -6.21743 71.1289 -5.75585C71.5913 -5.29426 71.8515 -4.66794 71.8522 -4.01456Z" fill="black"/>
            <path d="M34.007 56.8977C34.0088 57.873 34.3969 58.8079 35.0864 59.4977C35.7759 60.1874 36.7106 60.5759 37.6859 60.5781C38.6612 60.5761 39.596 60.1877 40.2856 59.4978C40.9751 58.808 41.3632 57.8731 41.3647 56.8977C41.3642 55.922 40.9765 54.9864 40.2868 54.2963C39.597 53.6063 38.6616 53.2182 37.6859 53.2173C36.7102 53.2184 35.7749 53.6066 35.0852 54.2966C34.3955 54.9866 34.0077 55.9221 34.007 56.8977ZM40.6038 56.8977C40.6028 57.6716 40.2951 58.4134 39.7482 58.9609C39.2013 59.5083 38.4597 59.8166 37.6859 59.8183C36.9122 59.8161 36.1709 59.5076 35.6241 58.9603C35.0773 58.413 34.7694 57.6714 34.768 56.8977C34.769 56.1242 35.0768 55.3826 35.6238 54.8356C36.1708 54.2886 36.9123 53.9809 37.6859 53.9798C38.4596 53.9804 39.2014 54.288 39.7485 54.8351C40.2956 55.3821 40.6032 56.124 40.6038 56.8977Z" fill="black"/>
            <path d="M33.5505 56.8956C33.5514 57.9928 33.9875 59.0448 34.763 59.8208C35.5385 60.5969 36.5902 61.0335 37.6874 61.0352C38.7845 61.0335 39.8362 60.5969 40.6117 59.8208C41.3873 59.0448 41.8233 57.9928 41.8242 56.8956C41.8227 55.7989 41.3864 54.7476 40.6109 53.9721C39.8354 53.1966 38.7841 52.7603 37.6874 52.7588C36.5907 52.7603 35.5393 53.1966 34.7638 53.9721C33.9884 54.7476 33.552 55.7989 33.5505 56.8956ZM40.1488 56.8956C40.1481 57.5482 39.8885 58.1739 39.4271 58.6354C38.9656 59.0968 38.34 59.3564 37.6874 59.3571C37.0348 59.3564 36.4091 59.0968 35.9476 58.6354C35.4862 58.1739 35.2266 57.5482 35.2259 56.8956C35.2271 56.2432 35.4869 55.6178 35.9482 55.1565C36.4096 54.6951 37.0349 54.4354 37.6874 54.4342C38.3398 54.4354 38.9652 54.6951 39.4265 55.1565C39.8879 55.6178 40.1476 56.2432 40.1488 56.8956Z" fill="black"/>
            <path d="M46.685 26.434C46.6858 27.4109 47.0742 28.3476 47.7651 29.0382C48.456 29.7288 49.3928 30.1169 50.3696 30.1172C51.3456 30.1157 52.2812 29.727 52.9709 29.0365C53.6607 28.346 54.0484 27.41 54.0488 26.434C54.0477 25.4587 53.6597 24.5238 52.9699 23.8343C52.2801 23.1448 51.3449 22.7571 50.3696 22.7564C49.3935 22.7559 48.4571 23.143 47.7662 23.8326C47.0753 24.5222 46.6864 25.4579 46.685 26.434ZM53.2875 26.434C53.2863 27.2078 52.9786 27.9495 52.4317 28.4969C51.8849 29.0443 51.1434 29.3528 50.3696 29.3547C49.595 29.354 48.8523 29.0461 48.3042 28.4986C47.7562 27.9512 47.4476 27.2087 47.446 26.434C47.4478 25.66 47.7566 24.9183 48.3048 24.3718C48.853 23.8253 49.5956 23.5186 50.3696 23.5192C51.1428 23.5198 51.8841 23.8271 52.4311 24.3735C52.9781 24.9199 53.2861 25.6609 53.2875 26.434Z" fill="black"/>
            <path d="M46.2289 26.4385C46.2306 27.5364 46.6676 28.5888 47.4442 29.3649C48.2209 30.1409 49.2736 30.5772 50.3714 30.5781C51.4685 30.5763 52.5201 30.1395 53.2956 29.3635C54.0711 28.5875 54.5072 27.5356 54.5083 26.4385C54.5065 25.3422 54.07 24.2913 53.2945 23.5164C52.519 22.7414 51.4678 22.3057 50.3714 22.3047C49.2743 22.3047 48.222 22.74 47.4454 23.515C46.6687 24.29 46.2312 25.3414 46.2289 26.4385ZM52.8317 26.4385C52.831 27.0909 52.5717 27.7165 52.1105 28.178C51.6493 28.6394 51.0239 28.899 50.3714 28.9C49.7183 28.8999 49.0918 28.6407 48.6295 28.1792C48.1673 27.7178 47.907 27.0917 47.9058 26.4385C47.9071 25.7856 48.1675 25.16 48.6298 24.699C49.0921 24.238 49.7185 23.9793 50.3714 23.9798C51.0236 23.9802 51.6489 24.2393 52.1102 24.7003C52.5714 25.1612 52.8309 25.7864 52.8317 26.4385Z" fill="black"/>
            <path d="M3.92645 128.919C4.7428 128.917 5.54117 129.158 6.22055 129.611C6.89993 130.064 7.42978 130.708 7.74308 131.462C8.05638 132.215 8.13905 133.045 7.98063 133.846C7.82221 134.647 7.42982 135.383 6.85309 135.96C6.27637 136.538 5.54123 136.932 4.74068 137.092C3.94013 137.252 3.11015 137.171 2.35573 136.859C1.60132 136.547 0.956369 136.018 0.502484 135.34C0.0485984 134.661 -0.193828 133.863 -0.194127 133.047C-0.193682 131.953 0.240351 130.905 1.0128 130.131C1.78524 129.357 2.83305 128.921 3.92645 128.919Z" fill="black"/>
            <path d="M56.7533 68.0061C57.2954 68.0058 57.8322 68.1123 58.3331 68.3197C58.834 68.527 59.2891 68.8311 59.6724 69.2145C60.0557 69.5978 60.3596 70.053 60.5668 70.5539C60.774 71.0549 60.8804 71.5918 60.8799 72.1339C60.8784 73.227 60.4429 74.2746 59.669 75.0465C58.8951 75.8184 57.8463 76.2514 56.7533 76.25C55.6607 76.2507 54.6126 75.8175 53.8393 75.0457C53.0661 74.2738 52.631 73.2265 52.6297 72.1339C52.6291 71.5921 52.7353 71.0554 52.9423 70.5546C53.1493 70.0538 53.4529 69.5987 53.8359 69.2153C54.2189 68.8319 54.6737 68.5278 55.1742 68.3203C55.6748 68.1128 56.2114 68.0061 56.7533 68.0061Z" fill="black"/>
            <path d="M97.4073 99.3136C98.5005 99.3146 99.5485 99.7497 100.321 100.523C101.093 101.297 101.527 102.345 101.526 103.439C101.528 103.98 101.422 104.517 101.216 105.018C101.009 105.519 100.706 105.974 100.323 106.357C99.9407 106.741 99.4862 107.045 98.9858 107.252C98.4854 107.46 97.949 107.567 97.4073 107.566C96.8652 107.567 96.3283 107.46 95.8275 107.252C95.3266 107.045 94.8715 106.741 94.4881 106.358C94.1048 105.974 93.8007 105.519 93.5933 105.018C93.3858 104.518 93.2791 103.981 93.2792 103.439C93.2811 102.345 93.7168 101.296 94.4906 100.523C95.2644 99.7496 96.3133 99.3147 97.4073 99.3136Z" fill="black"/>
            <path d="M9.16684 37.5462C9.98231 37.5468 10.7793 37.7891 11.457 38.2427C12.1347 38.6962 12.6627 39.3406 12.9743 40.0942C13.2859 40.8478 13.367 41.6768 13.2074 42.4765C13.0478 43.2762 12.6546 44.0107 12.0777 44.5869C11.5007 45.1632 10.7658 45.5555 9.96593 45.7142C9.16604 45.8728 8.33707 45.7908 7.58382 45.4783C6.83057 45.1659 6.18688 44.6371 5.73413 43.9589C5.28138 43.2806 5.0399 42.4834 5.04023 41.6679C5.04095 40.5742 5.4761 39.5254 6.24997 38.7524C7.02384 37.9794 8.07306 37.5456 9.16684 37.5462Z" fill="black"/>
            <path d="M78.5272 87.3484C78.527 88.4451 78.9621 89.497 79.7369 90.2732C80.5117 91.0494 81.5628 91.4865 82.6595 91.4883C83.7567 91.4883 84.8089 91.0524 85.5847 90.2766C86.3605 89.5008 86.7964 88.4486 86.7964 87.3514C86.7964 86.2543 86.3605 85.202 85.5847 84.4262C84.8089 83.6503 83.7567 83.2146 82.6595 83.2146C81.5638 83.216 80.5133 83.652 79.7386 84.427C78.9639 85.202 78.5283 86.2526 78.5272 87.3484ZM85.1255 87.3484C85.1251 88.0027 84.8654 88.6302 84.4031 89.0933C83.9409 89.5564 83.3139 89.8173 82.6595 89.8189C82.0066 89.8159 81.3815 89.5541 80.9212 89.0911C80.4608 88.628 80.2029 88.0013 80.2038 87.3484C80.2037 86.6965 80.4623 86.0712 80.9227 85.6098C81.383 85.1483 82.0077 84.8884 82.6595 84.8869C83.3128 84.887 83.9393 85.1462 84.4016 85.6077C84.8639 86.0691 85.1243 86.6952 85.1255 87.3484Z" fill="black"/>
            <path d="M75.9237 7.64647C76.7405 7.64501 77.5393 7.88578 78.2191 8.33848C78.8989 8.79117 79.4291 9.43538 79.7427 10.1895C80.0563 10.9437 80.1391 11.7739 79.9807 12.5752C79.8222 13.3764 79.4297 14.1126 78.8527 14.6907C78.2757 15.2687 77.5402 15.6626 76.7393 15.8225C75.9383 15.9824 75.108 15.901 74.3532 15.5889C73.5985 15.2767 72.9534 14.7476 72.4994 14.0687C72.0455 13.3897 71.8032 12.5912 71.8032 11.7745C71.8041 10.6812 72.2383 9.633 73.0106 8.85925C73.783 8.0855 74.8305 7.64942 75.9237 7.64647Z" fill="black"/>
            <path opacity="0.78" d="M8.26678 41.6596C8.26612 41.7771 8.28873 41.8936 8.33329 42.0023C8.37786 42.111 8.4435 42.2097 8.52643 42.2929C8.60936 42.3761 8.70795 42.4421 8.8165 42.4871C8.92505 42.532 9.04143 42.5549 9.15891 42.5547L63.7376 42.5547C63.8547 42.5545 63.9705 42.5311 64.0786 42.486C64.1866 42.4408 64.2846 42.3746 64.3669 42.2914C64.4493 42.2083 64.5144 42.1096 64.5586 42.0012C64.6027 41.8927 64.6249 41.7767 64.624 41.6596C64.6239 41.5434 64.6009 41.4282 64.5563 41.3209C64.5117 41.2136 64.4463 41.1162 64.364 41.0341C64.2817 40.9521 64.184 40.8871 64.0765 40.8429C63.969 40.7987 63.8538 40.7761 63.7376 40.7765L9.15891 40.7765C9.04228 40.7756 8.92663 40.7979 8.8186 40.8418C8.71056 40.8858 8.61228 40.9506 8.52938 41.0327C8.44649 41.1147 8.38062 41.2123 8.33555 41.3199C8.29049 41.4275 8.26712 41.543 8.26678 41.6596Z" fill="black"/>
            <path opacity="0.96" d="M-73.1026 26.4302C-73.1022 26.666 -73.0092 26.8923 -72.8436 27.0601L-57.614 42.2942C-57.4458 42.4604 -57.2188 42.5534 -56.9824 42.5531L-11.6651 42.5531L3.30547 57.5222C3.38769 57.6051 3.48566 57.6708 3.59362 57.7152C3.70157 57.7597 3.81734 57.7821 3.9341 57.7812L34.3975 57.7812C34.5143 57.7813 34.6301 57.7585 34.7381 57.7139C34.8461 57.6693 34.9443 57.6038 35.027 57.5212C35.1097 57.4386 35.1753 57.3406 35.2201 57.2327C35.2649 57.1247 35.288 57.009 35.2881 56.8921C35.2885 56.7751 35.2658 56.6592 35.2211 56.551C35.1765 56.4429 35.1109 56.3446 35.0281 56.262C34.9453 56.1793 34.8469 56.1138 34.7387 56.0694C34.6304 56.0249 34.5145 56.0024 34.3975 56.003L4.30042 56.003L-10.6623 41.0339C-10.7455 40.9511 -10.8443 40.8855 -10.953 40.841C-11.0616 40.7965 -11.1781 40.7741 -11.2955 40.7749L-56.6145 40.7749L-71.5848 25.8001C-71.7091 25.6754 -71.8677 25.5903 -72.0404 25.5559C-72.2131 25.5214 -72.3922 25.5391 -72.5549 25.6066C-72.7175 25.6742 -72.8564 25.7885 -72.9539 25.9351C-73.0515 26.0818 -73.1032 26.2541 -73.1026 26.4302Z" fill="black"/>
            <path opacity="0.37" d="M-85.5304 44.4851C-85.5298 44.7193 -85.4368 44.9437 -85.2715 45.1095L-72.8494 57.5345C-72.7673 57.618 -72.6692 57.684 -72.5609 57.7285C-72.4526 57.773 -72.3364 57.7951 -72.2193 57.7935L-42.1283 57.7935L-27.1625 72.7623C-27.0803 72.8456 -26.9825 72.9119 -26.8746 72.9574C-26.7667 73.0029 -26.651 73.0266 -26.5339 73.0273L57.2349 73.0273C57.3517 73.0276 57.4675 73.0048 57.5754 72.9602C57.6834 72.9156 57.7815 72.8501 57.8641 72.7675C57.9468 72.6849 58.0122 72.5868 58.0568 72.4788C58.1014 72.3708 58.1243 72.2551 58.124 72.1383C58.1235 71.9026 58.0296 71.6767 57.863 71.5101C57.6964 71.3435 57.4705 71.2496 57.2349 71.2491L-26.1673 71.2491L-41.1288 56.2743C-41.2966 56.1083 -41.523 56.0153 -41.759 56.0154L-71.8497 56.0154L-84.0127 43.855C-84.095 43.7717 -84.1931 43.7057 -84.3011 43.6606C-84.4091 43.6155 -84.525 43.5924 -84.6421 43.5924C-84.7591 43.5924 -84.875 43.6155 -84.9831 43.6606C-85.0911 43.7057 -85.1891 43.7717 -85.2715 43.855C-85.3545 43.9374 -85.4202 44.0356 -85.4647 44.1439C-85.5092 44.2521 -85.5315 44.3681 -85.5304 44.4851Z" fill="black"/>
            <path opacity="0.83" d="M-103.574 41.6707C-103.574 41.8473 -103.523 42.0201 -103.425 42.1672C-103.327 42.3144 -103.188 42.4292 -103.025 42.4973C-102.862 42.5654 -102.683 42.5837 -102.51 42.5498C-102.336 42.5159 -102.177 42.4314 -102.052 42.3069L-71.8503 12.0979L-57.3585 12.0979L-42.3882 27.0728C-42.2209 27.2385 -41.995 27.3317 -41.7596 27.3321L47.0705 27.3321C47.1874 27.3326 47.3033 27.3099 47.4114 27.2654C47.5195 27.2209 47.6177 27.1554 47.7004 27.0727C47.7831 26.9901 47.8486 26.8919 47.8931 26.7838C47.9377 26.6757 47.9604 26.5598 47.9599 26.4429C47.9608 26.3256 47.9384 26.2093 47.894 26.1007C47.8497 25.9921 47.7843 25.8934 47.7016 25.8102C47.619 25.7269 47.5206 25.661 47.4123 25.6159C47.304 25.5709 47.1878 25.5478 47.0705 25.5478L-41.3929 25.5478L-56.3647 10.5817C-56.5309 10.4168 -56.7547 10.3229 -56.9888 10.3197L-72.2199 10.3197C-72.4561 10.3217 -72.6821 10.4156 -72.85 10.5817L-103.31 41.0466C-103.393 41.1282 -103.459 41.2253 -103.504 41.3324C-103.549 41.4395 -103.573 41.5545 -103.574 41.6707Z" fill="black"/>
            <path opacity="0.83" d="M-78.9997 27.3504C-79.0002 27.527 -78.9484 27.6998 -78.8508 27.8469C-78.7531 27.994 -78.614 28.1089 -78.4511 28.177C-78.2881 28.2451 -78.1087 28.2634 -77.9353 28.2295C-77.762 28.1956 -77.6027 28.1111 -77.4774 27.9866L-47.276 -2.22239L-32.7842 -2.22239L-17.814 12.7525C-17.6467 12.9182 -17.4208 13.0113 -17.1853 13.0118L71.6447 13.0118C71.7616 13.0123 71.8775 12.9896 71.9856 12.9451C72.0937 12.9006 72.1919 12.8351 72.2746 12.7524C72.3573 12.6698 72.4228 12.5716 72.4673 12.4635C72.5119 12.3554 72.5346 12.2395 72.5342 12.1226C72.535 12.0053 72.5126 11.889 72.4683 11.7804C72.4239 11.6718 72.3585 11.5731 72.2759 11.4898C72.1932 11.4066 72.0948 11.3406 71.9865 11.2956C71.8782 11.2506 71.762 11.2274 71.6447 11.2275L-16.8187 11.2275L-31.7905 -3.73862C-31.9567 -3.90353 -32.1805 -3.99742 -32.4146 -4.00058L-47.6457 -4.00058C-47.8818 -3.99864 -48.1079 -3.90469 -48.2758 -3.73862L-78.7362 26.7263C-78.8189 26.8079 -78.8848 26.905 -78.93 27.0121C-78.9753 27.1192 -78.9989 27.2342 -78.9997 27.3504Z" fill="black"/>
            <path opacity="0.83" d="M-165.422 41.6562C-165.423 41.7737 -165.401 41.8902 -165.356 41.999C-165.312 42.1077 -165.246 42.2066 -165.163 42.2898C-165.08 42.373 -164.981 42.4391 -164.873 42.484C-164.764 42.5288 -164.648 42.5517 -164.53 42.5513L-119.208 42.5513L-74.0367 87.7173L-74.0367 102.583C-74.0374 102.7 -74.0148 102.816 -73.9703 102.924C-73.9258 103.032 -73.8602 103.13 -73.7775 103.213L-58.5452 118.438C-58.3789 118.605 -58.1537 118.7 -57.9181 118.703L-27.4547 118.703C-27.2189 118.7 -26.9937 118.605 -26.8273 118.438L3.37377 88.2383L79.1577 88.2383C79.3939 88.2383 79.6205 88.1445 79.7875 87.9774C79.9545 87.8104 80.0483 87.5838 80.0483 87.3476C80.0483 87.1114 79.9545 86.8849 79.7875 86.7179C79.6205 86.5509 79.3939 86.457 79.1577 86.457L3.00594 86.457C2.88828 86.4566 2.77175 86.4799 2.66325 86.5254C2.55475 86.5709 2.45649 86.6378 2.37431 86.722L-27.824 116.925L-57.5484 116.925L-72.2582 102.215L-72.2582 87.3461C-72.2584 87.2298 -72.2818 87.1147 -72.327 87.0075C-72.3723 86.9004 -72.4385 86.8033 -72.5217 86.722L-118.209 41.0321C-118.292 40.9493 -118.39 40.8836 -118.498 40.8392C-118.607 40.7947 -118.723 40.7723 -118.84 40.7731L-164.53 40.7731C-164.647 40.7721 -164.763 40.7942 -164.871 40.8382C-164.979 40.8821 -165.077 40.9469 -165.16 41.029C-165.243 41.1111 -165.309 41.2088 -165.354 41.3164C-165.399 41.4241 -165.422 41.5396 -165.422 41.6562Z" fill="black"/>
            <path opacity="0.53" d="M-123.837 88.0032L-154.419 58.551L-154.062 56.7728C-153.831 56.7716 -153.609 56.8603 -153.443 57.02L-122.597 86.7224L-106.985 101.962C-106.899 102.044 -106.832 102.142 -106.786 102.251C-106.74 102.36 -106.717 102.477 -106.718 102.595L-106.718 117.479L-92.7462 132.925L-47.8158 132.925L-17.6174 102.728C-17.5354 102.643 -17.4372 102.576 -17.3287 102.53C-17.2202 102.484 -17.1036 102.46 -16.9858 102.46L97.4072 102.46C97.5244 102.459 97.6405 102.483 97.7488 102.527C97.8571 102.572 97.9555 102.638 98.0384 102.721C98.1213 102.803 98.187 102.902 98.2317 103.01C98.2765 103.119 98.2995 103.235 98.2993 103.352C98.2985 103.588 98.204 103.813 98.0367 103.98C97.8694 104.146 97.643 104.239 97.4072 104.238L-16.618 104.238L-46.819 134.444C-46.986 134.609 -47.2113 134.702 -47.4464 134.703L-93.1391 134.703C-93.263 134.705 -93.3858 134.68 -93.4993 134.63C-93.6128 134.58 -93.7144 134.507 -93.7972 134.415L-108.269 118.421C-108.415 118.256 -108.496 118.044 -108.497 117.823L-108.497 102.975L-123.837 88.0032Z" fill="black"/>
        </g>
        <g opacity="0.3">
            <path d="M346.076 100.645C344.982 100.646 343.933 101.081 343.16 101.855C342.387 102.629 341.952 103.678 341.953 104.772C341.954 105.866 342.389 106.914 343.162 107.687C343.935 108.459 344.983 108.894 346.076 108.895C346.618 108.895 347.154 108.788 347.654 108.581C348.155 108.374 348.609 108.071 348.992 107.688C349.375 107.305 349.679 106.851 349.886 106.35C350.093 105.85 350.2 105.314 350.2 104.772C350.2 104.23 350.094 103.694 349.887 103.193C349.68 102.692 349.377 102.237 348.994 101.854C348.611 101.47 348.156 101.166 347.655 100.959C347.155 100.751 346.618 100.645 346.076 100.645Z" fill="black"/>
            <path d="M495.48 127.72C495.479 128.447 495.264 129.159 494.859 129.764C494.455 130.369 493.88 130.84 493.207 131.119C492.535 131.397 491.795 131.47 491.081 131.328C490.368 131.185 489.712 130.835 489.198 130.32C488.683 129.805 488.333 129.15 488.191 128.436C488.049 127.722 488.122 126.982 488.401 126.31C488.679 125.638 489.151 125.063 489.756 124.659C490.362 124.255 491.073 124.039 491.801 124.039C492.776 124.041 493.711 124.429 494.401 125.119C495.09 125.809 495.478 126.744 495.48 127.72ZM488.881 127.72C488.882 128.297 489.053 128.861 489.374 129.34C489.695 129.82 490.151 130.194 490.684 130.414C491.218 130.635 491.804 130.692 492.37 130.579C492.936 130.467 493.456 130.188 493.864 129.78C494.272 129.372 494.55 128.852 494.662 128.286C494.775 127.72 494.717 127.133 494.496 126.6C494.275 126.067 493.901 125.611 493.422 125.291C492.942 124.97 492.378 124.799 491.801 124.799C491.027 124.801 490.285 125.109 489.738 125.656C489.191 126.204 488.883 126.946 488.881 127.72Z" fill="black"/>
            <path d="M495.936 127.724C495.936 128.543 495.692 129.342 495.238 130.022C494.783 130.703 494.136 131.232 493.38 131.545C492.624 131.858 491.792 131.94 490.99 131.78C490.187 131.62 489.45 131.225 488.872 130.646C488.293 130.068 487.9 129.33 487.74 128.528C487.581 127.725 487.663 126.893 487.977 126.137C488.29 125.382 488.82 124.735 489.501 124.281C490.181 123.827 490.981 123.584 491.799 123.584C492.897 123.586 493.948 124.023 494.724 124.799C495.499 125.575 495.935 126.627 495.936 127.724ZM489.338 127.724C489.338 128.211 489.483 128.687 489.753 129.091C490.024 129.496 490.408 129.811 490.857 129.997C491.307 130.183 491.802 130.232 492.279 130.137C492.756 130.042 493.195 129.808 493.539 129.464C493.883 129.119 494.117 128.681 494.212 128.204C494.307 127.727 494.258 127.232 494.072 126.782C493.886 126.333 493.571 125.948 493.166 125.678C492.762 125.407 492.286 125.263 491.799 125.263C491.147 125.264 490.522 125.524 490.06 125.985C489.599 126.446 489.339 127.072 489.338 127.724Z" fill="black"/>
            <path opacity="0.55" d="M488.821 127.723C488.821 127.84 488.798 127.955 488.753 128.063C488.709 128.171 488.643 128.268 488.56 128.351C488.478 128.433 488.38 128.498 488.272 128.543C488.164 128.587 488.049 128.61 487.932 128.609L471.178 128.609C470.943 128.608 470.718 128.517 470.549 128.353L447.872 105.765L346.328 105.765C346.211 105.765 346.095 105.742 345.987 105.698C345.879 105.653 345.781 105.588 345.698 105.505C345.616 105.423 345.55 105.324 345.506 105.216C345.461 105.108 345.439 104.992 345.439 104.875C345.438 104.639 345.532 104.412 345.698 104.244C345.865 104.076 346.092 103.981 346.328 103.98L448.24 103.98C448.356 103.981 448.472 104.004 448.58 104.05C448.687 104.095 448.785 104.162 448.867 104.245L471.547 126.831L487.932 126.831C488.049 126.831 488.165 126.854 488.273 126.899C488.381 126.944 488.48 127.009 488.562 127.092C488.645 127.175 488.71 127.274 488.755 127.382C488.799 127.49 488.822 127.606 488.821 127.723Z" fill="black"/>
            <path d="M387.799 5.10867C387.797 6.08396 387.409 7.01881 386.719 7.70859C386.03 8.39837 385.095 8.78688 384.12 8.78906C383.144 8.78709 382.21 8.3986 381.52 7.70877C380.831 7.01895 380.442 6.08402 380.441 5.10867C380.441 4.13298 380.829 3.19732 381.519 2.50727C382.209 1.81722 383.144 1.42917 384.12 1.42827C385.095 1.42938 386.031 1.81754 386.72 2.50755C387.41 3.19756 387.798 4.13305 387.799 5.10867ZM381.202 5.10867C381.203 5.88249 381.511 6.62437 382.057 7.1718C382.604 7.71924 383.346 8.02755 384.12 8.02924C384.893 8.02705 385.635 7.71857 386.182 7.17125C386.728 6.62393 387.036 5.88234 387.038 5.10867C387.037 4.33512 386.729 3.59352 386.182 3.04654C385.635 2.49956 384.893 2.19183 384.12 2.19076C383.346 2.19132 382.604 2.4989 382.057 3.04599C381.51 3.59308 381.202 4.33497 381.202 5.10867Z" fill="black"/>
            <path d="M388.256 5.10657C388.255 6.2037 387.819 7.2557 387.043 8.03175C386.268 8.80779 385.216 9.24447 384.119 9.24609C383.022 9.24447 381.97 8.80779 381.194 8.03175C380.419 7.2557 379.983 6.2037 379.982 5.10657C379.983 4.00987 380.42 2.95853 381.195 2.18305C381.971 1.40756 383.022 0.971227 384.119 0.969711C385.215 0.971226 386.267 1.40756 387.042 2.18305C387.818 2.95853 388.254 4.00987 388.256 5.10657ZM381.657 5.10657C381.658 5.75916 381.918 6.38484 382.379 6.84629C382.841 7.30775 383.466 7.56731 384.119 7.56802C384.771 7.56731 385.397 7.30775 385.859 6.84629C386.32 6.38484 386.58 5.75916 386.58 5.10657C386.579 4.45413 386.319 3.82874 385.858 3.3674C385.397 2.90605 384.771 2.64633 384.119 2.64512C383.466 2.64633 382.841 2.90605 382.38 3.3674C381.918 3.82874 381.659 4.45413 381.657 5.10657Z" fill="black"/>
            <path d="M555.45 18.3445C555.449 19.0723 555.233 19.7837 554.829 20.3887C554.425 20.9937 553.85 21.4653 553.177 21.7436C552.505 22.022 551.765 22.0947 551.051 21.9526C550.338 21.8105 549.682 21.4599 549.168 20.9452C548.653 20.4305 548.303 19.7747 548.161 19.0609C548.019 18.3471 548.092 17.6072 548.371 16.9349C548.649 16.2626 549.121 15.6881 549.726 15.2839C550.331 14.8797 551.043 14.664 551.771 14.6641C552.746 14.666 553.681 15.0545 554.37 15.7443C555.06 16.4341 555.448 17.3691 555.45 18.3445ZM548.851 18.3445C548.851 18.9218 549.022 19.4861 549.343 19.9662C549.663 20.4462 550.119 20.8205 550.652 21.0415C551.186 21.2625 551.772 21.3205 552.339 21.208C552.905 21.0956 553.425 20.8177 553.833 20.4096C554.242 20.0015 554.52 19.4816 554.632 18.9154C554.745 18.3493 554.687 17.7624 554.467 17.2291C554.246 16.6957 553.872 16.2398 553.392 15.9189C552.912 15.5981 552.348 15.4267 551.771 15.4266C550.997 15.4274 550.255 15.735 549.708 16.282C549.16 16.829 548.852 17.5707 548.851 18.3445Z" fill="black"/>
            <path d="M555.906 18.3457C555.907 19.1641 555.664 19.9642 555.209 20.6448C554.755 21.3254 554.109 21.8558 553.353 22.1691C552.597 22.4824 551.765 22.5646 550.962 22.405C550.159 22.2454 549.422 21.8513 548.843 21.2726C548.264 20.6939 547.87 19.9566 547.711 19.1539C547.551 18.3512 547.633 17.5192 547.946 16.7631C548.259 16.007 548.79 15.3608 549.47 14.9062C550.151 14.4516 550.951 14.209 551.769 14.2092C552.866 14.2104 553.918 14.6466 554.693 15.4221C555.469 16.1975 555.905 17.2489 555.906 18.3457ZM549.308 18.3457C549.308 18.8323 549.453 19.3079 549.723 19.7125C549.993 20.117 550.378 20.4323 550.827 20.6184C551.277 20.8046 551.772 20.8532 552.249 20.7583C552.726 20.6633 553.165 20.429 553.509 20.0849C553.853 19.7408 554.087 19.3024 554.182 18.8251C554.277 18.3479 554.228 17.8532 554.042 17.4036C553.856 16.954 553.541 16.5697 553.136 16.2993C552.732 16.0288 552.256 15.8844 551.769 15.8842C551.117 15.8843 550.491 16.1437 550.029 16.6053C549.567 17.0669 549.308 17.6929 549.308 18.3457Z" fill="black"/>
            <path d="M576.276 90.8438C575.461 90.8438 574.663 91.0857 573.985 91.5389C573.306 91.9922 572.778 92.6364 572.465 93.3901C572.153 94.1438 572.071 94.9732 572.231 95.7733C572.39 96.5735 572.783 97.3085 573.359 97.8854C573.936 98.4623 574.671 98.8553 575.471 99.0145C576.272 99.1737 577.101 99.0919 577.855 98.7798C578.608 98.4676 579.253 97.9389 579.706 97.2606C580.159 96.5823 580.401 95.7847 580.401 94.9689C580.401 93.875 579.966 92.8261 579.193 92.0526C578.419 91.2791 577.37 90.8443 576.276 90.8438Z" fill="black"/>
            <path d="M530.581 105.304C529.765 105.304 528.968 105.546 528.289 106C527.611 106.453 527.082 107.097 526.77 107.85C526.458 108.604 526.376 109.433 526.535 110.233C526.694 111.033 527.086 111.768 527.663 112.345C528.239 112.922 528.974 113.316 529.774 113.475C530.574 113.635 531.403 113.553 532.157 113.242C532.911 112.93 533.555 112.402 534.009 111.724C534.463 111.046 534.705 110.248 534.706 109.433C534.706 108.891 534.6 108.354 534.393 107.853C534.186 107.352 533.882 106.897 533.499 106.514C533.116 106.13 532.661 105.826 532.16 105.619C531.659 105.411 531.123 105.304 530.581 105.304Z" fill="black"/>
            <path d="M417.88 77.1296C417.063 77.1284 416.265 77.3694 415.586 77.822C414.906 78.2747 414.376 78.9187 414.063 79.6725C413.75 80.4264 413.667 81.2561 413.826 82.057C413.984 82.8578 414.376 83.5937 414.953 84.1714C415.53 84.7492 416.265 85.143 417.065 85.3029C417.866 85.4628 418.696 85.3817 419.45 85.0697C420.205 84.7578 420.85 84.2291 421.304 83.5506C421.758 82.872 422 82.074 422 81.2577C422 80.1643 421.566 79.1157 420.793 78.3419C420.021 77.568 418.973 77.132 417.88 77.1296Z" fill="black"/>
            <path d="M365.052 16.217C364.51 16.2167 363.973 16.3233 363.473 16.5306C362.972 16.7379 362.517 17.042 362.133 17.4254C361.75 17.8088 361.446 18.2639 361.239 18.7649C361.032 19.2658 360.925 19.8028 360.926 20.3449C360.927 21.4379 361.363 22.4855 362.137 23.2574C362.911 24.0293 363.959 24.4623 365.052 24.4609C366.145 24.4617 367.193 24.0285 367.966 23.2566C368.74 22.4848 369.175 21.4374 369.176 20.3449C369.177 19.803 369.07 19.2663 368.863 18.7655C368.656 18.2647 368.353 17.8096 367.97 17.4262C367.587 17.0429 367.132 16.7387 366.631 16.5312C366.131 16.3238 365.594 16.217 365.052 16.217Z" fill="black"/>
            <path d="M374.398 47.5245C373.305 47.5256 372.257 47.9606 371.485 48.7342C370.712 49.5077 370.279 50.5564 370.279 51.6496C370.278 52.1913 370.384 52.7279 370.59 53.2288C370.796 53.7296 371.1 54.1848 371.482 54.5682C371.865 54.9517 372.319 55.2558 372.82 55.4633C373.32 55.6708 373.857 55.7775 374.398 55.7773C374.94 55.7775 375.477 55.6708 375.978 55.4634C376.479 55.256 376.934 54.9519 377.318 54.5686C377.701 54.1853 378.005 53.7303 378.212 53.2294C378.42 52.7285 378.527 52.1917 378.526 51.6496C378.525 50.5556 378.089 49.5071 377.315 48.7338C376.541 47.9605 375.492 47.5257 374.398 47.5245Z" fill="black"/>
            <path d="M534.698 46.6739C533.883 46.6742 533.086 46.9161 532.409 47.3691C531.731 47.8221 531.203 48.4658 530.891 49.2189C530.579 49.9719 530.498 50.8005 530.657 51.6C530.816 52.3994 531.208 53.1338 531.785 53.7102C532.361 54.2867 533.095 54.6793 533.894 54.8385C534.694 54.9978 535.522 54.9165 536.276 54.6048C537.029 54.2932 537.673 53.7653 538.126 53.0878C538.579 52.4103 538.821 51.6137 538.822 50.7986C538.822 50.2569 538.716 49.7205 538.509 49.22C538.302 48.7194 537.998 48.2647 537.615 47.8816C537.232 47.4985 536.777 47.1947 536.277 46.9874C535.776 46.7802 535.24 46.6737 534.698 46.6739Z" fill="black"/>
            <path d="M442.114 66.0318C442.115 66.7593 441.899 67.4706 441.495 68.0757C441.091 68.6807 440.516 69.1523 439.844 69.4308C439.172 69.7093 438.432 69.7822 437.719 69.6403C437.005 69.4984 436.35 69.1481 435.835 68.6336C435.321 68.1191 434.97 67.4637 434.828 66.7501C434.687 66.0365 434.759 65.2968 435.038 64.6247C435.316 63.9525 435.788 63.378 436.393 62.9739C436.998 62.5698 437.709 62.3542 438.437 62.3544C439.412 62.3547 440.347 62.7423 441.037 63.4318C441.726 64.1214 442.114 65.0566 442.114 66.0318ZM435.516 66.0318C435.516 66.6091 435.687 67.1736 436.007 67.6539C436.328 68.1341 436.783 68.5086 437.317 68.7299C437.85 68.9511 438.437 69.0093 439.003 68.8969C439.57 68.7846 440.09 68.5069 440.498 68.0989C440.907 67.6908 441.185 67.1707 441.298 66.6045C441.411 66.0383 441.354 65.4513 441.133 64.9178C440.912 64.3842 440.538 63.9282 440.059 63.6071C439.579 63.2861 439.014 63.1145 438.437 63.1141C437.663 63.1138 436.92 63.421 436.372 63.9682C435.825 64.5153 435.517 65.2576 435.516 66.0318Z" fill="black"/>
            <path d="M442.571 66.0284C442.571 66.8465 442.328 67.6461 441.873 68.3263C441.419 69.0064 440.773 69.5364 440.017 69.8494C439.261 70.1624 438.43 70.2442 437.627 70.0845C436.825 69.9248 436.088 69.5307 435.51 68.9522C434.931 68.3737 434.537 67.6366 434.378 66.8342C434.218 66.0319 434.301 65.2003 434.614 64.4446C434.927 63.6888 435.457 63.0429 436.137 62.5885C436.818 62.1342 437.617 61.8917 438.435 61.8918C439.532 61.8931 440.583 62.3294 441.359 63.1049C442.134 63.8804 442.57 64.9318 442.571 66.0284ZM435.973 66.0284C435.973 66.5152 436.117 66.991 436.387 67.3958C436.658 67.8005 437.042 68.116 437.492 68.3023C437.941 68.4887 438.436 68.5375 438.914 68.4427C439.391 68.3478 439.83 68.1135 440.174 67.7694C440.518 67.4253 440.753 66.9869 440.848 66.5095C440.943 66.0322 440.894 65.5373 440.708 65.0875C440.522 64.6377 440.207 64.2532 439.803 63.9826C439.398 63.7119 438.922 63.5673 438.435 63.567C437.783 63.5674 437.157 63.8267 436.695 64.2882C436.233 64.7497 435.973 65.3756 435.973 66.0284Z" fill="black"/>
            <path d="M551.779 110.192C551.78 110.92 551.566 111.633 551.163 112.24C550.759 112.846 550.185 113.32 549.513 113.6C548.84 113.88 548.099 113.954 547.385 113.813C546.67 113.672 546.013 113.322 545.497 112.808C544.982 112.293 544.63 111.637 544.487 110.923C544.345 110.208 544.417 109.468 544.696 108.794C544.974 108.121 545.446 107.546 546.052 107.141C546.657 106.736 547.37 106.52 548.098 106.52C549.072 106.521 550.007 106.908 550.696 107.596C551.386 108.284 551.775 109.218 551.779 110.192ZM545.175 110.192C545.173 110.77 545.343 111.335 545.664 111.817C545.984 112.298 546.439 112.673 546.973 112.896C547.507 113.118 548.094 113.177 548.661 113.065C549.228 112.953 549.749 112.676 550.159 112.267C550.568 111.859 550.847 111.339 550.961 110.772C551.074 110.205 551.017 109.618 550.796 109.084C550.576 108.549 550.202 108.092 549.721 107.771C549.241 107.449 548.676 107.277 548.098 107.277C547.325 107.279 546.583 107.586 546.036 108.132C545.488 108.678 545.178 109.418 545.175 110.192Z" fill="black"/>
            <path d="M552.233 110.199C552.235 111.018 551.994 111.819 551.54 112.501C551.087 113.183 550.441 113.715 549.685 114.03C548.929 114.345 548.097 114.428 547.293 114.269C546.49 114.111 545.751 113.717 545.171 113.139C544.592 112.56 544.197 111.823 544.036 111.019C543.876 110.216 543.958 109.384 544.271 108.627C544.584 107.87 545.115 107.223 545.796 106.768C546.477 106.313 547.277 106.071 548.096 106.071C549.191 106.073 550.241 106.508 551.016 107.281C551.792 108.055 552.229 109.104 552.233 110.199ZM545.63 110.199C545.629 110.687 545.772 111.164 546.041 111.57C546.311 111.976 546.695 112.293 547.145 112.481C547.595 112.668 548.09 112.718 548.569 112.624C549.047 112.531 549.487 112.297 549.832 111.953C550.178 111.609 550.413 111.17 550.509 110.692C550.605 110.214 550.557 109.718 550.371 109.268C550.186 108.817 549.87 108.432 549.465 108.16C549.06 107.889 548.584 107.744 548.096 107.743C547.444 107.744 546.819 108.003 546.357 108.463C545.895 108.923 545.634 109.547 545.63 110.199Z" fill="black"/>
            <path d="M402.828 35.5687C402.829 36.2969 402.614 37.0091 402.21 37.6151C401.807 38.2211 401.232 38.6935 400.559 38.9727C399.887 39.2519 399.146 39.3253 398.432 39.1835C397.718 39.0417 397.062 38.6911 396.547 38.1762C396.032 37.6612 395.681 37.0052 395.539 36.2909C395.397 35.5766 395.471 34.8362 395.75 34.1636C396.029 33.491 396.501 32.9164 397.107 32.5124C397.713 32.1084 398.425 31.8933 399.154 31.8943C400.128 31.895 401.062 32.2824 401.751 32.9713C402.44 33.6602 402.828 34.5944 402.828 35.5687ZM396.23 35.5687C396.231 36.3442 396.539 37.0879 397.087 37.6365C397.635 38.1852 398.378 38.4941 399.154 38.4954C399.928 38.4929 400.669 38.1833 401.216 37.6346C401.762 37.0859 402.068 36.3429 402.067 35.5687C402.067 34.7957 401.76 34.0545 401.214 33.5075C400.667 32.9605 399.927 32.6525 399.154 32.6511C398.379 32.6513 397.637 32.9586 397.089 33.5056C396.541 34.0525 396.232 34.7944 396.23 35.5687Z" fill="black"/>
            <path d="M403.279 35.5593C403.279 36.656 402.844 37.7079 402.069 38.4841C401.294 39.2603 400.243 39.6974 399.147 39.6992C398.049 39.6992 396.997 39.2634 396.221 38.4875C395.446 37.7117 395.01 36.6595 395.01 35.5624C395.01 34.4652 395.446 33.4129 396.221 32.6371C396.997 31.8613 398.049 31.4255 399.147 31.4255C400.242 31.427 401.293 31.863 402.068 32.6379C402.842 33.4129 403.278 34.4636 403.279 35.5593ZM396.681 35.5593C396.681 36.2136 396.941 36.8411 397.403 37.3042C397.865 37.7673 398.492 38.0282 399.147 38.0298C399.8 38.0268 400.425 37.7651 400.885 37.302C401.345 36.8389 401.603 36.2123 401.602 35.5593C401.602 34.9075 401.344 34.2822 400.883 33.8207C400.423 33.3592 399.798 33.0993 399.147 33.0979C398.493 33.0979 397.867 33.3571 397.405 33.8186C396.942 34.2801 396.682 34.9061 396.681 35.5593Z" fill="black"/>
            <path d="M473.976 20.3368C473.975 21.0646 473.758 21.7756 473.353 22.3802C472.948 22.9847 472.373 23.4556 471.7 23.7333C471.027 24.011 470.287 24.083 469.574 23.9402C468.86 23.7975 468.205 23.4464 467.691 22.9313C467.177 22.4162 466.827 21.7603 466.685 21.0464C466.544 20.3325 466.617 19.5927 466.896 18.9205C467.175 18.2483 467.647 17.674 468.253 17.27C468.858 16.8659 469.569 16.6505 470.297 16.6507C470.781 16.6509 471.26 16.7464 471.706 16.9318C472.153 17.1172 472.559 17.3889 472.901 17.7312C473.242 18.0735 473.513 18.4799 473.698 18.927C473.882 19.3741 473.977 19.8531 473.976 20.3368ZM467.373 20.3368C467.374 20.9147 467.545 21.4794 467.867 21.9598C468.188 22.4401 468.644 22.8146 469.178 23.0356C469.712 23.2566 470.299 23.3143 470.866 23.2015C471.433 23.0887 471.954 22.8104 472.362 22.4018C472.771 21.9932 473.049 21.4726 473.162 20.9059C473.275 20.3392 473.217 19.7517 472.996 19.2178C472.775 18.6839 472.401 18.2274 471.92 17.9062C471.44 17.585 470.875 17.4135 470.297 17.4132C469.522 17.4135 468.778 17.7215 468.23 18.2697C467.682 18.818 467.374 19.5615 467.373 20.3368Z" fill="black"/>
            <path d="M474.432 20.3427C474.431 21.1611 474.188 21.9607 473.733 22.6407C473.277 23.3207 472.631 23.8504 471.874 24.1629C471.118 24.4754 470.286 24.5567 469.483 24.3964C468.681 24.2361 467.944 23.8415 467.366 23.2625C466.788 22.6834 466.394 21.9459 466.235 21.1432C466.076 20.3405 466.158 19.5087 466.472 18.7528C466.785 17.9969 467.316 17.351 467.996 16.8966C468.677 16.4422 469.477 16.1998 470.295 16.2001C471.393 16.2018 472.445 16.6389 473.221 17.4156C473.996 18.1923 474.432 19.2451 474.432 20.3427ZM467.83 20.3427C467.83 20.8299 467.975 21.306 468.246 21.7108C468.518 22.1156 468.903 22.431 469.353 22.617C469.803 22.8031 470.298 22.8515 470.776 22.7562C471.254 22.6608 471.693 22.4261 472.037 22.0815C472.382 21.7368 472.616 21.2979 472.711 20.82C472.806 20.3421 472.757 19.8468 472.571 19.3967C472.384 18.9466 472.069 18.5618 471.664 18.291C471.259 18.0202 470.783 17.8755 470.295 17.8752C469.641 17.8758 469.014 18.136 468.552 18.5987C468.09 19.0614 467.83 19.6887 467.83 20.3427Z" fill="black"/>
            <path opacity="0.96" d="M494.909 -25.3588C494.908 -25.123 494.815 -24.8968 494.65 -24.7289L479.42 -9.49486C479.252 -9.32866 479.025 -9.23566 478.789 -9.23594L433.471 -9.23594L418.501 5.73315C418.418 5.81605 418.32 5.88171 418.213 5.92619C418.105 5.97066 417.989 5.99309 417.872 5.99216L387.409 5.99216C387.292 5.99228 387.176 5.96943 387.068 5.92481C386.96 5.88019 386.862 5.81471 386.779 5.73214C386.696 5.64957 386.631 5.55153 386.586 5.4436C386.541 5.33566 386.518 5.21993 386.518 5.10307C386.518 4.98606 386.54 4.87015 386.585 4.76199C386.63 4.65382 386.695 4.55556 386.778 4.47289C386.861 4.39022 386.959 4.32476 387.067 4.28032C387.176 4.23587 387.292 4.21335 387.409 4.21398L417.506 4.21398L432.468 -10.7551C432.552 -10.838 432.65 -10.9036 432.759 -10.9481C432.868 -10.9925 432.984 -11.015 433.102 -11.0141L478.421 -11.0141L493.391 -25.9889C493.515 -26.1137 493.674 -26.1988 493.847 -26.2332C494.019 -26.2677 494.198 -26.25 494.361 -26.1824C494.524 -26.1149 494.663 -26.0006 494.76 -25.8539C494.858 -25.7073 494.909 -25.535 494.909 -25.3588Z" fill="black"/>
            <path opacity="0.37" d="M507.337 -7.30393C507.336 -7.06979 507.243 -6.84539 507.078 -6.67955L494.656 5.74546C494.573 5.82892 494.475 5.89491 494.367 5.93942C494.259 5.98393 494.143 6.00606 494.025 6.00447L463.934 6.00447L448.969 20.9733C448.886 21.0566 448.789 21.1229 448.681 21.1683C448.573 21.2138 448.457 21.2376 448.34 21.2383L364.571 21.2383C364.454 21.2385 364.339 21.2157 364.231 21.1711C364.123 21.1265 364.025 21.0611 363.942 20.9784C363.859 20.8958 363.794 20.7977 363.749 20.6897C363.705 20.5817 363.682 20.466 363.682 20.3492C363.683 20.1135 363.777 19.8877 363.943 19.721C364.11 19.5544 364.336 19.4605 364.571 19.46L447.973 19.46L462.935 4.48521C463.103 4.31925 463.329 4.22625 463.565 4.22629L493.656 4.22629L505.819 -7.93411C505.901 -8.01732 505.999 -8.08335 506.107 -8.12844C506.215 -8.17352 506.331 -8.19671 506.448 -8.19671C506.565 -8.19671 506.681 -8.17352 506.789 -8.12844C506.897 -8.08335 506.995 -8.01732 507.078 -7.93411C507.161 -7.85169 507.226 -7.75342 507.271 -7.6452C507.315 -7.53697 507.338 -7.42094 507.337 -7.30393Z" fill="black"/>
            <path opacity="0.43" d="M577.158 94.9717C577.158 95.0887 577.136 95.2047 577.091 95.3129C577.047 95.4212 576.981 95.5195 576.899 95.6024C576.816 95.6853 576.718 95.751 576.61 95.7959C576.502 95.8408 576.386 95.8639 576.269 95.8639L561.93 95.8639L561.93 110.197C561.93 110.314 561.907 110.43 561.862 110.538C561.818 110.646 561.752 110.745 561.669 110.827C561.586 110.91 561.488 110.975 561.379 111.02C561.271 111.064 561.155 111.087 561.038 111.086L551.135 111.086C550.899 111.086 550.673 110.992 550.506 110.825C550.339 110.659 550.246 110.433 550.246 110.197C550.246 109.961 550.339 109.735 550.506 109.568C550.673 109.401 550.899 109.308 551.135 109.308L560.152 109.308L560.152 94.9717C560.152 94.8553 560.174 94.7401 560.219 94.6325C560.264 94.525 560.329 94.4273 560.411 94.345C560.493 94.2627 560.591 94.1973 560.699 94.1528C560.806 94.1082 560.921 94.0854 561.038 94.0853L576.269 94.0853C576.504 94.085 576.73 94.1782 576.897 94.3444C577.064 94.5107 577.158 94.7362 577.158 94.9717Z" fill="black"/>
            <path opacity="0.79" d="M550.51 20.3461C550.51 20.4622 550.487 20.5772 550.443 20.6844C550.398 20.7916 550.332 20.8888 550.249 20.9702L535.018 36.2042C534.851 36.3693 534.626 36.4614 534.391 36.4602L506.081 36.4602L519.53 49.9127L534.391 49.9127C534.509 49.9105 534.627 49.9319 534.736 49.9756C534.846 50.0194 534.946 50.0845 535.031 50.1673C535.115 50.2501 535.182 50.3489 535.228 50.4579C535.273 50.5668 535.297 50.6838 535.297 50.802C535.297 50.9202 535.273 51.0372 535.228 51.1462C535.182 51.2552 535.115 51.3539 535.031 51.4367C534.946 51.5195 534.846 51.5846 534.736 51.6283C534.627 51.672 534.509 51.6934 534.391 51.6913L519.163 51.6913C519.046 51.6926 518.93 51.6707 518.821 51.6267C518.712 51.5827 518.613 51.5175 518.53 51.435L503.305 36.2042C503.18 36.0796 503.094 35.9206 503.06 35.7475C503.025 35.5744 503.042 35.3949 503.11 35.2316C503.177 35.0683 503.291 34.9286 503.438 34.8303C503.584 34.7319 503.757 34.6792 503.933 34.6789L534.021 34.6789L548.988 19.7159C549.112 19.591 549.271 19.506 549.444 19.4715C549.617 19.437 549.796 19.4545 549.959 19.522C550.122 19.5895 550.262 19.7038 550.36 19.8505C550.458 19.9972 550.51 20.1697 550.51 20.3461Z" fill="black"/>
            <path opacity="0.97" d="M586.306 -25.3465C586.306 -25.2294 586.283 -25.1135 586.238 -25.0054C586.193 -24.8974 586.127 -24.7992 586.044 -24.7166L555.583 5.74547C555.501 5.82872 555.403 5.89456 555.295 5.93906C555.186 5.98355 555.07 6.00581 554.953 6.00447L524.863 6.00448L509.891 20.9733C509.808 21.0569 509.71 21.1233 509.602 21.1688C509.494 21.2143 509.378 21.2379 509.261 21.2383L473.475 21.2383C473.239 21.2383 473.013 21.1446 472.847 20.9779C472.68 20.8112 472.586 20.585 472.586 20.3492C472.586 20.1134 472.68 19.8872 472.847 19.7205C473.013 19.5537 473.239 19.46 473.475 19.46L508.893 19.46L523.863 4.48521C524.031 4.3193 524.257 4.22631 524.493 4.22629L554.584 4.22629L584.785 -25.9766C584.91 -26.1009 585.069 -26.1854 585.242 -26.2196C585.414 -26.2538 585.593 -26.236 585.756 -26.1686C585.919 -26.1012 586.058 -25.9872 586.155 -25.8409C586.253 -25.6946 586.306 -25.5226 586.306 -25.3465Z" fill="black"/>
            <path opacity="0.83" d="M647.228 -10.1328C647.229 -10.0153 647.207 -9.89886 647.162 -9.7901C647.118 -9.68134 647.052 -9.58249 646.969 -9.49926C646.886 -9.41602 646.788 -9.35 646.679 -9.30511C646.57 -9.26023 646.454 -9.23738 646.336 -9.23777L601.015 -9.23776L555.843 35.9282L555.843 50.7938C555.844 50.9108 555.821 51.0267 555.776 51.1349C555.732 51.2431 555.666 51.3414 555.584 51.424L540.351 66.6491C540.185 66.8161 539.96 66.9112 539.724 66.9141L509.261 66.9141C509.025 66.9113 508.8 66.8161 508.633 66.6491L478.432 36.4492L402.648 36.4492C402.412 36.4492 402.186 36.3554 402.019 36.1884C401.852 36.0213 401.758 35.7948 401.758 35.5586C401.758 35.3224 401.852 35.0959 402.019 34.9288C402.186 34.7618 402.412 34.6679 402.648 34.6679L478.8 34.6679C478.918 34.6676 479.034 34.6908 479.143 34.7364C479.251 34.7819 479.35 34.8488 479.432 34.933L509.63 65.1359L539.355 65.1359L554.064 50.4261L554.064 35.5571C554.065 35.4408 554.088 35.3257 554.133 35.2185C554.178 35.1113 554.245 35.0142 554.328 34.933L600.015 -10.7569C600.098 -10.8398 600.196 -10.9054 600.305 -10.9499C600.413 -10.9943 600.529 -11.0168 600.646 -11.0159L646.336 -11.0159C646.453 -11.0169 646.569 -10.9948 646.677 -10.9509C646.785 -10.907 646.883 -10.8421 646.966 -10.7601C647.049 -10.678 647.115 -10.5803 647.16 -10.4726C647.205 -10.365 647.228 -10.2495 647.228 -10.1328Z" fill="black"/>
            <path opacity="0.72" d="M531.471 109.439C531.471 109.556 531.448 109.671 531.404 109.779C531.359 109.887 531.294 109.986 531.211 110.068C531.128 110.151 531.03 110.216 530.922 110.261C530.814 110.305 530.699 110.328 530.582 110.328L515.352 110.328C515.236 110.328 515.121 110.304 515.013 110.259C514.906 110.215 514.809 110.149 514.727 110.066L471.579 66.9229L441.488 66.9229C441.252 66.9229 441.026 66.8293 440.86 66.6625C440.693 66.4958 440.599 66.2696 440.599 66.0338C440.599 65.798 440.693 65.5719 440.86 65.4051C441.026 65.2384 441.252 65.1447 441.488 65.1447L471.949 65.1447C472.065 65.1435 472.181 65.1655 472.289 65.2094C472.397 65.2534 472.495 65.3184 472.577 65.4007L515.72 108.547L530.582 108.547C530.699 108.547 530.815 108.57 530.923 108.614C531.031 108.659 531.129 108.725 531.212 108.808C531.295 108.891 531.36 108.989 531.404 109.098C531.449 109.206 531.471 109.322 531.471 109.439Z" fill="black"/>
            <path opacity="0.65" d="M615.869 129.844C616.103 129.844 616.328 129.752 616.494 129.588L615.499 128.063L509.623 126.063L464.192 80.6376C464.024 80.4723 463.799 80.3784 463.564 80.3756L417.876 80.3756C417.64 80.3756 417.414 80.4694 417.247 80.6364C417.08 80.8034 416.986 81.03 416.986 81.2662C416.986 81.5024 417.08 81.729 417.247 81.896C417.414 82.0631 417.64 82.1569 417.876 82.1569L463.197 82.1569L508.626 127.588C508.793 127.752 509.019 127.844 509.254 127.844L615.869 129.844Z" fill="black"/>
            <path opacity="0.53" d="M585.642 36.2141L616.225 6.76191L615.867 4.98372C615.637 4.98254 615.415 5.07123 615.249 5.23095L584.403 34.9333L568.79 50.1731C568.705 50.2548 568.637 50.3531 568.592 50.4619C568.546 50.5708 568.523 50.6878 568.524 50.8059L568.524 65.6897L554.552 81.1354L509.621 81.1354L479.423 50.9386C479.341 50.854 479.243 50.7867 479.134 50.7407C479.026 50.6947 478.909 50.6708 478.791 50.6706L374.398 50.6706C374.281 50.6704 374.165 50.6935 374.057 50.7382C373.949 50.783 373.85 50.8487 373.767 50.9315C373.684 51.0144 373.619 51.1129 373.574 51.2212C373.529 51.3295 373.506 51.4455 373.506 51.5627C373.507 51.7985 373.602 52.0244 373.769 52.1906C373.936 52.3568 374.163 52.4498 374.398 52.4492L478.424 52.4491L508.625 82.6547C508.792 82.8202 509.017 82.9133 509.252 82.914L554.945 82.914C555.069 82.9155 555.191 82.8905 555.305 82.8408C555.418 82.791 555.52 82.7176 555.603 82.6254L570.074 66.6319C570.221 66.4672 570.302 66.2545 570.302 66.034L570.302 51.1858L585.642 36.2141Z" fill="black"/>
        </g>
    </g>
</svg>
