<svg width="1680" height="80" viewBox="0 0 1680 80" fill="none" xmlns="http://www.w3.org/2000/svg">
    <mask id="header-background-mask0" mask-type="alpha" maskUnits="userSpaceOnUse" x="0" y="0" width="1680" height="80">
        <rect width="1680" height="80" fill="white"/>
    </mask>
    <g mask="url(#header-background-mask0)">
        <rect width="1680" height="80" fill="white"/>
        <g opacity="0.1">
            <path d="M146.061 13.236C146.061 13.7186 146.204 14.1903 146.472 14.5915C146.741 14.9928 147.122 15.3055 147.568 15.4901C148.013 15.6747 148.504 15.723 148.977 15.6289C149.451 15.5347 149.885 15.3023 150.227 14.9611C150.568 14.6198 150.8 14.185 150.894 13.7117C150.989 13.2384 150.94 12.7478 150.756 12.3019C150.571 11.856 150.258 11.4749 149.857 11.2067C149.456 10.9385 148.984 10.7953 148.502 10.7952C147.855 10.7967 147.235 11.0543 146.777 11.5117C146.32 11.9691 146.062 12.5891 146.061 13.236ZM150.437 13.236C150.437 13.6189 150.324 13.9935 150.112 14.3121C149.899 14.6308 149.597 14.8792 149.243 15.0261C148.89 15.173 148.501 15.2116 148.125 15.1372C147.749 15.0627 147.404 14.8785 147.133 14.6079C146.862 14.3372 146.678 13.9923 146.603 13.6168C146.528 13.2412 146.566 12.8518 146.713 12.498C146.859 12.1442 147.107 11.8418 147.426 11.629C147.744 11.4163 148.119 11.3028 148.502 11.3029C149.014 11.3038 149.506 11.5077 149.868 11.87C150.231 12.2323 150.435 12.7234 150.437 13.236Z" fill="black"/>
            <path d="M145.75 13.24C145.75 13.7827 145.911 14.3133 146.213 14.7646C146.514 15.2158 146.943 15.5676 147.444 15.7753C147.945 15.9831 148.497 16.0375 149.029 15.9317C149.562 15.8259 150.051 15.5646 150.434 15.1809C150.818 14.7973 151.08 14.3084 151.185 13.7762C151.291 13.2439 151.237 12.6922 151.03 12.1908C150.822 11.6894 150.47 11.2608 150.019 10.9592C149.568 10.6576 149.037 10.4966 148.495 10.4965C147.767 10.4977 147.07 10.7871 146.556 11.3013C146.041 11.8156 145.752 12.5127 145.75 13.24ZM150.126 13.24C150.126 13.5629 150.031 13.8786 149.852 14.1472C149.673 14.4157 149.418 14.6251 149.12 14.7488C148.822 14.8725 148.493 14.9051 148.177 14.8422C147.86 14.7794 147.569 14.624 147.341 14.3958C147.112 14.1676 146.957 13.8768 146.894 13.5602C146.831 13.2435 146.863 12.9154 146.987 12.6171C147.11 12.3188 147.319 12.0639 147.588 11.8846C147.856 11.7052 148.172 11.6096 148.495 11.6097C148.927 11.6109 149.341 11.783 149.647 12.0885C149.952 12.394 150.125 12.8079 150.126 13.24Z" fill="black"/>
            <path opacity="0.76" d="M149.51 14.64C149.51 14.7955 149.571 14.945 149.68 15.0559L162.137 27.5977C162.191 27.6535 162.257 27.6977 162.329 27.7279C162.401 27.7581 162.478 27.7736 162.557 27.7734L222.233 27.7734C222.31 27.7737 222.387 27.7587 222.459 27.7292C222.53 27.6997 222.595 27.6562 222.65 27.6014C222.705 27.5466 222.748 27.4815 222.778 27.4098C222.808 27.3381 222.823 27.2613 222.822 27.1838C222.823 27.1062 222.808 27.0292 222.778 26.9574C222.749 26.8855 222.705 26.8203 222.651 26.7653C222.596 26.7103 222.531 26.6667 222.459 26.637C222.387 26.6073 222.31 26.592 222.233 26.5921L162.804 26.5921L150.518 14.2221C150.406 14.1125 150.257 14.0509 150.101 14.0506C149.944 14.0502 149.794 14.1112 149.683 14.2203C149.573 14.3324 149.511 14.4829 149.51 14.64Z" fill="black"/>
            <path opacity="0.41" d="M133.763 7.937L133.763 16.5832C133.764 16.7387 133.827 16.8875 133.938 16.997C134.048 17.1065 134.197 17.168 134.353 17.168C134.508 17.168 134.658 17.1065 134.768 16.997C134.879 16.8875 134.941 16.7387 134.942 16.5832L134.942 8.18694L140.303 3.03207L153.425 3.03207L166.135 15.9838C166.247 16.0953 166.399 16.1577 166.557 16.1575L199.502 16.1575C199.58 16.1579 199.656 16.143 199.728 16.1137C199.8 16.0843 199.865 16.0411 199.92 15.9865C199.975 15.9319 200.019 15.867 200.048 15.7955C200.078 15.724 200.094 15.6473 200.094 15.5699C200.094 15.492 200.079 15.4149 200.05 15.3429C200.02 15.2709 199.977 15.2055 199.921 15.1504C199.866 15.0954 199.801 15.0518 199.729 15.0223C199.657 14.9927 199.58 14.9778 199.502 14.9782L166.804 14.9782L154.094 2.0283C154.039 1.97213 153.973 1.92753 153.9 1.89705C153.828 1.86656 153.75 1.8508 153.671 1.85073L140.065 1.85073C139.912 1.85116 139.766 1.91065 139.656 2.01671L133.945 7.50748C133.887 7.56345 133.842 7.63029 133.811 7.70403C133.78 7.77776 133.763 7.85695 133.763 7.937Z" fill="black"/>
            <path d="M206.295 74.653C206.296 75.3801 206.586 76.0771 207.1 76.5911C207.614 77.1051 208.312 77.394 209.039 77.3945C209.766 77.3943 210.464 77.1055 210.978 76.5915C211.493 76.0776 211.783 75.3804 211.784 74.653C211.783 73.9257 211.493 73.2285 210.978 72.7146C210.464 72.2006 209.766 71.9118 209.039 71.9115C208.312 71.9121 207.614 72.2011 207.1 72.715C206.586 73.229 206.296 73.926 206.295 74.653ZM210.674 74.653C210.673 75.0861 210.5 75.501 210.194 75.8067C209.887 76.1125 209.472 76.284 209.039 76.2836C208.606 76.2835 208.191 76.1118 207.885 75.8061C207.579 75.5004 207.406 75.0857 207.406 74.653C207.407 74.2205 207.579 73.806 207.885 73.5004C208.191 73.1948 208.606 73.023 209.039 73.0227C209.472 73.0226 209.887 73.1941 210.193 73.4998C210.5 73.8054 210.673 74.2202 210.674 74.653Z" fill="black"/>
            <path d="M208.155 44.36C208.156 45.0055 208.413 45.6244 208.87 46.0806C209.327 46.5368 209.946 46.793 210.591 46.793C210.912 46.7937 211.229 46.7314 211.525 46.6095C211.821 46.4876 212.09 46.3086 212.317 46.0827C212.544 45.8568 212.724 45.5883 212.848 45.2927C212.971 44.9972 213.034 44.6802 213.035 44.36C213.034 43.7124 212.777 43.0915 212.318 42.6339C211.86 42.1762 211.239 41.9191 210.591 41.9192C209.945 41.9206 209.325 42.1784 208.869 42.6359C208.412 43.0935 208.156 43.7135 208.155 44.36ZM212.53 44.36C212.528 44.8727 212.323 45.3637 211.96 45.7254C211.596 46.087 211.104 46.2897 210.591 46.2891C210.08 46.2886 209.589 46.0853 209.227 45.7237C208.865 45.3621 208.661 44.8717 208.659 44.36C208.659 43.847 208.862 43.3548 209.224 42.9916C209.587 42.6284 210.078 42.4238 210.591 42.4229C211.105 42.4227 211.598 42.6267 211.962 42.99C212.326 43.3532 212.53 43.846 212.53 44.36Z" fill="black"/>
            <path d="M207.853 44.364C207.855 45.09 208.144 45.7857 208.657 46.2989C209.171 46.812 209.867 47.1006 210.593 47.1016C211.32 47.1017 212.017 46.8137 212.532 46.3006C213.047 45.7874 213.337 45.091 213.34 44.364C213.339 43.6358 213.049 42.9377 212.534 42.4229C212.019 41.9081 211.321 41.6188 210.593 41.6185C209.865 41.6199 209.168 41.9099 208.655 42.4246C208.141 42.9393 207.853 43.6369 207.853 44.364ZM212.228 44.364C212.226 44.7961 212.053 45.2098 211.746 45.5143C211.439 45.8188 211.025 45.9894 210.593 45.9886C210.161 45.9884 209.748 45.8174 209.443 45.5129C209.137 45.2083 208.965 44.7952 208.964 44.364C208.964 43.9317 209.135 43.5168 209.44 43.2107C209.746 42.9046 210.16 42.7323 210.593 42.7317C211.026 42.7313 211.442 42.9031 211.748 43.2093C212.055 43.5154 212.227 43.9307 212.228 44.364Z" fill="black"/>
            <path d="M195.537 64.5574C195.538 65.2052 195.795 65.8264 196.254 66.2844C196.712 66.7424 197.333 66.9998 197.981 67C198.628 66.999 199.249 66.7413 199.706 66.2833C200.164 65.8254 200.421 65.2047 200.421 64.5574C200.42 63.9106 200.163 63.2905 199.705 62.8333C199.248 62.376 198.628 62.1189 197.981 62.1184C197.334 62.1181 196.713 62.3749 196.254 62.8322C195.796 63.2895 195.538 63.91 195.537 64.5574ZM199.916 64.5574C199.915 65.0705 199.711 65.5624 199.348 65.9254C198.986 66.2885 198.494 66.493 197.981 66.4943C197.467 66.4938 196.975 66.2897 196.611 65.9266C196.248 65.5635 196.043 65.0711 196.042 64.5574C196.043 64.0441 196.248 63.5522 196.612 63.1898C196.975 62.8273 197.468 62.6239 197.981 62.6243C198.494 62.6247 198.985 62.8285 199.348 63.1909C199.711 63.5532 199.915 64.0446 199.916 64.5574Z" fill="black"/>
            <path d="M195.236 64.5594C195.237 65.2875 195.527 65.9854 196.042 66.5001C196.557 67.0147 197.255 67.3041 197.983 67.3047C198.711 67.3035 199.408 67.0138 199.922 66.4992C200.437 65.9845 200.726 65.2869 200.727 64.5594C200.725 63.8323 200.436 63.1354 199.922 62.6214C199.407 62.1075 198.71 61.8185 197.983 61.8179C197.255 61.8179 196.558 62.1066 196.043 62.6205C195.527 63.1345 195.237 63.8317 195.236 64.5594ZM199.615 64.5594C199.614 64.992 199.442 65.4069 199.136 65.7129C198.83 66.019 198.416 66.1911 197.983 66.1918C197.55 66.1917 197.134 66.0198 196.828 65.7138C196.521 65.4077 196.349 64.9925 196.348 64.5594C196.349 64.1264 196.521 63.7115 196.828 63.4057C197.135 63.1 197.55 62.9284 197.983 62.9288C198.416 62.929 198.83 63.1009 199.136 63.4066C199.442 63.7123 199.614 64.1269 199.615 64.5594Z" fill="black"/>
            <path d="M104.759 75.0974C104.76 75.5799 104.903 76.0515 105.172 76.4525C105.44 76.8535 105.821 77.1658 106.267 77.3501C106.713 77.5344 107.204 77.5824 107.677 77.4879C108.15 77.3934 108.585 77.1608 108.926 76.8193C109.267 76.4779 109.499 76.0431 109.593 75.5697C109.687 75.0964 109.638 74.6059 109.454 74.1601C109.269 73.7144 108.956 73.3335 108.554 73.0655C108.153 72.7975 107.681 72.6545 107.199 72.6546C106.552 72.6556 105.931 72.9133 105.474 73.3713C105.016 73.8293 104.759 74.4501 104.759 75.0974ZM109.135 75.0974C109.135 75.4801 109.021 75.8542 108.808 76.1723C108.595 76.4904 108.293 76.7382 107.939 76.8845C107.585 77.0308 107.196 77.069 106.821 76.9942C106.446 76.9193 106.101 76.7349 105.83 76.4642C105.56 76.1935 105.376 75.8486 105.301 75.4732C105.226 75.0979 105.265 74.7088 105.411 74.3552C105.558 74.0016 105.806 73.6993 106.124 73.4866C106.442 73.274 106.816 73.1604 107.199 73.1603C107.712 73.1617 108.204 73.3663 108.567 73.7293C108.929 74.0923 109.134 74.5841 109.135 75.0974Z" fill="black"/>
            <path d="M104.456 75.1012C104.457 75.6439 104.618 76.1743 104.92 76.6254C105.221 77.0764 105.65 77.4279 106.151 77.6354C106.653 77.8428 107.205 77.8969 107.737 77.7908C108.269 77.6847 108.758 77.4232 109.141 77.0393C109.525 76.6555 109.786 76.1665 109.892 75.6342C109.997 75.102 109.943 74.5503 109.735 74.049C109.527 73.5477 109.176 73.1193 108.724 72.8179C108.273 72.5165 107.743 72.3557 107.2 72.3558C106.472 72.357 105.775 72.6468 105.261 73.1614C104.746 73.6761 104.457 74.3737 104.456 75.1012ZM108.832 75.1012C108.832 75.4239 108.736 75.7391 108.556 76.0071C108.376 76.2752 108.121 76.4839 107.823 76.6071C107.525 76.7302 107.197 76.7622 106.881 76.699C106.564 76.6358 106.274 76.4802 106.046 76.2519C105.818 76.0237 105.663 75.733 105.6 75.4165C105.537 75.1001 105.569 74.7721 105.693 74.474C105.816 74.176 106.025 73.9212 106.294 73.742C106.562 73.5627 106.877 73.467 107.2 73.4669C107.633 73.4674 108.048 73.6397 108.354 73.9462C108.66 74.2527 108.832 74.6681 108.832 75.1012Z" fill="black"/>
            <path d="M92.5247 76.0202C92.5249 76.503 92.6682 76.9749 92.9365 77.3763C93.2049 77.7777 93.5862 78.0904 94.0322 78.2752C94.4783 78.4599 94.9691 78.5082 95.4427 78.414C95.9162 78.3199 96.3512 78.0875 96.6927 77.7461C97.0341 77.4048 97.2668 76.9699 97.3611 76.4964C97.4555 76.0229 97.4073 75.5321 97.2228 75.0859C97.0383 74.6398 96.7256 74.2583 96.3244 73.9898C95.9231 73.7213 95.4512 73.5778 94.9684 73.5774C94.6475 73.577 94.3296 73.64 94.033 73.7626C93.7364 73.8852 93.4669 74.0651 93.2399 74.292C93.013 74.5189 92.8329 74.7883 92.7102 75.0849C92.5875 75.3814 92.5244 75.6992 92.5247 76.0202ZM96.9033 76.0202C96.903 76.4033 96.789 76.7777 96.5758 77.096C96.3627 77.4144 96.0599 77.6624 95.7058 77.8086C95.3517 77.9549 94.9622 77.9928 94.5865 77.9176C94.2108 77.8425 93.8659 77.6577 93.5953 77.3865C93.3246 77.1154 93.1405 76.77 93.0662 76.3942C92.9918 76.0183 93.0306 75.6289 93.1776 75.2751C93.3245 74.9213 93.5731 74.6191 93.8919 74.4066C94.2107 74.1941 94.5853 74.0809 94.9684 74.0813C95.2228 74.0814 95.4747 74.1316 95.7097 74.2291C95.9447 74.3266 96.1581 74.4695 96.3378 74.6496C96.5176 74.8296 96.66 75.0434 96.757 75.2786C96.8541 75.5138 96.9038 75.7658 96.9033 76.0202Z" fill="black"/>
            <path d="M92.2153 76.0182C92.2156 76.561 92.3769 77.0916 92.6787 77.5427C92.9805 77.9939 93.4093 78.3455 93.9109 78.5531C94.4124 78.7607 94.9643 78.8149 95.4966 78.7089C96.029 78.6029 96.518 78.3415 96.9019 77.9577C97.2857 77.5739 97.5472 77.0849 97.6532 76.5525C97.7592 76.0201 97.705 75.4683 97.4975 74.9667C97.29 74.4652 96.9384 74.0363 96.4872 73.7345C96.0361 73.4327 95.5056 73.2714 94.9628 73.2709C94.6019 73.2708 94.2446 73.3417 93.9112 73.4798C93.5778 73.6178 93.2749 73.8201 93.0197 74.0752C92.7646 74.3304 92.5622 74.6333 92.4242 74.9667C92.2861 75.3001 92.2152 75.6574 92.2153 76.0182ZM96.5941 76.0182C96.5939 76.3413 96.4979 76.6571 96.3182 76.9256C96.1386 77.1941 95.8833 77.4033 95.5847 77.5268C95.2861 77.6502 94.9576 77.6823 94.6408 77.619C94.3239 77.5557 94.033 77.3998 93.8047 77.1711C93.5765 76.9425 93.4212 76.6513 93.3585 76.3343C93.2957 76.0174 93.3284 75.6889 93.4524 75.3905C93.5763 75.0922 93.786 74.8372 94.0549 74.658C94.3237 74.4788 94.6397 74.3834 94.9628 74.3838C95.1773 74.3838 95.3896 74.4261 95.5878 74.5083C95.7859 74.5905 95.9659 74.7109 96.1174 74.8627C96.2689 75.0145 96.389 75.1947 96.4708 75.393C96.5526 75.5912 96.5945 75.8037 96.5941 76.0182Z" fill="black"/>
            <path d="M86.4946 54.4589C86.4947 55.0018 86.6559 55.5326 86.9576 55.9839C87.2594 56.4353 87.6883 56.787 88.19 56.9946C88.6917 57.2022 89.2438 57.2563 89.7762 57.1501C90.3087 57.044 90.7977 56.7823 91.1815 56.3981C91.5652 56.014 91.8264 55.5247 91.932 54.9921C92.0376 54.4595 91.9828 53.9075 91.7747 53.406C91.5665 52.9045 91.2143 52.476 90.7627 52.1747C90.311 51.8734 89.78 51.7129 89.2371 51.7134C88.5096 51.7145 87.8122 52.0042 87.298 52.5189C86.7839 53.0337 86.4949 53.7313 86.4946 54.4589ZM90.8743 54.4589C90.8746 54.7821 90.7792 55.0981 90.6 55.367C90.4207 55.636 90.1658 55.8458 89.8674 55.9698C89.569 56.0939 89.2404 56.1267 88.9234 56.064C88.6063 56.0014 88.3149 55.8462 88.0861 55.6181C87.8572 55.3899 87.7011 55.0989 87.6376 54.782C87.5741 54.4651 87.6059 54.1366 87.7291 53.8378C87.8523 53.539 88.0613 53.2834 88.3297 53.1034C88.5981 52.9234 88.9139 52.827 89.2371 52.8265C89.6706 52.8262 90.0864 52.9979 90.3934 53.3039C90.7003 53.61 90.8733 54.0254 90.8743 54.4589Z" fill="black"/>
            <path d="M170.656 71.9254C171.197 71.9258 171.726 72.0865 172.175 72.3873C172.624 72.6881 172.975 73.1154 173.181 73.6152C173.388 74.115 173.442 74.6648 173.336 75.1951C173.23 75.7255 172.969 76.2125 172.587 76.5947C172.204 76.9769 171.717 77.237 171.186 77.3423C170.656 77.4475 170.106 77.3931 169.606 77.1859C169.107 76.9787 168.68 76.628 168.38 76.1782C168.079 75.7284 167.919 75.1997 167.919 74.6589C167.92 73.9335 168.209 73.238 168.722 72.7253C169.235 72.2127 169.931 71.925 170.656 71.9254Z" fill="black"/>
            <path d="M116.679 61.8198C117.22 61.8204 117.748 61.9813 118.198 62.2821C118.647 62.5828 118.997 63.01 119.204 63.5097C119.41 64.0094 119.464 64.5591 119.358 65.0893C119.253 65.6196 118.992 66.1065 118.61 66.4887C118.227 66.8709 117.74 67.1312 117.21 67.2366C116.679 67.342 116.13 67.2878 115.63 67.0809C115.131 66.874 114.704 66.5237 114.403 66.0742C114.103 65.6247 113.942 65.0962 113.942 64.5555C113.942 64.1961 114.013 63.8402 114.15 63.5081C114.288 63.1761 114.489 62.8744 114.744 62.6203C114.998 62.3662 115.3 62.1647 115.632 62.0274C115.964 61.89 116.32 61.8195 116.679 61.8198Z" fill="black"/>
            <path d="M75.1888 14.0545C75.1885 14.5374 75.3315 15.0094 75.5997 15.411C75.8678 15.8125 76.249 16.1255 76.6951 16.3103C77.1412 16.4951 77.6321 16.5434 78.1056 16.4491C78.5792 16.3548 79.0141 16.1222 79.3554 15.7806C79.6966 15.439 79.9289 15.0039 80.0228 14.5302C80.1166 14.0566 80.0679 13.5657 79.8827 13.1198C79.6975 12.6739 79.3842 12.293 78.9824 12.0252C78.5806 11.7574 78.1084 11.6149 77.6256 11.6156C76.9792 11.6164 76.3595 11.8737 75.9026 12.331C75.4458 12.7882 75.189 13.4081 75.1888 14.0545ZM79.5645 14.0545C79.5645 14.4372 79.4512 14.8113 79.2387 15.1296C79.0262 15.4478 78.7242 15.696 78.3707 15.8426C78.0172 15.9893 77.6282 16.0279 77.2529 15.9535C76.8775 15.8791 76.5326 15.6952 76.2617 15.4248C75.9908 15.1545 75.8062 14.81 75.7311 14.4347C75.656 14.0595 75.6938 13.6704 75.8398 13.3167C75.9857 12.9629 76.2333 12.6604 76.5511 12.4473C76.869 12.2342 77.2429 12.1201 77.6256 12.1194C78.1389 12.12 78.6312 12.324 78.9946 12.6866C79.3579 13.0493 79.5628 13.5411 79.5645 14.0545Z" fill="black"/>
            <path d="M74.8862 14.0604C74.8862 14.6032 75.0471 15.1339 75.3487 15.5853C75.6503 16.0366 76.079 16.3884 76.5806 16.596C77.0822 16.8037 77.6341 16.8579 78.1664 16.7518C78.6988 16.6457 79.1878 16.384 79.5714 15.9999C79.9551 15.6159 80.2162 15.1266 80.3217 14.5941C80.4272 14.0616 80.3724 13.5098 80.1642 13.0085C79.956 12.5071 79.6038 12.0788 79.1521 11.7777C78.7004 11.4766 78.1696 11.3162 77.6267 11.3169C76.8999 11.3185 76.2033 11.6082 75.6897 12.1225C75.176 12.6367 74.8871 13.3335 74.8862 14.0604ZM79.2621 14.0604C79.2624 14.383 79.167 14.6985 78.988 14.967C78.809 15.2355 78.5544 15.4448 78.2564 15.5686C77.9585 15.6924 77.6305 15.7252 77.3139 15.6626C76.9974 15.6001 76.7065 15.4451 76.478 15.2173C76.2495 14.9895 76.0937 14.699 76.0302 14.3827C75.9668 14.0663 75.9985 13.7383 76.1214 13.4399C76.2444 13.1416 76.453 12.8864 76.7209 12.7066C76.9889 12.5268 77.3041 12.4305 77.6267 12.4298C78.0595 12.4303 78.4745 12.602 78.7809 12.9076C79.0874 13.2132 79.2604 13.6276 79.2621 14.0604Z" fill="black"/>
            <path d="M54.7494 15.1041C54.7488 15.5869 54.8914 16.059 55.1593 16.4607C55.4271 16.8624 55.8081 17.1755 56.254 17.3605C56.7 17.5456 57.1908 17.5942 57.6643 17.5002C58.1378 17.4061 58.5728 17.1737 58.9142 16.8324C59.2556 16.491 59.4881 16.056 59.5821 15.5824C59.6762 15.1089 59.6277 14.6181 59.4427 14.1722C59.2577 13.7262 58.9445 13.3452 58.5429 13.0773C58.1412 12.8095 57.6691 12.6667 57.1863 12.6673C56.5402 12.6678 55.9206 12.9247 55.4637 13.3815C55.0068 13.8384 54.7499 14.458 54.7494 15.1041ZM59.1242 15.1041C59.125 15.4869 59.0123 15.8612 58.8002 16.1799C58.5882 16.4985 58.2864 16.7472 57.9331 16.8943C57.5798 17.0414 57.1907 17.0805 56.8152 17.0065C56.4397 16.9325 56.0945 16.7488 55.8234 16.4786C55.5523 16.2085 55.3674 15.864 55.2921 15.4887C55.2168 15.1134 55.2544 14.7243 55.4003 14.3704C55.5462 14.0166 55.7938 13.7139 56.1117 13.5008C56.4296 13.2876 56.8036 13.1735 57.1863 13.173C57.699 13.1733 58.1907 13.3767 58.5539 13.7386C58.917 14.1004 59.1221 14.5914 59.1242 15.1041Z" fill="black"/>
            <path d="M54.4478 15.1004C54.447 15.6433 54.6073 16.1742 54.9084 16.6259C55.2095 17.0776 55.6379 17.4299 56.1393 17.638C56.6407 17.8462 57.1926 17.9008 57.7251 17.7952C58.2576 17.6895 58.7467 17.4283 59.1307 17.0445C59.5146 16.6607 59.7761 16.1716 59.8819 15.6391C59.9878 15.1067 59.9333 14.5548 59.7253 14.0533C59.5173 13.5518 59.1652 13.1234 58.7136 12.8221C58.262 12.5208 57.7312 12.3603 57.1883 12.3609C56.4621 12.3625 55.7661 12.6516 55.2526 13.165C54.739 13.6784 54.4497 14.3742 54.4478 15.1004ZM58.8235 15.1004C58.8242 15.4233 58.7293 15.7391 58.5505 16.0081C58.3717 16.277 58.1172 16.4868 57.8192 16.6111C57.5211 16.7353 57.1929 16.7684 56.8761 16.7061C56.5593 16.6438 56.268 16.4889 56.0392 16.261C55.8104 16.0332 55.6543 15.7426 55.5907 15.4261C55.5271 15.1095 55.5588 14.7811 55.6818 14.4826C55.8048 14.184 56.0136 13.9286 56.2817 13.7487C56.5499 13.5689 56.8654 13.4725 57.1883 13.472C57.6207 13.4723 58.0354 13.6438 58.3418 13.9489C58.6482 14.254 58.8213 14.668 58.8235 15.1004Z" fill="black"/>
            <path d="M134.604 13.7104C135.146 13.7098 135.675 13.8698 136.125 14.17C136.575 14.4702 136.927 14.8972 137.134 15.397C137.342 15.8969 137.397 16.4471 137.292 16.978C137.187 17.509 136.927 17.9968 136.544 18.38C136.162 18.7631 135.675 19.0243 135.144 19.1304C134.613 19.2366 134.063 19.183 133.563 18.9764C133.062 18.7698 132.635 18.4194 132.333 17.9697C132.032 17.52 131.871 16.9911 131.871 16.4499C131.87 15.7241 132.158 15.0279 132.67 14.5141C133.183 14.0004 133.879 13.7113 134.604 13.7104Z" fill="black"/>
            <path d="M116.682 21.4175C117.224 21.4176 117.753 21.5784 118.203 21.8794C118.653 22.1804 119.004 22.6082 119.21 23.1085C119.417 23.6088 119.471 24.1593 119.365 24.6902C119.259 25.2211 118.998 25.7086 118.614 26.0911C118.231 26.4735 117.743 26.7337 117.212 26.8387C116.681 26.9437 116.131 26.8888 115.631 26.6809C115.131 26.473 114.704 26.1215 114.404 25.6709C114.104 25.2203 113.944 24.6908 113.945 24.1494C113.945 23.7902 114.016 23.4346 114.154 23.1029C114.292 22.7713 114.493 22.47 114.748 22.2163C115.002 21.9626 115.304 21.7614 115.635 21.6244C115.967 21.4873 116.323 21.417 116.682 21.4175Z" fill="black"/>
            <path d="M94.9638 11.3218C95.5048 11.3222 96.0336 11.483 96.4832 11.7839C96.9328 12.0849 97.2831 12.5124 97.4898 13.0124C97.6965 13.5124 97.7503 14.0625 97.6443 14.593C97.5384 15.1236 97.2775 15.6108 96.8946 15.9931C96.5118 16.3754 96.0241 16.6356 95.4934 16.7408C94.9627 16.846 94.4127 16.7914 93.913 16.584C93.4133 16.3766 92.9863 16.0256 92.686 15.5756C92.3858 15.1255 92.2257 14.5965 92.2261 14.0554C92.2268 13.33 92.5156 12.6344 93.029 12.1218C93.5424 11.6092 94.2383 11.3215 94.9638 11.3218Z" fill="black"/>
            <path d="M56.0719 1.21609C56.613 1.2159 57.142 1.37619 57.592 1.67667C58.042 1.97715 58.3928 2.40433 58.6001 2.9042C58.8073 3.40406 58.8616 3.95417 58.7561 4.48491C58.6507 5.01565 58.3902 5.50316 58.0077 5.88585C57.6251 6.26855 57.1377 6.52923 56.607 6.63487C56.0763 6.74051 55.5262 6.68636 55.0262 6.47933C54.5263 6.2723 54.099 5.92168 53.7983 5.47178C53.4977 5.02187 53.3372 4.49289 53.3372 3.95178C53.3376 3.22652 53.6258 2.53107 54.1385 2.01813C54.6513 1.5052 55.3466 1.21673 56.0719 1.21609Z" fill="black"/>
            <path opacity="0.78" d="M170.059 74.6525C170.059 74.7304 170.074 74.8076 170.103 74.8797C170.133 74.9518 170.177 75.0173 170.232 75.0725C170.287 75.1277 170.352 75.1714 170.424 75.2012C170.496 75.231 170.573 75.2463 170.651 75.2461L206.847 75.2461C206.924 75.2459 207.001 75.2305 207.073 75.2005C207.144 75.1706 207.209 75.1267 207.264 75.0715C207.319 75.0163 207.362 74.9509 207.391 74.879C207.42 74.8071 207.435 74.7301 207.435 74.6525C207.435 74.5754 207.419 74.4991 207.39 74.4279C207.36 74.3567 207.317 74.2921 207.262 74.2377C207.208 74.1833 207.143 74.1402 207.071 74.1109C207 74.0816 206.924 74.0666 206.847 74.0668L170.651 74.0668C170.574 74.0663 170.497 74.081 170.425 74.1102C170.354 74.1393 170.288 74.1823 170.234 74.2367C170.179 74.2911 170.135 74.3559 170.105 74.4272C170.075 74.4986 170.06 74.5751 170.059 74.6525Z" fill="black"/>
            <path opacity="0.96" d="M116.096 64.5523C116.096 64.7086 116.157 64.8587 116.267 64.97L126.367 75.073C126.479 75.1832 126.629 75.2449 126.786 75.2447L156.84 75.2447L166.768 85.172C166.823 85.2269 166.888 85.2705 166.959 85.3C167.031 85.3295 167.108 85.3443 167.185 85.3437L187.388 85.3437C187.465 85.3438 187.542 85.3287 187.614 85.2991C187.685 85.2695 187.75 85.226 187.805 85.1713C187.86 85.1165 187.904 85.0515 187.933 84.9799C187.963 84.9084 187.978 84.8316 187.979 84.7541C187.979 84.6765 187.964 84.5996 187.934 84.5279C187.905 84.4562 187.861 84.391 187.806 84.3362C187.751 84.2814 187.686 84.2379 187.614 84.2085C187.542 84.179 187.465 84.1641 187.388 84.1645L167.428 84.1645L157.505 74.2372C157.45 74.1822 157.384 74.1387 157.312 74.1092C157.24 74.0798 157.163 74.0649 157.085 74.0654L127.03 74.0654L117.102 64.1344C117.02 64.0516 116.915 63.9952 116.8 63.9724C116.685 63.9495 116.567 63.9613 116.459 64.0061C116.351 64.0509 116.259 64.1266 116.194 64.2239C116.129 64.3212 116.095 64.4355 116.096 64.5523Z" fill="black"/>
            <path opacity="0.37" d="M107.855 76.5283C107.855 76.6836 107.917 76.8324 108.026 76.9424L116.265 85.1824C116.319 85.2378 116.384 85.2816 116.456 85.3111C116.528 85.3406 116.605 85.3553 116.682 85.3542L136.638 85.3542L146.563 95.2813C146.618 95.3365 146.683 95.3805 146.754 95.4107C146.826 95.4408 146.903 95.4565 146.98 95.457L202.534 95.457C202.612 95.4572 202.689 95.4421 202.76 95.4125C202.832 95.3829 202.897 95.3395 202.952 95.2847C203.006 95.2299 203.05 95.1648 203.079 95.0932C203.109 95.0216 203.124 94.9449 203.124 94.8674C203.124 94.7111 203.061 94.5613 202.951 94.4508C202.84 94.3403 202.691 94.2781 202.534 94.2777L147.223 94.2777L137.301 84.3467C137.19 84.2366 137.04 84.1749 136.883 84.175L116.928 84.175L108.861 76.1104C108.807 76.0552 108.742 76.0114 108.67 75.9815C108.598 75.9516 108.521 75.9362 108.444 75.9362C108.366 75.9362 108.289 75.9516 108.218 75.9815C108.146 76.0114 108.081 76.0552 108.026 76.1104C107.971 76.165 107.928 76.2302 107.898 76.302C107.869 76.3737 107.854 76.4507 107.855 76.5283Z" fill="black"/>
            <path opacity="0.91" d="M58.1373 16.7077C58.137 16.8643 58.1988 17.0147 58.3093 17.1257L75.8603 34.6719C75.9149 34.7272 75.98 34.7708 76.0518 34.8003C76.1236 34.8298 76.2006 34.8446 76.2782 34.8437L96.4791 34.8437C96.5567 34.8446 96.6337 34.8298 96.7055 34.8003C96.7773 34.7708 96.8424 34.7271 96.8969 34.6719L106.825 24.7447L116.681 24.7447C116.837 24.7447 116.987 24.6826 117.098 24.572C117.208 24.4614 117.271 24.3114 117.271 24.1551C117.271 23.9987 117.208 23.8487 117.098 23.7381C116.987 23.6275 116.837 23.5654 116.681 23.5654L106.581 23.5654C106.424 23.5655 106.274 23.6272 106.163 23.7372L96.2339 33.6644L76.5232 33.6644L59.1438 16.2899C59.0327 16.1802 58.8828 16.1186 58.7266 16.1186C58.5704 16.1186 58.4204 16.1802 58.3093 16.2899C58.1998 16.4015 58.1381 16.5514 58.1373 16.7077Z" fill="black"/>
            <path opacity="0.85" d="M79.2218 14.0529C79.2213 14.1306 79.2362 14.2076 79.2657 14.2794C79.2951 14.3513 79.3385 14.4166 79.3933 14.4717C79.4481 14.5267 79.5133 14.5702 79.5851 14.5999C79.6569 14.6296 79.7338 14.6448 79.8115 14.6445L94.963 14.6445C95.1175 14.6417 95.2648 14.5783 95.3731 14.468C95.4813 14.3577 95.542 14.2093 95.542 14.0548C95.542 13.9002 95.4813 13.7518 95.3731 13.6416C95.2648 13.5313 95.1175 13.4679 94.963 13.465L79.8115 13.465C79.7341 13.4647 79.6574 13.4796 79.5859 13.509C79.5143 13.5384 79.4492 13.5817 79.3944 13.6363C79.3396 13.6909 79.2962 13.7559 79.2665 13.8274C79.2369 13.8988 79.2217 13.9755 79.2218 14.0529Z" fill="black"/>
            <path opacity="0.54" d="M55.4845 3.95659C55.4844 4.03456 55.4996 4.11179 55.5295 4.18382C55.5594 4.25586 55.6032 4.32126 55.6584 4.37628L75.8592 24.5743C75.9138 24.6296 75.9789 24.6733 76.0507 24.7028C76.1225 24.7323 76.1995 24.747 76.2771 24.746L96.478 24.746C96.5556 24.747 96.6326 24.7322 96.7044 24.7027C96.7762 24.6732 96.8413 24.6296 96.8958 24.5743L106.824 14.6473L126.781 14.6473C126.858 14.6474 126.935 14.6322 127.007 14.6025C127.079 14.5728 127.144 14.5292 127.199 14.4742C127.254 14.4192 127.297 14.3539 127.326 14.2821C127.356 14.2102 127.371 14.1333 127.37 14.0556L127.37 4.20073L137.124 -5.55073L177.283 -5.55073C177.44 -5.55073 177.59 -5.6129 177.7 -5.72348C177.811 -5.83406 177.873 -5.98398 177.873 -6.14036C177.873 -6.29675 177.811 -6.44673 177.7 -6.55731C177.59 -6.66789 177.44 -6.73005 177.283 -6.73005L136.881 -6.73005C136.803 -6.73082 136.726 -6.71599 136.655 -6.68649C136.583 -6.65698 136.518 -6.61339 136.464 -6.55829L126.362 3.5427C126.307 3.59673 126.264 3.6612 126.234 3.73228C126.205 3.80337 126.19 3.87963 126.19 3.95659L126.19 13.4678L106.58 13.4678C106.502 13.4677 106.425 13.483 106.354 13.5129C106.282 13.5427 106.217 13.5864 106.162 13.6415L96.2328 23.5668L76.5221 23.5668L56.493 3.54269C56.4385 3.48745 56.3735 3.44364 56.3019 3.4137C56.2302 3.38376 56.1534 3.3683 56.0757 3.3683C55.9981 3.3683 55.9212 3.38376 55.8496 3.4137C55.778 3.44364 55.713 3.48745 55.6584 3.54269C55.603 3.59637 55.559 3.66072 55.5291 3.73185C55.4992 3.80299 55.484 3.87943 55.4845 3.95659Z" fill="black"/>
            <path opacity="0.83" d="M95.888 74.6599C95.8876 74.777 95.922 74.8916 95.9868 74.9892C96.0515 75.0868 96.1438 75.1629 96.2518 75.2081C96.3599 75.2533 96.4789 75.2654 96.5938 75.2429C96.7088 75.2204 96.8145 75.1643 96.8976 75.0818L116.927 55.0477L126.537 55.0477L136.465 64.9788C136.576 65.0887 136.726 65.1505 136.882 65.1508L195.793 65.1508C195.87 65.1511 195.947 65.136 196.019 65.1065C196.091 65.077 196.156 65.0336 196.211 64.9787C196.266 64.9239 196.309 64.8588 196.338 64.7871C196.368 64.7155 196.383 64.6386 196.383 64.5611C196.383 64.4833 196.368 64.4062 196.339 64.3341C196.31 64.2621 196.266 64.1966 196.211 64.1414C196.157 64.0862 196.091 64.0425 196.02 64.0126C195.948 63.9828 195.871 63.9674 195.793 63.9675L137.125 63.9675L127.196 54.0422C127.086 53.9328 126.938 53.8705 126.782 53.8684L116.681 53.8684C116.525 53.8697 116.375 53.932 116.264 54.0422L96.0628 74.246C96.0079 74.3001 95.9642 74.3645 95.9342 74.4355C95.9042 74.5066 95.8885 74.5828 95.888 74.6599Z" fill="black"/>
            <path opacity="0.83" d="M92.2903 65.1638C92.29 65.2809 92.3243 65.3955 92.3891 65.4931C92.4539 65.5907 92.5461 65.6669 92.6542 65.712C92.7622 65.7572 92.8812 65.7693 92.9962 65.7468C93.1111 65.7243 93.2168 65.6683 93.2999 65.5857L113.329 45.5516L142.835 45.5516L152.763 55.4827C152.874 55.5926 153.024 55.6544 153.18 55.6547L212.091 55.6547C212.168 55.655 212.245 55.6399 212.317 55.6104C212.389 55.5809 212.454 55.5375 212.509 55.4826C212.563 55.4278 212.607 55.3627 212.636 55.291C212.666 55.2194 212.681 55.1425 212.681 55.065C212.681 54.9872 212.666 54.9101 212.637 54.838C212.608 54.766 212.564 54.7005 212.509 54.6453C212.455 54.5902 212.389 54.5464 212.317 54.5165C212.246 54.4867 212.169 54.4713 212.091 54.4714L153.423 54.4714L143.494 44.5461C143.384 44.4367 143.236 44.3744 143.08 44.3723L113.084 44.3723C112.927 44.3736 112.777 44.4359 112.666 44.5461L92.4651 64.7499C92.4102 64.804 92.3665 64.8684 92.3365 64.9394C92.3065 65.0105 92.2908 65.0867 92.2903 65.1638Z" fill="black"/>
            <path opacity="0.25" d="M68.4444 56.1723L68.4444 64.5587C68.4442 64.6362 68.4593 64.713 68.4888 64.7847C68.5184 64.8563 68.5618 64.9214 68.6166 64.9762C68.6714 65.031 68.7365 65.0745 68.8082 65.104C68.8798 65.1336 68.9566 65.1487 69.0341 65.1484L79.1341 65.1484C79.2117 65.1488 79.2885 65.1337 79.3603 65.1042C79.432 65.0747 79.4972 65.0313 79.5521 64.9765C79.607 64.9217 79.6505 64.8566 79.6802 64.7849C79.7098 64.7132 79.7249 64.6363 79.7247 64.5587L79.7247 55.0454L87.216 55.0454C87.3724 55.0454 87.5224 54.9833 87.633 54.8727C87.7435 54.7621 87.8057 54.6121 87.8057 54.4557C87.8057 54.2994 87.7435 54.1494 87.633 54.0388C87.5224 53.9282 87.3724 53.8661 87.216 53.8661L79.1341 53.8661C79.0563 53.8661 78.9793 53.8816 78.9076 53.9114C78.8358 53.9413 78.7706 53.9851 78.7158 54.0403C78.661 54.0954 78.6176 54.1609 78.5882 54.2329C78.5588 54.3049 78.5439 54.382 78.5444 54.4598L78.5444 63.9651L69.6237 63.9651L69.6237 56.1723C69.6237 56.0159 69.5616 55.866 69.451 55.7554C69.3404 55.6448 69.1905 55.5827 69.0341 55.5827C68.8777 55.5827 68.7277 55.6448 68.6171 55.7554C68.5066 55.866 68.4444 56.0159 68.4444 56.1723Z" fill="black"/>
            <path opacity="0.34" d="M25.1869 3.95784C25.1871 4.11432 25.2495 4.26435 25.3602 4.3749C25.4709 4.48546 25.621 4.54755 25.7775 4.54753L35.6334 4.54753L75.8615 44.7774C75.9161 44.8328 75.9811 44.8769 76.0528 44.907C76.1246 44.9372 76.2016 44.9528 76.2794 44.9531L96.4802 44.9531C96.558 44.9528 96.635 44.9371 96.7067 44.907C96.7784 44.8768 96.8434 44.8328 96.8981 44.7774L106.826 34.8463L116.682 34.8463C116.759 34.8469 116.836 34.832 116.908 34.8025C116.979 34.773 117.044 34.7295 117.099 34.6746L127.027 24.7473L146.735 24.7473L156.667 34.6746C156.721 34.7295 156.786 34.773 156.857 34.8025C156.928 34.832 157.005 34.8469 157.082 34.8463L166.937 34.8463L176.869 44.7774C176.923 44.8327 176.988 44.8767 177.06 44.9069C177.131 44.937 177.208 44.9527 177.286 44.9531L208.405 44.9531C208.483 44.9536 208.56 44.9387 208.632 44.9092C208.704 44.8798 208.769 44.8364 208.824 44.7816C208.879 44.7268 208.923 44.6616 208.952 44.5898C208.982 44.518 208.997 44.4411 208.997 44.3635C208.997 44.2859 208.982 44.209 208.952 44.1373C208.922 44.0657 208.879 44.0006 208.824 43.9458C208.769 43.891 208.703 43.8476 208.632 43.8181C208.56 43.7886 208.483 43.7736 208.405 43.7739L177.53 43.7739L167.602 33.8428C167.547 33.7872 167.481 33.743 167.409 33.7128C167.337 33.6827 167.26 33.6671 167.182 33.667L157.326 33.667L147.398 23.7398C147.286 23.6298 147.136 23.5681 146.98 23.568L126.783 23.568C126.626 23.5679 126.476 23.6297 126.364 23.7398L116.439 33.667L106.582 33.667C106.504 33.6673 106.427 33.683 106.356 33.7131C106.284 33.7433 106.219 33.7874 106.164 33.8428L96.235 43.7738L76.5243 43.7738L36.2964 3.54394C36.2416 3.48814 36.1762 3.44374 36.1042 3.41324C36.0321 3.38274 35.9548 3.36673 35.8765 3.36619L25.7775 3.36619C25.6999 3.36623 25.623 3.38159 25.5513 3.41135C25.4796 3.4411 25.4145 3.48473 25.3596 3.53967C25.3048 3.59462 25.2613 3.65982 25.2316 3.73157C25.202 3.80333 25.1868 3.8802 25.1869 3.95784Z" fill="black"/>
            <path opacity="0.83" d="M54.8719 74.6498C54.8714 74.7278 54.8863 74.805 54.9158 74.8771C54.9453 74.9493 54.9889 75.0148 55.0439 75.07C55.0989 75.1252 55.1643 75.169 55.2364 75.1988C55.3084 75.2285 55.3856 75.2437 55.4635 75.2434L85.5202 75.2434L115.477 105.197L115.477 115.055C115.477 115.133 115.492 115.21 115.521 115.282C115.551 115.353 115.594 115.419 115.649 115.473L125.751 125.57C125.861 125.681 126.011 125.744 126.167 125.746L146.37 125.746C146.526 125.744 146.676 125.681 146.786 125.57L166.815 105.542L217.073 105.542C217.23 105.542 217.38 105.48 217.491 105.369C217.602 105.259 217.664 105.108 217.664 104.952C217.664 104.795 217.602 104.645 217.491 104.534C217.38 104.423 217.23 104.361 217.073 104.361L166.571 104.361C166.493 104.361 166.415 104.376 166.344 104.406C166.272 104.437 166.206 104.481 166.152 104.537L146.125 124.567L126.412 124.567L116.657 114.812L116.657 104.951C116.657 104.874 116.641 104.797 116.611 104.726C116.581 104.655 116.537 104.591 116.482 104.537L86.1832 74.2359C86.1283 74.181 86.0629 74.1375 85.991 74.108C85.9191 74.0785 85.8421 74.0636 85.7644 74.0642L55.4635 74.0642C55.3862 74.0635 55.3094 74.0782 55.2377 74.1073C55.1661 74.1364 55.1008 74.1794 55.0459 74.2339C54.9909 74.2883 54.9472 74.3531 54.9173 74.4245C54.8875 74.4959 54.872 74.5725 54.8719 74.6498Z" fill="black"/>
            <path opacity="0.58" d="M-129.213 4.46223C-129.213 4.61827 -129.15 4.76773 -129.04 4.8779C-128.929 4.98807 -128.78 5.04998 -128.624 5.0501L-105.776 5.0501L-95.847 14.9792C-95.7921 15.0347 -95.7269 15.0787 -95.655 15.1089C-95.5832 15.139 -95.506 15.1547 -95.428 15.1549L-85.0783 15.1549L-75.6577 25.0703C-75.602 25.1281 -75.5354 25.1742 -75.4616 25.2057C-75.3878 25.2372 -75.3084 25.2536 -75.2282 25.2539L-44.9264 25.2539C-44.77 25.2527 -44.6204 25.1903 -44.5095 25.08L-34.5815 15.1549L-14.6226 15.1549C-14.4665 15.1537 -14.3172 15.0905 -14.2077 14.9792L-4.28166 5.0501L5.57321 5.0501C5.65099 5.05108 5.72817 5.03657 5.80025 5.00739C5.87235 4.97821 5.93791 4.93496 5.9931 4.88016L15.9184 -5.04691L65.9319 -5.04691L75.86 4.88017C75.9149 4.9348 75.9801 4.97797 76.0518 5.00715C76.1236 5.03633 76.2004 5.05091 76.2778 5.05011L106.58 5.05011C106.658 5.05071 106.734 5.03602 106.806 5.00684C106.877 4.97767 106.942 4.93461 106.997 4.88017L116.926 -5.04691L126.781 -5.04691C126.937 -5.04741 127.085 -5.10921 127.195 -5.21886L137.124 -15.1499L197.483 -15.1499L217.69 -15.2786C217.767 -15.2784 217.843 -15.2933 217.914 -15.3226C217.986 -15.352 218.05 -15.3951 218.105 -15.4496C218.159 -15.504 218.203 -15.5687 218.232 -15.6399C218.261 -15.7112 218.277 -15.7874 218.276 -15.8645L218.276 -15.8685C218.276 -15.9463 218.261 -16.0233 218.231 -16.0951C218.201 -16.1669 218.157 -16.232 218.102 -16.2868C218.046 -16.3416 217.981 -16.3849 217.909 -16.4143C217.837 -16.4438 217.76 -16.4586 217.682 -16.4582L136.881 -16.3292C136.804 -16.3295 136.727 -16.3145 136.656 -16.285C136.584 -16.2555 136.519 -16.2122 136.464 -16.1575L126.536 -6.22837L116.68 -6.22837C116.603 -6.22906 116.526 -6.21402 116.454 -6.18413C116.382 -6.15423 116.317 -6.11009 116.263 -6.0544L106.336 3.8706L76.5228 3.8706L66.5937 -6.0544C66.5393 -6.10994 66.4743 -6.154 66.4025 -6.18389C66.3307 -6.21377 66.2536 -6.22888 66.1758 -6.22837L15.6742 -6.22837C15.5966 -6.22878 15.5197 -6.21359 15.4481 -6.18371C15.3765 -6.15382 15.3116 -6.10985 15.2573 -6.0544L5.32927 3.8706L-4.5266 3.8706C-4.68233 3.87187 -4.83133 3.9343 -4.9415 4.04438L-14.8667 13.9716L-34.8254 13.9716C-34.9028 13.9717 -34.9794 13.9871 -35.0508 14.0169C-35.1222 14.0467 -35.187 14.0904 -35.2415 14.1454L-45.1696 24.0744L-74.9743 24.0744L-84.3949 14.159C-84.45 14.1002 -84.5165 14.0533 -84.5903 14.0211C-84.6642 13.9888 -84.7438 13.9721 -84.8243 13.9716L-95.1849 13.9716L-105.113 4.04438C-105.224 3.93346 -105.374 3.87096 -105.531 3.87059L-128.624 3.87059C-128.78 3.87092 -128.93 3.93343 -129.041 4.04437C-129.152 4.15532 -129.214 4.30561 -129.213 4.46223Z" fill="black"/>
        </g>
        <g opacity="0.3">
            <path d="M54.275 -0.836608C54.6341 -0.836973 54.9898 -0.766549 55.3216 -0.629447C55.6535 -0.492344 55.9551 -0.291248 56.2093 -0.0375576C56.4634 0.216133 56.6651 0.517413 56.8028 0.849056C56.9405 1.1807 57.0115 1.53621 57.0117 1.8953C57.0119 2.25477 56.9412 2.61079 56.8037 2.94294C56.6663 3.27509 56.4647 3.57686 56.2106 3.83108C55.9564 4.0853 55.6547 4.28699 55.3226 4.42455C54.9905 4.56211 54.6345 4.63287 54.275 4.63281C53.9157 4.63266 53.5599 4.56172 53.228 4.42406C52.8961 4.28641 52.5946 4.08474 52.3406 3.83053C52.0867 3.57632 51.8853 3.27456 51.748 2.94251C51.6107 2.61047 51.5401 2.25461 51.5403 1.8953C51.5407 1.17039 51.8291 0.475373 52.3419 -0.0369475C52.8548 -0.549267 53.5501 -0.836931 54.275 -0.836608Z" fill="black"/>
            <path opacity="0.76" d="M-18.277 -10.5632C-18.2772 -10.4076 -18.2162 -10.2582 -18.1071 -10.1473L-5.65046 2.39457C-5.5957 2.45035 -5.53035 2.4946 -5.45825 2.52478C-5.38614 2.55497 -5.30873 2.57044 -5.23057 2.57031L54.4455 2.57031C54.523 2.57062 54.5998 2.55559 54.6715 2.52607C54.7432 2.49655 54.8083 2.45311 54.8631 2.39829C54.918 2.34348 54.9614 2.27837 54.9909 2.20669C55.0204 2.13501 55.0355 2.0582 55.0351 1.98068C55.0355 1.90305 55.0205 1.82605 54.9911 1.75423C54.9616 1.68242 54.9182 1.61719 54.8634 1.5622C54.8086 1.50722 54.7435 1.4636 54.6717 1.43388C54.6 1.40416 54.5231 1.38886 54.4455 1.38897L-4.98264 1.38897L-17.2695 -10.981C-17.3806 -11.0906 -17.5304 -11.1522 -17.6865 -11.1525C-17.8426 -11.1529 -17.9926 -11.092 -18.1043 -10.9829C-18.2142 -10.8707 -18.2761 -10.7202 -18.277 -10.5632Z" fill="black"/>
            <path d="M38.5093 49.4499C38.5103 50.177 38.7997 50.874 39.314 51.388C39.8283 51.9019 40.5255 52.1909 41.2526 52.1914C41.9799 52.1912 42.6775 51.9024 43.1922 51.3884C43.7069 50.8744 43.9967 50.1773 43.998 49.4499C43.9967 48.7226 43.7069 48.0254 43.1922 47.5115C42.6775 46.9975 41.9799 46.7087 41.2526 46.7084C40.5255 46.7089 39.8283 46.9979 39.314 47.5119C38.7997 48.0258 38.5103 48.7228 38.5093 49.4499ZM42.8879 49.4499C42.8871 49.8829 42.7143 50.2979 42.4077 50.6036C42.101 50.9094 41.6856 51.0809 41.2526 51.0805C40.8199 51.0804 40.4049 50.9087 40.0987 50.603C39.7925 50.2973 39.6201 49.8826 39.6194 49.4499C39.6205 49.0174 39.793 48.6029 40.0991 48.2973C40.4052 47.9917 40.82 47.8199 41.2526 47.8195C41.6855 47.8194 42.1007 47.991 42.4073 48.2967C42.7139 48.6023 42.8867 49.017 42.8879 49.4499Z" fill="black"/>
            <path d="M40.3693 19.1569C40.37 19.8024 40.627 20.4212 41.0838 20.8774C41.5405 21.3336 42.1597 21.5899 42.8053 21.5898C43.1255 21.5906 43.4427 21.5282 43.7388 21.4064C44.0349 21.2845 44.3042 21.1055 44.5311 20.8796C44.758 20.6536 44.9382 20.3852 45.0614 20.0896C45.1846 19.794 45.2483 19.4771 45.249 19.1569C45.2483 18.5092 44.9905 17.8884 44.5323 17.4307C44.074 16.9731 43.4529 16.716 42.8053 16.7161C42.1588 16.7175 41.5393 16.9753 41.0826 17.4328C40.6259 17.8904 40.3694 18.5104 40.3693 19.1569ZM44.7442 19.1569C44.7422 19.6696 44.5369 20.1606 44.1735 20.5222C43.81 20.8839 43.318 21.0866 42.8053 21.086C42.2935 21.0855 41.8028 20.8822 41.4406 20.5206C41.0785 20.159 40.8744 19.6686 40.8731 19.1569C40.8728 18.6439 41.076 18.1517 41.4383 17.7885C41.8006 17.4253 42.2922 17.2207 42.8053 17.2197C43.3192 17.2196 43.8122 17.4236 44.1758 17.7869C44.5394 18.1501 44.7438 18.6429 44.7442 19.1569Z" fill="black"/>
            <path d="M40.0669 19.1609C40.0684 19.8868 40.3575 20.5826 40.871 21.0957C41.3845 21.6088 42.0805 21.8975 42.8064 21.8984C43.5334 21.8986 44.2308 21.6106 44.7458 21.0974C45.2608 20.5843 45.5513 19.8879 45.5537 19.1609C45.5529 18.4327 45.2632 17.7345 44.7481 17.2198C44.233 16.705 43.5346 16.4157 42.8064 16.4154C42.0793 16.4168 41.3824 16.7067 40.8687 17.2215C40.3551 17.7362 40.0667 18.4338 40.0669 19.1609ZM44.4418 19.1609C44.4397 19.593 44.2664 20.0067 43.9598 20.3112C43.6533 20.6157 43.2385 20.7863 42.8064 20.7855C42.3753 20.7853 41.9617 20.6143 41.6565 20.3097C41.3513 20.0052 41.1792 19.5921 41.178 19.1609C41.1776 18.7285 41.3489 18.3137 41.6542 18.0076C41.9596 17.7015 42.374 17.5291 42.8064 17.5285C43.2397 17.5282 43.6554 17.7 43.9621 18.0061C44.2688 18.3122 44.4413 18.7276 44.4418 19.1609Z" fill="black"/>
            <path d="M19.3431 59.5553C19.3443 60.2021 19.6017 60.8221 20.0589 61.2795C20.5162 61.737 21.1361 61.9946 21.7829 61.9961C22.4297 61.9948 23.0497 61.7371 23.507 61.2797C23.9643 60.8222 24.2216 60.2022 24.2227 59.5553C24.2223 58.9083 23.9652 58.2877 23.5078 57.8301C23.0503 57.3725 22.4299 57.1151 21.7829 57.1145C21.1359 57.1153 20.5156 57.3727 20.0582 57.8303C19.6007 58.2879 19.3436 58.9083 19.3431 59.5553ZM23.718 59.5553C23.7173 60.0685 23.5133 60.5605 23.1506 60.9236C22.7879 61.2866 22.2961 61.4911 21.7829 61.4922C21.2698 61.4907 20.7782 61.2862 20.4155 60.9232C20.0529 60.5602 19.8488 60.0684 19.8478 59.5553C19.8485 59.0423 20.0526 58.5505 20.4153 58.1877C20.7781 57.825 21.2699 57.6209 21.7829 57.6202C22.296 57.6206 22.788 57.8246 23.1508 58.1874C23.5136 58.5502 23.7176 59.0422 23.718 59.5553Z" fill="black"/>
            <path d="M19.0404 59.5555C19.041 60.2831 19.3301 60.9808 19.8445 61.4954C20.3588 62.0101 21.0562 62.2997 21.7838 62.3008C22.5114 62.2997 23.2089 62.0101 23.7232 61.4954C24.2376 60.9808 24.5267 60.2831 24.5273 59.5555C24.5263 58.8282 24.237 58.131 23.7227 57.6167C23.2084 57.1024 22.5112 56.813 21.7838 56.812C21.0565 56.813 20.3593 57.1024 19.845 57.6167C19.3307 58.131 19.0414 58.8282 19.0404 59.5555ZM23.4162 59.5555C23.4158 59.9883 23.2436 60.4032 22.9376 60.7093C22.6316 61.0153 22.2166 61.1874 21.7838 61.1879C21.3511 61.1874 20.9361 61.0153 20.6301 60.7093C20.3241 60.4032 20.1519 59.9883 20.1515 59.5555C20.1523 59.1228 20.3245 58.7081 20.6305 58.4021C20.9364 58.0962 21.3512 57.9239 21.7838 57.9231C22.2165 57.9239 22.6313 58.0962 22.9372 58.4021C23.2432 58.7081 23.4154 59.1228 23.4162 59.5555Z" fill="black"/>
            <path d="M27.7512 39.3543C27.7517 40.0021 28.0093 40.6233 28.4675 41.0813C28.9257 41.5393 29.547 41.7967 30.1948 41.7969C30.8421 41.7959 31.4625 41.5381 31.9199 41.0802C32.3774 40.6223 32.6345 40.0015 32.6348 39.3543C32.634 38.7075 32.3767 38.0874 31.9192 37.6302C31.4618 37.1729 30.8416 36.9158 30.1948 36.9153C29.5474 36.915 28.9264 37.1717 28.4682 37.6291C28.01 38.0864 27.7521 38.7069 27.7512 39.3543ZM32.1299 39.3543C32.1291 39.8674 31.925 40.3593 31.5623 40.7223C31.1997 41.0853 30.7079 41.2899 30.1948 41.2912C29.6811 41.2907 29.1885 41.0866 28.825 40.7235C28.4616 40.3604 28.2569 39.868 28.2559 39.3543C28.2571 38.8409 28.4619 38.3491 28.8254 37.9866C29.1889 37.6242 29.6815 37.4208 30.1948 37.4212C30.7075 37.4216 31.1992 37.6254 31.5619 37.9877C31.9247 38.3501 32.1289 38.8415 32.1299 39.3543Z" fill="black"/>
            <path d="M27.4487 39.3562C27.4498 40.0843 27.7397 40.7823 28.2547 41.297C28.7697 41.8116 29.4679 42.101 30.196 42.1016C30.9235 42.1003 31.6209 41.8107 32.1352 41.296C32.6495 40.7814 32.9387 40.0838 32.9395 39.3562C32.9383 38.6292 32.6488 37.9322 32.1345 37.4183C31.6202 36.9044 30.923 36.6154 30.196 36.6148C29.4683 36.6148 28.7705 36.9034 28.2554 37.4174C27.7404 37.9314 27.4502 38.6286 27.4487 39.3562ZM31.8275 39.3562C31.8271 39.7889 31.6551 40.2038 31.3492 40.5098C31.0434 40.8158 30.6286 40.988 30.196 40.9886C29.7628 40.9886 29.3473 40.8167 29.0408 40.5107C28.7342 40.2046 28.5616 39.7894 28.5608 39.3562C28.5616 38.9232 28.7343 38.5083 29.0409 38.2026C29.3475 37.8969 29.763 37.7253 30.196 37.7257C30.6284 37.7259 31.0432 37.8977 31.3491 38.2035C31.655 38.5092 31.8271 38.9238 31.8275 39.3562Z" fill="black"/>
            <path d="M34.4283 66.9234C34.7879 66.9232 35.1439 66.9939 35.4761 67.1314C35.8083 67.2689 36.1101 67.4705 36.3643 67.7248C36.6184 67.979 36.82 68.2809 36.9574 68.6131C37.0948 68.9453 37.1654 69.3014 37.165 69.6609C37.1641 70.3858 36.8752 71.0806 36.362 71.5925C35.8488 72.1044 35.1532 72.3915 34.4283 72.3906C33.7038 72.3911 33.0087 72.1038 32.4959 71.5919C31.983 71.0801 31.6945 70.3855 31.6936 69.6609C31.6933 69.3016 31.7637 68.9456 31.901 68.6135C32.0382 68.2814 32.2396 67.9796 32.4936 67.7253C32.7476 67.4711 33.0492 67.2694 33.3811 67.1318C33.7131 66.9942 34.069 66.9234 34.4283 66.9234Z" fill="black"/>
            <path d="M2.87004 46.7223C3.41085 46.7227 3.93939 46.8834 4.38884 47.1842C4.83829 47.485 5.18847 47.9123 5.39509 48.4121C5.60171 48.9119 5.6555 49.4616 5.54966 49.992C5.44382 50.5223 5.1831 51.0094 4.80046 51.3916C4.41783 51.7738 3.93046 52.0339 3.39999 52.1391C2.86951 52.2444 2.31975 52.19 1.82021 51.9827C1.32067 51.7755 0.893782 51.4249 0.593525 50.9751C0.293269 50.5253 0.133125 49.9966 0.133343 49.4557C0.13382 48.7304 0.422405 48.0348 0.935624 47.5222C1.44884 47.0096 2.14466 46.7219 2.87004 46.7223Z" fill="black"/>
            <path d="M48.8685 79.7506C48.8684 80.4779 49.157 81.1755 49.6708 81.6903C50.1846 82.205 50.8817 82.4949 51.609 82.4961C52.3367 82.4961 53.0345 82.207 53.549 81.6925C54.0635 81.178 54.3525 80.4802 54.3525 79.7526C54.3525 79.025 54.0635 78.3271 53.549 77.8126C53.0345 77.2981 52.3367 77.0091 51.609 77.0091C50.8823 77.0101 50.1857 77.2992 49.6719 77.8132C49.1582 78.3271 48.8693 79.0239 48.8685 79.7506ZM53.2444 79.7506C53.2442 80.1845 53.0719 80.6006 52.7654 80.9078C52.4588 81.2149 52.043 81.3879 51.609 81.389C51.176 81.387 50.7615 81.2134 50.4562 80.9063C50.1509 80.5992 49.9798 80.1836 49.9805 79.7506C49.9804 79.3183 50.1519 78.9036 50.4572 78.5976C50.7625 78.2915 51.1768 78.1191 51.609 78.1182C52.0423 78.1182 52.4578 78.2901 52.7644 78.5962C53.071 78.9022 53.2436 79.3174 53.2444 79.7506Z" fill="black"/>
            <path d="M47.1413 26.892C47.6829 26.8911 48.2127 27.0507 48.6635 27.351C49.1144 27.6512 49.466 28.0784 49.674 28.5785C49.8819 29.0787 49.9369 29.6293 49.8318 30.1607C49.7267 30.692 49.4664 31.1803 49.0837 31.5636C48.7011 31.947 48.2133 32.2082 47.6821 32.3142C47.151 32.4203 46.6003 32.3663 46.0998 32.1593C45.5992 31.9522 45.1714 31.6014 44.8704 31.1511C44.5693 30.7008 44.4086 30.1713 44.4086 29.6297C44.4092 28.9046 44.6972 28.2095 45.2094 27.6963C45.7216 27.1832 46.4163 26.894 47.1413 26.892Z" fill="black"/>
            <path d="M54.275 -0.332706C55.0006 -0.332584 55.6965 -0.0443249 56.2097 0.468663C56.7228 0.98165 57.0113 1.67737 57.0117 2.40298C57.012 2.7623 56.9413 3.11816 56.8039 3.45014C56.6664 3.78212 56.4648 4.08373 56.2106 4.33766C55.9563 4.5916 55.6545 4.79287 55.3224 4.92998C54.9903 5.06709 54.6343 5.13737 54.275 5.13671C53.9159 5.13716 53.5601 5.06676 53.2282 4.92955C52.8963 4.79234 52.5947 4.59098 52.3407 4.33705C52.0866 4.08313 51.8852 3.78164 51.7479 3.44977C51.6105 3.11789 51.54 2.76215 51.5403 2.40298C51.5406 1.67769 51.8288 0.982166 52.3415 0.469212C52.8543 -0.0437424 53.5497 -0.332166 54.275 -0.332706Z" fill="black"/>
            <path opacity="0.78" d="M2.27322 49.4494C2.27279 49.5273 2.28778 49.6045 2.31733 49.6766C2.34689 49.7487 2.39042 49.8142 2.44542 49.8694C2.50042 49.9246 2.5658 49.9683 2.63779 49.9981C2.70978 50.0279 2.78696 50.0431 2.86487 50.043L39.0606 50.043C39.1382 50.0428 39.2151 50.0273 39.2867 49.9974C39.3583 49.9674 39.4233 49.9236 39.478 49.8684C39.5326 49.8132 39.5758 49.7478 39.605 49.6759C39.6343 49.604 39.649 49.527 39.6484 49.4494C39.6484 49.3723 39.6331 49.2959 39.6035 49.2248C39.5739 49.1536 39.5306 49.089 39.476 49.0346C39.4214 48.9802 39.3566 48.9371 39.2853 48.9078C39.214 48.8784 39.1377 48.8635 39.0606 48.8637L2.86487 48.8637C2.78752 48.8631 2.71082 48.8779 2.63918 48.907C2.56753 48.9362 2.50235 48.9792 2.44738 49.0336C2.3924 49.088 2.34872 49.1527 2.31883 49.2241C2.28894 49.2954 2.27345 49.372 2.27322 49.4494Z" fill="black"/>
            <path opacity="0.96" d="M-51.6896 39.3491C-51.6894 39.5055 -51.6277 39.6556 -51.5178 39.7669L-41.4178 49.8699C-41.3063 49.9801 -41.1557 50.0418 -40.9989 50.0416L-10.9452 50.0416L-1.017 59.9688C-0.962471 60.0238 -0.897497 60.0674 -0.825903 60.0969C-0.754307 60.1264 -0.677534 60.1412 -0.600103 60.1406L19.6027 60.1406C19.6802 60.1407 19.757 60.1255 19.8286 60.0959C19.9002 60.0663 19.9653 60.0229 20.0202 59.9682C20.075 59.9134 20.1186 59.8484 20.1483 59.7768C20.178 59.7052 20.1933 59.6285 20.1934 59.551C20.1936 59.4734 20.1786 59.3965 20.149 59.3248C20.1194 59.253 20.0759 59.1879 20.0209 59.1331C19.966 59.0782 19.9008 59.0348 19.829 59.0053C19.7572 58.9759 19.6803 58.9609 19.6027 58.9613L-0.357166 58.9613L-10.2802 49.0341C-10.3354 48.9791 -10.4009 48.9356 -10.473 48.9061C-10.545 48.8766 -10.6222 48.8618 -10.7001 48.8623L-40.755 48.8623L-50.683 38.9313C-50.7655 38.8485 -50.8706 38.7921 -50.9852 38.7693C-51.0997 38.7464 -51.2185 38.7582 -51.3263 38.8029C-51.4342 38.8477 -51.5263 38.9235 -51.591 39.0208C-51.6557 39.118 -51.69 39.2323 -51.6896 39.3491Z" fill="black"/>
            <path opacity="0.37" d="M-59.9324 51.3252C-59.932 51.4804 -59.8703 51.6293 -59.7607 51.7392L-51.5226 59.9793C-51.4681 60.0347 -51.403 60.0784 -51.3312 60.1079C-51.2594 60.1375 -51.1823 60.1521 -51.1047 60.1511L-31.1488 60.1511L-21.2238 70.0782C-21.1692 70.1334 -21.1043 70.1774 -21.0328 70.2075C-20.9613 70.2377 -20.8845 70.2534 -20.8069 70.2539L34.7473 70.2539C34.8247 70.2541 34.9015 70.2389 34.9731 70.2094C35.0447 70.1798 35.1098 70.1364 35.1646 70.0816C35.2194 70.0268 35.2628 69.9617 35.2924 69.8901C35.3219 69.8185 35.3371 69.7418 35.3369 69.6643C35.3366 69.508 35.2743 69.3582 35.1638 69.2477C35.0533 69.1372 34.9035 69.0749 34.7473 69.0746L-20.5637 69.0746L-30.486 59.1435C-30.5972 59.0335 -30.7474 58.9718 -30.9039 58.9718L-50.8595 58.9718L-58.9259 50.9072C-58.9805 50.8521 -59.0455 50.8083 -59.1171 50.7784C-59.1888 50.7485 -59.2656 50.7331 -59.3433 50.7331C-59.4209 50.7331 -59.4978 50.7485 -59.5694 50.7784C-59.641 50.8083 -59.7061 50.8521 -59.7607 50.9072C-59.8157 50.9619 -59.8593 51.0271 -59.8888 51.0988C-59.9183 51.1706 -59.9331 51.2476 -59.9324 51.3252Z" fill="black"/>
            <path opacity="0.83" d="M-71.8981 49.4568C-71.8985 49.5739 -71.8641 49.6885 -71.7994 49.786C-71.7346 49.8836 -71.6424 49.9598 -71.5343 50.005C-71.4262 50.0501 -71.3072 50.0622 -71.1923 50.0398C-71.0773 50.0173 -70.9716 49.9612 -70.8886 49.8787L-50.8595 29.8446L-41.2488 29.8446L-31.3207 39.7757C-31.2098 39.8856 -31.06 39.9473 -30.9039 39.9476L28.0068 39.9476C28.0843 39.9479 28.1612 39.9329 28.2329 39.9034C28.3046 39.8739 28.3697 39.8304 28.4245 39.7756C28.4794 39.7208 28.5228 39.6557 28.5524 39.584C28.5819 39.5123 28.597 39.4355 28.5967 39.3579C28.5972 39.2801 28.5824 39.203 28.553 39.131C28.5236 39.059 28.4802 38.9935 28.4254 38.9383C28.3705 38.8831 28.3053 38.8394 28.2335 38.8095C28.1616 38.7796 28.0846 38.7643 28.0068 38.7643L-30.6607 38.7643L-40.5898 28.839C-40.7 28.7297 -40.8484 28.6674 -41.0037 28.6653L-51.1047 28.6653C-51.2613 28.6666 -51.4112 28.7289 -51.5226 28.839L-71.7234 49.0429C-71.7783 49.097 -71.822 49.1614 -71.8519 49.2324C-71.8819 49.3034 -71.8976 49.3797 -71.8981 49.4568Z" fill="black"/>
            <path opacity="0.83" d="M-55.6012 39.9607C-55.6016 40.0778 -55.5672 40.1924 -55.5025 40.2899C-55.4377 40.3875 -55.3455 40.4637 -55.2374 40.5089C-55.1294 40.554 -55.0103 40.5662 -54.8954 40.5437C-54.7805 40.5212 -54.6748 40.4651 -54.5917 40.3826L-34.5627 20.3485L-24.9519 20.3485L-15.0239 30.2796C-14.9129 30.3895 -14.7631 30.4512 -14.607 30.4515L44.3037 30.4515C44.3812 30.4519 44.4581 30.4368 44.5297 30.4073C44.6014 30.3778 44.6666 30.3343 44.7214 30.2795C44.7762 30.2247 44.8197 30.1596 44.8492 30.0879C44.8788 30.0162 44.8938 29.9394 44.8935 29.8618C44.8941 29.7841 44.8792 29.7069 44.8498 29.6349C44.8204 29.5629 44.7771 29.4974 44.7222 29.4422C44.6674 29.387 44.6022 29.3433 44.5304 29.3134C44.4585 29.2835 44.3815 29.2682 44.3037 29.2682L-14.3638 29.2682L-24.2929 19.3429C-24.4031 19.2336 -24.5515 19.1713 -24.7068 19.1692L-34.8078 19.1692C-34.9644 19.1705 -35.1143 19.2328 -35.2257 19.3429L-55.4265 39.5468C-55.4814 39.6009 -55.5251 39.6653 -55.5551 39.7363C-55.5851 39.8073 -55.6007 39.8836 -55.6012 39.9607Z" fill="black"/>
            <path opacity="0.34" d="M-142.599 -21.2453C-142.599 -21.0888 -142.537 -20.9388 -142.426 -20.8282C-142.315 -20.7177 -142.165 -20.6556 -142.009 -20.6556L-132.153 -20.6556L-91.9247 19.5742C-91.8701 19.6297 -91.805 19.6737 -91.7333 19.7039C-91.6616 19.7341 -91.5846 19.7497 -91.5068 19.75L-71.306 19.75C-71.2282 19.7497 -71.1512 19.734 -71.0795 19.7039C-71.0077 19.6737 -70.9427 19.6297 -70.8881 19.5742L-60.96 9.64321L-51.1042 9.64321C-51.0267 9.6438 -50.95 9.62889 -50.8784 9.5994C-50.8068 9.5699 -50.7418 9.5264 -50.6873 9.47144L-40.7592 -0.455822L-21.0513 -0.455821L-11.1192 9.47144C-11.0651 9.52637 -11.0005 9.56989 -10.9292 9.5994C-10.8579 9.6289 -10.7815 9.64379 -10.7043 9.64321L-0.84946 9.64321L9.08258 19.5743C9.13707 19.6296 9.20195 19.6736 9.27349 19.7037C9.34504 19.7339 9.42184 19.7496 9.49948 19.75L40.6193 19.75C40.6969 19.7504 40.7739 19.7356 40.8458 19.7061C40.9176 19.6767 40.9829 19.6333 41.0379 19.5785C41.0929 19.5236 41.1366 19.4584 41.1662 19.3867C41.1959 19.3149 41.2111 19.238 41.2109 19.1604C41.211 19.0828 41.1957 19.0059 41.1659 18.9342C41.1362 18.8625 41.0925 18.7975 41.0376 18.7427C40.9826 18.6879 40.9174 18.6445 40.8456 18.615C40.7738 18.5855 40.6969 18.5704 40.6193 18.5707L9.74362 18.5707L-0.184631 8.63968C-0.239486 8.58408 -0.304828 8.53988 -0.376869 8.50971C-0.448909 8.47954 -0.526218 8.46397 -0.604324 8.46389L-10.4602 8.46389L-20.3884 -1.46331C-20.4997 -1.5733 -20.6499 -1.63502 -20.8063 -1.63508L-41.0031 -1.63508C-41.1599 -1.63518 -41.3104 -1.57345 -41.422 -1.46331L-51.3473 8.46388L-61.2042 8.46388C-61.2819 8.46415 -61.3589 8.47985 -61.4306 8.51001C-61.5023 8.54018 -61.5673 8.58425 -61.6218 8.63968L-71.5511 18.5707L-91.2618 18.5707L-131.49 -21.6592C-131.545 -21.715 -131.61 -21.7594 -131.682 -21.7899C-131.754 -21.8204 -131.831 -21.8364 -131.91 -21.8369L-142.009 -21.8369C-142.086 -21.8369 -142.163 -21.8215 -142.235 -21.7918C-142.307 -21.762 -142.372 -21.7184 -142.427 -21.6635C-142.481 -21.6085 -142.525 -21.5433 -142.555 -21.4716C-142.584 -21.3998 -142.599 -21.3229 -142.599 -21.2453Z" fill="black"/>
            <path opacity="0.83" d="M-112.915 49.4467C-112.916 49.5246 -112.901 49.6019 -112.871 49.674C-112.842 49.7461 -112.798 49.8117 -112.743 49.8669C-112.688 49.9221 -112.623 49.9659 -112.551 49.9956C-112.479 50.0254 -112.402 50.0406 -112.324 50.0403L-82.2669 50.0403L-52.3098 79.9937L-52.3098 89.8523C-52.3102 89.9299 -52.2952 90.0068 -52.2657 90.0785C-52.2362 90.1502 -52.1927 90.2154 -52.1378 90.2702L-42.036 100.367C-41.9258 100.478 -41.7764 100.541 -41.6201 100.543L-21.4173 100.543C-21.261 100.541 -21.1116 100.478 -21.0012 100.367L-0.972385 80.3392L49.2863 80.3392C49.443 80.3392 49.5932 80.277 49.704 80.1662C49.8147 80.0554 49.877 79.9052 49.877 79.7485C49.877 79.5919 49.8147 79.4417 49.704 79.3309C49.5932 79.2201 49.443 79.1578 49.2863 79.1578L-1.21632 79.1578C-1.29435 79.1576 -1.37163 79.173 -1.44359 79.2032C-1.51554 79.2334 -1.58071 79.2778 -1.63521 79.3336L-21.6623 99.3637L-41.375 99.3637L-51.1303 89.6084L-51.1303 79.7475C-51.1304 79.6704 -51.1459 79.594 -51.1759 79.523C-51.206 79.4519 -51.2498 79.3875 -51.3051 79.3336L-81.6039 49.0328C-81.6588 48.9779 -81.7242 48.9343 -81.7961 48.9049C-81.868 48.8754 -81.945 48.8605 -82.0227 48.861L-112.324 48.861C-112.401 48.8604 -112.478 48.8751 -112.549 48.9042C-112.621 48.9333 -112.686 48.9763 -112.741 49.0307C-112.796 49.0852 -112.84 49.15 -112.87 49.2214C-112.9 49.2927 -112.915 49.3693 -112.915 49.4467Z" fill="black"/>
            <path opacity="0.58" d="M-297 -20.7409C-296.999 -20.5849 -296.937 -20.4354 -296.826 -20.3252C-296.716 -20.2151 -296.566 -20.1531 -296.41 -20.153L-273.562 -20.153L-263.633 -10.2239C-263.578 -10.1685 -263.513 -10.1244 -263.441 -10.0943C-263.369 -10.0641 -263.292 -10.0484 -263.214 -10.0482L-252.864 -10.0482L-243.444 -0.132778C-243.388 -0.0750066 -243.322 -0.0289658 -243.248 0.00256302C-243.174 0.0340919 -243.095 0.0504613 -243.014 0.0507684L-212.713 0.0507697C-212.556 0.0495517 -212.406 -0.0128486 -212.296 -0.123136L-202.368 -10.0482L-182.409 -10.0482C-182.253 -10.0495 -182.103 -10.1127 -181.994 -10.2239L-172.068 -20.153L-162.213 -20.153C-162.135 -20.152 -162.058 -20.1666 -161.986 -20.1957C-161.914 -20.2249 -161.848 -20.2682 -161.793 -20.323L-151.868 -30.25L-101.854 -30.25L-91.9262 -20.323C-91.8713 -20.2683 -91.806 -20.2252 -91.7343 -20.196C-91.6626 -20.1668 -91.5857 -20.1522 -91.5083 -20.153L-61.2057 -20.153C-61.1285 -20.1524 -61.052 -20.1671 -60.9806 -20.1963C-60.9092 -20.2255 -60.8442 -20.2685 -60.7896 -20.323L-50.8605 -30.25L-41.0047 -30.25C-40.8494 -30.2505 -40.7007 -30.3123 -40.5908 -30.422L-30.6617 -40.353L29.6968 -40.353L49.9036 -40.4818C49.9806 -40.4815 50.057 -40.4964 50.1282 -40.5258C50.1995 -40.5551 50.2642 -40.5982 50.3187 -40.6527C50.3733 -40.7071 50.4165 -40.7719 50.4459 -40.8431C50.4753 -40.9143 50.4904 -40.9906 50.4902 -41.0676L50.4902 -41.0717C50.4901 -41.1494 50.4746 -41.2264 50.4446 -41.2982C50.4146 -41.37 50.3707 -41.4352 50.3155 -41.4899C50.2602 -41.5447 50.1947 -41.5881 50.1227 -41.6175C50.0507 -41.6469 49.9736 -41.6618 49.8958 -41.6613L-30.9049 -41.5323C-30.9822 -41.5326 -31.0589 -41.5176 -31.1305 -41.4881C-31.202 -41.4586 -31.267 -41.4153 -31.3217 -41.3606L-41.2498 -31.4315L-51.1057 -31.4315C-51.1835 -31.4322 -51.2606 -31.4171 -51.3324 -31.3873C-51.4042 -31.3574 -51.4692 -31.3132 -51.5236 -31.2575L-61.4506 -21.3325L-91.2633 -21.3325L-101.192 -31.2575C-101.247 -31.3131 -101.312 -31.3571 -101.384 -31.387C-101.455 -31.4169 -101.533 -31.432 -101.61 -31.4315L-152.112 -31.4315C-152.19 -31.4319 -152.266 -31.4167 -152.338 -31.3868C-152.41 -31.3569 -152.475 -31.313 -152.529 -31.2575L-162.457 -21.3325L-172.313 -21.3325C-172.468 -21.3313 -172.617 -21.2688 -172.728 -21.1587L-182.653 -11.2315L-202.612 -11.2315C-202.689 -11.2314 -202.766 -11.216 -202.837 -11.1862C-202.908 -11.1564 -202.973 -11.1127 -203.028 -11.0578L-212.956 -1.12868L-242.76 -1.12868L-252.181 -11.0442C-252.236 -11.1029 -252.303 -11.1499 -252.376 -11.1821C-252.45 -11.2143 -252.53 -11.2311 -252.61 -11.2315L-262.971 -11.2315L-272.899 -21.1587C-273.01 -21.2697 -273.16 -21.3322 -273.317 -21.3325L-296.41 -21.3325C-296.566 -21.3322 -296.717 -21.2697 -296.827 -21.1588C-296.938 -21.0478 -297 -20.8975 -297 -20.7409Z" fill="black"/>
            <path opacity="0.53" d="M-85.3356 80.1856L-105.617 60.6534L-105.38 59.4741C-105.227 59.4733 -105.08 59.5321 -104.97 59.6381L-84.5134 79.3362L-74.1596 89.443C-74.1031 89.4971 -74.0582 89.5623 -74.0278 89.6345C-73.9974 89.7067 -73.9821 89.7843 -73.9829 89.8627L-73.9829 99.7334L-64.7169 109.977L-34.9197 109.977L-14.8927 89.9507C-14.8383 89.8945 -14.7732 89.8499 -14.7012 89.8194C-14.6293 89.7889 -14.5519 89.773 -14.4738 89.7729L61.3898 89.7729C61.4675 89.7728 61.5445 89.7881 61.6163 89.8178C61.6882 89.8475 61.7534 89.891 61.8084 89.946C61.8634 90.0009 61.9069 90.0662 61.9366 90.138C61.9663 90.2099 61.9816 90.2868 61.9814 90.3646C61.9809 90.5209 61.9182 90.6707 61.8073 90.781C61.6964 90.8912 61.5462 90.9529 61.3898 90.9524L-14.2298 90.9524L-34.2587 110.984C-34.3694 111.094 -34.5189 111.156 -34.6748 111.156L-64.9774 111.156C-65.0596 111.157 -65.141 111.141 -65.2163 111.108C-65.2916 111.075 -65.3589 111.026 -65.4139 110.965L-75.011 100.358C-75.1082 100.249 -75.1621 100.108 -75.1624 99.9617L-75.1624 90.1146L-85.3356 80.1856Z" fill="black"/>
        </g>
        <g opacity="0.3">
            <path d="M345.028 2.273C344.488 2.27302 343.959 2.43337 343.509 2.73381C343.06 3.03426 342.709 3.4613 342.502 3.96092C342.295 4.46054 342.241 5.01035 342.346 5.54077C342.452 6.0712 342.712 6.55845 343.095 6.94093C343.477 7.3234 343.964 7.58388 344.494 7.68951C345.025 7.79514 345.575 7.74115 346.074 7.53434C346.574 7.32753 347.001 6.9772 347.302 6.52764C347.602 6.07808 347.763 5.54948 347.763 5.00868C347.763 4.28342 347.475 3.58797 346.962 3.07504C346.449 2.5621 345.754 2.27364 345.028 2.273Z" fill="black"/>
            <path d="M187.873 15.1157C187.872 15.7628 187.615 16.3833 187.157 16.8406C186.7 17.298 186.079 17.5549 185.432 17.5547C184.785 17.5549 184.164 17.2982 183.706 16.8408C183.248 16.3834 182.991 15.7629 182.99 15.1157C182.991 14.4688 183.249 13.8487 183.707 13.3915C184.165 12.9343 184.785 12.6774 185.432 12.677C186.079 12.6775 186.699 12.9344 187.157 13.3916C187.614 13.8488 187.872 14.4689 187.873 15.1157ZM183.493 15.1157C183.493 15.37 183.544 15.6217 183.641 15.8565C183.739 16.0912 183.882 16.3045 184.062 16.484C184.242 16.6635 184.456 16.8058 184.691 16.9027C184.926 16.9996 185.178 17.0493 185.432 17.0488C185.945 17.0493 186.438 16.8459 186.801 16.4834C187.164 16.1209 187.368 15.6289 187.369 15.1157C187.367 14.6029 187.163 14.1115 186.8 13.7492C186.437 13.3869 185.945 13.1832 185.432 13.1826C184.919 13.1827 184.427 13.3862 184.063 13.7485C183.7 14.1109 183.495 14.6025 183.493 15.1157Z" fill="black"/>
            <path d="M188.174 15.1062C188.173 15.8333 187.884 16.5302 187.37 17.0442C186.855 17.5582 186.158 17.8471 185.431 17.8477C184.704 17.8474 184.006 17.5586 183.491 17.0446C182.977 16.5307 182.687 15.8336 182.686 15.1062C182.687 14.3788 182.977 13.6817 183.491 13.1677C184.006 12.6538 184.704 12.3649 185.431 12.3646C186.158 12.3652 186.855 12.6542 187.37 13.1681C187.884 13.6821 188.173 14.3791 188.174 15.1062ZM183.796 15.1062C183.797 15.5392 183.969 15.9541 184.276 16.2599C184.583 16.5656 184.998 16.7371 185.431 16.7367C185.864 16.7367 186.279 16.565 186.585 16.2593C186.891 15.9536 187.063 15.5388 187.064 15.1062C187.063 14.6736 186.891 14.2591 186.584 13.9535C186.278 13.6479 185.864 13.4761 185.431 13.4758C184.998 13.4757 184.583 13.6473 184.276 13.9529C183.97 14.2585 183.797 14.6733 183.796 15.1062Z" fill="black"/>
            <path d="M205.565 5.01051C205.565 5.65835 205.307 6.27955 204.849 6.73755C204.391 7.19555 203.769 7.45291 203.122 7.45312C202.474 7.45213 201.854 7.19438 201.396 6.73645C200.939 6.27852 200.682 5.65778 200.682 5.01052C200.682 4.36372 200.94 3.74367 201.397 3.28641C201.855 2.82915 202.475 2.57205 203.122 2.57157C203.769 2.57127 204.39 2.82798 204.848 3.28531C205.306 3.74264 205.564 4.36315 205.565 5.01051ZM201.187 5.01052C201.187 5.52365 201.391 6.01556 201.754 6.37857C202.117 6.74158 202.608 6.94617 203.122 6.94746C203.635 6.94696 204.128 6.74281 204.491 6.37973C204.855 6.01666 205.059 5.52424 205.061 5.01052C205.059 4.49718 204.855 4.00533 204.491 3.64289C204.127 3.28044 203.635 3.07705 203.122 3.07742C202.609 3.07785 202.117 3.28161 201.754 3.64398C201.392 4.00636 201.187 4.49777 201.187 5.01052Z" fill="black"/>
            <path d="M205.868 5.01248C205.867 5.74058 205.577 6.43855 205.062 6.95321C204.547 7.46787 203.849 7.75722 203.12 7.75781C202.393 7.7566 201.696 7.46692 201.181 6.95229C200.667 6.43766 200.378 5.74004 200.377 5.01248C200.378 4.28541 200.668 3.5885 201.182 3.07457C201.696 2.56064 202.393 2.27166 203.12 2.271C203.848 2.27104 204.546 2.5597 205.061 3.07365C205.576 3.58761 205.866 4.28487 205.868 5.01248ZM201.489 5.01248C201.489 5.44515 201.661 5.86004 201.967 6.16606C202.273 6.47208 202.688 6.64425 203.12 6.64488C203.554 6.64483 203.969 6.47295 204.276 6.16691C204.582 5.86087 204.755 5.44566 204.756 5.01248C204.755 4.5795 204.582 4.16459 204.275 3.85885C203.969 3.55311 203.553 3.38157 203.12 3.38192C202.688 3.38214 202.273 3.55399 201.967 3.8597C201.661 4.16542 201.489 4.58 201.489 5.01248Z" fill="black"/>
            <path d="M296.342 15.5505C296.342 16.033 296.198 16.5046 295.93 16.9056C295.661 17.3066 295.28 17.619 294.834 17.8033C294.388 17.9876 293.898 18.0355 293.424 17.9411C292.951 17.8466 292.517 17.6139 292.176 17.2725C291.835 16.931 291.602 16.4962 291.509 16.0228C291.415 15.5495 291.463 15.059 291.648 14.6132C291.833 14.1675 292.146 13.7866 292.547 13.5186C292.948 13.2506 293.42 13.1077 293.903 13.1078C294.55 13.1087 295.17 13.3664 295.628 13.8244C296.085 14.2824 296.342 14.9032 296.342 15.5505ZM291.967 15.5505C291.967 15.9332 292.081 16.3073 292.293 16.6254C292.506 16.9435 292.809 17.1913 293.162 17.3376C293.516 17.4839 293.905 17.5221 294.281 17.4473C294.656 17.3725 295.001 17.188 295.271 16.9173C295.542 16.6466 295.726 16.3018 295.801 15.9264C295.875 15.551 295.837 15.1619 295.69 14.8083C295.544 14.4547 295.296 14.1524 294.978 13.9398C294.66 13.7271 294.285 13.6135 293.903 13.6134C293.389 13.6149 292.898 13.8194 292.535 14.1824C292.172 14.5454 291.968 15.0373 291.967 15.5505Z" fill="black"/>
            <path d="M296.646 15.5544C296.646 16.097 296.485 16.6274 296.183 17.0785C295.881 17.5296 295.453 17.8811 294.951 18.0885C294.45 18.2959 293.898 18.35 293.366 18.2439C292.834 18.1378 292.345 17.8763 291.961 17.4925C291.578 17.1086 291.316 16.6196 291.211 16.0874C291.105 15.5551 291.16 15.0034 291.367 14.5021C291.575 14.0008 291.927 13.5724 292.378 13.271C292.83 12.9696 293.36 12.8088 293.903 12.8089C294.63 12.8102 295.328 13.0999 295.842 13.6146C296.356 14.1292 296.645 14.8268 296.646 15.5544ZM292.27 15.5544C292.271 15.877 292.367 16.1922 292.547 16.4603C292.726 16.7283 292.981 16.9371 293.279 17.0602C293.578 17.1833 293.906 17.2154 294.222 17.1522C294.538 17.089 294.829 16.9333 295.057 16.7051C295.285 16.4768 295.44 16.1861 295.503 15.8697C295.566 15.5532 295.533 15.2252 295.41 14.9271C295.286 14.6291 295.077 14.3744 294.809 14.1951C294.541 14.0158 294.225 13.9201 293.903 13.92C293.47 13.9205 293.054 14.0929 292.748 14.3993C292.442 14.7058 292.27 15.1212 292.27 15.5544Z" fill="black"/>
            <path d="M308.578 16.4733C308.578 16.9561 308.434 17.428 308.166 17.8294C307.898 18.2308 307.516 18.5436 307.07 18.7283C306.624 18.913 306.133 18.9613 305.66 18.8672C305.186 18.773 304.751 18.5406 304.41 18.1992C304.068 17.8579 303.836 17.423 303.741 16.9495C303.647 16.476 303.695 15.9852 303.88 15.539C304.064 15.0929 304.377 14.7115 304.778 14.443C305.179 14.1744 305.651 14.0309 306.134 14.0305C306.455 14.0301 306.773 14.0931 307.07 14.2157C307.366 14.3383 307.636 14.5182 307.863 14.7451C308.09 14.972 308.27 15.2415 308.392 15.538C308.515 15.8346 308.578 16.1524 308.578 16.4733ZM304.199 16.4733C304.2 16.8564 304.314 17.2308 304.527 17.5491C304.74 17.8675 305.043 18.1155 305.397 18.2617C305.751 18.408 306.14 18.4459 306.516 18.3708C306.892 18.2956 307.237 18.1108 307.507 17.8397C307.778 17.5685 307.962 17.2231 308.036 16.8473C308.111 16.4715 308.072 16.0821 307.925 15.7283C307.778 15.3745 307.529 15.0722 307.211 14.8597C306.892 14.6472 306.517 14.534 306.134 14.5344C305.88 14.5345 305.628 14.5847 305.393 14.6822C305.158 14.7797 304.944 14.9226 304.765 15.1027C304.585 15.2828 304.443 15.4966 304.346 15.7317C304.248 15.9669 304.199 16.2189 304.199 16.4733Z" fill="black"/>
            <path d="M308.887 16.4714C308.887 17.0142 308.726 17.5447 308.424 17.9959C308.122 18.447 307.693 18.7987 307.192 19.0062C306.69 19.2138 306.138 19.268 305.606 19.162C305.074 19.056 304.585 18.7946 304.201 18.4108C303.817 18.027 303.555 17.538 303.449 17.0056C303.343 16.4733 303.398 15.9214 303.605 15.4199C303.813 14.9183 304.164 14.4895 304.615 14.1876C305.066 13.8858 305.597 13.7245 306.14 13.7241C306.501 13.7239 306.858 13.7949 307.191 13.9329C307.525 14.0709 307.828 14.2732 308.083 14.5284C308.338 14.7835 308.54 15.0864 308.678 15.4198C308.816 15.7532 308.887 16.1105 308.887 16.4714ZM304.508 16.4714C304.509 16.7944 304.605 17.1102 304.784 17.3787C304.964 17.6472 305.219 17.8565 305.518 17.9799C305.816 18.1033 306.145 18.1354 306.462 18.0721C306.779 18.0088 307.07 17.8529 307.298 17.6243C307.526 17.3956 307.681 17.1044 307.744 16.7874C307.807 16.4705 307.774 16.142 307.65 15.8436C307.526 15.5453 307.317 15.2904 307.048 15.1112C306.779 14.932 306.463 14.8365 306.14 14.8369C305.925 14.8369 305.713 14.8793 305.515 14.9614C305.317 15.0436 305.137 15.164 304.985 15.3158C304.834 15.4676 304.714 15.6478 304.632 15.8461C304.55 16.0444 304.508 16.2569 304.508 16.4714Z" fill="black"/>
            <path d="M325.156 33.9899C325.156 34.4725 325.013 34.9443 324.744 35.3456C324.476 35.7468 324.095 36.0595 323.649 36.2441C323.203 36.4287 322.712 36.477 322.239 36.3827C321.766 36.2884 321.331 36.0559 320.99 35.7146C320.649 35.3732 320.416 34.9384 320.322 34.465C320.228 33.9916 320.277 33.5009 320.461 33.0551C320.646 32.6092 320.959 32.2282 321.36 31.9601C321.762 31.6921 322.234 31.549 322.716 31.5491C323.363 31.5504 323.983 31.808 324.44 32.2655C324.898 32.723 325.155 33.343 325.156 33.9899ZM320.78 33.9899C320.78 34.3727 320.893 34.747 321.106 35.0653C321.319 35.3837 321.621 35.6319 321.974 35.7785C322.328 35.9251 322.717 35.9635 323.093 35.8889C323.468 35.8143 323.813 35.63 324.084 35.3594C324.355 35.0888 324.539 34.744 324.614 34.3685C324.689 33.9931 324.651 33.6039 324.504 33.2501C324.358 32.8964 324.11 32.5941 323.791 32.3813C323.473 32.1685 323.099 32.0549 322.716 32.0548C322.203 32.0553 321.711 32.2593 321.348 32.6221C320.985 32.9848 320.781 33.4767 320.78 33.9899Z" fill="black"/>
            <path d="M325.459 33.9897C325.459 34.5324 325.298 35.0631 324.997 35.5144C324.695 35.9658 324.267 36.3175 323.765 36.5253C323.264 36.7331 322.712 36.7875 322.18 36.6817C321.647 36.5759 321.158 36.3145 320.774 35.9307C320.391 35.547 320.129 35.058 320.023 34.5256C319.918 33.9933 319.972 33.4415 320.18 32.9401C320.387 32.4387 320.739 32.0101 321.191 31.7086C321.642 31.4071 322.172 31.2463 322.715 31.2464C323.443 31.2472 324.14 31.5365 324.654 32.0508C325.168 32.565 325.458 33.2623 325.459 33.9897ZM321.083 33.9897C321.083 34.3124 321.179 34.6278 321.358 34.8961C321.537 35.1644 321.792 35.3734 322.09 35.4969C322.389 35.6203 322.717 35.6526 323.033 35.5896C323.35 35.5267 323.64 35.3713 323.869 35.1431C324.097 34.9149 324.252 34.6241 324.315 34.3076C324.378 33.9911 324.346 33.663 324.222 33.3649C324.099 33.0667 323.89 32.8119 323.622 32.6325C323.353 32.4532 323.038 32.3574 322.715 32.3573C322.282 32.3573 321.867 32.5293 321.561 32.8355C321.255 33.1416 321.083 33.5567 321.083 33.9897Z" fill="black"/>
            <path d="M233.922 72.9758C233.381 72.975 232.851 73.1348 232.401 73.435C231.95 73.7352 231.599 74.1623 231.391 74.6622C231.183 75.1622 231.129 75.7125 231.234 76.2436C231.339 76.7747 231.599 77.2627 231.981 77.6459C232.364 78.029 232.851 78.2902 233.382 78.3962C233.913 78.5022 234.464 78.4484 234.964 78.2416C235.464 78.0347 235.892 77.6841 236.193 77.2341C236.494 76.7841 236.655 76.2549 236.655 75.7135C236.655 74.9884 236.367 74.293 235.855 73.7798C235.342 73.2666 234.647 72.9774 233.922 72.9758Z" fill="black"/>
            <path d="M198.888 32.5796C198.529 32.5794 198.173 32.6501 197.84 32.7876C197.508 32.9251 197.206 33.1268 196.952 33.381C196.698 33.6353 196.496 33.9371 196.359 34.2693C196.222 34.6016 196.151 34.9576 196.151 35.3172C196.152 36.042 196.441 36.7368 196.954 37.2487C197.468 37.7607 198.163 38.0478 198.888 38.0469C199.613 38.0474 200.308 37.7601 200.821 37.2482C201.333 36.7363 201.622 36.0417 201.623 35.3172C201.623 34.9578 201.553 34.6019 201.415 34.2698C201.278 33.9376 201.077 33.6358 200.823 33.3816C200.569 33.1273 200.267 32.9256 199.935 32.788C199.603 32.6504 199.247 32.5796 198.888 32.5796Z" fill="black"/>
            <path d="M223.815 12.3785C223.274 12.3789 222.745 12.5396 222.296 12.8404C221.846 13.1412 221.496 13.5685 221.289 14.0683C221.083 14.5681 221.029 15.1179 221.135 15.6482C221.241 16.1786 221.501 16.6657 221.884 17.0478C222.267 17.43 222.754 17.6902 223.285 17.7954C223.815 17.9006 224.365 17.8462 224.864 17.639C225.364 17.4318 225.791 17.0811 226.091 16.6313C226.391 16.1815 226.551 15.6528 226.551 15.112C226.551 14.3866 226.262 13.6911 225.749 13.1785C225.236 12.6659 224.54 12.3781 223.815 12.3785Z" fill="black"/>
            <path d="M284.424 2.27296C283.883 2.27353 283.355 2.4344 282.906 2.73518C282.456 3.03596 282.106 3.46317 281.9 3.96283C281.693 4.4625 281.639 5.01221 281.745 5.54245C281.851 6.07268 282.112 6.55967 282.494 6.94187C282.876 7.32406 283.364 7.58432 283.894 7.68972C284.424 7.79513 284.974 7.74095 285.473 7.53406C285.973 7.32717 286.4 6.97679 286.7 6.5273C287.001 6.07781 287.161 5.54933 287.162 5.00865C287.162 4.64921 287.091 4.29332 286.953 3.96125C286.816 3.62918 286.614 3.32749 286.36 3.07341C286.106 2.81934 285.804 2.61783 285.472 2.48049C285.139 2.34314 284.784 2.27264 284.424 2.27296Z" fill="black"/>
            <path d="M311.395 52.7787C310.854 52.7789 310.326 52.9394 309.877 53.2398C309.427 53.5402 309.077 53.9671 308.87 54.4665C308.663 54.966 308.609 55.5155 308.715 56.0457C308.82 56.5758 309.08 57.0628 309.463 57.4451C309.845 57.8274 310.332 58.0878 310.862 58.1934C311.392 58.299 311.941 58.2451 312.441 58.0384C312.94 57.8318 313.367 57.4816 313.668 57.0323C313.969 56.583 314.129 56.0547 314.13 55.5142C314.13 55.1549 314.059 54.7992 313.922 54.4673C313.784 54.1353 313.583 53.8337 313.329 53.5797C313.075 53.3256 312.774 53.1241 312.442 52.9867C312.11 52.8493 311.754 52.7786 311.395 52.7787Z" fill="black"/>
            <path d="M249.994 65.6147C249.994 66.0972 249.851 66.569 249.583 66.9702C249.315 67.3714 248.934 67.6842 248.488 67.8689C248.043 68.0536 247.552 68.1019 247.079 68.0078C246.606 67.9137 246.171 67.6814 245.83 67.3402C245.489 66.999 245.256 66.5643 245.162 66.0911C245.068 65.6178 245.116 65.1273 245.301 64.6815C245.486 64.2358 245.798 63.8548 246.2 63.5868C246.601 63.3188 247.073 63.1758 247.555 63.176C248.202 63.1762 248.822 63.4332 249.279 63.8905C249.737 64.3478 249.994 64.968 249.994 65.6147ZM245.618 65.6147C245.618 65.9976 245.731 66.372 245.944 66.6905C246.156 67.009 246.459 67.2573 246.812 67.4041C247.166 67.5508 247.555 67.5894 247.931 67.5149C248.306 67.4404 248.651 67.2562 248.922 66.9856C249.193 66.715 249.378 66.3701 249.453 65.9946C249.528 65.6191 249.489 65.2298 249.343 64.876C249.197 64.5221 248.949 64.2196 248.631 64.0067C248.312 63.7938 247.938 63.68 247.555 63.6798C247.042 63.6796 246.549 63.8833 246.186 64.2462C245.823 64.609 245.618 65.1013 245.618 65.6147Z" fill="black"/>
            <path d="M250.297 65.6128C250.296 66.1553 250.136 66.6856 249.834 67.1367C249.533 67.5877 249.104 67.9392 248.603 68.1468C248.102 68.3543 247.55 68.4086 247.018 68.3027C246.486 68.1968 245.997 67.9355 245.614 67.5518C245.23 67.1681 244.969 66.6793 244.863 66.1472C244.757 65.6151 244.812 65.0636 245.02 64.5624C245.227 64.0612 245.579 63.6328 246.03 63.3315C246.481 63.0302 247.012 62.8694 247.554 62.8695C248.281 62.8703 248.978 63.1596 249.493 63.6739C250.007 64.1882 250.296 64.8855 250.297 65.6128ZM245.921 65.6128C245.921 65.9356 246.016 66.2512 246.196 66.5196C246.375 66.788 246.63 66.9972 246.928 67.1208C247.226 67.2444 247.555 67.2768 247.871 67.2139C248.188 67.151 248.479 66.9956 248.707 66.7674C248.935 66.5392 249.091 66.2484 249.154 65.9318C249.217 65.6153 249.185 65.2871 249.061 64.9888C248.938 64.6905 248.729 64.4355 248.461 64.256C248.192 64.0765 247.877 63.9806 247.554 63.9804C247.121 63.9806 246.706 64.1527 246.4 64.4587C246.093 64.7648 245.921 65.1798 245.921 65.6128Z" fill="black"/>
            <path d="M223.939 45.4115C223.94 45.8945 223.797 46.3668 223.53 46.7686C223.262 47.1705 222.881 47.4838 222.435 47.669C221.989 47.8541 221.498 47.9028 221.024 47.8088C220.55 47.7147 220.115 47.4822 219.773 47.1407C219.432 46.7992 219.199 46.3642 219.105 45.8904C219.011 45.4167 219.06 44.9257 219.245 44.4797C219.43 44.0336 219.743 43.6525 220.145 43.3846C220.547 43.1167 221.019 42.974 221.502 42.9747C222.149 42.9752 222.768 43.232 223.225 43.6889C223.682 44.1458 223.939 44.7654 223.939 45.4115ZM219.563 45.4115C219.564 45.9258 219.768 46.419 220.132 46.7829C220.495 47.1467 220.988 47.3515 221.502 47.3524C222.016 47.3508 222.508 47.1455 222.87 46.7816C223.232 46.4177 223.435 45.9249 223.434 45.4115C223.434 44.8989 223.231 44.4073 222.869 44.0445C222.506 43.6818 222.015 43.4775 221.502 43.4766C220.989 43.4767 220.496 43.6805 220.133 44.0433C219.769 44.406 219.565 44.898 219.563 45.4115Z" fill="black"/>
            <path d="M224.239 45.4068C224.239 46.1342 223.95 46.8318 223.437 47.3465C222.923 47.8613 222.226 48.1511 221.498 48.1523C220.771 48.1523 220.073 47.8633 219.558 47.3488C219.044 46.8343 218.755 46.1365 218.755 45.4088C218.755 44.6812 219.044 43.9834 219.558 43.4689C220.073 42.9543 220.771 42.6653 221.498 42.6653C222.225 42.6663 222.922 42.9555 223.435 43.4694C223.949 43.9834 224.238 44.6801 224.239 45.4068ZM219.863 45.4068C219.863 45.8408 220.036 46.2569 220.342 46.564C220.649 46.8711 221.064 47.0442 221.498 47.0452C221.931 47.0432 222.346 46.8697 222.651 46.5625C222.957 46.2554 223.128 45.8399 223.127 45.4068C223.127 44.9745 222.956 44.5598 222.65 44.2538C222.345 43.9478 221.931 43.7754 221.498 43.7744C221.065 43.7744 220.65 43.9464 220.343 44.2524C220.036 44.5584 219.864 44.9736 219.863 45.4068Z" fill="black"/>
            <path d="M271.124 35.3129C271.123 35.7955 270.979 36.2671 270.711 36.668C270.442 37.0689 270.061 37.3812 269.614 37.5653C269.168 37.7495 268.678 37.7973 268.204 37.7026C267.731 37.6079 267.296 37.3751 266.955 37.0335C266.615 36.6919 266.382 36.2569 266.289 35.7835C266.195 35.31 266.244 34.8194 266.429 34.3736C266.614 33.9278 266.927 33.5469 267.328 33.279C267.729 33.011 268.201 32.8681 268.684 32.8683C269.005 32.8684 269.322 32.9318 269.619 33.0547C269.915 33.1777 270.184 33.3578 270.411 33.5849C270.637 33.8119 270.817 34.0814 270.939 34.3779C271.062 34.6744 271.124 34.9921 271.124 35.3129ZM266.745 35.3129C266.745 35.6961 266.859 36.0706 267.072 36.3892C267.285 36.7078 267.588 36.9561 267.942 37.1026C268.296 37.2492 268.686 37.2875 269.061 37.2127C269.437 37.1378 269.782 36.9533 270.053 36.6823C270.324 36.4114 270.509 36.0661 270.584 35.6903C270.659 35.3144 270.62 34.9248 270.474 34.5708C270.327 34.2167 270.079 33.9139 269.76 33.7009C269.442 33.4879 269.067 33.3742 268.684 33.374C268.17 33.3741 267.677 33.5784 267.313 33.942C266.95 34.3056 266.745 34.7987 266.745 35.3129Z" fill="black"/>
            <path d="M271.426 35.3171C271.426 35.8598 271.264 36.3901 270.962 36.8411C270.66 37.292 270.231 37.6433 269.73 37.8506C269.228 38.0578 268.677 38.1117 268.144 38.0054C267.612 37.8992 267.123 37.6375 266.74 37.2534C266.356 36.8694 266.095 36.3803 265.99 35.848C265.884 35.3156 265.939 34.764 266.147 34.2627C266.355 33.7614 266.707 33.333 267.158 33.0317C267.61 32.7304 268.14 32.5696 268.683 32.5698C269.411 32.5709 270.108 32.8608 270.623 33.3759C271.137 33.891 271.426 34.5892 271.426 35.3171ZM267.048 35.3171C267.048 35.6402 267.144 35.956 267.324 36.2244C267.504 36.4929 267.759 36.702 268.058 36.8254C268.356 36.9488 268.685 36.9809 269.002 36.9177C269.319 36.8544 269.61 36.6987 269.838 36.4702C270.066 36.2416 270.222 35.9505 270.285 35.6336C270.348 35.3167 270.315 34.9882 270.192 34.6897C270.068 34.3912 269.859 34.136 269.59 33.9564C269.322 33.7768 269.006 33.6809 268.683 33.6807C268.249 33.6811 267.833 33.8537 267.527 34.1605C267.22 34.4673 267.048 34.8833 267.048 35.3171Z" fill="black"/>
            <path opacity="0.78" d="M224.411 15.1056C224.412 15.1835 224.397 15.2608 224.367 15.3329C224.338 15.4049 224.294 15.4704 224.239 15.5256C224.184 15.5808 224.119 15.6246 224.047 15.6544C223.975 15.6842 223.898 15.6994 223.82 15.6992L187.624 15.6992C187.546 15.6991 187.47 15.6836 187.398 15.6536C187.326 15.6237 187.261 15.5798 187.207 15.5246C187.152 15.4695 187.109 15.404 187.08 15.3321C187.05 15.2602 187.036 15.1833 187.036 15.1056C187.036 15.0285 187.051 14.9522 187.081 14.881C187.111 14.8098 187.154 14.7452 187.209 14.6908C187.263 14.6364 187.328 14.5933 187.399 14.564C187.471 14.5347 187.547 14.5197 187.624 14.52L223.82 14.52C223.897 14.5194 223.974 14.5341 224.045 14.5633C224.117 14.5924 224.182 14.6354 224.237 14.6898C224.292 14.7442 224.336 14.809 224.366 14.8803C224.396 14.9517 224.411 15.0283 224.411 15.1056Z" fill="black"/>
            <path opacity="0.96" d="M285.006 5.00538C285.006 5.16175 284.944 5.31182 284.834 5.42312L274.734 15.5261C274.623 15.6363 274.472 15.698 274.315 15.6978L244.262 15.6978L234.333 25.6251C234.279 25.6801 234.214 25.7236 234.142 25.7531C234.071 25.7826 233.994 25.7975 233.917 25.7969L227.714 25.7969C227.636 25.7969 227.559 25.7818 227.488 25.7522C227.416 25.7226 227.351 25.6792 227.296 25.6244C227.241 25.5697 227.198 25.5046 227.168 25.4331C227.138 25.3615 227.123 25.2847 227.123 25.2072C227.123 25.1296 227.138 25.0528 227.167 24.981C227.197 24.9093 227.241 24.8441 227.295 24.7893C227.35 24.7345 227.416 24.6911 227.487 24.6616C227.559 24.6321 227.636 24.6172 227.714 24.6176L233.674 24.6176L243.597 14.6903C243.652 14.6354 243.717 14.5919 243.789 14.5624C243.861 14.5329 243.939 14.518 244.017 14.5186L274.071 14.5186L283.999 4.58752C284.082 4.50477 284.187 4.44836 284.302 4.42551C284.416 4.40266 284.535 4.41441 284.643 4.45919C284.751 4.50398 284.843 4.57977 284.907 4.67703C284.972 4.77429 285.006 4.88858 285.006 5.00538Z" fill="black"/>
            <path opacity="0.37" d="M293.248 16.9814C293.247 17.1367 293.186 17.2855 293.076 17.3955L284.838 25.6356C284.784 25.6909 284.718 25.7347 284.647 25.7642C284.575 25.7937 284.498 25.8084 284.42 25.8073L264.464 25.8073L254.539 35.7344C254.485 35.7897 254.42 35.8336 254.348 35.8638C254.277 35.8939 254.2 35.9097 254.122 35.9102L198.568 35.9102C198.491 35.9103 198.414 35.8952 198.342 35.8656C198.271 35.836 198.206 35.7926 198.151 35.7378C198.096 35.6831 198.053 35.618 198.023 35.5464C197.993 35.4747 197.978 35.398 197.979 35.3205C197.979 35.1642 198.041 35.0144 198.152 34.9039C198.262 34.7934 198.412 34.7312 198.568 34.7308L253.879 34.7308L263.801 24.7998C263.913 24.6897 264.063 24.6281 264.219 24.6281L284.175 24.6281L292.241 16.5635C292.296 16.5083 292.361 16.4645 292.433 16.4346C292.504 16.4047 292.581 16.3893 292.659 16.3893C292.736 16.3893 292.813 16.4047 292.885 16.4346C292.956 16.4645 293.021 16.5083 293.076 16.5635C293.131 16.6182 293.175 16.6833 293.204 16.7551C293.234 16.8269 293.249 16.9038 293.248 16.9814Z" fill="black"/>
            <path opacity="0.83" d="M305.214 15.113C305.214 15.2301 305.18 15.3447 305.115 15.4423C305.05 15.5399 304.958 15.6161 304.85 15.6612C304.742 15.7064 304.623 15.7185 304.508 15.696C304.393 15.6735 304.287 15.6175 304.204 15.5349L284.175 -4.49918L274.564 -4.49918L264.636 5.43193C264.525 5.54182 264.375 5.60359 264.219 5.60388L205.309 5.60388C205.231 5.6042 205.154 5.58916 205.083 5.55964C205.011 5.53012 204.946 5.48668 204.891 5.43187C204.836 5.37705 204.793 5.31195 204.763 5.24027C204.734 5.16858 204.718 5.09172 204.719 5.01419C204.718 4.9364 204.733 4.85928 204.762 4.78726C204.792 4.71523 204.835 4.64974 204.89 4.59456C204.945 4.53937 205.01 4.49561 205.082 4.46574C205.154 4.43588 205.231 4.42054 205.309 4.42059L263.976 4.42059L273.905 -5.50472C274.015 -5.61408 274.164 -5.67635 274.319 -5.67844L284.42 -5.67844C284.577 -5.67716 284.727 -5.61485 284.838 -5.50472L305.039 14.6991C305.094 14.7533 305.137 14.8176 305.167 14.8887C305.197 14.9597 305.213 15.0359 305.214 15.113Z" fill="black"/>
            <path opacity="0.79" d="M321.88 35.3177C321.88 35.3948 321.865 35.471 321.836 35.5421C321.806 35.6132 321.762 35.6776 321.707 35.7316L311.606 45.8346C311.496 45.9441 311.346 46.0052 311.19 46.0044L292.416 46.0044L301.335 54.9259L311.19 54.9259C311.269 54.9244 311.347 54.9386 311.42 54.9676C311.492 54.9966 311.559 55.0398 311.615 55.0947C311.67 55.1496 311.715 55.2151 311.745 55.2874C311.776 55.3597 311.791 55.4372 311.791 55.5156C311.791 55.594 311.776 55.6716 311.745 55.7439C311.715 55.8162 311.67 55.8816 311.615 55.9365C311.559 55.9914 311.492 56.0346 311.42 56.0636C311.347 56.0926 311.269 56.1068 311.19 56.1054L301.091 56.1054C301.014 56.1063 300.937 56.0917 300.865 56.0625C300.793 56.0334 300.727 55.9902 300.672 55.9354L290.575 45.8346C290.492 45.752 290.435 45.6465 290.412 45.5317C290.389 45.4169 290.4 45.2979 290.445 45.1896C290.49 45.0813 290.565 44.9887 290.663 44.9234C290.76 44.8582 290.874 44.8233 290.991 44.8231L310.945 44.823L320.871 34.8998C320.953 34.817 321.059 34.7606 321.173 34.7378C321.288 34.7149 321.407 34.7265 321.515 34.7713C321.623 34.816 321.716 34.8918 321.781 34.9891C321.846 35.0864 321.88 35.2008 321.88 35.3177Z" fill="black"/>
            <path opacity="0.97" d="M345.619 5.01587C345.619 5.09351 345.604 5.17039 345.574 5.24207C345.544 5.31374 345.5 5.37886 345.445 5.43361L325.245 25.6356C325.19 25.6908 325.125 25.7344 325.053 25.764C324.981 25.7935 324.904 25.8082 324.827 25.8073L304.871 25.8073L294.942 35.7344C294.887 35.7898 294.822 35.8339 294.751 35.8641C294.679 35.8943 294.602 35.9099 294.524 35.9102L270.792 35.9102C270.635 35.9102 270.485 35.8481 270.375 35.7375C270.264 35.6269 270.202 35.4769 270.202 35.3205C270.202 35.1641 270.264 35.0142 270.375 34.9036C270.485 34.793 270.635 34.7308 270.792 34.7308L294.28 34.7308L304.208 24.7998C304.319 24.6898 304.469 24.6281 304.626 24.6281L324.582 24.6281L344.611 4.598C344.694 4.5156 344.799 4.45952 344.913 4.43685C345.028 4.41419 345.147 4.42596 345.254 4.47066C345.362 4.51535 345.455 4.59097 345.519 4.68801C345.584 4.78504 345.619 4.89911 345.619 5.01587Z" fill="black"/>
            <path opacity="0.83" d="M386.023 15.103C386.023 15.1809 386.008 15.2581 385.979 15.3303C385.949 15.4024 385.906 15.4679 385.851 15.5231C385.796 15.5783 385.73 15.6221 385.658 15.6519C385.586 15.6817 385.509 15.6968 385.431 15.6966L355.374 15.6966L325.417 45.6499L325.417 55.5085C325.418 55.5861 325.403 55.663 325.373 55.7347C325.344 55.8065 325.3 55.8717 325.245 55.9265L315.143 66.0235C315.033 66.1342 314.884 66.1973 314.728 66.1992L294.525 66.1992C294.368 66.1974 294.219 66.1343 294.109 66.0235L274.08 45.9954L223.821 45.9954C223.664 45.9954 223.514 45.9332 223.403 45.8224C223.293 45.7117 223.23 45.5614 223.23 45.4048C223.23 45.2481 223.293 45.0979 223.403 44.9871C223.514 44.8764 223.664 44.8141 223.821 44.8141L274.324 44.8141C274.402 44.8139 274.479 44.8293 274.551 44.8595C274.623 44.8897 274.688 44.934 274.743 44.9899L294.77 65.02L314.482 65.02L324.238 55.2646L324.238 45.4038C324.238 45.3266 324.253 45.2503 324.283 45.1792C324.313 45.1081 324.357 45.0438 324.412 44.9899L354.711 14.6891C354.766 14.6341 354.832 14.5906 354.904 14.5611C354.975 14.5316 355.052 14.5167 355.13 14.5173L385.431 14.5173C385.508 14.5166 385.585 14.5313 385.657 14.5604C385.728 14.5896 385.794 14.6326 385.849 14.687C385.904 14.7414 385.947 14.8062 385.977 14.8776C386.007 14.949 386.023 15.0256 386.023 15.103Z" fill="black"/>
            <path opacity="0.72" d="M309.254 94.4025C309.254 94.48 309.239 94.5567 309.209 94.6283C309.18 94.6999 309.136 94.765 309.082 94.8198C309.027 94.8746 308.962 94.918 308.89 94.9476C308.819 94.9772 308.742 94.9923 308.664 94.9922L298.564 94.9922C298.487 94.992 298.411 94.9765 298.34 94.9467C298.268 94.9168 298.204 94.8733 298.149 94.8184L269.535 66.2065L249.579 66.2066C249.423 66.2066 249.273 66.1444 249.162 66.0339C249.051 65.9233 248.989 65.7733 248.989 65.6169C248.989 65.4605 249.051 65.3106 249.162 65.2C249.273 65.0894 249.423 65.0273 249.579 65.0273L269.78 65.0273C269.857 65.0265 269.934 65.041 270.005 65.0702C270.077 65.0993 270.142 65.1425 270.197 65.197L298.808 93.8108L308.664 93.8108C308.742 93.8107 308.819 93.826 308.891 93.8557C308.962 93.8854 309.027 93.929 309.082 93.984C309.137 94.039 309.18 94.1043 309.21 94.1761C309.239 94.2479 309.254 94.3249 309.254 94.4025Z" fill="black"/>
            <path opacity="0.65" d="M365.224 107.934C365.379 107.934 365.528 107.873 365.639 107.764L364.979 106.752L294.764 105.426L264.635 75.3009C264.523 75.1913 264.374 75.129 264.218 75.1271L233.919 75.1271C233.762 75.1271 233.612 75.1893 233.501 75.3001C233.39 75.4109 233.328 75.5611 233.328 75.7178C233.328 75.8744 233.39 76.0247 233.501 76.1354C233.612 76.2462 233.762 76.3084 233.919 76.3084L263.975 76.3084L294.103 106.437C294.213 106.547 294.363 106.608 294.519 106.607L365.224 107.934Z" fill="black"/>
            <path opacity="0.53" d="M345.179 45.8418L365.461 26.3096L365.224 25.1304C365.071 25.1296 364.924 25.1884 364.814 25.2943L344.357 44.9924L334.003 55.0992C333.947 55.1534 333.902 55.2186 333.872 55.2908C333.841 55.3629 333.826 55.4406 333.827 55.5189L333.827 65.3896L324.561 75.6329L294.763 75.6329L274.736 55.6069C274.682 55.5508 274.617 55.5062 274.545 55.4757C274.473 55.4451 274.396 55.4293 274.318 55.4292L218.086 55.4292C218.008 55.429 217.931 55.4443 217.859 55.474C217.787 55.5037 217.722 55.5472 217.667 55.6022C217.612 55.6572 217.569 55.7225 217.539 55.7943C217.509 55.8661 217.494 55.9431 217.494 56.0208C217.495 56.1772 217.557 56.327 217.668 56.4372C217.779 56.5474 217.929 56.6091 218.086 56.6087L274.074 56.6087L294.102 76.6405C294.213 76.7502 294.363 76.812 294.519 76.8125L324.821 76.8125C324.903 76.8134 324.985 76.7969 325.06 76.7639C325.135 76.7309 325.203 76.6822 325.258 76.6211L334.855 66.0144C334.952 65.9052 335.006 65.7642 335.006 65.6179L335.006 55.7709L345.179 45.8418Z" fill="black"/>
        </g>
    </g>
</svg>
