<svg width="1400" height="696" viewBox="0 0 1400 696" fill="none" xmlns="http://www.w3.org/2000/svg">
    <g opacity="0.23">
        <mask id="operandy-management-background-path-1-inside-1" fill="white">
            <path fill-rule="evenodd" clip-rule="evenodd" d="M84.2149 478.284C79.2353 468.585 73.8449 458.484 68.6205 448.707C174.745 637.501 231.919 904.405 405.042 959.934C577.921 1015.38 779.79 832.51 975.942 741.141C965.913 746.272 955.717 751.08 946.177 756.369C755.249 857.515 560.377 1056.4 391.415 1002.21C222.697 948.106 180.555 672.288 84.4596 478.363L84.2149 478.284ZM331.884 -367.27C341.835 -372.157 351.864 -377.288 361.57 -382.253C552.901 -483.809 748.096 -682.862 916.656 -628.265C1085.46 -573.588 1127.44 -298.093 1223.45 -104.736C1228.59 -94.714 1233.74 -84.692 1238.96 -74.9145C1133 -263.385 1075.99 -529.966 902.95 -585.739C730.15 -641.433 527.958 -458.394 331.561 -367.105L331.884 -367.27ZM269.111 -335.972C279.14 -341.103 289.336 -345.911 299.365 -351.042C501.327 -431.095 710.525 -597.308 888.22 -540.036C1066.08 -482.441 1138.92 -225.594 1255.72 -43.0744C1260.86 -33.0525 1266.33 -23.1961 1271.56 -13.4185C1144.41 -190.642 1057.43 -438.826 874.671 -497.999C691.915 -557.172 476.376 -406.493 269.268 -336.461L269.111 -335.972ZM205.927 -305.077C215.877 -309.963 226.152 -315.016 236.347 -319.823C449.098 -378.863 671.319 -512.55 859.704 -451.563C1048.17 -390.82 1150.5 -152.528 1288.32 19.2336C1293.71 29.3344 1299.18 39.1909 1304.41 48.9684C1156.06 -117.82 1039.93 -346.803 845.832 -409.36C651.738 -471.918 423.745 -353.85 205.603 -304.911L205.927 -305.077ZM142.174 -274.095C152.448 -279.147 162.644 -283.955 172.918 -289.007C396.703 -326.954 631.213 -428.352 831.347 -363.578C1031.97 -298.646 1162.72 -79.7927 1322.06 81.3683C1327.45 91.4692 1332.92 101.326 1338.31 111.426C1168.62 -44.4381 1024.38 -254.148 817.64 -321.052C611.143 -387.878 371.35 -301.941 142.174 -274.095ZM78.0111 -243.515C87.9618 -248.401 98.402 -253.13 108.676 -258.182C343.661 -274.713 589.157 -343.973 802.831 -275.105C1016.75 -206.158 1175.27 -6.41061 1356.21 143.905C1361.6 154.006 1367.07 163.863 1372.54 173.719C1181.33 28.455 1009.73 -161.746 789.282 -233.068C568.999 -304.066 318.465 -250.19 78.0111 -243.515ZM14.5033 -212.454C24.5328 -217.585 34.4834 -222.471 44.4341 -227.358C290.698 -222.718 546.603 -260.564 774.473 -187.121C1002.34 -113.677 1187.98 66.4825 1390.2 206.119C1395.34 216.141 1400.57 225.918 1405.79 235.696C1193.3 101.112 995.404 -69.5096 760.601 -144.918C526.122 -220.492 265.668 -197.87 14.2586 -212.533L14.5033 -212.454ZM-46.2333 -180.77C-37.0168 -185.893 -27.5556 -190.937 -18.2604 -196.305C238.792 -170.651 503.97 -176.911 746.037 -98.8917C987.859 -20.9512 1199.39 139.226 1422.71 267.859C1427.37 277.724 1432.11 287.343 1436.52 297.129C1203.73 173.539 980.84 23.4602 732.409 -56.6102C483.979 -136.681 215.152 -145.086 -46.5567 -180.604L-46.2333 -180.77ZM-100.606 -147.034C-92.6922 -152.307 -84.3761 -157.99 -76.06 -163.674C190.235 -117.235 462.727 -92.5398 718.011 -10.2606C973.539 72.0975 1208.84 211.338 1451.65 328.984C1455.08 338.454 1458.1 347.521 1461.53 356.991C1210.41 245.028 965.052 116.036 704.139 31.9419C443.47 -52.0728 168.719 -90.7156 -100.685 -146.79L-100.606 -147.034ZM-143.554 -109.347C-137.196 -115.661 -131.161 -121.81 -124.882 -127.879C147.63 -62.1701 423.6 -8.02645 689.408 77.6449C955.217 163.316 1210.78 280.76 1469.97 386.149C1471.44 394.988 1472.92 403.826 1474.3 412.097C1208.68 313.267 945.261 206.781 675.781 119.926C406.301 33.0716 130.354 -34.5542 -143.554 -109.347ZM-163.739 -64.3225C-162.766 -72.3723 -160.403 -79.7044 -156.492 -86.8075C116.451 -3.15326 389.858 78.2226 660.972 165.874C932.331 253.604 1201.88 346.955 1471.81 438.273C1470.59 446.244 1468.15 453.82 1464.64 460.513C1192.11 377.261 918.703 295.885 647.265 208.4C376.072 120.993 106.438 27.0736 -163.818 -64.0782L-163.739 -64.3225ZM-161.817 -12.4431C-163.205 -20.7141 -164.679 -29.5527 -166.153 -38.3914C99.6329 60.7623 363.055 167.248 632.614 253.858C902.172 340.469 1178.12 408.094 1451.54 482.729C1445.18 489.043 1438.9 495.113 1432.79 501.506C1160.84 435.71 885.039 381.89 618.986 296.14C353.178 210.468 97.6891 92.7804 -161.739 -12.6875L-161.817 -12.4431ZM-143.331 45.045C-146.763 35.5753 -149.951 26.1844 -153.462 16.9591C97.9029 129.001 343.509 258.072 604.098 342.331C864.767 426.346 1139.19 465.154 1408.51 520.661C1400.44 526.423 1392.2 531.862 1384.21 537.379C1118.16 491.019 845.833 466.648 590.471 384.613C335.109 302.578 99.8836 163.094 -143.41 45.2895L-143.331 45.045ZM-114.975 105.444C-119.631 95.5801 -124.043 85.7948 -128.778 76.175C104.416 200.167 327.389 350.001 575.985 430.395C824.416 510.465 1092.92 519.036 1354.14 554.396C1344.6 559.685 1335.3 565.053 1325.6 570.018C1069.03 544.522 803.856 550.782 562.034 472.842C319.968 394.822 108.512 234.401 -115.299 105.61L-114.975 105.444ZM-82.4588 167.185C-87.6832 157.407 -92.8287 147.385 -98.0531 137.608C114.679 272.271 312.904 442.727 547.383 518.3C781.617 593.795 1041.99 571.418 1293.16 586.002C1283.13 591.133 1272.93 595.94 1263.23 600.906C1017.45 596.423 761.626 634.026 533.921 560.905C306.051 487.461 120.41 307.302 -82.214 167.263L-82.4588 167.185ZM-48.3076 229.722C-53.698 219.621 -59.1672 209.764 -64.6362 199.908C126.743 345.495 298.505 536.02 518.789 607.018C739.072 678.016 989.44 623.816 1229.57 617.307C1219.3 622.359 1209.1 627.167 1198.91 631.975C964.165 648.585 718.914 717.924 505.161 649.3C291.242 580.352 132.719 380.605 -48.3864 229.966L-48.3076 229.722ZM-14.3225 291.935C-19.5469 282.158 -24.9372 272.057 -30.4063 262.2C139.454 418.388 283.854 628.422 490.431 695.003C697.007 761.583 936.555 675.568 1165.49 647.643C1155.21 652.695 1145.02 657.502 1135.07 662.389C911.604 700.171 677.584 801.727 477.048 737.363C276.346 672.675 145.43 453.498 -14.0777 292.014L-14.3225 291.935ZM19.3392 354.314C13.9488 344.214 8.7244 334.436 3.25532 324.58C151.841 491.447 267.656 720.595 461.994 783.231C656.088 845.789 883.916 727.398 1101.49 678.546C1091.21 683.598 1081.26 688.485 1071.07 693.292C858.562 752.411 636.665 885.933 448.445 825.268C259.981 764.525 157.651 526.234 19.3392 354.314ZM52.1006 416.134C46.8762 406.356 41.7307 396.334 36.5063 386.557C163.739 564.348 250.967 812.61 433.636 871.216C616.305 929.821 831.687 779.631 1038.55 709.52C1028.52 714.651 1018.57 719.538 1008.62 724.424C806.901 804.557 598.027 970.604 420.009 913.497C241.99 856.391 169.383 598.811 52.1006 416.134Z"/>
        </mask>
        <path fill-rule="evenodd" clip-rule="evenodd" d="M84.2149 478.284C79.2353 468.585 73.8449 458.484 68.6205 448.707C174.745 637.501 231.919 904.405 405.042 959.934C577.921 1015.38 779.79 832.51 975.942 741.141C965.913 746.272 955.717 751.08 946.177 756.369C755.249 857.515 560.377 1056.4 391.415 1002.21C222.697 948.106 180.555 672.288 84.4596 478.363L84.2149 478.284ZM331.884 -367.27C341.835 -372.157 351.864 -377.288 361.57 -382.253C552.901 -483.809 748.096 -682.862 916.656 -628.265C1085.46 -573.588 1127.44 -298.093 1223.45 -104.736C1228.59 -94.714 1233.74 -84.692 1238.96 -74.9145C1133 -263.385 1075.99 -529.966 902.95 -585.739C730.15 -641.433 527.958 -458.394 331.561 -367.105L331.884 -367.27ZM269.111 -335.972C279.14 -341.103 289.336 -345.911 299.365 -351.042C501.327 -431.095 710.525 -597.308 888.22 -540.036C1066.08 -482.441 1138.92 -225.594 1255.72 -43.0744C1260.86 -33.0525 1266.33 -23.1961 1271.56 -13.4185C1144.41 -190.642 1057.43 -438.826 874.671 -497.999C691.915 -557.172 476.376 -406.493 269.268 -336.461L269.111 -335.972ZM205.927 -305.077C215.877 -309.963 226.152 -315.016 236.347 -319.823C449.098 -378.863 671.319 -512.55 859.704 -451.563C1048.17 -390.82 1150.5 -152.528 1288.32 19.2336C1293.71 29.3344 1299.18 39.1909 1304.41 48.9684C1156.06 -117.82 1039.93 -346.803 845.832 -409.36C651.738 -471.918 423.745 -353.85 205.603 -304.911L205.927 -305.077ZM142.174 -274.095C152.448 -279.147 162.644 -283.955 172.918 -289.007C396.703 -326.954 631.213 -428.352 831.347 -363.578C1031.97 -298.646 1162.72 -79.7927 1322.06 81.3683C1327.45 91.4692 1332.92 101.326 1338.31 111.426C1168.62 -44.4381 1024.38 -254.148 817.64 -321.052C611.143 -387.878 371.35 -301.941 142.174 -274.095ZM78.0111 -243.515C87.9618 -248.401 98.402 -253.13 108.676 -258.182C343.661 -274.713 589.157 -343.973 802.831 -275.105C1016.75 -206.158 1175.27 -6.41061 1356.21 143.905C1361.6 154.006 1367.07 163.863 1372.54 173.719C1181.33 28.455 1009.73 -161.746 789.282 -233.068C568.999 -304.066 318.465 -250.19 78.0111 -243.515ZM14.5033 -212.454C24.5328 -217.585 34.4834 -222.471 44.4341 -227.358C290.698 -222.718 546.603 -260.564 774.473 -187.121C1002.34 -113.677 1187.98 66.4825 1390.2 206.119C1395.34 216.141 1400.57 225.918 1405.79 235.696C1193.3 101.112 995.404 -69.5096 760.601 -144.918C526.122 -220.492 265.668 -197.87 14.2586 -212.533L14.5033 -212.454ZM-46.2333 -180.77C-37.0168 -185.893 -27.5556 -190.937 -18.2604 -196.305C238.792 -170.651 503.97 -176.911 746.037 -98.8917C987.859 -20.9512 1199.39 139.226 1422.71 267.859C1427.37 277.724 1432.11 287.343 1436.52 297.129C1203.73 173.539 980.84 23.4602 732.409 -56.6102C483.979 -136.681 215.152 -145.086 -46.5567 -180.604L-46.2333 -180.77ZM-100.606 -147.034C-92.6922 -152.307 -84.3761 -157.99 -76.06 -163.674C190.235 -117.235 462.727 -92.5398 718.011 -10.2606C973.539 72.0975 1208.84 211.338 1451.65 328.984C1455.08 338.454 1458.1 347.521 1461.53 356.991C1210.41 245.028 965.052 116.036 704.139 31.9419C443.47 -52.0728 168.719 -90.7156 -100.685 -146.79L-100.606 -147.034ZM-143.554 -109.347C-137.196 -115.661 -131.161 -121.81 -124.882 -127.879C147.63 -62.1701 423.6 -8.02645 689.408 77.6449C955.217 163.316 1210.78 280.76 1469.97 386.149C1471.44 394.988 1472.92 403.826 1474.3 412.097C1208.68 313.267 945.261 206.781 675.781 119.926C406.301 33.0716 130.354 -34.5542 -143.554 -109.347ZM-163.739 -64.3225C-162.766 -72.3723 -160.403 -79.7044 -156.492 -86.8075C116.451 -3.15326 389.858 78.2226 660.972 165.874C932.331 253.604 1201.88 346.955 1471.81 438.273C1470.59 446.244 1468.15 453.82 1464.64 460.513C1192.11 377.261 918.703 295.885 647.265 208.4C376.072 120.993 106.438 27.0736 -163.818 -64.0782L-163.739 -64.3225ZM-161.817 -12.4431C-163.205 -20.7141 -164.679 -29.5527 -166.153 -38.3914C99.6329 60.7623 363.055 167.248 632.614 253.858C902.172 340.469 1178.12 408.094 1451.54 482.729C1445.18 489.043 1438.9 495.113 1432.79 501.506C1160.84 435.71 885.039 381.89 618.986 296.14C353.178 210.468 97.6891 92.7804 -161.739 -12.6875L-161.817 -12.4431ZM-143.331 45.045C-146.763 35.5753 -149.951 26.1844 -153.462 16.9591C97.9029 129.001 343.509 258.072 604.098 342.331C864.767 426.346 1139.19 465.154 1408.51 520.661C1400.44 526.423 1392.2 531.862 1384.21 537.379C1118.16 491.019 845.833 466.648 590.471 384.613C335.109 302.578 99.8836 163.094 -143.41 45.2895L-143.331 45.045ZM-114.975 105.444C-119.631 95.5801 -124.043 85.7948 -128.778 76.175C104.416 200.167 327.389 350.001 575.985 430.395C824.416 510.465 1092.92 519.036 1354.14 554.396C1344.6 559.685 1335.3 565.053 1325.6 570.018C1069.03 544.522 803.856 550.782 562.034 472.842C319.968 394.822 108.512 234.401 -115.299 105.61L-114.975 105.444ZM-82.4588 167.185C-87.6832 157.407 -92.8287 147.385 -98.0531 137.608C114.679 272.271 312.904 442.727 547.383 518.3C781.617 593.795 1041.99 571.418 1293.16 586.002C1283.13 591.133 1272.93 595.94 1263.23 600.906C1017.45 596.423 761.626 634.026 533.921 560.905C306.051 487.461 120.41 307.302 -82.214 167.263L-82.4588 167.185ZM-48.3076 229.722C-53.698 219.621 -59.1672 209.764 -64.6362 199.908C126.743 345.495 298.505 536.02 518.789 607.018C739.072 678.016 989.44 623.816 1229.57 617.307C1219.3 622.359 1209.1 627.167 1198.91 631.975C964.165 648.585 718.914 717.924 505.161 649.3C291.242 580.352 132.719 380.605 -48.3864 229.966L-48.3076 229.722ZM-14.3225 291.935C-19.5469 282.158 -24.9372 272.057 -30.4063 262.2C139.454 418.388 283.854 628.422 490.431 695.003C697.007 761.583 936.555 675.568 1165.49 647.643C1155.21 652.695 1145.02 657.502 1135.07 662.389C911.604 700.171 677.584 801.727 477.048 737.363C276.346 672.675 145.43 453.498 -14.0777 292.014L-14.3225 291.935ZM19.3392 354.314C13.9488 344.214 8.7244 334.436 3.25532 324.58C151.841 491.447 267.656 720.595 461.994 783.231C656.088 845.789 883.916 727.398 1101.49 678.546C1091.21 683.598 1081.26 688.485 1071.07 693.292C858.562 752.411 636.665 885.933 448.445 825.268C259.981 764.525 157.651 526.234 19.3392 354.314ZM52.1006 416.134C46.8762 406.356 41.7307 396.334 36.5063 386.557C163.739 564.348 250.967 812.61 433.636 871.216C616.305 929.821 831.687 779.631 1038.55 709.52C1028.52 714.651 1018.57 719.538 1008.62 724.424C806.901 804.557 598.027 970.604 420.009 913.497C241.99 856.391 169.383 598.811 52.1006 416.134Z" stroke="black" stroke-width="2" mask="url(#operandy-management-background-path-1-inside-1)"/>
    </g>
</svg>
