<svg width="360" height="361" viewBox="0 0 360 361" fill="none" xmlns="http://www.w3.org/2000/svg">
<rect width="360" height="361" fill="#F7CE50"/>
<mask id="mask0" mask-type="alpha" maskUnits="userSpaceOnUse" x="0" y="0" width="360" height="361">
<rect width="360" height="361" fill="black"/>
</mask>
<g mask="url(#mask0)">
<g opacity="0.5">
<mask id="path-3-inside-1" fill="white">
<path fill-rule="evenodd" clip-rule="evenodd" d="M385.383 -191.659C387.717 -190.313 390.19 -188.94 392.585 -187.611C345.244 -212.565 297.589 -260.295 254.212 -248.606C210.896 -236.934 193.519 -171.911 165.059 -126.646C166.453 -129.055 167.924 -131.42 169.195 -133.797C195.26 -180.391 209.037 -247.8 251.371 -259.209C293.644 -270.601 339.374 -219.006 385.321 -191.642L385.383 -191.659ZM447.357 17.045C445.947 19.3934 444.553 21.8032 443.204 24.1352C417.111 70.8681 403.289 138.355 360.984 149.625C318.617 160.911 272.964 109.361 227.111 82.1029C224.699 80.7128 222.288 79.3227 219.892 77.9939C267.155 102.903 314.732 150.588 358.126 138.961C401.459 127.35 418.88 62.2487 447.402 16.9673L447.357 17.045ZM456.189 2.13208C454.795 4.54182 453.324 6.90672 451.93 9.31647C420.747 53.012 399.615 115.56 355.055 127.5C310.417 139.395 260.859 95.8539 212.145 73.6324C209.733 72.2423 207.277 70.9299 204.881 69.6011C255.034 89.3352 306.365 129.182 352.231 116.958C398.096 104.735 422.627 44.5601 456.222 2.25465L456.189 2.13208ZM465.16 -12.7524C463.75 -10.404 462.295 -7.9778 460.823 -5.6129C424.584 35.168 396.387 92.7116 349.11 105.314C301.85 117.977 248.659 82.241 197.023 65.0721C194.55 63.6985 192.094 62.3861 189.698 61.0573C242.851 75.7835 297.659 107.736 346.331 94.6945C395.003 81.6528 426.492 26.577 465.205 -12.8302L465.16 -12.7524ZM474.237 -27.7311C472.782 -25.3049 471.311 -22.94 469.856 -20.5139C428.498 17.3687 393.422 69.8586 343.199 83.2502C292.853 96.6746 236.37 68.7835 181.689 56.7002C179.216 55.3266 176.759 54.0142 174.286 52.6405C230.406 62.2364 288.461 86.4217 340.341 72.5861C392.16 58.767 430.406 8.77782 474.237 -27.7311ZM483.454 -42.6815C482.044 -40.333 480.511 -37.9516 479.056 -35.5255C432.502 -0.58596 390.836 46.7067 337.254 61.064C283.61 75.4379 223.925 55.2363 166.216 48.2999C163.743 46.9263 161.286 45.6139 158.829 44.3015C217.993 48.8118 279.112 65.2791 334.429 50.5226C389.669 35.7211 434.443 -9.05431 483.454 -42.6815ZM492.47 -57.6437C491.077 -55.234 489.667 -52.8855 488.257 -50.5371C436.522 -18.4794 388.484 23.6892 331.342 39.0005C274.199 54.3117 211.513 41.8117 150.82 39.9444C148.408 38.5544 146.013 37.2256 143.618 35.8968C205.765 35.3379 269.718 44.2143 328.562 28.3813C387.362 12.626 438.386 -26.9926 492.532 -57.6602L492.47 -57.6437ZM500.828 -72.3638C499.602 -70.0647 498.314 -67.7491 497.105 -65.3887C440.314 -36.2457 386.116 0.610515 325.414 16.8756C264.773 33.1243 199.391 28.2436 135.793 31.4903C133.504 30.0673 131.231 28.7056 129.003 27.2662C193.889 21.704 260.274 22.9656 322.572 6.27286C384.871 -10.4198 441.792 -44.7215 500.873 -72.4415L500.828 -72.3638ZM507.589 -86.6562C506.654 -84.5006 505.69 -82.206 504.726 -79.9114C443.23 -53.8431 383.363 -22.4308 319.346 -5.27761C255.268 11.892 187.76 14.544 121.592 22.6834C119.61 21.1782 117.767 19.7013 115.785 18.1961C182.917 7.76209 251.138 1.63463 316.566 -15.8968C381.933 -33.4118 444.139 -62.2322 507.573 -86.7175L507.589 -86.6562ZM511.45 -100.237C510.977 -98.074 510.549 -95.9886 510.059 -93.8869C444.689 -70.9845 380.151 -45.218 313.495 -27.3576C246.84 -9.49723 178.049 0.395747 110.124 13.2754C108.633 11.6386 107.142 10.0018 105.745 8.47116C174.126 -6.63281 243.078 -19.8533 310.654 -37.9604C378.231 -56.0674 444.571 -79.0327 511.45 -100.237ZM509.602 -112.288C510.479 -110.487 510.972 -108.648 511.113 -106.65C443.247 -87.4142 375.59 -67.6434 307.567 -49.4825C239.483 -31.3051 171.022 -14.5374 102.753 2.7042C101.937 0.886504 101.428 -1.01341 101.258 -2.87298C168.985 -22.1371 236.642 -41.9079 304.71 -60.1465C372.716 -78.3687 441.272 -95.0303 509.586 -112.35L509.602 -112.288ZM502.247 -122.798C503.644 -121.268 505.135 -119.631 506.626 -117.994C438.167 -102.935 369.215 -89.7144 301.655 -71.546C234.095 -53.3777 167.755 -30.4124 100.999 -9.24098C101.472 -11.404 101.962 -13.5058 102.373 -15.6524C167.637 -38.4606 232.097 -64.272 298.814 -82.1488C365.47 -100.009 434.277 -109.841 502.263 -122.737L502.247 -122.798ZM490.701 -132.251C492.684 -130.746 494.604 -129.224 496.57 -127.78C429.376 -117.33 361.094 -111.186 295.71 -93.7322C230.344 -76.2171 168.182 -47.4745 104.843 -22.8831C105.746 -25.1612 106.726 -27.3946 107.645 -29.6114C169.08 -55.6633 228.869 -87.1204 292.869 -104.335C356.87 -121.549 424.394 -124.14 490.685 -132.312L490.701 -132.251ZM476.717 -140.985C479.006 -139.562 481.234 -138.122 483.507 -136.761C418.482 -131.227 352.113 -132.427 289.737 -115.779C227.439 -99.0866 170.562 -64.8626 111.605 -37.1755C112.876 -39.5524 114.085 -41.9128 115.434 -44.2448C172.102 -73.3549 226.3 -110.211 286.941 -126.46C347.643 -142.725 413.041 -137.783 476.762 -141.062L476.717 -140.985ZM461.69 -149.439C464.085 -148.11 466.497 -146.72 468.893 -145.391C406.683 -144.816 342.686 -153.615 283.887 -137.859C225.148 -122.12 174.108 -82.5632 120.024 -51.912C121.417 -54.3217 122.889 -56.6867 124.237 -59.0187C175.849 -91.0435 223.903 -133.151 280.968 -148.507C338.11 -163.818 400.797 -151.318 461.629 -149.422L461.69 -149.439ZM446.217 -157.839C448.69 -156.466 451.147 -155.153 453.603 -153.841C394.361 -158.396 333.165 -174.908 277.925 -160.107C222.686 -145.305 177.989 -100.485 129.023 -66.9356C130.478 -69.3618 131.95 -71.7267 133.421 -74.0916C179.914 -109.015 221.518 -156.291 275.084 -170.709C328.728 -185.083 388.413 -164.882 446.2 -157.9L446.217 -157.839ZM430.821 -166.195C433.216 -164.866 435.689 -163.492 438.146 -162.18C381.949 -171.821 323.816 -196.051 272.014 -182.17C220.211 -168.29 182.026 -118.317 138.256 -81.8246C139.711 -84.2508 141.183 -86.6157 142.593 -88.9641C183.906 -126.769 218.859 -179.226 269.111 -192.757C319.441 -206.242 376.001 -178.306 430.76 -166.178L430.821 -166.195ZM415.47 -174.628C417.943 -173.254 420.339 -171.925 422.796 -170.613C369.582 -185.323 314.819 -217.353 266.085 -204.295C217.413 -191.253 186.002 -136.133 147.395 -96.8197C148.85 -99.2459 150.26 -101.594 151.732 -103.959C187.91 -144.724 216.061 -202.19 263.261 -214.837C310.521 -227.5 363.712 -191.764 415.47 -174.628ZM400.382 -183.066C402.777 -181.737 405.189 -180.347 407.584 -179.018C357.337 -198.858 305.944 -238.689 260.173 -226.359C214.402 -214.029 189.838 -153.977 156.305 -111.688C157.699 -114.098 159.109 -116.446 160.519 -118.794C191.64 -162.474 212.727 -224.944 257.332 -236.961C301.937 -248.979 351.545 -205.254 400.382 -183.066Z"/>
</mask>
<path fill-rule="evenodd" clip-rule="evenodd" d="M385.383 -191.659C387.717 -190.313 390.19 -188.94 392.585 -187.611C345.244 -212.565 297.589 -260.295 254.212 -248.606C210.896 -236.934 193.519 -171.911 165.059 -126.646C166.453 -129.055 167.924 -131.42 169.195 -133.797C195.26 -180.391 209.037 -247.8 251.371 -259.209C293.644 -270.601 339.374 -219.006 385.321 -191.642L385.383 -191.659ZM447.357 17.045C445.947 19.3934 444.553 21.8032 443.204 24.1352C417.111 70.8681 403.289 138.355 360.984 149.625C318.617 160.911 272.964 109.361 227.111 82.1029C224.699 80.7128 222.288 79.3227 219.892 77.9939C267.155 102.903 314.732 150.588 358.126 138.961C401.459 127.35 418.88 62.2487 447.402 16.9673L447.357 17.045ZM456.189 2.13208C454.795 4.54182 453.324 6.90672 451.93 9.31647C420.747 53.012 399.615 115.56 355.055 127.5C310.417 139.395 260.859 95.8539 212.145 73.6324C209.733 72.2423 207.277 70.9299 204.881 69.6011C255.034 89.3352 306.365 129.182 352.231 116.958C398.096 104.735 422.627 44.5601 456.222 2.25465L456.189 2.13208ZM465.16 -12.7524C463.75 -10.404 462.295 -7.9778 460.823 -5.6129C424.584 35.168 396.387 92.7116 349.11 105.314C301.85 117.977 248.659 82.241 197.023 65.0721C194.55 63.6985 192.094 62.3861 189.698 61.0573C242.851 75.7835 297.659 107.736 346.331 94.6945C395.003 81.6528 426.492 26.577 465.205 -12.8302L465.16 -12.7524ZM474.237 -27.7311C472.782 -25.3049 471.311 -22.94 469.856 -20.5139C428.498 17.3687 393.422 69.8586 343.199 83.2502C292.853 96.6746 236.37 68.7835 181.689 56.7002C179.216 55.3266 176.759 54.0142 174.286 52.6405C230.406 62.2364 288.461 86.4217 340.341 72.5861C392.16 58.767 430.406 8.77782 474.237 -27.7311ZM483.454 -42.6815C482.044 -40.333 480.511 -37.9516 479.056 -35.5255C432.502 -0.58596 390.836 46.7067 337.254 61.064C283.61 75.4379 223.925 55.2363 166.216 48.2999C163.743 46.9263 161.286 45.6139 158.829 44.3015C217.993 48.8118 279.112 65.2791 334.429 50.5226C389.669 35.7211 434.443 -9.05431 483.454 -42.6815ZM492.47 -57.6437C491.077 -55.234 489.667 -52.8855 488.257 -50.5371C436.522 -18.4794 388.484 23.6892 331.342 39.0005C274.199 54.3117 211.513 41.8117 150.82 39.9444C148.408 38.5544 146.013 37.2256 143.618 35.8968C205.765 35.3379 269.718 44.2143 328.562 28.3813C387.362 12.626 438.386 -26.9926 492.532 -57.6602L492.47 -57.6437ZM500.828 -72.3638C499.602 -70.0647 498.314 -67.7491 497.105 -65.3887C440.314 -36.2457 386.116 0.610515 325.414 16.8756C264.773 33.1243 199.391 28.2436 135.793 31.4903C133.504 30.0673 131.231 28.7056 129.003 27.2662C193.889 21.704 260.274 22.9656 322.572 6.27286C384.871 -10.4198 441.792 -44.7215 500.873 -72.4415L500.828 -72.3638ZM507.589 -86.6562C506.654 -84.5006 505.69 -82.206 504.726 -79.9114C443.23 -53.8431 383.363 -22.4308 319.346 -5.27761C255.268 11.892 187.76 14.544 121.592 22.6834C119.61 21.1782 117.767 19.7013 115.785 18.1961C182.917 7.76209 251.138 1.63463 316.566 -15.8968C381.933 -33.4118 444.139 -62.2322 507.573 -86.7175L507.589 -86.6562ZM511.45 -100.237C510.977 -98.074 510.549 -95.9886 510.059 -93.8869C444.689 -70.9845 380.151 -45.218 313.495 -27.3576C246.84 -9.49723 178.049 0.395747 110.124 13.2754C108.633 11.6386 107.142 10.0018 105.745 8.47116C174.126 -6.63281 243.078 -19.8533 310.654 -37.9604C378.231 -56.0674 444.571 -79.0327 511.45 -100.237ZM509.602 -112.288C510.479 -110.487 510.972 -108.648 511.113 -106.65C443.247 -87.4142 375.59 -67.6434 307.567 -49.4825C239.483 -31.3051 171.022 -14.5374 102.753 2.7042C101.937 0.886504 101.428 -1.01341 101.258 -2.87298C168.985 -22.1371 236.642 -41.9079 304.71 -60.1465C372.716 -78.3687 441.272 -95.0303 509.586 -112.35L509.602 -112.288ZM502.247 -122.798C503.644 -121.268 505.135 -119.631 506.626 -117.994C438.167 -102.935 369.215 -89.7144 301.655 -71.546C234.095 -53.3777 167.755 -30.4124 100.999 -9.24098C101.472 -11.404 101.962 -13.5058 102.373 -15.6524C167.637 -38.4606 232.097 -64.272 298.814 -82.1488C365.47 -100.009 434.277 -109.841 502.263 -122.737L502.247 -122.798ZM490.701 -132.251C492.684 -130.746 494.604 -129.224 496.57 -127.78C429.376 -117.33 361.094 -111.186 295.71 -93.7322C230.344 -76.2171 168.182 -47.4745 104.843 -22.8831C105.746 -25.1612 106.726 -27.3946 107.645 -29.6114C169.08 -55.6633 228.869 -87.1204 292.869 -104.335C356.87 -121.549 424.394 -124.14 490.685 -132.312L490.701 -132.251ZM476.717 -140.985C479.006 -139.562 481.234 -138.122 483.507 -136.761C418.482 -131.227 352.113 -132.427 289.737 -115.779C227.439 -99.0866 170.562 -64.8626 111.605 -37.1755C112.876 -39.5524 114.085 -41.9128 115.434 -44.2448C172.102 -73.3549 226.3 -110.211 286.941 -126.46C347.643 -142.725 413.041 -137.783 476.762 -141.062L476.717 -140.985ZM461.69 -149.439C464.085 -148.11 466.497 -146.72 468.893 -145.391C406.683 -144.816 342.686 -153.615 283.887 -137.859C225.148 -122.12 174.108 -82.5632 120.024 -51.912C121.417 -54.3217 122.889 -56.6867 124.237 -59.0187C175.849 -91.0435 223.903 -133.151 280.968 -148.507C338.11 -163.818 400.797 -151.318 461.629 -149.422L461.69 -149.439ZM446.217 -157.839C448.69 -156.466 451.147 -155.153 453.603 -153.841C394.361 -158.396 333.165 -174.908 277.925 -160.107C222.686 -145.305 177.989 -100.485 129.023 -66.9356C130.478 -69.3618 131.95 -71.7267 133.421 -74.0916C179.914 -109.015 221.518 -156.291 275.084 -170.709C328.728 -185.083 388.413 -164.882 446.2 -157.9L446.217 -157.839ZM430.821 -166.195C433.216 -164.866 435.689 -163.492 438.146 -162.18C381.949 -171.821 323.816 -196.051 272.014 -182.17C220.211 -168.29 182.026 -118.317 138.256 -81.8246C139.711 -84.2508 141.183 -86.6157 142.593 -88.9641C183.906 -126.769 218.859 -179.226 269.111 -192.757C319.441 -206.242 376.001 -178.306 430.76 -166.178L430.821 -166.195ZM415.47 -174.628C417.943 -173.254 420.339 -171.925 422.796 -170.613C369.582 -185.323 314.819 -217.353 266.085 -204.295C217.413 -191.253 186.002 -136.133 147.395 -96.8197C148.85 -99.2459 150.26 -101.594 151.732 -103.959C187.91 -144.724 216.061 -202.19 263.261 -214.837C310.521 -227.5 363.712 -191.764 415.47 -174.628ZM400.382 -183.066C402.777 -181.737 405.189 -180.347 407.584 -179.018C357.337 -198.858 305.944 -238.689 260.173 -226.359C214.402 -214.029 189.838 -153.977 156.305 -111.688C157.699 -114.098 159.109 -116.446 160.519 -118.794C191.64 -162.474 212.727 -224.944 257.332 -236.961C301.937 -248.979 351.545 -205.254 400.382 -183.066Z" stroke="black" stroke-width="2" mask="url(#path-3-inside-1)"/>
</g>
</g>
</svg>
