<svg width="384" height="445" viewBox="0 0 384 445" fill="none" xmlns="http://www.w3.org/2000/svg">
<mask id="mask0" mask-type="alpha" maskUnits="userSpaceOnUse" x="0" y="0" width="384" height="445">
<path d="M0 70.0363V0H384V445H0V196.64V70.0363Z" fill="#F7CE50"/>
</mask>
<g mask="url(#mask0)">
<path d="M0 130V0H384V826H0V365V130Z" fill="#F7CE50"/>
<g opacity="0.5">
<mask id="path-3-inside-1" fill="white">
<path fill-rule="evenodd" clip-rule="evenodd" d="M288.383 343.341C290.717 344.687 293.19 346.06 295.585 347.389C248.244 322.435 200.589 274.705 157.212 286.394C113.896 298.066 96.5192 363.089 68.0592 408.354C69.4528 405.945 70.9242 403.58 72.1951 401.203C98.2598 354.609 112.037 287.2 154.371 275.791C196.644 264.399 242.374 315.994 288.321 343.358L288.383 343.341ZM350.357 552.045C348.947 554.393 347.553 556.803 346.204 559.135C320.111 605.868 306.289 673.355 263.984 684.625C221.617 695.911 175.964 644.361 130.111 617.103C127.699 615.713 125.288 614.323 122.892 612.994C170.155 637.903 217.732 685.588 261.126 673.961C304.459 662.35 321.88 597.249 350.402 551.967L350.357 552.045ZM359.189 537.132C357.795 539.542 356.324 541.907 354.93 544.316C323.747 588.012 302.615 650.56 258.055 662.5C213.417 674.395 163.859 630.854 115.145 608.632C112.733 607.242 110.277 605.93 107.881 604.601C158.034 624.335 209.365 664.182 255.231 651.958C301.096 639.735 325.627 579.56 359.222 537.255L359.189 537.132ZM368.16 522.248C366.75 524.596 365.295 527.022 363.823 529.387C327.584 570.168 299.387 627.712 252.11 640.314C204.85 652.977 151.659 617.241 100.023 600.072C97.5503 598.698 95.0936 597.386 92.6982 596.057C145.851 610.784 200.659 642.736 249.331 629.695C298.003 616.653 329.492 561.577 368.205 522.17L368.16 522.248ZM377.237 507.269C375.782 509.695 374.311 512.06 372.856 514.486C331.498 552.369 296.422 604.859 246.199 618.25C195.853 631.675 139.37 603.783 84.6892 591.7C82.216 590.327 79.7593 589.014 77.2862 587.641C133.406 597.236 191.461 621.422 243.341 607.586C295.16 593.767 333.406 543.778 377.237 507.269ZM386.454 492.319C385.044 494.667 383.511 497.048 382.056 499.475C335.502 534.414 293.836 581.707 240.254 596.064C186.61 610.438 126.925 590.236 69.2157 583.3C66.7426 581.926 64.2859 580.614 61.8291 579.302C120.993 583.812 182.112 600.279 237.429 585.523C292.669 570.721 337.443 525.946 386.454 492.319ZM395.47 477.356C394.077 479.766 392.667 482.114 391.257 484.463C339.522 516.521 291.484 558.689 234.342 574C177.199 589.312 114.513 576.812 53.8201 574.944C51.4083 573.554 49.013 572.226 46.6176 570.897C108.765 570.338 172.718 579.214 231.562 563.381C290.362 547.626 341.386 508.007 395.532 477.34L395.47 477.356ZM403.828 462.636C402.602 464.935 401.314 467.251 400.105 469.611C343.314 498.754 289.116 535.611 228.414 551.876C167.773 568.124 102.391 563.244 38.7927 566.49C36.5037 565.067 34.2311 563.706 32.0034 562.266C96.8892 556.704 163.274 557.966 225.572 541.273C287.871 524.58 344.792 490.278 403.873 462.558L403.828 462.636ZM410.589 448.344C409.654 450.499 408.69 452.794 407.726 455.089C346.23 481.157 286.363 512.569 222.346 529.722C158.268 546.892 90.7605 549.544 24.5918 557.683C22.6096 556.178 20.7667 554.701 18.7845 553.196C85.9172 542.762 154.138 536.635 219.566 519.103C284.933 501.588 347.139 472.768 410.573 448.282L410.589 448.344ZM414.45 434.763C413.977 436.926 413.549 439.011 413.059 441.113C347.689 464.016 283.151 489.782 216.495 507.642C149.84 525.503 81.0489 535.396 13.1243 548.275C11.6331 546.639 10.142 545.002 8.74512 543.471C77.1263 528.367 146.078 515.147 213.654 497.04C281.231 478.933 347.571 455.967 414.45 434.763ZM412.602 422.712C413.479 424.513 413.972 426.352 414.113 428.35C346.247 447.586 278.59 467.357 210.567 485.518C142.483 503.695 74.0215 520.463 5.75262 537.704C4.93665 535.887 4.42757 533.987 4.25822 532.127C71.9852 512.863 139.642 493.092 207.71 474.853C275.716 456.631 344.272 439.97 412.586 422.65L412.602 422.712ZM405.247 412.202C406.644 413.732 408.135 415.369 409.626 417.006C341.167 432.065 272.215 445.286 204.655 463.454C137.095 481.622 70.7546 504.588 3.99917 525.759C4.47213 523.596 4.96151 521.494 5.37309 519.348C70.6374 496.539 135.097 470.728 201.814 452.851C268.47 434.991 337.277 425.159 405.263 412.263L405.247 412.202ZM393.701 402.749C395.684 404.254 397.604 405.776 399.57 407.22C332.376 417.67 264.094 423.814 198.71 441.268C133.344 458.783 71.1824 487.525 7.84317 512.117C8.74577 509.839 9.72617 507.605 10.6452 505.389C72.0801 479.337 131.869 447.88 195.869 430.665C259.87 413.451 327.394 410.86 393.685 402.688L393.701 402.749ZM379.717 394.015C382.006 395.438 384.234 396.878 386.507 398.239C321.482 403.773 255.113 402.573 192.737 419.221C130.439 435.913 73.5622 470.137 14.6048 497.824C15.8756 495.448 17.0851 493.087 18.4338 490.755C75.1021 461.645 129.3 424.789 189.941 408.54C250.643 392.275 316.041 397.217 379.762 393.938L379.717 394.015ZM364.69 385.561C367.085 386.89 369.497 388.28 371.893 389.609C309.683 390.184 245.686 381.385 186.887 397.141C128.148 412.88 77.1081 452.437 23.0235 483.088C24.4171 480.678 25.8886 478.313 27.2372 475.981C78.8486 443.957 126.903 401.849 183.968 386.493C241.11 371.182 303.797 383.682 364.629 385.578L364.69 385.561ZM349.217 377.161C351.69 378.534 354.147 379.847 356.603 381.159C297.361 376.604 236.165 360.092 180.925 374.893C125.686 389.695 80.9895 434.515 32.0232 468.064C33.4782 465.638 34.9496 463.273 36.4211 460.908C82.9141 425.985 124.518 378.709 178.084 364.291C231.728 349.917 291.413 370.118 349.2 377.1L349.217 377.161ZM333.821 368.805C336.216 370.134 338.689 371.508 341.146 372.82C284.949 363.179 226.816 338.949 175.014 352.83C123.211 366.71 85.0264 416.683 41.2563 453.175C42.7113 450.749 44.1827 448.384 45.5928 446.036C86.9061 408.231 121.859 355.774 172.111 342.243C222.441 328.758 279.001 356.694 333.76 368.822L333.821 368.805ZM318.47 360.372C320.943 361.746 323.339 363.075 325.796 364.387C272.582 349.677 217.819 317.647 169.085 330.705C120.413 343.747 89.002 398.867 50.3952 438.18C51.8502 435.754 53.2602 433.406 54.7317 431.041C90.9103 390.276 119.061 332.81 166.261 320.163C213.521 307.5 266.712 343.236 318.47 360.372ZM303.382 351.934C305.777 353.263 308.189 354.653 310.584 355.982C260.337 336.142 208.944 296.311 163.173 308.641C117.402 320.971 92.8384 381.023 59.305 423.312C60.6986 420.902 62.1087 418.554 63.5187 416.206C94.6403 372.526 115.727 310.056 160.332 298.039C204.937 286.021 254.545 329.746 303.382 351.934Z"/>
</mask>
<path fill-rule="evenodd" clip-rule="evenodd" d="M288.383 343.341C290.717 344.687 293.19 346.06 295.585 347.389C248.244 322.435 200.589 274.705 157.212 286.394C113.896 298.066 96.5192 363.089 68.0592 408.354C69.4528 405.945 70.9242 403.58 72.1951 401.203C98.2598 354.609 112.037 287.2 154.371 275.791C196.644 264.399 242.374 315.994 288.321 343.358L288.383 343.341ZM350.357 552.045C348.947 554.393 347.553 556.803 346.204 559.135C320.111 605.868 306.289 673.355 263.984 684.625C221.617 695.911 175.964 644.361 130.111 617.103C127.699 615.713 125.288 614.323 122.892 612.994C170.155 637.903 217.732 685.588 261.126 673.961C304.459 662.35 321.88 597.249 350.402 551.967L350.357 552.045ZM359.189 537.132C357.795 539.542 356.324 541.907 354.93 544.316C323.747 588.012 302.615 650.56 258.055 662.5C213.417 674.395 163.859 630.854 115.145 608.632C112.733 607.242 110.277 605.93 107.881 604.601C158.034 624.335 209.365 664.182 255.231 651.958C301.096 639.735 325.627 579.56 359.222 537.255L359.189 537.132ZM368.16 522.248C366.75 524.596 365.295 527.022 363.823 529.387C327.584 570.168 299.387 627.712 252.11 640.314C204.85 652.977 151.659 617.241 100.023 600.072C97.5503 598.698 95.0936 597.386 92.6982 596.057C145.851 610.784 200.659 642.736 249.331 629.695C298.003 616.653 329.492 561.577 368.205 522.17L368.16 522.248ZM377.237 507.269C375.782 509.695 374.311 512.06 372.856 514.486C331.498 552.369 296.422 604.859 246.199 618.25C195.853 631.675 139.37 603.783 84.6892 591.7C82.216 590.327 79.7593 589.014 77.2862 587.641C133.406 597.236 191.461 621.422 243.341 607.586C295.16 593.767 333.406 543.778 377.237 507.269ZM386.454 492.319C385.044 494.667 383.511 497.048 382.056 499.475C335.502 534.414 293.836 581.707 240.254 596.064C186.61 610.438 126.925 590.236 69.2157 583.3C66.7426 581.926 64.2859 580.614 61.8291 579.302C120.993 583.812 182.112 600.279 237.429 585.523C292.669 570.721 337.443 525.946 386.454 492.319ZM395.47 477.356C394.077 479.766 392.667 482.114 391.257 484.463C339.522 516.521 291.484 558.689 234.342 574C177.199 589.312 114.513 576.812 53.8201 574.944C51.4083 573.554 49.013 572.226 46.6176 570.897C108.765 570.338 172.718 579.214 231.562 563.381C290.362 547.626 341.386 508.007 395.532 477.34L395.47 477.356ZM403.828 462.636C402.602 464.935 401.314 467.251 400.105 469.611C343.314 498.754 289.116 535.611 228.414 551.876C167.773 568.124 102.391 563.244 38.7927 566.49C36.5037 565.067 34.2311 563.706 32.0034 562.266C96.8892 556.704 163.274 557.966 225.572 541.273C287.871 524.58 344.792 490.278 403.873 462.558L403.828 462.636ZM410.589 448.344C409.654 450.499 408.69 452.794 407.726 455.089C346.23 481.157 286.363 512.569 222.346 529.722C158.268 546.892 90.7605 549.544 24.5918 557.683C22.6096 556.178 20.7667 554.701 18.7845 553.196C85.9172 542.762 154.138 536.635 219.566 519.103C284.933 501.588 347.139 472.768 410.573 448.282L410.589 448.344ZM414.45 434.763C413.977 436.926 413.549 439.011 413.059 441.113C347.689 464.016 283.151 489.782 216.495 507.642C149.84 525.503 81.0489 535.396 13.1243 548.275C11.6331 546.639 10.142 545.002 8.74512 543.471C77.1263 528.367 146.078 515.147 213.654 497.04C281.231 478.933 347.571 455.967 414.45 434.763ZM412.602 422.712C413.479 424.513 413.972 426.352 414.113 428.35C346.247 447.586 278.59 467.357 210.567 485.518C142.483 503.695 74.0215 520.463 5.75262 537.704C4.93665 535.887 4.42757 533.987 4.25822 532.127C71.9852 512.863 139.642 493.092 207.71 474.853C275.716 456.631 344.272 439.97 412.586 422.65L412.602 422.712ZM405.247 412.202C406.644 413.732 408.135 415.369 409.626 417.006C341.167 432.065 272.215 445.286 204.655 463.454C137.095 481.622 70.7546 504.588 3.99917 525.759C4.47213 523.596 4.96151 521.494 5.37309 519.348C70.6374 496.539 135.097 470.728 201.814 452.851C268.47 434.991 337.277 425.159 405.263 412.263L405.247 412.202ZM393.701 402.749C395.684 404.254 397.604 405.776 399.57 407.22C332.376 417.67 264.094 423.814 198.71 441.268C133.344 458.783 71.1824 487.525 7.84317 512.117C8.74577 509.839 9.72617 507.605 10.6452 505.389C72.0801 479.337 131.869 447.88 195.869 430.665C259.87 413.451 327.394 410.86 393.685 402.688L393.701 402.749ZM379.717 394.015C382.006 395.438 384.234 396.878 386.507 398.239C321.482 403.773 255.113 402.573 192.737 419.221C130.439 435.913 73.5622 470.137 14.6048 497.824C15.8756 495.448 17.0851 493.087 18.4338 490.755C75.1021 461.645 129.3 424.789 189.941 408.54C250.643 392.275 316.041 397.217 379.762 393.938L379.717 394.015ZM364.69 385.561C367.085 386.89 369.497 388.28 371.893 389.609C309.683 390.184 245.686 381.385 186.887 397.141C128.148 412.88 77.1081 452.437 23.0235 483.088C24.4171 480.678 25.8886 478.313 27.2372 475.981C78.8486 443.957 126.903 401.849 183.968 386.493C241.11 371.182 303.797 383.682 364.629 385.578L364.69 385.561ZM349.217 377.161C351.69 378.534 354.147 379.847 356.603 381.159C297.361 376.604 236.165 360.092 180.925 374.893C125.686 389.695 80.9895 434.515 32.0232 468.064C33.4782 465.638 34.9496 463.273 36.4211 460.908C82.9141 425.985 124.518 378.709 178.084 364.291C231.728 349.917 291.413 370.118 349.2 377.1L349.217 377.161ZM333.821 368.805C336.216 370.134 338.689 371.508 341.146 372.82C284.949 363.179 226.816 338.949 175.014 352.83C123.211 366.71 85.0264 416.683 41.2563 453.175C42.7113 450.749 44.1827 448.384 45.5928 446.036C86.9061 408.231 121.859 355.774 172.111 342.243C222.441 328.758 279.001 356.694 333.76 368.822L333.821 368.805ZM318.47 360.372C320.943 361.746 323.339 363.075 325.796 364.387C272.582 349.677 217.819 317.647 169.085 330.705C120.413 343.747 89.002 398.867 50.3952 438.18C51.8502 435.754 53.2602 433.406 54.7317 431.041C90.9103 390.276 119.061 332.81 166.261 320.163C213.521 307.5 266.712 343.236 318.47 360.372ZM303.382 351.934C305.777 353.263 308.189 354.653 310.584 355.982C260.337 336.142 208.944 296.311 163.173 308.641C117.402 320.971 92.8384 381.023 59.305 423.312C60.6986 420.902 62.1087 418.554 63.5187 416.206C94.6403 372.526 115.727 310.056 160.332 298.039C204.937 286.021 254.545 329.746 303.382 351.934Z" stroke="black" stroke-width="2" mask="url(#path-3-inside-1)"/>
</g>
</g>
</svg>
