<svg width="360" height="361" viewBox="0 0 360 361" fill="none" xmlns="http://www.w3.org/2000/svg">
<rect width="360" height="361" fill="black"/>
<mask id="mask0" mask-type="alpha" maskUnits="userSpaceOnUse" x="0" y="0" width="360" height="361">
<rect width="360" height="361" fill="black"/>
</mask>
<g mask="url(#mask0)">
<g opacity="0.5">
<mask id="path-3-inside-1" fill="white">
<path fill-rule="evenodd" clip-rule="evenodd" d="M311.383 -172.057C313.717 -170.712 316.19 -169.338 318.585 -168.009C271.244 -192.964 223.589 -240.693 180.212 -229.005C136.896 -217.332 119.519 -152.309 91.0592 -107.044C92.4528 -109.454 93.9242 -111.819 95.1951 -114.196C121.26 -160.789 135.037 -228.198 177.371 -239.607C219.644 -251 265.374 -199.405 311.321 -172.041L311.383 -172.057ZM373.357 36.6465C371.947 38.995 370.553 41.4048 369.204 43.7368C343.111 90.4696 329.289 157.956 286.984 169.226C244.617 180.513 198.964 128.962 153.111 101.704C150.699 100.314 148.288 98.9243 145.892 97.5955C193.155 122.505 240.732 170.19 284.126 158.562C327.459 146.951 344.88 81.8503 373.402 36.5688L373.357 36.6465ZM382.189 21.7336C380.795 24.1434 379.324 26.5083 377.93 28.918C346.747 72.6136 325.615 135.162 281.055 147.101C236.417 158.996 186.859 115.455 138.145 93.2339C135.733 91.8438 133.277 90.5315 130.881 89.2027C181.034 108.937 232.365 148.784 278.231 136.56C324.096 124.336 348.627 64.1617 382.222 21.8562L382.189 21.7336ZM391.16 6.84913C389.75 9.19757 388.295 11.6238 386.823 13.9887C350.584 54.7695 322.387 112.313 275.11 124.915C227.85 137.579 174.659 101.843 123.023 84.6737C120.55 83.3 118.094 81.9877 115.698 80.6589C168.851 95.3851 223.659 127.338 272.331 114.296C321.003 101.254 352.492 46.1786 391.205 6.77138L391.16 6.84913ZM400.237 -8.12958C398.782 -5.70339 397.311 -3.33849 395.856 -0.912303C354.498 36.9703 319.422 89.4602 269.199 102.852C218.853 116.276 162.37 88.3851 107.689 76.3018C105.216 74.9281 102.759 73.6158 100.286 72.2421C156.406 81.8379 214.461 106.023 266.341 92.1877C318.16 78.3685 356.406 28.3794 400.237 -8.12958ZM409.454 -23.0799C408.044 -20.7314 406.511 -18.3501 405.056 -15.9239C358.502 19.0156 316.836 66.3082 263.254 80.6656C209.61 95.0394 149.925 74.8379 92.2157 67.9015C89.7426 66.5278 87.2859 65.2155 84.8291 63.9031C143.993 68.4133 205.112 84.8807 260.429 70.1241C315.669 55.3227 360.443 10.5472 409.454 -23.0799ZM418.47 -38.0422C417.077 -35.6324 415.667 -33.2839 414.257 -30.9355C362.522 1.12219 314.484 43.2908 257.342 58.602C200.199 73.9133 137.513 61.4133 76.8201 59.546C74.4083 58.1559 72.013 56.8271 69.6176 55.4983C131.765 54.9394 195.718 63.8158 254.562 47.9828C313.362 32.2275 364.386 -7.39101 418.532 -38.0586L418.47 -38.0422ZM426.828 -52.7622C425.602 -50.4631 424.314 -48.1475 423.105 -45.7871C366.314 -16.6441 312.116 20.2121 251.414 36.4772C190.773 52.7259 125.391 47.8452 61.7927 51.0919C59.5037 49.6689 57.2311 48.3072 55.0034 46.8678C119.889 41.3055 186.274 42.5671 248.572 25.8744C310.871 9.18172 367.792 -25.12 426.873 -52.8399L426.828 -52.7622ZM433.589 -67.0547C432.654 -64.8991 431.69 -62.6044 430.726 -60.3098C369.23 -34.2415 309.363 -2.82925 245.346 14.3239C181.268 31.4936 113.76 34.1455 47.5918 42.2849C45.6096 40.7797 43.7667 39.3029 41.7845 37.7977C108.917 27.3637 177.138 21.2362 242.566 3.70474C307.933 -13.8103 370.139 -42.6306 433.573 -67.116L433.589 -67.0547ZM437.45 -80.6355C436.977 -78.4724 436.549 -76.3871 436.059 -74.2853C370.689 -51.3829 306.151 -25.6164 239.495 -7.75605C172.84 10.1043 104.049 19.9973 36.1243 32.8769C34.6331 31.2402 33.142 29.6034 31.7451 28.0727C100.126 12.9688 169.078 -0.251745 236.654 -18.3588C304.231 -36.4659 370.571 -59.4311 437.45 -80.6355ZM435.602 -92.6868C436.479 -90.8855 436.972 -89.0469 437.113 -87.0483C369.247 -67.8126 301.59 -48.0418 233.567 -29.8809C165.483 -11.7036 97.0215 5.06418 28.7526 22.3058C27.9366 20.4881 27.4276 18.5882 27.2582 16.7286C94.9852 -2.5355 162.642 -22.3063 230.71 -40.5449C298.716 -58.7671 367.272 -75.4287 435.586 -92.7481L435.602 -92.6868ZM428.247 -103.197C429.644 -101.666 431.135 -100.029 432.626 -98.3924C364.167 -83.3333 295.215 -70.1128 227.655 -51.9445C160.095 -33.7761 93.7546 -10.8109 26.9992 10.3606C27.4721 8.19753 27.9615 6.09578 28.3731 3.94916C93.6374 -18.8591 158.097 -44.6704 224.814 -62.5472C291.47 -80.4076 360.277 -90.2393 428.263 -103.135L428.247 -103.197ZM416.701 -112.649C418.684 -111.144 420.604 -109.623 422.57 -108.179C355.376 -97.7282 287.094 -91.5843 221.71 -74.1306C156.344 -56.6156 94.1824 -27.873 30.8432 -3.28149C31.7458 -5.55966 32.7262 -7.79299 33.6452 -10.0099C95.0801 -36.0617 154.869 -67.5189 218.869 -84.7334C282.87 -101.948 350.394 -104.538 416.685 -112.711L416.701 -112.649ZM402.717 -121.383C405.006 -119.96 407.234 -118.521 409.507 -117.159C344.482 -111.625 278.113 -112.826 215.737 -96.1777C153.439 -79.485 96.5622 -45.2611 37.6048 -17.574C38.8756 -19.9508 40.0851 -22.3112 41.4338 -24.6432C98.1021 -53.7533 152.3 -90.6095 212.941 -106.858C273.643 -123.123 339.041 -118.181 402.762 -121.461L402.717 -121.383ZM387.69 -129.837C390.085 -128.509 392.497 -127.118 394.893 -125.79C332.683 -125.214 268.686 -134.013 209.887 -118.258C151.148 -102.519 100.108 -62.9616 46.0235 -32.3105C47.4171 -34.7202 48.8886 -37.0851 50.2372 -39.4171C101.849 -71.4419 149.903 -113.549 206.968 -128.905C264.11 -144.217 326.797 -131.717 387.629 -129.821L387.69 -129.837ZM372.217 -138.238C374.69 -136.864 377.147 -135.552 379.603 -134.239C320.361 -138.794 259.165 -155.307 203.925 -140.505C148.686 -125.704 103.989 -80.8834 55.0232 -47.334C56.4782 -49.7602 57.9496 -52.1251 59.4211 -54.49C105.914 -89.413 147.518 -136.689 201.084 -151.108C254.728 -165.482 314.413 -145.28 372.2 -138.299L372.217 -138.238ZM356.821 -146.593C359.216 -145.264 361.689 -143.891 364.146 -142.578C307.949 -152.219 249.816 -176.449 198.014 -162.569C146.211 -148.688 108.026 -98.7155 64.2563 -62.223C65.7113 -64.6492 67.1827 -67.0141 68.5928 -69.3626C109.906 -107.167 144.859 -159.624 195.111 -173.155C245.441 -186.641 302.001 -158.705 356.76 -146.577L356.821 -146.593ZM341.47 -155.026C343.943 -153.653 346.339 -152.324 348.796 -151.011C295.582 -165.721 240.819 -197.752 192.085 -184.694C143.413 -171.652 112.002 -116.531 73.3952 -77.2182C74.8502 -79.6443 76.2602 -81.9928 77.7317 -84.3577C113.91 -125.122 142.061 -182.588 189.261 -195.235C236.521 -207.898 289.712 -172.162 341.47 -155.026ZM326.382 -163.464C328.777 -162.135 331.189 -160.745 333.584 -159.416C283.337 -179.256 231.944 -219.087 186.173 -206.757C140.402 -194.427 115.838 -134.375 82.305 -92.0863C83.6986 -94.496 85.1087 -96.8445 86.5187 -99.1929C117.64 -142.872 138.727 -205.342 183.332 -217.36C227.937 -229.377 277.545 -185.653 326.382 -163.464Z"/>
</mask>
<path fill-rule="evenodd" clip-rule="evenodd" d="M311.383 -172.057C313.717 -170.712 316.19 -169.338 318.585 -168.009C271.244 -192.964 223.589 -240.693 180.212 -229.005C136.896 -217.332 119.519 -152.309 91.0592 -107.044C92.4528 -109.454 93.9242 -111.819 95.1951 -114.196C121.26 -160.789 135.037 -228.198 177.371 -239.607C219.644 -251 265.374 -199.405 311.321 -172.041L311.383 -172.057ZM373.357 36.6465C371.947 38.995 370.553 41.4048 369.204 43.7368C343.111 90.4696 329.289 157.956 286.984 169.226C244.617 180.513 198.964 128.962 153.111 101.704C150.699 100.314 148.288 98.9243 145.892 97.5955C193.155 122.505 240.732 170.19 284.126 158.562C327.459 146.951 344.88 81.8503 373.402 36.5688L373.357 36.6465ZM382.189 21.7336C380.795 24.1434 379.324 26.5083 377.93 28.918C346.747 72.6136 325.615 135.162 281.055 147.101C236.417 158.996 186.859 115.455 138.145 93.2339C135.733 91.8438 133.277 90.5315 130.881 89.2027C181.034 108.937 232.365 148.784 278.231 136.56C324.096 124.336 348.627 64.1617 382.222 21.8562L382.189 21.7336ZM391.16 6.84913C389.75 9.19757 388.295 11.6238 386.823 13.9887C350.584 54.7695 322.387 112.313 275.11 124.915C227.85 137.579 174.659 101.843 123.023 84.6737C120.55 83.3 118.094 81.9877 115.698 80.6589C168.851 95.3851 223.659 127.338 272.331 114.296C321.003 101.254 352.492 46.1786 391.205 6.77138L391.16 6.84913ZM400.237 -8.12958C398.782 -5.70339 397.311 -3.33849 395.856 -0.912303C354.498 36.9703 319.422 89.4602 269.199 102.852C218.853 116.276 162.37 88.3851 107.689 76.3018C105.216 74.9281 102.759 73.6158 100.286 72.2421C156.406 81.8379 214.461 106.023 266.341 92.1877C318.16 78.3685 356.406 28.3794 400.237 -8.12958ZM409.454 -23.0799C408.044 -20.7314 406.511 -18.3501 405.056 -15.9239C358.502 19.0156 316.836 66.3082 263.254 80.6656C209.61 95.0394 149.925 74.8379 92.2157 67.9015C89.7426 66.5278 87.2859 65.2155 84.8291 63.9031C143.993 68.4133 205.112 84.8807 260.429 70.1241C315.669 55.3227 360.443 10.5472 409.454 -23.0799ZM418.47 -38.0422C417.077 -35.6324 415.667 -33.2839 414.257 -30.9355C362.522 1.12219 314.484 43.2908 257.342 58.602C200.199 73.9133 137.513 61.4133 76.8201 59.546C74.4083 58.1559 72.013 56.8271 69.6176 55.4983C131.765 54.9394 195.718 63.8158 254.562 47.9828C313.362 32.2275 364.386 -7.39101 418.532 -38.0586L418.47 -38.0422ZM426.828 -52.7622C425.602 -50.4631 424.314 -48.1475 423.105 -45.7871C366.314 -16.6441 312.116 20.2121 251.414 36.4772C190.773 52.7259 125.391 47.8452 61.7927 51.0919C59.5037 49.6689 57.2311 48.3072 55.0034 46.8678C119.889 41.3055 186.274 42.5671 248.572 25.8744C310.871 9.18172 367.792 -25.12 426.873 -52.8399L426.828 -52.7622ZM433.589 -67.0547C432.654 -64.8991 431.69 -62.6044 430.726 -60.3098C369.23 -34.2415 309.363 -2.82925 245.346 14.3239C181.268 31.4936 113.76 34.1455 47.5918 42.2849C45.6096 40.7797 43.7667 39.3029 41.7845 37.7977C108.917 27.3637 177.138 21.2362 242.566 3.70474C307.933 -13.8103 370.139 -42.6306 433.573 -67.116L433.589 -67.0547ZM437.45 -80.6355C436.977 -78.4724 436.549 -76.3871 436.059 -74.2853C370.689 -51.3829 306.151 -25.6164 239.495 -7.75605C172.84 10.1043 104.049 19.9973 36.1243 32.8769C34.6331 31.2402 33.142 29.6034 31.7451 28.0727C100.126 12.9688 169.078 -0.251745 236.654 -18.3588C304.231 -36.4659 370.571 -59.4311 437.45 -80.6355ZM435.602 -92.6868C436.479 -90.8855 436.972 -89.0469 437.113 -87.0483C369.247 -67.8126 301.59 -48.0418 233.567 -29.8809C165.483 -11.7036 97.0215 5.06418 28.7526 22.3058C27.9366 20.4881 27.4276 18.5882 27.2582 16.7286C94.9852 -2.5355 162.642 -22.3063 230.71 -40.5449C298.716 -58.7671 367.272 -75.4287 435.586 -92.7481L435.602 -92.6868ZM428.247 -103.197C429.644 -101.666 431.135 -100.029 432.626 -98.3924C364.167 -83.3333 295.215 -70.1128 227.655 -51.9445C160.095 -33.7761 93.7546 -10.8109 26.9992 10.3606C27.4721 8.19753 27.9615 6.09578 28.3731 3.94916C93.6374 -18.8591 158.097 -44.6704 224.814 -62.5472C291.47 -80.4076 360.277 -90.2393 428.263 -103.135L428.247 -103.197ZM416.701 -112.649C418.684 -111.144 420.604 -109.623 422.57 -108.179C355.376 -97.7282 287.094 -91.5843 221.71 -74.1306C156.344 -56.6156 94.1824 -27.873 30.8432 -3.28149C31.7458 -5.55966 32.7262 -7.79299 33.6452 -10.0099C95.0801 -36.0617 154.869 -67.5189 218.869 -84.7334C282.87 -101.948 350.394 -104.538 416.685 -112.711L416.701 -112.649ZM402.717 -121.383C405.006 -119.96 407.234 -118.521 409.507 -117.159C344.482 -111.625 278.113 -112.826 215.737 -96.1777C153.439 -79.485 96.5622 -45.2611 37.6048 -17.574C38.8756 -19.9508 40.0851 -22.3112 41.4338 -24.6432C98.1021 -53.7533 152.3 -90.6095 212.941 -106.858C273.643 -123.123 339.041 -118.181 402.762 -121.461L402.717 -121.383ZM387.69 -129.837C390.085 -128.509 392.497 -127.118 394.893 -125.79C332.683 -125.214 268.686 -134.013 209.887 -118.258C151.148 -102.519 100.108 -62.9616 46.0235 -32.3105C47.4171 -34.7202 48.8886 -37.0851 50.2372 -39.4171C101.849 -71.4419 149.903 -113.549 206.968 -128.905C264.11 -144.217 326.797 -131.717 387.629 -129.821L387.69 -129.837ZM372.217 -138.238C374.69 -136.864 377.147 -135.552 379.603 -134.239C320.361 -138.794 259.165 -155.307 203.925 -140.505C148.686 -125.704 103.989 -80.8834 55.0232 -47.334C56.4782 -49.7602 57.9496 -52.1251 59.4211 -54.49C105.914 -89.413 147.518 -136.689 201.084 -151.108C254.728 -165.482 314.413 -145.28 372.2 -138.299L372.217 -138.238ZM356.821 -146.593C359.216 -145.264 361.689 -143.891 364.146 -142.578C307.949 -152.219 249.816 -176.449 198.014 -162.569C146.211 -148.688 108.026 -98.7155 64.2563 -62.223C65.7113 -64.6492 67.1827 -67.0141 68.5928 -69.3626C109.906 -107.167 144.859 -159.624 195.111 -173.155C245.441 -186.641 302.001 -158.705 356.76 -146.577L356.821 -146.593ZM341.47 -155.026C343.943 -153.653 346.339 -152.324 348.796 -151.011C295.582 -165.721 240.819 -197.752 192.085 -184.694C143.413 -171.652 112.002 -116.531 73.3952 -77.2182C74.8502 -79.6443 76.2602 -81.9928 77.7317 -84.3577C113.91 -125.122 142.061 -182.588 189.261 -195.235C236.521 -207.898 289.712 -172.162 341.47 -155.026ZM326.382 -163.464C328.777 -162.135 331.189 -160.745 333.584 -159.416C283.337 -179.256 231.944 -219.087 186.173 -206.757C140.402 -194.427 115.838 -134.375 82.305 -92.0863C83.6986 -94.496 85.1087 -96.8445 86.5187 -99.1929C117.64 -142.872 138.727 -205.342 183.332 -217.36C227.937 -229.377 277.545 -185.653 326.382 -163.464Z" stroke="white" stroke-width="2" mask="url(#path-3-inside-1)"/>
</g>
</g>
</svg>
