<svg width="360" height="361" viewBox="0 0 360 361" fill="none" xmlns="http://www.w3.org/2000/svg">
<rect width="360" height="361" fill="#EDEDED"/>
<mask id="mask0" mask-type="alpha" maskUnits="userSpaceOnUse" x="0" y="0" width="360" height="361">
<rect width="360" height="361" fill="black"/>
</mask>
<g mask="url(#mask0)">
<g opacity="0.5">
<mask id="path-3-inside-1" fill="white">
<path fill-rule="evenodd" clip-rule="evenodd" d="M379.304 152.274C376.616 152.086 373.791 151.935 371.056 151.789C424.544 153.492 488.288 175.534 522.166 146.031C555.997 116.569 543.145 50.5022 548.91 -2.65485C548.712 0.121839 548.425 2.89229 548.323 5.58563C545.294 58.8883 562.427 125.524 529.363 154.319C496.348 183.072 432.642 156.712 379.352 152.232L379.304 152.274ZM232.195 -8.21655C232.435 -10.9453 232.632 -13.722 232.824 -16.4092C235.817 -69.8493 218.691 -136.574 251.79 -165.232C284.936 -193.931 348.553 -167.578 401.712 -163.152C404.489 -162.958 407.266 -162.764 410.001 -162.619C356.603 -164.316 292.949 -186.351 259.028 -156.896C225.156 -127.482 238.001 -61.3257 232.189 -8.12701L232.195 -8.21655ZM230.786 9.05803C230.983 6.28135 231.271 3.51091 231.468 0.734231C240.368 -52.2042 231.976 -117.69 266.808 -147.937C301.729 -178.178 365.35 -160.736 418.876 -162.09C421.653 -161.896 424.436 -161.792 427.172 -161.647C373.442 -157.426 309.844 -170.771 273.963 -139.697C238.082 -108.623 242.379 -43.7826 230.702 8.96222L230.786 9.05803ZM229.238 26.368C229.478 23.6393 229.723 20.8209 230.011 18.0505C244.733 -34.482 244.883 -98.5622 281.868 -130.595C318.811 -162.675 382.279 -153.839 436.219 -161.016C439.044 -160.864 441.828 -160.76 444.563 -160.614C390.329 -150.578 327.063 -155.303 289.017 -122.265C250.971 -89.2263 246.779 -25.923 229.232 26.4576L229.238 26.368ZM227.637 43.8093C227.882 40.991 228.17 38.2205 228.415 35.4022C249.008 -16.7661 257.557 -79.3156 296.844 -113.348C336.228 -147.463 399.221 -147.123 453.671 -160.204C456.496 -160.052 459.279 -159.948 462.104 -159.796C407.45 -143.848 344.666 -140.169 304.083 -105.012C263.548 -69.8964 251.055 -8.20703 227.637 43.8093ZM225.898 61.286C226.137 58.5572 226.472 55.7451 226.718 52.9268C253.271 1.129 270.02 -59.6336 311.904 -96.0052C353.837 -132.418 416.341 -140.393 471.261 -159.428C474.086 -159.276 476.869 -159.172 479.652 -159.068C424.487 -137.215 362.329 -125.255 319.06 -87.7651C275.88 -50.2686 255.234 9.59225 225.898 61.286ZM224.344 78.6856C224.542 75.9089 224.781 73.1801 225.02 70.4513C257.492 18.9762 282.214 -39.9704 326.881 -78.7584C371.548 -117.546 433.379 -133.759 488.761 -158.658C491.538 -158.465 494.273 -158.319 497.008 -158.173C441.381 -130.456 379.999 -110.431 334.03 -70.4287C288.067 -30.5159 259.545 27.4457 224.296 78.7272L224.344 78.6856ZM223.276 95.579C223.372 92.9752 223.515 90.3297 223.569 87.678C261.863 36.6088 294.449 -20.2593 341.899 -61.4637C389.301 -102.627 450.218 -126.87 505.973 -157.638C508.654 -157.361 511.293 -157.132 513.926 -156.814C458.028 -123.4 397.794 -95.4634 349.096 -53.1757C300.399 -10.888 264.246 44.8762 223.27 95.6685L223.276 95.579ZM223.456 111.389C223.353 109.042 223.215 106.557 223.077 104.071C266.948 53.706 307.014 -0.750262 357.055 -44.2045C407.144 -87.7004 466.673 -119.646 522.596 -155.939C525.037 -155.454 527.341 -154.933 529.782 -154.448C473.997 -115.67 415.349 -80.2873 364.204 -35.8748C313.108 8.496 269.804 61.6464 223.498 111.437L223.456 111.389ZM225.933 125.289C225.411 123.137 224.882 121.075 224.402 118.971C273.143 69.7555 319.88 18.3297 371.984 -26.9161C424.088 -72.1618 481.6 -111.18 537.026 -152.503C539.083 -151.685 541.14 -150.866 543.066 -150.102C488.204 -106.578 432.004 -64.4987 379.181 -18.628C326.357 27.2426 276.772 76.9397 225.933 125.289ZM232.871 135.314C231.294 134.079 230.046 132.642 229.044 130.907C281.634 83.8946 333.801 36.493 387.002 -9.62139C440.251 -55.7774 494.457 -100.832 548.282 -146.227C549.811 -144.951 551.101 -143.465 552.068 -141.868C499.616 -94.8911 447.448 -47.4894 394.241 -1.28545C341.081 44.8768 286.744 89.8769 232.913 135.362L232.871 135.314ZM244.086 141.542C242.16 140.778 240.103 139.959 238.045 139.141C292.997 95.6236 349.197 53.5439 401.979 7.62538C454.761 -38.2932 504.346 -87.9902 555.089 -136.256C555.611 -134.105 556.092 -132.001 556.662 -129.891C507.975 -80.806 461.328 -29.374 409.176 15.9134C357.072 61.1591 299.518 100.129 244.044 141.494L244.086 141.542ZM258.605 144.985C256.164 144.499 253.771 143.973 251.371 143.535C307.204 104.715 365.901 69.2909 417.039 24.968C468.135 -19.4028 511.433 -72.4637 557.607 -122.308C557.793 -119.865 557.89 -117.428 558.035 -115.032C514.211 -64.7087 474.235 -10.2461 424.236 33.256C374.236 76.7581 314.665 108.656 258.647 145.033L258.605 144.985ZM275.001 146.713C272.32 146.436 269.687 146.117 267.048 145.888C323.083 112.439 383.276 84.4545 432.063 42.1731C480.761 -0.114562 516.907 -55.7893 557.787 -106.498C557.685 -103.805 557.632 -101.153 557.44 -98.4661C519.242 -47.4802 486.656 9.38791 439.254 50.5507C391.804 91.7551 330.846 115.95 274.995 146.802L275.001 146.713ZM292.213 147.733C289.478 147.587 286.701 147.393 283.966 147.248C339.641 119.489 401.029 99.3744 446.992 59.4615C492.907 19.5903 521.471 -38.3233 556.672 -89.5632C556.474 -86.7866 556.187 -84.0161 555.995 -81.329C523.619 -29.9372 498.856 28.9616 454.279 67.7558C409.611 106.544 347.781 122.757 292.261 147.691L292.213 147.733ZM309.803 148.509C306.978 148.357 304.195 148.253 301.411 148.149C356.666 126.302 418.913 114.348 462.093 76.852C505.273 39.3555 525.829 -20.5116 555.16 -72.1157C554.914 -69.2974 554.627 -66.5269 554.34 -63.7565C527.834 -12.0004 511.133 48.7206 469.29 85.14C427.358 121.553 364.853 129.528 309.845 148.557L309.803 148.509ZM327.303 149.279C324.567 149.133 321.742 148.981 318.959 148.877C373.703 132.935 436.577 129.262 477.07 94.0988C517.563 58.9354 530.009 -2.7123 553.379 -54.687C553.133 -51.8686 552.846 -49.0982 552.607 -46.3694C532.02 5.70927 523.567 68.1755 484.315 102.345C444.973 136.509 381.891 136.162 327.351 149.237L327.303 149.279ZM344.796 150.138C341.971 149.986 339.236 149.841 336.453 149.737C390.734 139.659 453.994 144.474 492.088 111.393C530.135 78.3549 534.236 15.0453 551.729 -37.204C551.484 -34.3857 551.244 -31.6569 550.957 -28.8865C536.283 23.6044 536.139 87.5949 499.244 119.634C462.301 151.714 398.833 142.878 344.796 150.138ZM362.056 151.116C359.321 150.971 356.544 150.777 353.809 150.632C407.67 146.465 471.315 159.769 507.065 128.64C542.815 97.5119 538.601 32.7675 550.23 -19.9357C550.032 -17.159 549.793 -14.4302 549.554 -11.7015C540.702 41.1953 549.1 106.592 514.262 136.928C479.424 167.265 415.678 149.679 362.056 151.116Z"/>
</mask>
<path fill-rule="evenodd" clip-rule="evenodd" d="M379.304 152.274C376.616 152.086 373.791 151.935 371.056 151.789C424.544 153.492 488.288 175.534 522.166 146.031C555.997 116.569 543.145 50.5022 548.91 -2.65485C548.712 0.121839 548.425 2.89229 548.323 5.58563C545.294 58.8883 562.427 125.524 529.363 154.319C496.348 183.072 432.642 156.712 379.352 152.232L379.304 152.274ZM232.195 -8.21655C232.435 -10.9453 232.632 -13.722 232.824 -16.4092C235.817 -69.8493 218.691 -136.574 251.79 -165.232C284.936 -193.931 348.553 -167.578 401.712 -163.152C404.489 -162.958 407.266 -162.764 410.001 -162.619C356.603 -164.316 292.949 -186.351 259.028 -156.896C225.156 -127.482 238.001 -61.3257 232.189 -8.12701L232.195 -8.21655ZM230.786 9.05803C230.983 6.28135 231.271 3.51091 231.468 0.734231C240.368 -52.2042 231.976 -117.69 266.808 -147.937C301.729 -178.178 365.35 -160.736 418.876 -162.09C421.653 -161.896 424.436 -161.792 427.172 -161.647C373.442 -157.426 309.844 -170.771 273.963 -139.697C238.082 -108.623 242.379 -43.7826 230.702 8.96222L230.786 9.05803ZM229.238 26.368C229.478 23.6393 229.723 20.8209 230.011 18.0505C244.733 -34.482 244.883 -98.5622 281.868 -130.595C318.811 -162.675 382.279 -153.839 436.219 -161.016C439.044 -160.864 441.828 -160.76 444.563 -160.614C390.329 -150.578 327.063 -155.303 289.017 -122.265C250.971 -89.2263 246.779 -25.923 229.232 26.4576L229.238 26.368ZM227.637 43.8093C227.882 40.991 228.17 38.2205 228.415 35.4022C249.008 -16.7661 257.557 -79.3156 296.844 -113.348C336.228 -147.463 399.221 -147.123 453.671 -160.204C456.496 -160.052 459.279 -159.948 462.104 -159.796C407.45 -143.848 344.666 -140.169 304.083 -105.012C263.548 -69.8964 251.055 -8.20703 227.637 43.8093ZM225.898 61.286C226.137 58.5572 226.472 55.7451 226.718 52.9268C253.271 1.129 270.02 -59.6336 311.904 -96.0052C353.837 -132.418 416.341 -140.393 471.261 -159.428C474.086 -159.276 476.869 -159.172 479.652 -159.068C424.487 -137.215 362.329 -125.255 319.06 -87.7651C275.88 -50.2686 255.234 9.59225 225.898 61.286ZM224.344 78.6856C224.542 75.9089 224.781 73.1801 225.02 70.4513C257.492 18.9762 282.214 -39.9704 326.881 -78.7584C371.548 -117.546 433.379 -133.759 488.761 -158.658C491.538 -158.465 494.273 -158.319 497.008 -158.173C441.381 -130.456 379.999 -110.431 334.03 -70.4287C288.067 -30.5159 259.545 27.4457 224.296 78.7272L224.344 78.6856ZM223.276 95.579C223.372 92.9752 223.515 90.3297 223.569 87.678C261.863 36.6088 294.449 -20.2593 341.899 -61.4637C389.301 -102.627 450.218 -126.87 505.973 -157.638C508.654 -157.361 511.293 -157.132 513.926 -156.814C458.028 -123.4 397.794 -95.4634 349.096 -53.1757C300.399 -10.888 264.246 44.8762 223.27 95.6685L223.276 95.579ZM223.456 111.389C223.353 109.042 223.215 106.557 223.077 104.071C266.948 53.706 307.014 -0.750262 357.055 -44.2045C407.144 -87.7004 466.673 -119.646 522.596 -155.939C525.037 -155.454 527.341 -154.933 529.782 -154.448C473.997 -115.67 415.349 -80.2873 364.204 -35.8748C313.108 8.496 269.804 61.6464 223.498 111.437L223.456 111.389ZM225.933 125.289C225.411 123.137 224.882 121.075 224.402 118.971C273.143 69.7555 319.88 18.3297 371.984 -26.9161C424.088 -72.1618 481.6 -111.18 537.026 -152.503C539.083 -151.685 541.14 -150.866 543.066 -150.102C488.204 -106.578 432.004 -64.4987 379.181 -18.628C326.357 27.2426 276.772 76.9397 225.933 125.289ZM232.871 135.314C231.294 134.079 230.046 132.642 229.044 130.907C281.634 83.8946 333.801 36.493 387.002 -9.62139C440.251 -55.7774 494.457 -100.832 548.282 -146.227C549.811 -144.951 551.101 -143.465 552.068 -141.868C499.616 -94.8911 447.448 -47.4894 394.241 -1.28545C341.081 44.8768 286.744 89.8769 232.913 135.362L232.871 135.314ZM244.086 141.542C242.16 140.778 240.103 139.959 238.045 139.141C292.997 95.6236 349.197 53.5439 401.979 7.62538C454.761 -38.2932 504.346 -87.9902 555.089 -136.256C555.611 -134.105 556.092 -132.001 556.662 -129.891C507.975 -80.806 461.328 -29.374 409.176 15.9134C357.072 61.1591 299.518 100.129 244.044 141.494L244.086 141.542ZM258.605 144.985C256.164 144.499 253.771 143.973 251.371 143.535C307.204 104.715 365.901 69.2909 417.039 24.968C468.135 -19.4028 511.433 -72.4637 557.607 -122.308C557.793 -119.865 557.89 -117.428 558.035 -115.032C514.211 -64.7087 474.235 -10.2461 424.236 33.256C374.236 76.7581 314.665 108.656 258.647 145.033L258.605 144.985ZM275.001 146.713C272.32 146.436 269.687 146.117 267.048 145.888C323.083 112.439 383.276 84.4545 432.063 42.1731C480.761 -0.114562 516.907 -55.7893 557.787 -106.498C557.685 -103.805 557.632 -101.153 557.44 -98.4661C519.242 -47.4802 486.656 9.38791 439.254 50.5507C391.804 91.7551 330.846 115.95 274.995 146.802L275.001 146.713ZM292.213 147.733C289.478 147.587 286.701 147.393 283.966 147.248C339.641 119.489 401.029 99.3744 446.992 59.4615C492.907 19.5903 521.471 -38.3233 556.672 -89.5632C556.474 -86.7866 556.187 -84.0161 555.995 -81.329C523.619 -29.9372 498.856 28.9616 454.279 67.7558C409.611 106.544 347.781 122.757 292.261 147.691L292.213 147.733ZM309.803 148.509C306.978 148.357 304.195 148.253 301.411 148.149C356.666 126.302 418.913 114.348 462.093 76.852C505.273 39.3555 525.829 -20.5116 555.16 -72.1157C554.914 -69.2974 554.627 -66.5269 554.34 -63.7565C527.834 -12.0004 511.133 48.7206 469.29 85.14C427.358 121.553 364.853 129.528 309.845 148.557L309.803 148.509ZM327.303 149.279C324.567 149.133 321.742 148.981 318.959 148.877C373.703 132.935 436.577 129.262 477.07 94.0988C517.563 58.9354 530.009 -2.7123 553.379 -54.687C553.133 -51.8686 552.846 -49.0982 552.607 -46.3694C532.02 5.70927 523.567 68.1755 484.315 102.345C444.973 136.509 381.891 136.162 327.351 149.237L327.303 149.279ZM344.796 150.138C341.971 149.986 339.236 149.841 336.453 149.737C390.734 139.659 453.994 144.474 492.088 111.393C530.135 78.3549 534.236 15.0453 551.729 -37.204C551.484 -34.3857 551.244 -31.6569 550.957 -28.8865C536.283 23.6044 536.139 87.5949 499.244 119.634C462.301 151.714 398.833 142.878 344.796 150.138ZM362.056 151.116C359.321 150.971 356.544 150.777 353.809 150.632C407.67 146.465 471.315 159.769 507.065 128.64C542.815 97.5119 538.601 32.7675 550.23 -19.9357C550.032 -17.159 549.793 -14.4302 549.554 -11.7015C540.702 41.1953 549.1 106.592 514.262 136.928C479.424 167.265 415.678 149.679 362.056 151.116Z" stroke="black" stroke-width="2" mask="url(#path-3-inside-1)"/>
</g>
</g>
</svg>
