<svg width="700" height="826" viewBox="0 0 700 826" fill="none" xmlns="http://www.w3.org/2000/svg">
<mask id="mask0" mask-type="alpha" maskUnits="userSpaceOnUse" x="0" y="0" width="700" height="826">
<path d="M0 130V0H700V826H0V365V130Z" fill="#F7CE50"/>
</mask>
<g mask="url(#mask0)">
<g opacity="0.5">
<mask id="path-2-inside-1" fill="white">
<path fill-rule="evenodd" clip-rule="evenodd" d="M511.457 -657.758C520.199 -652.72 529.462 -647.574 538.435 -642.597C361.113 -736.066 182.616 -914.844 20.1407 -871.062C-142.105 -827.343 -207.192 -583.79 -313.793 -414.244C-308.573 -423.27 -303.061 -432.128 -298.301 -441.031C-200.673 -615.554 -149.068 -868.042 9.49941 -910.776C167.837 -953.449 339.125 -760.192 511.227 -657.697L511.457 -657.758ZM743.589 123.968C738.307 132.764 733.087 141.79 728.036 150.525C630.3 325.569 578.527 578.348 420.067 620.562C261.376 662.837 90.3794 469.748 -81.3695 367.65C-90.4031 362.444 -99.4368 357.237 -108.409 352.26C68.6215 445.561 246.827 624.17 409.364 580.618C571.671 537.128 636.926 293.284 743.757 123.676L743.589 123.968ZM776.67 68.1093C771.45 77.1353 765.939 85.9934 760.719 95.0194C643.919 258.687 564.766 492.968 397.861 537.69C230.665 582.244 45.0375 419.156 -137.427 335.923C-146.46 330.716 -155.662 325.8 -164.634 320.823C23.2181 394.74 215.487 543.992 387.281 498.206C559.076 452.42 650.959 227.029 776.793 68.5685L776.67 68.1093ZM810.273 12.3575C804.991 21.1539 799.541 30.2415 794.03 39.0996C658.288 191.849 552.676 407.386 375.594 454.589C198.574 502.022 -0.657302 368.167 -194.067 303.859C-203.33 298.714 -212.532 293.798 -221.504 288.821C-22.4152 343.98 182.875 463.663 365.183 414.814C547.491 365.964 665.436 159.671 810.441 12.0663L810.273 12.3575ZM844.274 -43.7472C838.824 -34.6596 833.312 -25.8015 827.862 -16.7139C672.95 125.18 541.568 321.788 353.451 371.947C164.874 422.23 -46.6889 317.761 -251.503 272.501C-260.766 267.356 -269.968 262.44 -279.232 257.295C-69.0296 293.238 148.423 383.827 342.748 332.004C536.842 280.243 680.097 93.0018 844.274 -43.7472ZM878.796 -99.7454C873.514 -90.949 867.773 -82.0294 862.323 -72.9418C687.947 57.9286 531.884 235.069 331.184 288.846C130.254 342.685 -93.3033 267.018 -309.461 241.037C-318.724 235.892 -327.926 230.976 -337.128 226.06C-115.521 242.954 113.405 304.635 320.604 249.362C527.511 193.921 695.218 26.2093 878.796 -99.7454ZM912.567 -155.789C907.347 -146.762 902.065 -137.966 896.784 -129.17C703.007 -9.09348 523.074 148.854 309.04 206.205C95.006 263.555 -139.795 216.735 -367.127 209.74C-376.161 204.534 -385.133 199.556 -394.105 194.579C-161.323 192.486 78.219 225.734 298.628 166.429C518.87 107.416 709.986 -40.9807 912.797 -155.85L912.567 -155.789ZM943.871 -210.924C939.279 -202.313 934.457 -193.639 929.927 -184.798C717.208 -75.6395 514.203 62.4102 286.835 123.333C59.6966 184.195 -185.198 165.913 -423.414 178.074C-431.988 172.744 -440.5 167.644 -448.844 162.252C-205.806 141.418 42.848 146.144 276.193 83.6192C509.538 21.0945 722.747 -107.387 944.039 -211.216L943.871 -210.924ZM969.197 -264.459C965.693 -256.384 962.082 -247.79 958.472 -239.195C728.13 -141.553 503.89 -23.8941 264.108 40.3554C24.0958 104.666 -228.762 114.6 -476.606 145.087C-484.03 139.449 -490.933 133.917 -498.357 128.279C-246.903 89.1973 8.62651 66.2461 253.697 0.579819C498.537 -65.0249 731.537 -172.975 969.135 -264.688L969.197 -264.459ZM983.656 -315.327C981.885 -307.225 980.282 -299.414 978.449 -291.542C733.595 -205.758 491.862 -109.246 242.194 -42.348C-7.47391 24.5503 -265.138 61.6057 -519.559 109.848C-525.144 103.717 -530.729 97.5864 -535.961 91.8532C-279.831 35.2793 -21.5637 -14.2398 231.553 -82.0621C484.669 -149.884 733.156 -235.904 983.656 -315.327ZM976.736 -360.467C980.022 -353.72 981.867 -346.833 982.395 -339.347C728.194 -267.298 474.776 -193.243 219.989 -125.22C-35.0284 -57.134 -291.46 5.67173 -547.17 70.2523C-550.226 63.4439 -552.133 56.3275 -552.767 49.3622C-299.087 -22.7938 -45.6697 -96.8479 209.286 -165.163C464.011 -233.417 720.796 -295.825 976.674 -360.696L976.736 -360.467ZM949.186 -399.833C954.418 -394.1 960.003 -387.969 965.588 -381.838C709.167 -325.432 450.9 -275.913 197.845 -207.861C-55.21 -139.809 -303.697 -53.7902 -553.738 25.5101C-551.966 17.4081 -550.133 9.53573 -548.592 1.49533C-304.136 -83.9358 -62.6943 -180.615 187.204 -247.575C436.871 -314.474 694.597 -351.3 949.247 -399.603L949.186 -399.833ZM905.942 -435.24C913.366 -429.602 920.56 -423.902 927.923 -418.494C676.239 -379.35 420.48 -356.337 175.578 -290.962C-69.262 -225.358 -302.094 -117.699 -539.34 -25.588C-535.959 -34.1212 -532.287 -42.4864 -528.844 -50.7901C-298.732 -148.371 -74.7841 -266.197 164.937 -330.676C404.657 -395.155 657.577 -404.859 905.88 -435.469L905.942 -435.24ZM853.563 -467.953C862.137 -462.623 870.481 -457.231 878.993 -452.131C635.434 -431.403 386.841 -435.899 153.204 -373.543C-80.1409 -311.018 -293.181 -182.828 -514.013 -79.1223C-509.253 -88.0251 -504.723 -96.8662 -499.671 -105.601C-287.413 -214.637 -84.4067 -352.686 142.731 -413.548C370.099 -474.471 615.055 -455.96 853.731 -468.244L853.563 -467.953ZM797.276 -499.619C806.248 -494.642 815.282 -489.435 824.254 -484.458C591.241 -482.303 351.531 -515.259 131.29 -456.246C-88.7208 -397.294 -279.899 -249.127 -482.48 -134.32C-477.26 -143.346 -471.748 -152.204 -466.697 -160.939C-273.38 -280.891 -93.3848 -438.61 120.358 -496.128C334.392 -553.478 569.192 -506.658 797.046 -499.557L797.276 -499.619ZM739.318 -531.083C748.582 -525.938 757.784 -521.023 766.986 -516.107C545.087 -533.169 315.869 -595.017 108.962 -539.577C-97.9451 -484.136 -265.361 -316.256 -448.77 -190.592C-443.32 -199.68 -437.809 -208.538 -432.297 -217.396C-258.152 -348.205 -102.318 -525.284 98.3207 -579.291C299.25 -633.13 522.808 -557.462 739.257 -531.313L739.318 -531.083ZM681.652 -562.38C690.624 -557.403 699.887 -552.257 709.089 -547.342C498.596 -583.452 280.851 -674.209 86.8182 -622.218C-107.215 -570.227 -250.24 -383.048 -414.186 -246.361C-408.736 -255.449 -403.225 -264.307 -397.944 -273.103C-243.199 -414.706 -112.277 -611.19 75.947 -661.871C264.462 -712.383 476.316 -607.746 681.422 -562.318L681.652 -562.38ZM624.154 -593.967C633.417 -588.822 642.389 -583.845 651.591 -578.929C452.272 -634.027 247.151 -754.001 64.6129 -705.09C-117.695 -656.241 -235.349 -449.779 -379.955 -302.527C-374.506 -311.615 -369.224 -320.411 -363.713 -329.269C-228.201 -481.958 -122.758 -697.203 54.0331 -744.574C231.054 -792.007 430.285 -658.152 624.154 -593.967ZM567.637 -625.572C576.609 -620.595 585.643 -615.388 594.615 -610.411C406.409 -684.725 213.911 -833.915 42.4691 -787.732C-128.972 -741.548 -220.979 -516.616 -346.583 -358.217C-341.363 -367.243 -336.081 -376.04 -330.8 -384.836C-214.23 -548.442 -135.246 -782.433 31.8277 -827.446C198.901 -872.459 384.713 -708.682 567.637 -625.572Z"/>
</mask>
<path fill-rule="evenodd" clip-rule="evenodd" d="M511.457 -657.758C520.199 -652.72 529.462 -647.574 538.435 -642.597C361.113 -736.066 182.616 -914.844 20.1407 -871.062C-142.105 -827.343 -207.192 -583.79 -313.793 -414.244C-308.573 -423.27 -303.061 -432.128 -298.301 -441.031C-200.673 -615.554 -149.068 -868.042 9.49941 -910.776C167.837 -953.449 339.125 -760.192 511.227 -657.697L511.457 -657.758ZM743.589 123.968C738.307 132.764 733.087 141.79 728.036 150.525C630.3 325.569 578.527 578.348 420.067 620.562C261.376 662.837 90.3794 469.748 -81.3695 367.65C-90.4031 362.444 -99.4368 357.237 -108.409 352.26C68.6215 445.561 246.827 624.17 409.364 580.618C571.671 537.128 636.926 293.284 743.757 123.676L743.589 123.968ZM776.67 68.1093C771.45 77.1353 765.939 85.9934 760.719 95.0194C643.919 258.687 564.766 492.968 397.861 537.69C230.665 582.244 45.0375 419.156 -137.427 335.923C-146.46 330.716 -155.662 325.8 -164.634 320.823C23.2181 394.74 215.487 543.992 387.281 498.206C559.076 452.42 650.959 227.029 776.793 68.5685L776.67 68.1093ZM810.273 12.3575C804.991 21.1539 799.541 30.2415 794.03 39.0996C658.288 191.849 552.676 407.386 375.594 454.589C198.574 502.022 -0.657302 368.167 -194.067 303.859C-203.33 298.714 -212.532 293.798 -221.504 288.821C-22.4152 343.98 182.875 463.663 365.183 414.814C547.491 365.964 665.436 159.671 810.441 12.0663L810.273 12.3575ZM844.274 -43.7472C838.824 -34.6596 833.312 -25.8015 827.862 -16.7139C672.95 125.18 541.568 321.788 353.451 371.947C164.874 422.23 -46.6889 317.761 -251.503 272.501C-260.766 267.356 -269.968 262.44 -279.232 257.295C-69.0296 293.238 148.423 383.827 342.748 332.004C536.842 280.243 680.097 93.0018 844.274 -43.7472ZM878.796 -99.7454C873.514 -90.949 867.773 -82.0294 862.323 -72.9418C687.947 57.9286 531.884 235.069 331.184 288.846C130.254 342.685 -93.3033 267.018 -309.461 241.037C-318.724 235.892 -327.926 230.976 -337.128 226.06C-115.521 242.954 113.405 304.635 320.604 249.362C527.511 193.921 695.218 26.2093 878.796 -99.7454ZM912.567 -155.789C907.347 -146.762 902.065 -137.966 896.784 -129.17C703.007 -9.09348 523.074 148.854 309.04 206.205C95.006 263.555 -139.795 216.735 -367.127 209.74C-376.161 204.534 -385.133 199.556 -394.105 194.579C-161.323 192.486 78.219 225.734 298.628 166.429C518.87 107.416 709.986 -40.9807 912.797 -155.85L912.567 -155.789ZM943.871 -210.924C939.279 -202.313 934.457 -193.639 929.927 -184.798C717.208 -75.6395 514.203 62.4102 286.835 123.333C59.6966 184.195 -185.198 165.913 -423.414 178.074C-431.988 172.744 -440.5 167.644 -448.844 162.252C-205.806 141.418 42.848 146.144 276.193 83.6192C509.538 21.0945 722.747 -107.387 944.039 -211.216L943.871 -210.924ZM969.197 -264.459C965.693 -256.384 962.082 -247.79 958.472 -239.195C728.13 -141.553 503.89 -23.8941 264.108 40.3554C24.0958 104.666 -228.762 114.6 -476.606 145.087C-484.03 139.449 -490.933 133.917 -498.357 128.279C-246.903 89.1973 8.62651 66.2461 253.697 0.579819C498.537 -65.0249 731.537 -172.975 969.135 -264.688L969.197 -264.459ZM983.656 -315.327C981.885 -307.225 980.282 -299.414 978.449 -291.542C733.595 -205.758 491.862 -109.246 242.194 -42.348C-7.47391 24.5503 -265.138 61.6057 -519.559 109.848C-525.144 103.717 -530.729 97.5864 -535.961 91.8532C-279.831 35.2793 -21.5637 -14.2398 231.553 -82.0621C484.669 -149.884 733.156 -235.904 983.656 -315.327ZM976.736 -360.467C980.022 -353.72 981.867 -346.833 982.395 -339.347C728.194 -267.298 474.776 -193.243 219.989 -125.22C-35.0284 -57.134 -291.46 5.67173 -547.17 70.2523C-550.226 63.4439 -552.133 56.3275 -552.767 49.3622C-299.087 -22.7938 -45.6697 -96.8479 209.286 -165.163C464.011 -233.417 720.796 -295.825 976.674 -360.696L976.736 -360.467ZM949.186 -399.833C954.418 -394.1 960.003 -387.969 965.588 -381.838C709.167 -325.432 450.9 -275.913 197.845 -207.861C-55.21 -139.809 -303.697 -53.7902 -553.738 25.5101C-551.966 17.4081 -550.133 9.53573 -548.592 1.49533C-304.136 -83.9358 -62.6943 -180.615 187.204 -247.575C436.871 -314.474 694.597 -351.3 949.247 -399.603L949.186 -399.833ZM905.942 -435.24C913.366 -429.602 920.56 -423.902 927.923 -418.494C676.239 -379.35 420.48 -356.337 175.578 -290.962C-69.262 -225.358 -302.094 -117.699 -539.34 -25.588C-535.959 -34.1212 -532.287 -42.4864 -528.844 -50.7901C-298.732 -148.371 -74.7841 -266.197 164.937 -330.676C404.657 -395.155 657.577 -404.859 905.88 -435.469L905.942 -435.24ZM853.563 -467.953C862.137 -462.623 870.481 -457.231 878.993 -452.131C635.434 -431.403 386.841 -435.899 153.204 -373.543C-80.1409 -311.018 -293.181 -182.828 -514.013 -79.1223C-509.253 -88.0251 -504.723 -96.8662 -499.671 -105.601C-287.413 -214.637 -84.4067 -352.686 142.731 -413.548C370.099 -474.471 615.055 -455.96 853.731 -468.244L853.563 -467.953ZM797.276 -499.619C806.248 -494.642 815.282 -489.435 824.254 -484.458C591.241 -482.303 351.531 -515.259 131.29 -456.246C-88.7208 -397.294 -279.899 -249.127 -482.48 -134.32C-477.26 -143.346 -471.748 -152.204 -466.697 -160.939C-273.38 -280.891 -93.3848 -438.61 120.358 -496.128C334.392 -553.478 569.192 -506.658 797.046 -499.557L797.276 -499.619ZM739.318 -531.083C748.582 -525.938 757.784 -521.023 766.986 -516.107C545.087 -533.169 315.869 -595.017 108.962 -539.577C-97.9451 -484.136 -265.361 -316.256 -448.77 -190.592C-443.32 -199.68 -437.809 -208.538 -432.297 -217.396C-258.152 -348.205 -102.318 -525.284 98.3207 -579.291C299.25 -633.13 522.808 -557.462 739.257 -531.313L739.318 -531.083ZM681.652 -562.38C690.624 -557.403 699.887 -552.257 709.089 -547.342C498.596 -583.452 280.851 -674.209 86.8182 -622.218C-107.215 -570.227 -250.24 -383.048 -414.186 -246.361C-408.736 -255.449 -403.225 -264.307 -397.944 -273.103C-243.199 -414.706 -112.277 -611.19 75.947 -661.871C264.462 -712.383 476.316 -607.746 681.422 -562.318L681.652 -562.38ZM624.154 -593.967C633.417 -588.822 642.389 -583.845 651.591 -578.929C452.272 -634.027 247.151 -754.001 64.6129 -705.09C-117.695 -656.241 -235.349 -449.779 -379.955 -302.527C-374.506 -311.615 -369.224 -320.411 -363.713 -329.269C-228.201 -481.958 -122.758 -697.203 54.0331 -744.574C231.054 -792.007 430.285 -658.152 624.154 -593.967ZM567.637 -625.572C576.609 -620.595 585.643 -615.388 594.615 -610.411C406.409 -684.725 213.911 -833.915 42.4691 -787.732C-128.972 -741.548 -220.979 -516.616 -346.583 -358.217C-341.363 -367.243 -336.081 -376.04 -330.8 -384.836C-214.23 -548.442 -135.246 -782.433 31.8277 -827.446C198.901 -872.459 384.713 -708.682 567.637 -625.572Z" stroke="black" stroke-width="2" mask="url(#path-2-inside-1)"/>
</g>
</g>
</svg>
