<svg width="1280" height="61" viewBox="0 0 1280 61" fill="none" xmlns="http://www.w3.org/2000/svg">
    <mask id="mobile-header-background-mask0" mask-type="alpha" maskUnits="userSpaceOnUse" x="0" y="0" width="1280" height="61">
        <rect width="1280" height="60.9524" fill="white"/>
    </mask>
    <g mask="url(#mobile-header-background-mask0)">
        <rect width="1280" height="60.9524" fill="white"/>
        <g opacity="0.1">
            <path d="M111.284 10.0825C111.284 10.4502 111.394 10.8096 111.598 11.1153C111.802 11.421 112.093 11.6593 112.432 11.7999C112.772 11.9406 113.146 11.9774 113.506 11.9057C113.867 11.8339 114.198 11.6569 114.458 11.3969C114.718 11.1369 114.895 10.8056 114.967 10.445C115.039 10.0843 115.002 9.71055 114.861 9.37083C114.721 9.03111 114.483 8.74074 114.177 8.53641C113.871 8.33209 113.512 8.22295 113.144 8.22288C112.651 8.22398 112.179 8.42027 111.83 8.76878C111.482 9.11728 111.286 9.58965 111.284 10.0825ZM114.618 10.0825C114.619 10.3743 114.533 10.6597 114.371 10.9024C114.209 11.1452 113.979 11.3345 113.709 11.4464C113.44 11.5583 113.143 11.5878 112.857 11.531C112.571 11.4743 112.308 11.334 112.101 11.1278C111.895 10.9216 111.754 10.6588 111.697 10.3726C111.64 10.0865 111.669 9.78983 111.781 9.52026C111.893 9.25068 112.082 9.02026 112.324 8.85818C112.567 8.69609 112.852 8.60961 113.144 8.60968C113.535 8.61039 113.909 8.76575 114.185 9.04177C114.462 9.31779 114.617 9.69197 114.618 10.0825Z" fill="black"/>
            <path d="M111.048 10.0849C111.048 10.4983 111.171 10.9026 111.4 11.2464C111.63 11.5902 111.957 11.8582 112.339 12.0165C112.721 12.1748 113.141 12.2163 113.546 12.1357C113.952 12.0551 114.325 11.856 114.617 11.5636C114.909 11.2713 115.109 10.8989 115.189 10.4933C115.27 10.0878 115.229 9.66748 115.07 9.28545C114.912 8.90342 114.644 8.57684 114.301 8.34707C113.957 8.11731 113.553 7.99464 113.139 7.99458C112.585 7.99546 112.054 8.21595 111.662 8.60775C111.27 8.99954 111.049 9.5307 111.048 10.0849ZM114.382 10.0849C114.382 10.3308 114.31 10.5714 114.173 10.776C114.037 10.9806 113.843 11.1401 113.615 11.2344C113.388 11.3287 113.138 11.3535 112.897 11.3056C112.656 11.2577 112.434 11.1393 112.26 10.9654C112.086 10.7916 111.967 10.57 111.919 10.3288C111.871 10.0875 111.896 9.83748 111.99 9.61023C112.084 9.38298 112.244 9.18873 112.448 9.05211C112.653 8.91548 112.893 8.84259 113.139 8.84267C113.468 8.84357 113.784 8.97474 114.017 9.20748C114.25 9.44022 114.381 9.75562 114.382 10.0849Z" fill="black"/>
            <path opacity="0.76" d="M113.913 11.1537C113.912 11.2722 113.959 11.3861 114.042 11.4706L123.533 21.0263C123.575 21.0688 123.624 21.1025 123.679 21.1255C123.734 21.1485 123.793 21.1603 123.853 21.1602L169.32 21.1602C169.379 21.1604 169.438 21.1489 169.492 21.1264C169.547 21.104 169.597 21.0709 169.638 21.0291C169.68 20.9873 169.713 20.9377 169.736 20.8831C169.758 20.8285 169.77 20.77 169.77 20.7109C169.77 20.6518 169.758 20.5931 169.736 20.5384C169.713 20.4837 169.68 20.434 169.639 20.3921C169.597 20.3502 169.547 20.3169 169.493 20.2943C169.438 20.2717 169.379 20.26 169.32 20.2601L124.042 20.2601L114.68 10.8353C114.596 10.7518 114.481 10.7049 114.363 10.7046C114.244 10.7044 114.129 10.7508 114.044 10.8339C113.961 10.9194 113.913 11.0341 113.913 11.1537Z" fill="black"/>
            <path opacity="0.41" d="M101.916 6.04501L101.916 12.6326C101.917 12.7511 101.964 12.8644 102.048 12.9479C102.133 13.0313 102.246 13.0781 102.365 13.0781C102.483 13.0781 102.597 13.0313 102.681 12.9479C102.765 12.8644 102.813 12.7511 102.814 12.6326L102.814 6.23543L106.899 2.30792L116.896 2.30792L126.58 12.1759C126.665 12.2608 126.781 12.3084 126.902 12.3082L152.002 12.3082C152.061 12.3085 152.12 12.2972 152.175 12.2749C152.229 12.2525 152.279 12.2196 152.321 12.178C152.363 12.1364 152.396 12.0869 152.419 12.0324C152.441 11.978 152.453 11.9196 152.453 11.8605C152.453 11.8012 152.442 11.7424 152.42 11.6876C152.397 11.6327 152.364 11.5829 152.322 11.5409C152.28 11.499 152.23 11.4658 152.175 11.4433C152.12 11.4208 152.062 11.4094 152.002 11.4097L127.09 11.4097L117.406 1.54314C117.363 1.50035 117.313 1.46636 117.258 1.44314C117.203 1.41991 117.143 1.4079 117.083 1.40785L106.717 1.40785C106.601 1.40818 106.489 1.4535 106.405 1.53431L102.054 5.71776C102.01 5.76039 101.976 5.81132 101.952 5.8675C101.928 5.92368 101.916 5.98401 101.916 6.04501Z" fill="black"/>
            <path d="M157.177 56.8761C157.178 57.4301 157.399 57.9611 157.791 58.3527C158.182 58.7443 158.714 58.9644 159.268 58.9648C159.822 58.9647 160.353 58.7446 160.745 58.353C161.138 57.9614 161.358 57.4303 161.359 56.8761C161.358 56.3219 161.138 55.7908 160.745 55.3992C160.353 55.0076 159.822 54.7875 159.268 54.7873C158.714 54.7877 158.182 55.0079 157.791 55.3995C157.399 55.7911 157.178 56.3221 157.177 56.8761ZM160.514 56.8761C160.513 57.206 160.381 57.5222 160.148 57.7551C159.914 57.988 159.597 58.1187 159.268 58.1184C158.938 58.1184 158.622 57.9876 158.388 57.7546C158.155 57.5217 158.024 57.2058 158.023 56.8761C158.024 56.5465 158.156 56.2307 158.389 55.9979C158.622 55.765 158.938 55.6342 159.268 55.6339C159.597 55.6338 159.914 55.7645 160.147 55.9974C160.381 56.2303 160.513 56.5463 160.514 56.8761Z" fill="black"/>
            <path d="M158.595 33.7947C158.595 34.2866 158.791 34.7581 159.139 35.1056C159.487 35.4532 159.959 35.6485 160.451 35.6484C160.695 35.649 160.936 35.6015 161.162 35.5086C161.387 35.4158 161.593 35.2794 161.765 35.1073C161.938 34.9351 162.076 34.7306 162.17 34.5054C162.263 34.2802 162.312 34.0387 162.313 33.7947C162.312 33.3013 162.116 32.8283 161.766 32.4796C161.417 32.1309 160.944 31.9351 160.451 31.9351C159.958 31.9362 159.486 32.1326 159.138 32.4812C158.79 32.8298 158.595 33.3022 158.595 33.7947ZM161.928 33.7947C161.926 34.1854 161.77 34.5595 161.493 34.835C161.216 35.1106 160.841 35.265 160.451 35.2646C160.061 35.2642 159.687 35.1093 159.411 34.8338C159.135 34.5583 158.979 34.1847 158.978 33.7947C158.978 33.4039 159.133 33.0289 159.409 32.7522C159.685 32.4754 160.06 32.3196 160.451 32.3188C160.842 32.3187 161.218 32.4742 161.495 32.7509C161.772 33.0277 161.928 33.4031 161.928 33.7947Z" fill="black"/>
            <path d="M158.365 33.801C158.366 34.3541 158.586 34.8842 158.977 35.2751C159.368 35.6661 159.899 35.886 160.452 35.8867C161.006 35.8869 161.537 35.6674 161.929 35.2764C162.322 34.8855 162.543 34.3549 162.545 33.801C162.544 33.2462 162.324 32.7142 161.931 32.322C161.539 31.9298 161.007 31.7094 160.452 31.7092C159.898 31.7103 159.367 31.9311 158.975 32.3233C158.584 32.7155 158.364 33.247 158.365 33.801ZM161.698 33.801C161.696 34.1302 161.564 34.4454 161.331 34.6774C161.097 34.9094 160.781 35.0394 160.452 35.0388C160.123 35.0386 159.808 34.9083 159.576 34.6763C159.343 34.4443 159.212 34.1295 159.211 33.801C159.211 33.4716 159.341 33.1555 159.574 32.9223C159.807 32.689 160.122 32.5577 160.452 32.5573C160.782 32.557 161.099 32.6879 161.332 32.9211C161.566 33.1544 161.697 33.4708 161.698 33.801Z" fill="black"/>
            <path d="M148.981 49.1858C148.982 49.6794 149.178 50.1527 149.527 50.5017C149.876 50.8506 150.35 51.0467 150.843 51.0469C151.336 51.0461 151.809 50.8497 152.158 50.5008C152.506 50.1519 152.702 49.679 152.702 49.1858C152.702 48.693 152.506 48.2206 152.157 47.8722C151.808 47.5238 151.336 47.328 150.843 47.3276C150.35 47.3274 149.877 47.523 149.528 47.8714C149.179 48.2198 148.982 48.6926 148.981 49.1858ZM152.317 49.1858C152.317 49.5768 152.161 49.9516 151.885 50.2282C151.609 50.5047 151.234 50.6606 150.843 50.6616C150.452 50.6612 150.076 50.5057 149.799 50.2291C149.523 49.9524 149.367 49.5773 149.366 49.1858C149.367 48.7947 149.523 48.42 149.8 48.1438C150.077 47.8677 150.452 47.7127 150.843 47.713C151.234 47.7133 151.608 47.8686 151.885 48.1447C152.161 48.4208 152.317 48.7952 152.317 49.1858Z" fill="black"/>
            <path d="M148.751 49.1857C148.752 49.7404 148.973 50.2722 149.365 50.6643C149.758 51.0564 150.29 51.2769 150.844 51.2773C151.399 51.2764 151.93 51.0557 152.322 50.6636C152.714 50.2715 152.934 49.74 152.935 49.1857C152.934 48.6317 152.713 48.1007 152.321 47.7092C151.929 47.3176 151.398 47.0974 150.844 47.0969C150.29 47.0969 149.758 47.3169 149.366 47.7085C148.973 48.1 148.752 48.6313 148.751 49.1857ZM152.087 49.1857C152.087 49.5153 151.956 49.8314 151.723 50.0646C151.49 50.2977 151.174 50.4289 150.844 50.4294C150.514 50.4294 150.198 50.2984 149.964 50.0652C149.731 49.8321 149.599 49.5157 149.598 49.1857C149.599 48.8558 149.731 48.5396 149.964 48.3067C150.198 48.0738 150.514 47.9431 150.844 47.9433C151.174 47.9435 151.49 48.0744 151.723 48.3074C151.956 48.5403 152.087 48.8562 152.087 49.1857Z" fill="black"/>
            <path d="M79.8166 57.2169C79.817 57.5845 79.9264 57.9438 80.1309 58.2493C80.3355 58.5548 80.626 58.7928 80.9658 58.9333C81.3056 59.0737 81.6794 59.1102 82.0399 59.0382C82.4005 58.9663 82.7316 58.789 82.9914 58.5288C83.2512 58.2687 83.4281 57.9374 83.4996 57.5767C83.5712 57.2161 83.5342 56.8424 83.3933 56.5028C83.2525 56.1631 83.0141 55.8729 82.7084 55.6688C82.4026 55.4646 82.0432 55.3557 81.6755 55.3557C81.1823 55.3565 80.7096 55.5528 80.3611 55.9018C80.0126 56.2507 79.8168 56.7237 79.8166 57.2169ZM83.1506 57.2169C83.1504 57.5085 83.0637 57.7935 82.9016 58.0358C82.7394 58.2782 82.509 58.467 82.2396 58.5785C81.9701 58.6899 81.6736 58.719 81.3876 58.662C81.1016 58.605 80.839 58.4645 80.6328 58.2583C80.4267 58.052 80.2863 57.7893 80.2295 57.5032C80.1726 57.2172 80.2018 56.9208 80.3134 56.6514C80.425 56.382 80.614 56.1517 80.8564 55.9896C81.0989 55.8276 81.3839 55.7411 81.6755 55.741C82.0665 55.7421 82.4412 55.898 82.7177 56.1745C82.9941 56.4511 83.1498 56.8258 83.1506 57.2169Z" fill="black"/>
            <path d="M79.5863 57.2191C79.5865 57.6325 79.7093 58.0366 79.9392 58.3803C80.1691 58.724 80.4957 58.9918 80.8777 59.1498C81.2598 59.3079 81.6801 59.3491 82.0856 59.2682C82.4911 59.1874 82.8635 58.9882 83.1558 58.6957C83.448 58.4032 83.647 58.0307 83.7275 57.6252C83.8081 57.2196 83.7665 56.7993 83.6082 56.4173C83.4499 56.0354 83.1819 55.709 82.838 55.4794C82.4942 55.2497 82.09 55.1272 81.6765 55.1273C81.1222 55.1282 80.5908 55.349 80.199 55.7411C79.8072 56.1332 79.5868 56.6647 79.5863 57.2191ZM82.9203 57.2191C82.9199 57.4649 82.8466 57.7051 82.7098 57.9093C82.573 58.1135 82.3787 58.2725 82.1515 58.3664C81.9243 58.4602 81.6744 58.4846 81.4333 58.4364C81.1923 58.3883 80.9709 58.2697 80.7972 58.0958C80.6235 57.9219 80.5052 57.7004 80.4574 57.4593C80.4095 57.2182 80.4342 56.9683 80.5283 56.7412C80.6224 56.5141 80.7817 56.32 80.9861 56.1834C81.1904 56.0468 81.4307 55.9739 81.6765 55.9738C82.0065 55.9742 82.3229 56.1055 82.5561 56.339C82.7893 56.5725 82.9203 56.8891 82.9203 57.2191Z" fill="black"/>
            <path d="M70.495 57.9177C70.4952 58.2856 70.6044 58.6451 70.8088 58.9509C71.0133 59.2567 71.3038 59.4951 71.6437 59.6358C71.9835 59.7765 72.3575 59.8134 72.7183 59.7416C73.0791 59.6699 73.4105 59.4928 73.6707 59.2327C73.9308 58.9727 74.108 58.6413 74.1799 58.2805C74.2518 57.9198 74.2152 57.5458 74.0746 57.2059C73.934 56.866 73.6958 56.5754 73.39 56.3708C73.0843 56.1662 72.7248 56.0569 72.3569 56.0565C72.1124 56.0563 71.8702 56.1042 71.6443 56.1976C71.4183 56.2911 71.2129 56.4281 71.04 56.601C70.8671 56.7739 70.7299 56.9792 70.6364 57.2051C70.5429 57.431 70.4948 57.6732 70.495 57.9177ZM73.8312 57.9177C73.8309 58.2096 73.744 58.4949 73.5816 58.7374C73.4192 58.9799 73.1885 59.1689 72.9187 59.2803C72.649 59.3918 72.3522 59.4206 72.066 59.3634C71.7797 59.3062 71.5169 59.1654 71.3107 58.9588C71.1045 58.7521 70.9642 58.489 70.9076 58.2027C70.8509 57.9163 70.8805 57.6196 70.9925 57.3501C71.1045 57.0805 71.2939 56.8502 71.5367 56.6883C71.7796 56.5264 72.065 56.4402 72.3569 56.4405C72.5508 56.4405 72.7427 56.4788 72.9217 56.5531C73.1008 56.6274 73.2634 56.7362 73.4003 56.8734C73.5372 57.0106 73.6458 57.1735 73.7197 57.3527C73.7936 57.5319 73.8315 57.7239 73.8312 57.9177Z" fill="black"/>
            <path d="M70.2599 57.9175C70.2602 58.3311 70.3831 58.7353 70.613 59.0791C70.843 59.4228 71.1696 59.6907 71.5518 59.8489C71.9339 60.007 72.3544 60.0483 72.76 59.9676C73.1656 59.8868 73.5382 59.6876 73.8307 59.3952C74.1231 59.1028 74.3223 58.7302 74.4031 58.3246C74.4839 57.919 74.4426 57.4986 74.2845 57.1164C74.1263 56.7342 73.8585 56.4075 73.5147 56.1776C73.171 55.9476 72.7668 55.8247 72.3532 55.8244C72.0783 55.8243 71.8061 55.8783 71.5521 55.9835C71.298 56.0886 71.0672 56.2428 70.8728 56.4372C70.6784 56.6316 70.5242 56.8623 70.4191 57.1164C70.3139 57.3704 70.2598 57.6426 70.2599 57.9175ZM73.5962 57.9175C73.596 58.1637 73.5229 58.4043 73.386 58.6089C73.2491 58.8134 73.0546 58.9729 72.8271 59.0669C72.5996 59.1609 72.3493 59.1854 72.1079 59.1371C71.8665 59.0889 71.6448 58.9702 71.4709 58.7959C71.297 58.6217 71.1787 58.3998 71.1309 58.1584C71.0831 57.9169 71.108 57.6666 71.2025 57.4393C71.2969 57.212 71.4567 57.0177 71.6615 56.8812C71.8663 56.7447 72.1071 56.672 72.3532 56.6723C72.5167 56.6723 72.6785 56.7045 72.8294 56.7671C72.9804 56.8297 73.1175 56.9215 73.233 57.0371C73.3484 57.1528 73.4399 57.2901 73.5022 57.4411C73.5646 57.5922 73.5965 57.7541 73.5962 57.9175Z" fill="black"/>
            <path d="M65.9013 41.4912C65.9014 41.9049 66.0242 42.3092 66.2541 42.6531C66.484 42.997 66.8108 43.265 67.1931 43.4231C67.5753 43.5813 67.9959 43.6225 68.4016 43.5417C68.8073 43.4608 69.1799 43.2614 69.4723 42.9687C69.7646 42.676 69.9636 42.3032 70.0441 41.8974C70.1245 41.4916 70.0828 41.0711 69.9242 40.689C69.7656 40.3069 69.4973 39.9804 69.1531 39.7509C68.809 39.5213 68.4045 39.399 67.9908 39.3993C67.4365 39.4002 66.9052 39.621 66.5135 40.0131C66.1217 40.4053 65.9016 40.9369 65.9013 41.4912ZM69.2382 41.4912C69.2385 41.7374 69.1657 41.9782 69.0292 42.1831C68.8926 42.388 68.6984 42.5478 68.471 42.6424C68.2437 42.7369 67.9934 42.7619 67.7518 42.7142C67.5102 42.6665 67.2882 42.5482 67.1138 42.3744C66.9395 42.2005 66.8206 41.9788 66.7722 41.7374C66.7237 41.496 66.748 41.2456 66.8419 41.018C66.9357 40.7903 67.095 40.5956 67.2995 40.4585C67.504 40.3213 67.7446 40.2479 67.9908 40.2474C68.3211 40.2472 68.6379 40.378 68.8718 40.6112C69.1057 40.8444 69.2374 41.1609 69.2382 41.4912Z" fill="black"/>
            <path d="M130.025 54.7979C130.437 54.7982 130.839 54.9206 131.182 55.1498C131.524 55.379 131.791 55.7046 131.948 56.0854C132.106 56.4661 132.147 56.885 132.066 57.2891C131.986 57.6932 131.787 58.0643 131.495 58.3555C131.204 58.6467 130.832 58.8449 130.428 58.925C130.024 59.0052 129.605 58.9637 129.225 58.8059C128.844 58.648 128.519 58.3808 128.29 58.0381C128.061 57.6954 127.939 57.2926 127.939 56.8805C127.94 56.3279 128.16 55.7979 128.551 55.4074C128.942 55.0168 129.472 54.7976 130.025 54.7979Z" fill="black"/>
            <path d="M88.8992 47.0986C89.3111 47.099 89.7137 47.2216 90.056 47.4508C90.3983 47.6799 90.665 48.0054 90.8224 48.3861C90.9798 48.7668 91.0208 49.1856 90.9402 49.5896C90.8597 49.9936 90.6611 50.3647 90.3697 50.6559C90.0784 50.9471 89.7072 51.1453 89.3031 51.2257C88.8991 51.306 88.4803 51.2647 88.0997 51.1071C87.7191 50.9494 87.3938 50.6825 87.1649 50.34C86.9359 49.9975 86.8136 49.5949 86.8135 49.1829C86.8134 48.9091 86.8673 48.6379 86.9721 48.3849C87.0769 48.1319 87.2306 47.902 87.4243 47.7085C87.618 47.5149 87.848 47.3614 88.101 47.2567C88.3541 47.1521 88.6253 47.0983 88.8992 47.0986Z" fill="black"/>
            <path d="M57.2873 10.7062C57.2872 11.074 57.3961 11.4337 57.6004 11.7397C57.8047 12.0456 58.0952 12.284 58.435 12.4248C58.7749 12.5656 59.1489 12.6025 59.5097 12.5306C59.8705 12.4588 60.2019 12.2815 60.4619 12.0213C60.7219 11.761 60.8989 11.4295 60.9704 11.0686C61.0419 10.7077 61.0048 10.3338 60.8637 9.99401C60.7226 9.65427 60.4838 9.36403 60.1777 9.16001C59.8716 8.95599 59.5118 8.84739 59.1439 8.84791C58.6514 8.84854 58.1793 9.04457 57.8312 9.39297C57.4831 9.74138 57.2875 10.2137 57.2873 10.7062ZM60.6212 10.7062C60.6213 10.9977 60.5349 11.2827 60.373 11.5252C60.2111 11.7677 59.981 11.9568 59.7117 12.0685C59.4424 12.1803 59.146 12.2097 58.86 12.153C58.574 12.0964 58.3112 11.9562 58.1048 11.7502C57.8984 11.5442 57.7577 11.2817 57.7005 10.9958C57.6433 10.71 57.6721 10.4135 57.7833 10.144C57.8945 9.87447 58.0832 9.64395 58.3253 9.48159C58.5675 9.31922 58.8524 9.2323 59.1439 9.23179C59.5351 9.23226 59.9101 9.38766 60.187 9.66397C60.4638 9.94028 60.62 10.315 60.6212 10.7062Z" fill="black"/>
            <path d="M57.0561 10.7099C57.0561 11.1235 57.1787 11.5278 57.4085 11.8717C57.6383 12.2156 57.9649 12.4836 58.3471 12.6418C58.7292 12.8 59.1497 12.8413 59.5553 12.7605C59.961 12.6796 60.3335 12.4803 60.6258 12.1876C60.9181 11.895 61.117 11.5222 61.1974 11.1165C61.2778 10.7108 61.2361 10.2904 61.0775 9.90842C60.9188 9.52644 60.6505 9.20011 60.3063 8.97069C59.9622 8.74127 59.5577 8.61908 59.1441 8.61959C58.5903 8.62085 58.0596 8.84157 57.6683 9.23337C57.2769 9.62516 57.0568 10.1561 57.0561 10.7099ZM60.3901 10.7099C60.3903 10.9557 60.3176 11.1961 60.1813 11.4006C60.0449 11.6052 59.8509 11.7647 59.6239 11.859C59.3969 11.9533 59.147 11.9783 58.9058 11.9306C58.6646 11.883 58.443 11.7649 58.2689 11.5913C58.0948 11.4178 57.9761 11.1965 57.9277 10.9554C57.8794 10.7144 57.9036 10.4644 57.9972 10.2372C58.0909 10.0099 58.2499 9.81541 58.454 9.67843C58.6581 9.54144 58.8983 9.46807 59.1441 9.46754C59.4738 9.46789 59.79 9.59876 60.0235 9.83157C60.257 10.0644 60.3888 10.3802 60.3901 10.7099Z" fill="black"/>
            <path d="M41.7139 11.506C41.7134 11.8739 41.8221 12.2336 42.0262 12.5396C42.2303 12.8457 42.5206 13.0842 42.8603 13.2252C43.2001 13.3662 43.574 13.4032 43.9348 13.3316C44.2956 13.26 44.627 13.0829 44.8871 12.8228C45.1472 12.5627 45.3243 12.2313 45.396 11.8705C45.4677 11.5097 45.4307 11.1357 45.2897 10.796C45.1488 10.4562 44.9102 10.1659 44.6042 9.96183C44.2982 9.75773 43.9385 9.64899 43.5706 9.64941C43.0783 9.64978 42.6063 9.8455 42.2582 10.1936C41.9101 10.5417 41.7143 11.0137 41.7139 11.506ZM45.0471 11.506C45.0477 11.7977 44.9618 12.0829 44.8003 12.3257C44.6387 12.5685 44.4088 12.7579 44.1396 12.87C43.8704 12.9821 43.574 13.0119 43.2879 12.9555C43.0017 12.8991 42.7388 12.7591 42.5322 12.5533C42.3256 12.3474 42.1848 12.085 42.1274 11.7991C42.07 11.5131 42.0987 11.2166 42.2099 10.947C42.321 10.6774 42.5096 10.4468 42.7519 10.2844C42.9941 10.122 43.279 10.0351 43.5706 10.0347C43.9612 10.0349 44.3359 10.1899 44.6126 10.4656C44.8893 10.7413 45.0455 11.1154 45.0471 11.506Z" fill="black"/>
            <path d="M41.4846 11.5045C41.484 11.9181 41.6062 12.3226 41.8356 12.6668C42.065 13.0109 42.3914 13.2793 42.7734 13.4379C43.1554 13.5965 43.5759 13.6382 43.9816 13.5577C44.3873 13.4772 44.76 13.2781 45.0526 12.9857C45.3451 12.6933 45.5443 12.3207 45.6249 11.915C45.7056 11.5093 45.664 11.0888 45.5056 10.7067C45.3471 10.3246 45.0789 9.99821 44.7348 9.76867C44.3907 9.53913 43.9862 9.4168 43.5726 9.41724C43.0194 9.41847 42.4891 9.63875 42.0978 10.0299C41.7065 10.421 41.4861 10.9512 41.4846 11.5045ZM44.8185 11.5045C44.8191 11.7505 44.7467 11.9912 44.6105 12.1961C44.4743 12.4009 44.2804 12.5608 44.0533 12.6555C43.8262 12.7501 43.5762 12.7753 43.3348 12.7279C43.0934 12.6804 42.8715 12.5624 42.6971 12.3888C42.5228 12.2152 42.4039 11.9938 42.3554 11.7526C42.3069 11.5114 42.3311 11.2613 42.4248 11.0338C42.5185 10.8063 42.6776 10.6117 42.8819 10.4747C43.0862 10.3376 43.3266 10.2642 43.5726 10.2638C43.9021 10.264 44.218 10.3947 44.4515 10.6272C44.6849 10.8596 44.8169 11.1751 44.8185 11.5045Z" fill="black"/>
            <path d="M102.556 10.4432C102.969 10.4428 103.372 10.5647 103.715 10.7934C104.058 11.0221 104.326 11.3475 104.484 11.7283C104.642 12.1091 104.684 12.5283 104.604 12.9329C104.524 13.3374 104.326 13.7091 104.034 14.001C103.743 14.2929 103.372 14.4919 102.967 14.5728C102.563 14.6537 102.144 14.6128 101.763 14.4554C101.382 14.298 101.056 14.0311 100.826 13.6884C100.597 13.3458 100.474 12.9428 100.474 12.5304C100.473 11.9775 100.692 11.447 101.083 11.0556C101.473 10.6642 102.003 10.4439 102.556 10.4432Z" fill="black"/>
            <path d="M88.901 16.3143C89.3135 16.3145 89.7167 16.4369 90.0596 16.6663C90.4024 16.8956 90.6696 17.2215 90.8272 17.6028C90.9848 17.984 91.0258 18.4033 90.9449 18.8078C90.8641 19.2124 90.6651 19.5838 90.3732 19.8752C90.0812 20.1666 89.7093 20.3648 89.3046 20.4448C88.9 20.5248 88.4807 20.4829 88.0998 20.3246C87.7189 20.1662 87.3935 19.8984 87.1649 19.555C86.9363 19.2117 86.8146 18.8083 86.8153 18.3958C86.8155 18.1222 86.8697 17.8512 86.9746 17.5985C87.0796 17.3458 87.2333 17.1162 87.427 16.923C87.6207 16.7297 87.8505 16.5764 88.1034 16.472C88.3564 16.3676 88.6274 16.314 88.901 16.3143Z" fill="black"/>
            <path d="M72.3539 8.62444C72.7661 8.62476 73.169 8.74728 73.5115 8.97656C73.8541 9.20584 74.121 9.53156 74.2785 9.91252C74.4359 10.2935 74.4769 10.7126 74.3962 11.1168C74.3155 11.5211 74.1167 11.8923 73.825 12.1836C73.5333 12.4748 73.1618 12.6731 72.7574 12.7532C72.353 12.8333 71.934 12.7918 71.5533 12.6337C71.1725 12.4757 70.8472 12.2083 70.6184 11.8654C70.3897 11.5225 70.2677 11.1195 70.268 10.7072C70.2686 10.1545 70.4886 9.62455 70.8797 9.23398C71.2709 8.84341 71.8011 8.62419 72.3539 8.62444Z" fill="black"/>
            <path d="M42.7215 0.92506C43.1338 0.924909 43.5369 1.04704 43.8797 1.27597C44.2226 1.50491 44.4899 1.83038 44.6478 2.21123C44.8056 2.59208 44.847 3.01121 44.7667 3.41558C44.6863 3.81996 44.4879 4.1914 44.1964 4.48297C43.9049 4.77455 43.5336 4.97316 43.1292 5.05365C42.7249 5.13414 42.3057 5.09288 41.9248 4.93514C41.5439 4.77741 41.2184 4.51027 40.9893 4.16748C40.7602 3.8247 40.638 3.42167 40.638 3.00939C40.6382 2.45681 40.8578 1.92694 41.2485 1.53614C41.6392 1.14533 42.169 0.925548 42.7215 0.92506Z" fill="black"/>
            <path opacity="0.78" d="M129.57 56.8759C129.569 56.9352 129.581 56.9941 129.603 57.049C129.626 57.1039 129.659 57.1538 129.701 57.1959C129.743 57.2379 129.792 57.2712 129.847 57.294C129.902 57.3167 129.961 57.3283 130.02 57.3281L157.598 57.3281C157.657 57.328 157.716 57.3162 157.77 57.2934C157.825 57.2706 157.874 57.2371 157.916 57.1951C157.958 57.1531 157.991 57.1032 158.013 57.0484C158.035 56.9936 158.046 56.935 158.046 56.8759C158.046 56.8171 158.034 56.759 158.012 56.7047C157.989 56.6505 157.956 56.6013 157.915 56.5598C157.873 56.5184 157.824 56.4855 157.769 56.4632C157.715 56.4409 157.657 56.4295 157.598 56.4296L130.02 56.4296C129.961 56.4292 129.903 56.4404 129.848 56.4626C129.794 56.4849 129.744 56.5176 129.702 56.5591C129.66 56.6005 129.627 56.6499 129.604 56.7042C129.582 56.7586 129.57 56.8169 129.57 56.8759Z" fill="black"/>
            <path opacity="0.96" d="M88.4537 49.1823C88.4539 49.3014 88.5009 49.4158 88.5846 49.5006L96.2798 57.1981C96.3648 57.2821 96.4795 57.3291 96.599 57.3289L119.497 57.3289L127.061 64.8926C127.103 64.9344 127.152 64.9676 127.207 64.9901C127.262 65.0126 127.32 65.0239 127.379 65.0234L142.772 65.0234C142.831 65.0235 142.889 65.0119 142.944 64.9894C142.998 64.9668 143.048 64.9338 143.09 64.892C143.132 64.8503 143.165 64.8008 143.187 64.7462C143.21 64.6917 143.222 64.6332 143.222 64.5742C143.222 64.5151 143.21 64.4565 143.188 64.4018C143.165 64.3472 143.132 64.2975 143.09 64.2558C143.048 64.214 142.999 64.1809 142.944 64.1585C142.889 64.136 142.831 64.1246 142.772 64.1249L127.564 64.1249L120.004 56.5613C119.962 56.5194 119.912 56.4863 119.857 56.4638C119.802 56.4414 119.743 56.43 119.684 56.4304L96.7848 56.4304L89.2206 48.8639C89.1578 48.8009 89.0777 48.7579 88.9904 48.7405C88.9031 48.7231 88.8127 48.732 88.7305 48.7662C88.6483 48.8003 88.5781 48.858 88.5288 48.9321C88.4796 49.0062 88.4534 49.0933 88.4537 49.1823Z" fill="black"/>
            <path opacity="0.37" d="M82.1756 58.3047C82.1759 58.423 82.2229 58.5364 82.3064 58.6202L88.5831 64.8983C88.6246 64.9405 88.6741 64.9738 88.7289 64.9963C88.7836 65.0188 88.8423 65.03 88.9015 65.0292L104.106 65.0292L111.668 72.5927C111.709 72.6348 111.759 72.6683 111.813 72.6912C111.868 72.7142 111.926 72.7262 111.986 72.7266L154.312 72.7266C154.371 72.7267 154.43 72.7152 154.485 72.6926C154.539 72.6701 154.589 72.637 154.63 72.5953C154.672 72.5535 154.705 72.5039 154.728 72.4494C154.75 72.3948 154.762 72.3364 154.762 72.2773C154.761 72.1583 154.714 72.0441 154.63 71.9599C154.546 71.8757 154.432 71.8283 154.312 71.828L112.171 71.828L104.611 64.2615C104.526 64.1777 104.412 64.1307 104.293 64.1307L89.0882 64.1307L82.9425 57.9863C82.9008 57.9442 82.8513 57.9108 82.7967 57.8881C82.7422 57.8653 82.6836 57.8536 82.6244 57.8536C82.5653 57.8536 82.5067 57.8653 82.4521 57.8881C82.3976 57.9108 82.348 57.9442 82.3064 57.9863C82.2645 58.0279 82.2313 58.0775 82.2088 58.1322C82.1863 58.1869 82.175 58.2455 82.1756 58.3047Z" fill="black"/>
            <path opacity="0.91" d="M44.2957 12.729C44.2955 12.8483 44.3426 12.9628 44.4268 13.0474L57.799 26.416C57.8406 26.458 57.8902 26.4913 57.9449 26.5138C57.9996 26.5363 58.0583 26.5475 58.1174 26.5468L73.5085 26.5468C73.5676 26.5475 73.6263 26.5363 73.681 26.5138C73.7357 26.4913 73.7853 26.458 73.8269 26.416L81.3911 18.8523L88.9004 18.8523C89.0195 18.8523 89.1338 18.805 89.218 18.7208C89.3023 18.6365 89.3496 18.5223 89.3496 18.4031C89.3496 18.284 89.3023 18.1697 89.218 18.0854C89.1338 18.0012 89.0195 17.9539 88.9004 17.9539L81.2051 17.9539C81.0859 17.9539 80.9716 18.0009 80.8869 18.0847L73.3217 25.6483L58.304 25.6483L45.0626 12.4106C44.9779 12.327 44.8637 12.2801 44.7447 12.2801C44.6257 12.2801 44.5115 12.327 44.4268 12.4106C44.3434 12.4957 44.2964 12.6098 44.2957 12.729Z" fill="black"/>
            <path opacity="0.85" d="M60.3595 10.7055C60.3592 10.7646 60.3705 10.8233 60.3929 10.8781C60.4154 10.9329 60.4484 10.9826 60.4902 11.0245C60.532 11.0665 60.5816 11.0997 60.6363 11.1223C60.691 11.1449 60.7496 11.1564 60.8088 11.1562L72.3528 11.1562C72.4705 11.1541 72.5827 11.1058 72.6652 11.0217C72.7477 10.9377 72.7939 10.8247 72.7939 10.7069C72.7939 10.5892 72.7477 10.4761 72.6652 10.3921C72.5827 10.308 72.4705 10.2597 72.3528 10.2576L60.8088 10.2576C60.7499 10.2573 60.6914 10.2687 60.6369 10.2911C60.5824 10.3135 60.5328 10.3465 60.491 10.3881C60.4493 10.4297 60.4162 10.4792 60.3936 10.5336C60.371 10.5881 60.3595 10.6465 60.3595 10.7055Z" fill="black"/>
            <path opacity="0.54" d="M42.274 3.01194C42.2739 3.07135 42.2856 3.13019 42.3083 3.18507C42.3311 3.23995 42.3645 3.28979 42.4066 3.3317L57.7977 18.7207C57.8392 18.7628 57.8888 18.7961 57.9435 18.8186C57.9982 18.841 58.0569 18.8522 58.1161 18.8515L73.5071 18.8515C73.5663 18.8522 73.625 18.841 73.6797 18.8185C73.7344 18.796 73.784 18.7628 73.8255 18.7207L81.3898 11.1572L96.595 11.1572C96.6542 11.1573 96.7128 11.1458 96.7674 11.1231C96.8221 11.1005 96.8718 11.0673 96.9135 11.0254C96.9553 10.9835 96.9883 10.9337 97.0108 10.879C97.0332 10.8242 97.0446 10.7656 97.0443 10.7064L97.0443 3.19795L104.475 -4.23173L135.073 -4.23173C135.192 -4.23173 135.307 -4.27909 135.391 -4.36335C135.475 -4.4476 135.522 -4.56182 135.522 -4.68097C135.522 -4.80012 135.475 -4.91439 135.391 -4.99865C135.307 -5.0829 135.192 -5.13026 135.073 -5.13026L104.29 -5.13026C104.231 -5.13085 104.173 -5.11955 104.118 -5.09707C104.063 -5.07459 104.014 -5.04137 103.972 -4.99939L96.2759 2.69659C96.2341 2.73776 96.201 2.78688 96.1785 2.84104C96.156 2.8952 96.1446 2.9533 96.145 3.01194L96.145 10.2585L81.2038 10.2585C81.1446 10.2585 81.086 10.2702 81.0314 10.2929C80.9768 10.3156 80.9272 10.349 80.8855 10.391L73.3204 17.953L58.3027 17.953L43.0424 2.69659C43.0009 2.6545 42.9514 2.62112 42.8968 2.59831C42.8422 2.5755 42.7837 2.56372 42.7245 2.56372C42.6654 2.56372 42.6068 2.5755 42.5522 2.59831C42.4976 2.62112 42.4481 2.6545 42.4066 2.69659C42.3643 2.73749 42.3308 2.78652 42.308 2.84071C42.2853 2.89491 42.2737 2.95315 42.274 3.01194Z" fill="black"/>
            <path opacity="0.83" d="M73.0575 56.8834C73.0573 56.9726 73.0834 57.0599 73.1328 57.1342C73.1821 57.2086 73.2524 57.2666 73.3347 57.301C73.4171 57.3354 73.5077 57.3447 73.5953 57.3275C73.6829 57.3104 73.7634 57.2677 73.8267 57.2048L89.0869 41.9407L96.4094 41.9407L103.974 49.5073C104.058 49.591 104.172 49.6381 104.291 49.6383L149.176 49.6383C149.235 49.6385 149.293 49.6271 149.348 49.6046C149.402 49.5821 149.452 49.549 149.494 49.5072C149.536 49.4655 149.569 49.4159 149.591 49.3613C149.614 49.3066 149.625 49.2481 149.625 49.189C149.625 49.1297 149.614 49.071 149.592 49.0161C149.569 48.9612 149.536 48.9113 149.494 48.8693C149.453 48.8272 149.403 48.7939 149.348 48.7711C149.294 48.7484 149.235 48.7367 149.176 48.7367L104.477 48.7367L96.9115 41.1746C96.8275 41.0913 96.7145 41.0438 96.5962 41.0422L88.9002 41.0422C88.7808 41.0432 88.6666 41.0907 88.5818 41.1746L73.1907 56.568C73.1489 56.6093 73.1156 56.6583 73.0927 56.7124C73.0699 56.7665 73.0579 56.8246 73.0575 56.8834Z" fill="black"/>
            <path opacity="0.83" d="M70.317 49.6451C70.3167 49.7343 70.3429 49.8216 70.3922 49.8959C70.4416 49.9703 70.5119 50.0284 70.5942 50.0628C70.6765 50.0972 70.7672 50.1064 70.8548 50.0893C70.9424 50.0721 71.0229 50.0294 71.0862 49.9665L86.3464 34.7024L108.827 34.7024L116.392 42.269C116.476 42.3527 116.59 42.3998 116.709 42.4L161.594 42.4C161.653 42.4003 161.711 42.3888 161.766 42.3663C161.82 42.3438 161.87 42.3107 161.912 42.269C161.954 42.2272 161.987 42.1776 162.009 42.123C162.032 42.0684 162.043 42.0098 162.043 41.9507C162.043 41.8915 162.032 41.8327 162.01 41.7778C161.987 41.723 161.954 41.6731 161.912 41.631C161.871 41.589 161.821 41.5556 161.766 41.5329C161.712 41.5101 161.653 41.4984 161.594 41.4985L116.894 41.4985L109.329 33.9363C109.245 33.853 109.132 33.8056 109.014 33.804L86.1596 33.804C86.0403 33.8049 85.9261 33.8524 85.8412 33.9363L70.4501 49.3297C70.4083 49.371 70.375 49.42 70.3522 49.4741C70.3293 49.5282 70.3174 49.5863 70.317 49.6451Z" fill="black"/>
            <path opacity="0.25" d="M52.148 42.7978L52.148 49.1874C52.1478 49.2465 52.1593 49.305 52.1818 49.3596C52.2043 49.4142 52.2374 49.4638 52.2792 49.5055C52.3209 49.5473 52.3705 49.5804 52.4251 49.6029C52.4797 49.6254 52.5382 49.6369 52.5973 49.6367L60.2925 49.6367C60.3516 49.637 60.4102 49.6255 60.4648 49.603C60.5195 49.5805 60.5692 49.5475 60.611 49.5057C60.6528 49.4639 60.686 49.4143 60.7086 49.3597C60.7311 49.3051 60.7427 49.2465 60.7425 49.1874L60.7425 41.9391L66.4502 41.9391C66.5693 41.9391 66.6836 41.8918 66.7678 41.8076C66.8521 41.7233 66.8994 41.6091 66.8994 41.4899C66.8994 41.3708 66.8521 41.2565 66.7678 41.1722C66.6836 41.088 66.5693 41.0407 66.4502 41.0407L60.2925 41.0407C60.2333 41.0407 60.1746 41.0524 60.1199 41.0752C60.0652 41.098 60.0155 41.1313 59.9738 41.1733C59.932 41.2154 59.899 41.2653 59.8766 41.3201C59.8542 41.375 59.8429 41.4337 59.8432 41.493L59.8432 48.7352L53.0465 48.7352L53.0465 42.7978C53.0465 42.6786 52.9992 42.5644 52.9149 42.4801C52.8307 42.3959 52.7164 42.3485 52.5973 42.3485C52.4781 42.3485 52.3638 42.3959 52.2796 42.4801C52.1953 42.5644 52.148 42.6786 52.148 42.7978Z" fill="black"/>
            <path opacity="0.34" d="M19.1905 3.01549C19.1906 3.13472 19.2381 3.24902 19.3225 3.33326C19.4069 3.41749 19.5213 3.4648 19.6405 3.46478L27.1497 3.46478L57.7997 34.1161C57.8413 34.1583 57.8908 34.1919 57.9455 34.2149C58.0001 34.2379 58.0588 34.2498 58.1181 34.25L73.5092 34.25C73.5684 34.2498 73.6271 34.2378 73.6817 34.2148C73.7364 34.1919 73.7859 34.1583 73.8276 34.1161L81.3918 26.5496L88.901 26.5496C88.96 26.55 89.0185 26.5387 89.0731 26.5162C89.1276 26.4937 89.1771 26.4606 89.2186 26.4187L96.7829 18.8551L111.798 18.8551L119.366 26.4187C119.407 26.4606 119.456 26.4937 119.511 26.5162C119.565 26.5387 119.623 26.55 119.682 26.5496L127.19 26.5496L134.758 34.1161C134.799 34.1582 134.849 34.1918 134.903 34.2148C134.958 34.2377 135.016 34.2497 135.075 34.25L158.786 34.25C158.845 34.2503 158.903 34.239 158.958 34.2166C159.013 34.1941 159.063 34.1611 159.105 34.1193C159.146 34.0775 159.18 34.0279 159.202 33.9732C159.225 33.9185 159.236 33.8599 159.236 33.8007C159.236 33.7416 159.225 33.6831 159.202 33.6285C159.179 33.5738 159.146 33.5243 159.104 33.4825C159.062 33.4408 159.013 33.4077 158.958 33.3852C158.903 33.3627 158.845 33.3513 158.786 33.3515L135.261 33.3515L127.697 25.785C127.655 25.7426 127.605 25.709 127.55 25.686C127.495 25.663 127.437 25.6511 127.377 25.6511L119.868 25.6511L112.303 18.0875C112.219 18.0037 112.104 17.9567 111.985 17.9566L96.597 17.9566C96.4776 17.9565 96.3629 18.0036 96.2779 18.0875L88.7158 25.6511L81.2058 25.6511C81.1465 25.6513 81.0879 25.6632 81.0333 25.6862C80.9786 25.7092 80.9291 25.7428 80.8875 25.785L73.3224 33.3515L58.3047 33.3515L27.6549 2.70015C27.6131 2.65763 27.5633 2.6238 27.5084 2.60056C27.4535 2.57732 27.3946 2.56513 27.335 2.56472L19.6405 2.56472C19.5813 2.56475 19.5228 2.57644 19.4681 2.59912C19.4135 2.62179 19.3639 2.65503 19.3221 2.69689C19.2803 2.73875 19.2471 2.78843 19.2246 2.8431C19.202 2.89778 19.1904 2.95634 19.1905 3.01549Z" fill="black"/>
            <path opacity="0.83" d="M41.8077 56.8742C41.8073 56.9336 41.8187 56.9924 41.8412 57.0474C41.8637 57.1023 41.8968 57.1523 41.9388 57.1943C41.9807 57.2364 42.0305 57.2698 42.0854 57.2924C42.1403 57.3151 42.1991 57.3267 42.2585 57.3265L65.1588 57.3265L87.9833 80.1481L87.9833 87.6594C87.9829 87.7185 87.9944 87.7771 88.0168 87.8318C88.0393 87.8864 88.0725 87.9361 88.1143 87.9778L95.8109 95.6708C95.8949 95.7552 96.0087 95.8032 96.1278 95.8047L111.52 95.8047C111.64 95.8033 111.753 95.7552 111.837 95.6708L127.097 80.4113L165.39 80.4113C165.509 80.4113 165.624 80.3639 165.708 80.2795C165.792 80.1951 165.84 80.0806 165.84 79.9613C165.84 79.8419 165.792 79.7275 165.708 79.6431C165.624 79.5587 165.509 79.5113 165.39 79.5113L126.912 79.5113C126.852 79.5111 126.793 79.5228 126.738 79.5458C126.684 79.5688 126.634 79.6026 126.592 79.6452L111.334 94.9062L96.3145 94.9062L88.8819 87.4736L88.8819 79.9605C88.8818 79.9018 88.87 79.8436 88.8472 79.7895C88.8243 79.7353 88.7909 79.6862 88.7488 79.6452L65.664 56.5589C65.6221 56.517 65.5723 56.4838 65.5175 56.4614C65.4627 56.4389 65.404 56.4276 65.3448 56.428L42.2585 56.428C42.1995 56.4275 42.1411 56.4387 42.0865 56.4609C42.0318 56.483 41.9821 56.5158 41.9403 56.5573C41.8984 56.5987 41.8651 56.6481 41.8423 56.7025C41.8196 56.7569 41.8078 56.8153 41.8077 56.8742Z" fill="black"/>
            <path opacity="0.58" d="M-98.4484 3.39701C-98.448 3.51589 -98.4005 3.62977 -98.3163 3.7137C-98.2321 3.79764 -98.118 3.84482 -97.9992 3.8449L-80.5914 3.8449L-73.0264 11.4099C-72.9846 11.4522 -72.935 11.4857 -72.8802 11.5087C-72.8254 11.5317 -72.7666 11.5436 -72.7072 11.5438L-64.8217 11.5438L-57.6441 19.0984C-57.6017 19.1424 -57.5509 19.1775 -57.4947 19.2015C-57.4385 19.2256 -57.378 19.238 -57.3169 19.2383L-34.2298 19.2383C-34.1106 19.2373 -33.9966 19.1898 -33.9122 19.1058L-26.3479 11.5438L-11.1412 11.5438C-11.0222 11.5428 -10.9085 11.4947 -10.8251 11.4099L-3.26236 3.84491L4.24611 3.84491C4.30537 3.84565 4.36417 3.8346 4.4191 3.81236C4.47403 3.79013 4.52397 3.75718 4.56603 3.71543L12.1281 -3.84806L50.2337 -3.84806L57.7979 3.71543C57.8397 3.75706 57.8894 3.78995 57.9441 3.81218C57.9988 3.83441 58.0573 3.84552 58.1163 3.84491L81.204 3.84491C81.2628 3.84537 81.3211 3.83418 81.3755 3.81195C81.4299 3.78972 81.4794 3.75692 81.521 3.71543L89.086 -3.84805L96.5953 -3.84805C96.7135 -3.84844 96.8269 -3.89552 96.9106 -3.97906L104.476 -11.5456L150.463 -11.5456L165.859 -11.6437C165.917 -11.6435 165.976 -11.6548 166.03 -11.6772C166.084 -11.6995 166.133 -11.7324 166.175 -11.7739C166.217 -11.8154 166.249 -11.8647 166.272 -11.9189C166.294 -11.9732 166.306 -12.0313 166.306 -12.09L166.306 -12.0931C166.306 -12.1524 166.294 -12.211 166.271 -12.2657C166.248 -12.3204 166.215 -12.3701 166.173 -12.4118C166.13 -12.4535 166.081 -12.4866 166.026 -12.509C165.971 -12.5314 165.912 -12.5427 165.853 -12.5423L104.29 -12.4441C104.231 -12.4443 104.173 -12.4329 104.118 -12.4104C104.064 -12.3879 104.014 -12.3549 103.973 -12.3132L96.4085 -4.74821L88.8993 -4.74821C88.84 -4.74874 88.7812 -4.73729 88.7265 -4.71451C88.6718 -4.69173 88.6223 -4.6581 88.5809 -4.61567L81.0174 2.94624L58.3029 2.94624L50.7379 -4.61567C50.6965 -4.65798 50.6469 -4.69155 50.5922 -4.71432C50.5375 -4.73709 50.4788 -4.7486 50.4195 -4.74821L11.9421 -4.74822C11.883 -4.74853 11.8244 -4.73695 11.7698 -4.71418C11.7153 -4.69142 11.6658 -4.65791 11.6245 -4.61567L4.06026 2.94624L-3.44897 2.94624C-3.56763 2.94721 -3.68115 2.99477 -3.76509 3.07864L-11.3272 10.6423L-26.5338 10.6423C-26.5928 10.6423 -26.6511 10.654 -26.7055 10.6768C-26.7599 10.6995 -26.8093 10.7327 -26.8508 10.7746L-34.4151 18.3396L-57.1234 18.3396L-64.301 10.785C-64.343 10.7402 -64.3937 10.7045 -64.4499 10.6799C-64.5062 10.6554 -64.5668 10.6426 -64.6282 10.6423L-72.522 10.6423L-80.0863 3.07864C-80.1708 2.99413 -80.2853 2.94651 -80.4048 2.94623L-97.9992 2.94623C-98.1185 2.94648 -98.2328 2.99411 -98.3171 3.07864C-98.4013 3.16316 -98.4486 3.27767 -98.4484 3.39701Z" fill="black"/>
        </g>
        <g opacity="0.3">
            <path d="M41.3524 -0.639834C41.626 -0.640112 41.897 -0.586455 42.1498 -0.481996C42.4027 -0.377537 42.6325 -0.224321 42.8261 -0.0310333C43.0197 0.162255 43.1734 0.391802 43.2783 0.644481C43.3832 0.897161 43.4373 1.16803 43.4375 1.44162C43.4376 1.7155 43.3838 1.98675 43.279 2.23982C43.1743 2.49289 43.0207 2.72281 42.8271 2.9165C42.6335 3.11019 42.4036 3.26386 42.1505 3.36867C41.8975 3.47348 41.6263 3.52739 41.3524 3.52734C41.0786 3.52723 40.8076 3.47318 40.5547 3.3683C40.3018 3.26341 40.0721 3.10976 39.8786 2.91608C39.6851 2.7224 39.5317 2.49248 39.427 2.2395C39.3224 1.98651 39.2687 1.71538 39.2688 1.44162C39.2691 0.889311 39.4888 0.359771 39.8796 -0.0305685C40.2703 -0.420907 40.8001 -0.64008 41.3524 -0.639834Z" fill="black"/>
            <path opacity="0.76" d="M-13.9253 -8.04943C-13.9254 -7.93089 -13.8789 -7.81704 -13.7958 -7.73254L-4.30502 1.82313C-4.2633 1.86563 -4.21351 1.89935 -4.15857 1.92234C-4.10364 1.94534 -4.04466 1.95713 -3.9851 1.95703L41.4824 1.95703C41.5414 1.95727 41.6 1.94581 41.6546 1.92332C41.7092 1.90083 41.7588 1.86773 41.8006 1.82597C41.8423 1.7842 41.8754 1.7346 41.8979 1.67999C41.9204 1.62537 41.9319 1.56685 41.9316 1.50778C41.9319 1.44864 41.9205 1.38998 41.898 1.33526C41.8756 1.28054 41.8425 1.23084 41.8008 1.18895C41.759 1.14705 41.7094 1.11382 41.6548 1.09118C41.6001 1.06853 41.5415 1.05688 41.4824 1.05696L-3.7962 1.05696L-13.1576 -8.3678C-13.2423 -8.4513 -13.3564 -8.49823 -13.4753 -8.49848C-13.5943 -8.49874 -13.7086 -8.45233 -13.7936 -8.36919C-13.8774 -8.28375 -13.9246 -8.16907 -13.9253 -8.04943Z" fill="black"/>
            <path d="M29.3405 37.673C29.3413 38.2269 29.5618 38.758 29.9536 39.1496C30.3455 39.5412 30.8767 39.7613 31.4307 39.7617C31.9849 39.7615 32.5163 39.5415 32.9085 39.1499C33.3007 38.7583 33.5215 38.2272 33.5225 37.673C33.5214 37.1188 33.3006 36.5876 32.9085 36.196C32.5163 35.8045 31.9848 35.5844 31.4307 35.5842C30.8767 35.5846 30.3455 35.8048 29.9537 36.1964C29.5618 36.588 29.3413 37.119 29.3405 37.673ZM32.6767 37.673C32.676 38.0029 32.5444 38.319 32.3108 38.552C32.0771 38.7849 31.7606 38.9156 31.4307 38.9153C31.101 38.9153 30.7848 38.7844 30.5515 38.5515C30.3182 38.3186 30.1869 38.0026 30.1863 37.673C30.1872 37.3434 30.3186 37.0276 30.5518 36.7948C30.7851 36.5619 31.1011 36.431 31.4307 36.4308C31.7605 36.4307 32.0769 36.5614 32.3105 36.7943C32.544 37.0272 32.6757 37.3431 32.6767 37.673Z" fill="black"/>
            <path d="M30.7577 14.5916C30.7583 15.0835 30.9541 15.5549 31.3021 15.9025C31.6501 16.2501 32.1218 16.4453 32.6137 16.4453C32.8576 16.4459 33.0993 16.3984 33.325 16.3055C33.5506 16.2127 33.7557 16.0763 33.9286 15.9042C34.1015 15.732 34.2388 15.5275 34.3326 15.3023C34.4265 15.0771 34.4751 14.8356 34.4756 14.5916C34.475 14.0982 34.2786 13.6252 33.9295 13.2765C33.5804 12.9278 33.1071 12.7319 32.6137 12.732C32.1211 12.733 31.6491 12.9294 31.3012 13.2781C30.9532 13.6267 30.7578 14.0991 30.7577 14.5916ZM34.0909 14.5916C34.0894 14.9823 33.9331 15.3564 33.6561 15.6319C33.3792 15.9074 33.0043 16.0619 32.6137 16.0614C32.2238 16.0611 31.8499 15.9061 31.574 15.6306C31.298 15.3552 31.1426 14.9815 31.1416 14.5916C31.1413 14.2008 31.2962 13.8258 31.5722 13.5491C31.8482 13.2723 32.2228 13.1164 32.6137 13.1157C33.0053 13.1156 33.3809 13.271 33.6579 13.5478C33.9349 13.8246 34.0907 14.2 34.0909 14.5916Z" fill="black"/>
            <path d="M30.5276 14.5979C30.5287 15.151 30.749 15.6811 31.1403 16.072C31.5315 16.463 32.0617 16.6829 32.6148 16.6836C33.1687 16.6837 33.7001 16.4643 34.0924 16.0733C34.4848 15.6823 34.7062 15.1518 34.708 14.5979C34.7074 14.043 34.4867 13.5111 34.0942 13.1189C33.7017 12.7267 33.1697 12.5063 32.6148 12.506C32.0608 12.5071 31.5298 12.728 31.1385 13.1202C30.7472 13.5124 30.5275 14.0438 30.5276 14.5979ZM33.8608 14.5979C33.8592 14.9271 33.7272 15.2422 33.4936 15.4743C33.2601 15.7063 32.944 15.8362 32.6148 15.8356C32.2863 15.8355 31.9713 15.7052 31.7387 15.4732C31.5062 15.2411 31.3751 14.9264 31.3742 14.5979C31.3738 14.2684 31.5043 13.9524 31.737 13.7191C31.9696 13.4859 32.2854 13.3546 32.6148 13.3541C32.945 13.3539 33.2617 13.4848 33.4954 13.718C33.729 13.9513 33.8605 14.2677 33.8608 14.5979Z" fill="black"/>
            <path d="M14.7383 45.3747C14.7392 45.8675 14.9353 46.3399 15.2837 46.6884C15.6321 47.037 16.1044 47.2333 16.5972 47.2344C17.09 47.2334 17.5624 47.0371 17.9108 46.6885C18.2592 46.34 18.4553 45.8676 18.4561 45.3747C18.4558 44.8817 18.2599 44.409 17.9114 44.0603C17.5628 43.7116 17.0902 43.5155 16.5972 43.5151C16.1042 43.5157 15.6316 43.7118 15.2831 44.0604C14.9346 44.4091 14.7387 44.8818 14.7383 45.3747ZM18.0715 45.3747C18.0711 45.7657 17.9156 46.1406 17.6393 46.4172C17.3629 46.6938 16.9882 46.8496 16.5972 46.8505C16.2063 46.8493 15.8317 46.6935 15.5554 46.4169C15.2791 46.1404 15.1236 45.7657 15.1228 45.3747C15.1234 44.9839 15.2789 44.6092 15.5552 44.3328C15.8316 44.0564 16.2063 43.9009 16.5972 43.9004C16.9881 43.9006 17.363 44.0561 17.6394 44.3325C17.9158 44.6089 18.0713 44.9838 18.0715 45.3747Z" fill="black"/>
            <path d="M14.5069 45.3732C14.5074 45.9276 14.7277 46.4591 15.1196 46.8513C15.5115 47.2434 16.0429 47.464 16.5972 47.4648C17.1516 47.464 17.683 47.2434 18.0748 46.8513C18.4667 46.4591 18.687 45.9276 18.6875 45.3732C18.6867 44.8191 18.4663 44.2878 18.0744 43.896C17.6826 43.5042 17.1514 43.2837 16.5972 43.2829C16.0431 43.2837 15.5118 43.5042 15.12 43.896C14.7282 44.2878 14.5077 44.8191 14.5069 45.3732ZM17.8409 45.3732C17.8406 45.703 17.7094 46.0191 17.4763 46.2523C17.2431 46.4854 16.927 46.6166 16.5972 46.6169C16.2675 46.6166 15.9513 46.4854 15.7182 46.2523C15.485 46.0191 15.3539 45.703 15.3535 45.3732C15.3541 45.0435 15.4853 44.7275 15.7185 44.4944C15.9516 44.2613 16.2676 44.1301 16.5972 44.1295C16.9269 44.1301 17.2429 44.2613 17.476 44.4944C17.7091 44.7275 17.8403 45.0435 17.8409 45.3732Z" fill="black"/>
            <path d="M21.1444 29.9827C21.1448 30.4763 21.3411 30.9496 21.6902 31.2985C22.0393 31.6475 22.5126 31.8436 23.0062 31.8437C23.4994 31.843 23.9721 31.6466 24.3206 31.2977C24.6691 30.9488 24.865 30.4759 24.8652 29.9827C24.8647 29.4899 24.6686 29.0175 24.3201 28.6691C23.9715 28.3207 23.499 28.1248 23.0062 28.1245C22.513 28.1242 22.0398 28.3198 21.6907 28.6683C21.3416 29.0167 21.1451 29.4895 21.1444 29.9827ZM24.4806 29.9827C24.48 30.3737 24.3245 30.7485 24.0481 31.025C23.7718 31.3016 23.3972 31.4575 23.0062 31.4585C22.6148 31.4581 22.2395 31.3026 21.9626 31.0259C21.6857 30.7493 21.5297 30.3741 21.5289 29.9827C21.5298 29.5916 21.6859 29.2169 21.9629 28.9407C22.2399 28.6646 22.6151 28.5096 23.0062 28.5099C23.3969 28.5102 23.7715 28.6655 24.0478 28.9415C24.3242 29.2176 24.4798 29.5921 24.4806 29.9827Z" fill="black"/>
            <path d="M20.9132 29.9825C20.9141 30.5373 21.1349 31.0691 21.5273 31.4612C21.9197 31.8533 22.4517 32.0738 23.0064 32.0742C23.5607 32.0733 24.0921 31.8526 24.4839 31.4605C24.8758 31.0684 25.0961 30.5369 25.0967 29.9825C25.0958 29.4286 24.8752 28.8976 24.4834 28.506C24.0915 28.1145 23.5604 27.8943 23.0064 27.8938C22.452 27.8938 21.9203 28.1137 21.5279 28.5053C21.1355 28.8969 20.9144 29.4282 20.9132 29.9825ZM24.2495 29.9825C24.2492 30.3122 24.1181 30.6283 23.8851 30.8615C23.6521 31.0946 23.336 31.2258 23.0064 31.2263C22.6764 31.2262 22.3598 31.0953 22.1262 30.8621C21.8927 30.6289 21.7612 30.3126 21.7605 29.9825C21.7612 29.6526 21.8928 29.3365 22.1264 29.1036C22.36 28.8706 22.6765 28.7399 23.0064 28.7402C23.3359 28.7404 23.6519 28.8713 23.885 29.1042C24.118 29.3372 24.2491 29.653 24.2495 29.9825Z" fill="black"/>
            <path d="M26.2313 50.9868C26.5052 50.9867 26.7765 51.0405 27.0296 51.1453C27.2827 51.25 27.5126 51.4037 27.7063 51.5974C27.9 51.7911 28.0535 52.0211 28.1582 52.2742C28.2629 52.5273 28.3167 52.7986 28.3164 53.0726C28.3157 53.6249 28.0956 54.1542 27.7046 54.5442C27.3135 54.9343 26.7836 55.153 26.2313 55.1523C25.6793 55.1527 25.1497 54.9338 24.7589 54.5438C24.3682 54.1538 24.1484 53.6246 24.1477 53.0726C24.1474 52.7988 24.2011 52.5276 24.3057 52.2745C24.4103 52.0215 24.5637 51.7915 24.7572 51.5978C24.9507 51.4041 25.1805 51.2504 25.4334 51.1456C25.6864 51.0408 25.9575 50.9868 26.2313 50.9868Z" fill="black"/>
            <path d="M2.18665 35.5947C2.5987 35.5951 3.0014 35.7175 3.34383 35.9467C3.68627 36.1759 3.95307 36.5014 4.1105 36.8822C4.26792 37.263 4.3089 37.6819 4.22826 38.086C4.14762 38.49 3.94898 38.8611 3.65745 39.1523C3.36592 39.4435 2.99459 39.6417 2.59042 39.7219C2.18625 39.8021 1.76738 39.7606 1.38678 39.6027C1.00618 39.4449 0.68093 39.1777 0.452163 38.835C0.223396 38.4923 0.101382 38.0895 0.101548 37.6774C0.101911 37.1247 0.321786 36.5948 0.71281 36.2042C1.10383 35.8137 1.63398 35.5945 2.18665 35.5947Z" fill="black"/>
            <path d="M37.2338 60.7597C37.2337 61.3139 37.4536 61.8454 37.8451 62.2376C38.2365 62.6298 38.7677 62.8506 39.3218 62.8516C39.8762 62.8516 40.4079 62.6313 40.7999 62.2393C41.1919 61.8473 41.4121 61.3157 41.4121 60.7613C41.4121 60.2069 41.1919 59.6752 40.7999 59.2832C40.4079 58.8912 39.8762 58.671 39.3218 58.671C38.7682 58.6717 38.2374 58.892 37.8459 59.2836C37.4545 59.6752 37.2344 60.2061 37.2338 60.7597ZM40.5678 60.7597C40.5677 61.0904 40.4364 61.4074 40.2028 61.6414C39.9693 61.8754 39.6524 62.0072 39.3218 62.008C38.9919 62.0065 38.676 61.8743 38.4435 61.6403C38.2109 61.4063 38.0805 61.0897 38.081 60.7597C38.081 60.4304 38.2116 60.1144 38.4442 59.8813C38.6768 59.6481 38.9925 59.5167 39.3218 59.516C39.6519 59.516 39.9685 59.647 40.2021 59.8802C40.4357 60.1134 40.5672 60.4297 40.5678 60.7597Z" fill="black"/>
            <path d="M35.9173 20.4847C36.33 20.484 36.7336 20.6056 37.0771 20.8344C37.4206 21.0631 37.6885 21.3886 37.847 21.7697C38.0054 22.1507 38.0473 22.5702 37.9672 22.9751C37.8872 23.3799 37.6888 23.7519 37.3973 24.044C37.1057 24.3361 36.7341 24.5351 36.3294 24.6159C35.9247 24.6967 35.5051 24.6556 35.1238 24.4978C34.7424 24.3401 34.4164 24.0728 34.1871 23.7297C33.9577 23.3866 33.8353 22.9832 33.8353 22.5705C33.8357 22.0181 34.0551 21.4885 34.4454 21.0975C34.8356 20.7065 35.3649 20.4862 35.9173 20.4847Z" fill="black"/>
            <path d="M41.3524 -0.257025C41.9052 -0.256932 42.4354 -0.0373056 42.8264 0.353542C43.2174 0.74439 43.4372 1.27446 43.4375 1.82731C43.4377 2.10108 43.3839 2.3722 43.2791 2.62514C43.1744 2.87808 43.0208 3.10788 42.8271 3.30135C42.6334 3.49483 42.4034 3.64817 42.1504 3.75264C41.8973 3.85711 41.6262 3.91065 41.3524 3.91015C41.0787 3.91049 40.8077 3.85686 40.5548 3.75232C40.3019 3.64777 40.0721 3.49435 39.8786 3.30089C39.6851 3.10742 39.5316 2.87772 39.4269 2.62486C39.3223 2.372 39.2686 2.10096 39.2688 1.82731C39.269 1.2747 39.4886 0.744783 39.8793 0.35396C40.27 -0.036862 40.7998 -0.256613 41.3524 -0.257025Z" fill="black"/>
            <path opacity="0.78" d="M1.73263 37.6727C1.7323 37.7321 1.74372 37.7909 1.76624 37.8459C1.78876 37.9008 1.82192 37.9507 1.86382 37.9927C1.90573 38.0348 1.95554 38.0681 2.0104 38.0908C2.06524 38.1135 2.12404 38.1251 2.18341 38.125L29.7611 38.125C29.8202 38.1249 29.8788 38.1131 29.9334 38.0903C29.9879 38.0674 30.0375 38.034 30.0791 37.992C30.1207 37.95 30.1536 37.9001 30.1759 37.8453C30.1982 37.7905 30.2094 37.7319 30.209 37.6727C30.2089 37.614 30.1973 37.5558 30.1748 37.5016C30.1522 37.4474 30.1192 37.3981 30.0776 37.3567C30.036 37.3152 29.9866 37.2824 29.9323 37.2601C29.878 37.2377 29.8198 37.2263 29.7611 37.2265L2.18341 37.2265C2.12448 37.2261 2.06604 37.2373 2.01145 37.2595C1.95687 37.2817 1.9072 37.3145 1.86532 37.3559C1.82343 37.3974 1.79015 37.4467 1.76738 37.5011C1.74461 37.5554 1.7328 37.6138 1.73263 37.6727Z" fill="black"/>
            <path opacity="0.96" d="M-39.3822 29.9792C-39.382 30.0983 -39.335 30.2127 -39.2513 30.2974L-31.5561 37.995C-31.4711 38.0789 -31.3564 38.1259 -31.2369 38.1258L-8.33891 38.1258L-0.77453 45.6894C-0.732986 45.7313 -0.683481 45.7645 -0.628933 45.787C-0.574384 45.8094 -0.51589 45.8208 -0.456896 45.8203L14.9357 45.8203C14.9948 45.8204 15.0533 45.8088 15.1078 45.7863C15.1624 45.7637 15.212 45.7306 15.2538 45.6889C15.2956 45.6472 15.3288 45.5977 15.3514 45.5431C15.374 45.4886 15.3857 45.4301 15.3857 45.3711C15.386 45.3119 15.3745 45.2534 15.3519 45.1987C15.3294 45.1441 15.2962 45.0944 15.2544 45.0526C15.2125 45.0109 15.1628 44.9778 15.1081 44.9553C15.0534 44.9329 14.9948 44.9215 14.9357 44.9218L-0.2718 44.9218L-7.83222 37.3582C-7.87424 37.3163 -7.92416 37.2832 -7.97907 37.2607C-8.03398 37.2382 -8.09281 37.2269 -8.15214 37.2273L-31.0511 37.2273L-38.6153 29.6608C-38.6781 29.5978 -38.7582 29.5548 -38.8455 29.5374C-38.9328 29.52 -39.0233 29.5289 -39.1055 29.563C-39.1876 29.5972 -39.2578 29.6549 -39.3071 29.729C-39.3564 29.8031 -39.3825 29.8902 -39.3822 29.9792Z" fill="black"/>
            <path opacity="0.37" d="M-45.6623 39.1015C-45.662 39.2199 -45.615 39.3332 -45.5315 39.417L-39.2548 45.6952C-39.2133 45.7374 -39.1637 45.7707 -39.109 45.7932C-39.0543 45.8157 -38.9956 45.8269 -38.9364 45.8261L-23.732 45.8261L-16.17 53.3895C-16.1285 53.4316 -16.079 53.4651 -16.0245 53.4881C-15.97 53.5111 -15.9115 53.5231 -15.8524 53.5234L26.4746 53.5234C26.5336 53.5236 26.5921 53.512 26.6466 53.4895C26.7012 53.467 26.7508 53.4339 26.7925 53.3921C26.8343 53.3504 26.8673 53.3008 26.8899 53.2463C26.9124 53.1917 26.9239 53.1332 26.9238 53.0742C26.9236 52.9551 26.8761 52.841 26.7919 52.7568C26.7078 52.6726 26.5936 52.6252 26.4746 52.6249L-15.6671 52.6249L-23.227 45.0584C-23.3117 44.9745 -23.4261 44.9275 -23.5453 44.9276L-38.7497 44.9276L-44.8954 38.7831C-44.937 38.7411 -44.9866 38.7077 -45.0412 38.6849C-45.0957 38.6622 -45.1543 38.6504 -45.2134 38.6504C-45.2726 38.6504 -45.3312 38.6622 -45.3857 38.6849C-45.4403 38.7077 -45.4899 38.7411 -45.5315 38.7831C-45.5734 38.8248 -45.6066 38.8744 -45.6291 38.9291C-45.6516 38.9838 -45.6629 39.0424 -45.6623 39.1015Z" fill="black"/>
            <path opacity="0.83" d="M-54.7794 37.6802C-54.7797 37.7695 -54.7535 37.8568 -54.7041 37.9311C-54.6548 38.0055 -54.5845 38.0635 -54.5022 38.0979C-54.4199 38.1323 -54.3292 38.1415 -54.2416 38.1244C-54.154 38.1073 -54.0735 38.0646 -54.0102 38.0017L-38.75 22.7376L-31.4275 22.7376L-23.8633 30.3042C-23.7787 30.3879 -23.6646 30.435 -23.5457 30.4352L21.3387 30.4352C21.3977 30.4354 21.4563 30.424 21.5109 30.4015C21.5655 30.379 21.6152 30.3459 21.6569 30.3041C21.6987 30.2624 21.7318 30.2127 21.7543 30.1581C21.7768 30.1035 21.7883 30.045 21.7881 29.9859C21.7885 29.9266 21.7772 29.8679 21.7548 29.813C21.7324 29.7581 21.6993 29.7082 21.6576 29.6662C21.6158 29.6241 21.5661 29.5908 21.5114 29.568C21.4566 29.5453 21.3979 29.5336 21.3387 29.5336L-23.3604 29.5336L-30.9254 21.9715C-31.0094 21.8882 -31.1224 21.8407 -31.2407 21.8391L-38.9367 21.8391C-39.0561 21.8401 -39.1703 21.8876 -39.2551 21.9715L-54.6462 37.3649C-54.6881 37.4061 -54.7213 37.4552 -54.7442 37.5093C-54.767 37.5634 -54.779 37.6215 -54.7794 37.6802Z" fill="black"/>
            <path opacity="0.83" d="M-42.3624 30.442C-42.3627 30.5312 -42.3365 30.6185 -42.2871 30.6928C-42.2378 30.7672 -42.1675 30.8252 -42.0852 30.8596C-42.0029 30.894 -41.9122 30.9033 -41.8246 30.8861C-41.737 30.869 -41.6565 30.8263 -41.5932 30.7634L-26.333 15.4993L-19.0105 15.4993L-11.4463 23.0659C-11.3618 23.1496 -11.2476 23.1967 -11.1287 23.1969L33.7557 23.1969C33.8147 23.1971 33.8733 23.1857 33.9279 23.1632C33.9825 23.1407 34.0321 23.1076 34.0739 23.0658C34.1157 23.0241 34.1488 22.9745 34.1713 22.9199C34.1938 22.8652 34.2053 22.8067 34.2051 22.7476C34.2055 22.6883 34.1942 22.6296 34.1718 22.5747C34.1494 22.5198 34.1163 22.4699 34.0746 22.4279C34.0328 22.3858 33.9831 22.3525 33.9284 22.3297C33.8736 22.307 33.8149 22.2953 33.7557 22.2953L-10.9434 22.2953L-18.5084 14.7332C-18.5924 14.6499 -18.7054 14.6024 -18.8237 14.6008L-26.5198 14.6008C-26.6391 14.6018 -26.7533 14.6493 -26.8381 14.7332L-42.2292 30.1266C-42.2711 30.1678 -42.3044 30.2169 -42.3272 30.271C-42.35 30.3251 -42.362 30.3832 -42.3624 30.442Z" fill="black"/>
            <path opacity="0.34" d="M-108.646 -16.1876C-108.646 -16.0684 -108.599 -15.9541 -108.514 -15.8699C-108.43 -15.7856 -108.316 -15.7383 -108.196 -15.7383L-100.687 -15.7383L-70.0372 14.913C-69.9956 14.9552 -69.9461 14.9888 -69.8914 15.0118C-69.8368 15.0347 -69.7781 15.0467 -69.7188 15.0469L-54.3278 15.0469C-54.2685 15.0466 -54.2098 15.0347 -54.1552 15.0117C-54.1005 14.9887 -54.051 14.9552 -54.0094 14.913L-46.4451 7.34646L-38.9359 7.34646C-38.8769 7.34692 -38.8184 7.33555 -38.7639 7.31308C-38.7093 7.29061 -38.6598 7.25747 -38.6183 7.21559L-31.054 -0.348038L-16.0385 -0.348037L-8.47119 7.21559C-8.42993 7.25744 -8.3807 7.2906 -8.3264 7.31308C-8.2721 7.33556 -8.21384 7.34691 -8.15507 7.34646L-0.646606 7.34646L6.92067 14.913C6.96218 14.9551 7.01161 14.9886 7.06612 15.0116C7.12063 15.0346 7.17915 15.0466 7.2383 15.0469L30.9486 15.0469C31.0078 15.0472 31.0664 15.0359 31.1212 15.0134C31.1759 14.991 31.2257 14.9579 31.2676 14.9162C31.3095 14.8744 31.3427 14.8247 31.3654 14.7701C31.388 14.7154 31.3996 14.6568 31.3994 14.5976C31.3994 14.5385 31.3878 14.4799 31.3651 14.4253C31.3424 14.3707 31.3092 14.3211 31.2673 14.2794C31.2254 14.2377 31.1757 14.2046 31.121 14.1821C31.0664 14.1596 31.0078 14.1482 30.9486 14.1484L7.42431 14.1484L-0.140068 6.58187C-0.181862 6.53951 -0.231645 6.50583 -0.286535 6.48285C-0.341423 6.45986 -0.400325 6.44799 -0.459833 6.44793L-7.96907 6.44793L-15.5334 -1.11565C-15.6182 -1.19945 -15.7326 -1.24647 -15.8518 -1.24652L-31.2399 -1.24652C-31.3593 -1.24659 -31.474 -1.19956 -31.5591 -1.11565L-39.1211 6.44793L-46.6311 6.44793C-46.6904 6.44813 -46.749 6.46009 -46.8036 6.48308C-46.8583 6.50606 -46.9078 6.53964 -46.9494 6.58187L-54.5145 14.1484L-69.5322 14.1484L-100.182 -16.503C-100.224 -16.5455 -100.274 -16.5793 -100.329 -16.6026C-100.383 -16.6258 -100.442 -16.638 -100.502 -16.6384L-108.196 -16.6384C-108.256 -16.6384 -108.314 -16.6267 -108.369 -16.604C-108.423 -16.5813 -108.473 -16.5481 -108.515 -16.5062C-108.557 -16.4644 -108.59 -16.4147 -108.612 -16.36C-108.635 -16.3053 -108.647 -16.2468 -108.646 -16.1876Z" fill="black"/>
            <path opacity="0.83" d="M-86.0302 37.6711C-86.0306 37.7305 -86.0192 37.7893 -85.9967 37.8443C-85.9742 37.8992 -85.941 37.9492 -85.8991 37.9912C-85.8572 38.0333 -85.8074 38.0666 -85.7525 38.0893C-85.6976 38.112 -85.6388 38.1235 -85.5794 38.1233L-62.6791 38.1233L-39.8546 60.945L-39.8546 68.4563C-39.8549 68.5154 -39.8435 68.574 -39.821 68.6286C-39.7986 68.6833 -39.7654 68.7329 -39.7236 68.7747L-32.027 76.4677C-31.943 76.5521 -31.8292 76.6001 -31.7101 76.6016L-16.3175 76.6016C-16.1984 76.6001 -16.0845 76.5521 -16.0005 76.4677L-0.740398 61.2082L37.5519 61.2082C37.6713 61.2082 37.7858 61.1608 37.8701 61.0764C37.9545 60.992 38.002 60.8775 38.002 60.7582C38.002 60.6388 37.9545 60.5244 37.8701 60.44C37.7858 60.3556 37.6713 60.3081 37.5519 60.3081L-0.926254 60.3081C-0.985709 60.308 -1.04459 60.3197 -1.09941 60.3427C-1.15424 60.3657 -1.20388 60.3995 -1.24541 60.4421L-16.5041 75.7031L-31.5233 75.7031L-38.956 68.2705L-38.956 60.7574C-38.956 60.6986 -38.9679 60.6405 -38.9907 60.5863C-39.0136 60.5322 -39.047 60.4831 -39.0891 60.4421L-62.1739 37.3557C-62.2158 37.3139 -62.2656 37.2807 -62.3204 37.2582C-62.3752 37.2358 -62.4339 37.2244 -62.4931 37.2249L-85.5794 37.2249C-85.6384 37.2244 -85.6968 37.2355 -85.7514 37.2577C-85.8061 37.2799 -85.8557 37.3127 -85.8976 37.3541C-85.9395 37.3956 -85.9728 37.445 -85.9956 37.4994C-86.0183 37.5538 -86.0301 37.6121 -86.0302 37.6711Z" fill="black"/>
            <path opacity="0.58" d="M-226.285 -15.8061C-226.285 -15.6872 -226.237 -15.5734 -226.153 -15.4894C-226.069 -15.4055 -225.955 -15.3583 -225.836 -15.3582L-208.428 -15.3582L-200.863 -7.7932C-200.822 -7.75094 -200.772 -7.71739 -200.717 -7.69441C-200.662 -7.67143 -200.604 -7.65948 -200.544 -7.65931L-192.659 -7.65931L-185.481 -0.104699C-185.439 -0.0606821 -185.388 -0.0256034 -185.332 -0.00158145C-185.275 0.0224405 -185.215 0.0349125 -185.154 0.0351465L-162.067 0.0351475C-161.948 0.0342194 -161.834 -0.0133237 -161.749 -0.0973519L-154.185 -7.6593L-138.978 -7.6593C-138.859 -7.66028 -138.745 -7.70843 -138.662 -7.7932L-131.099 -15.3582L-123.591 -15.3582C-123.532 -15.3575 -123.473 -15.3685 -123.418 -15.3908C-123.363 -15.413 -123.313 -15.4459 -123.271 -15.4877L-115.709 -23.0512L-77.6032 -23.0512L-70.039 -15.4877C-69.9972 -15.4461 -69.9475 -15.4132 -69.8928 -15.3909C-69.8381 -15.3687 -69.7796 -15.3576 -69.7206 -15.3582L-46.6329 -15.3582C-46.5741 -15.3578 -46.5158 -15.3689 -46.4614 -15.3912C-46.407 -15.4134 -46.3575 -15.4462 -46.3159 -15.4877L-38.7509 -23.0512L-31.2416 -23.0512C-31.1234 -23.0516 -31.01 -23.0986 -30.9263 -23.1822L-23.3613 -30.7487L22.6261 -30.7487L38.0218 -30.8468C38.0805 -30.8466 38.1387 -30.858 38.1929 -30.8803C38.2472 -30.9027 38.2966 -30.9355 38.3381 -30.977C38.3796 -31.0185 38.4126 -31.0678 38.435 -31.1221C38.4574 -31.1763 38.4689 -31.2344 38.4688 -31.2932L38.4688 -31.2962C38.4686 -31.3555 38.4568 -31.4142 38.434 -31.4688C38.4111 -31.5235 38.3777 -31.5732 38.3356 -31.6149C38.2935 -31.6567 38.2436 -31.6897 38.1887 -31.7121C38.1339 -31.7345 38.0751 -31.7458 38.0158 -31.7455L-23.5466 -31.6472C-23.6055 -31.6474 -23.6639 -31.636 -23.7185 -31.6135C-23.773 -31.5911 -23.8225 -31.5581 -23.8642 -31.5164L-31.4284 -23.9513L-38.9377 -23.9513C-38.9969 -23.9519 -39.0557 -23.9404 -39.1104 -23.9176C-39.1651 -23.8949 -39.2147 -23.8612 -39.256 -23.8188L-46.8195 -16.2569L-69.534 -16.2569L-77.099 -23.8188C-77.1404 -23.8611 -77.19 -23.8947 -77.2447 -23.9174C-77.2994 -23.9402 -77.3581 -23.9517 -77.4174 -23.9513L-115.895 -23.9513C-115.954 -23.9517 -116.013 -23.9401 -116.067 -23.9173C-116.122 -23.8945 -116.171 -23.861 -116.212 -23.8188L-123.777 -16.2569L-131.286 -16.2569C-131.405 -16.2559 -131.518 -16.2084 -131.602 -16.1245L-139.164 -8.56086L-154.371 -8.56086C-154.43 -8.56079 -154.488 -8.54908 -154.542 -8.52636C-154.597 -8.50364 -154.646 -8.47038 -154.688 -8.4285L-162.252 -0.863478L-184.96 -0.863479L-192.138 -8.41813C-192.18 -8.4629 -192.231 -8.49866 -192.287 -8.5232C-192.343 -8.54774 -192.404 -8.56054 -192.465 -8.56086L-200.359 -8.56086L-207.923 -16.1245C-208.008 -16.209 -208.122 -16.2566 -208.242 -16.2569L-225.836 -16.2569C-225.955 -16.2566 -226.07 -16.209 -226.154 -16.1245C-226.238 -16.04 -226.285 -15.9255 -226.285 -15.8061Z" fill="black"/>
            <path opacity="0.53" d="M-65.0169 61.0908L-80.4697 46.2091L-80.289 45.3106C-80.1726 45.31 -80.0605 45.3548 -79.9766 45.4355L-64.3905 60.4436L-56.5019 68.144C-56.4588 68.1853 -56.4246 68.235 -56.4015 68.29C-56.3783 68.345 -56.3667 68.4041 -56.3673 68.4638L-56.3673 75.9843L-49.3074 83.7888L-26.6049 83.7888L-11.3461 68.5309C-11.3047 68.4881 -11.2551 68.4541 -11.2003 68.4309C-11.1455 68.4076 -11.0865 68.3955 -11.027 68.3954L46.7738 68.3954C46.8331 68.3953 46.8917 68.407 46.9464 68.4296C47.0012 68.4522 47.0509 68.4854 47.0928 68.5273C47.1346 68.5692 47.1678 68.6189 47.1905 68.6736C47.2131 68.7284 47.2247 68.787 47.2246 68.8462C47.2242 68.9654 47.1764 69.0795 47.0919 69.1635C47.0074 69.2474 46.893 69.2944 46.7738 69.2941L-10.8411 69.2941L-26.1012 84.5565C-26.1856 84.6401 -26.2995 84.6871 -26.4182 84.6875L-49.5059 84.6875C-49.5686 84.6882 -49.6306 84.6756 -49.688 84.6505C-49.7453 84.6253 -49.7966 84.5882 -49.8385 84.5417L-57.1506 76.4604C-57.2247 76.3772 -57.2657 76.2697 -57.2659 76.1583L-57.2659 68.6558L-65.0169 61.0908Z" fill="black"/>
        </g>
        <g opacity="0.3">
            <path d="M262.879 1.73143C262.467 1.73145 262.065 1.85362 261.722 2.08253C261.379 2.31144 261.112 2.63681 260.955 3.01747C260.797 3.39813 260.756 3.81704 260.836 4.22117C260.916 4.6253 261.115 4.99654 261.406 5.28795C261.697 5.57936 262.068 5.77782 262.472 5.8583C262.877 5.93878 263.295 5.89765 263.676 5.74008C264.057 5.58251 264.382 5.31559 264.611 4.97307C264.84 4.63055 264.963 4.22781 264.963 3.81577C264.963 3.26318 264.743 2.73332 264.352 2.34251C263.962 1.95171 263.432 1.73192 262.879 1.73143Z" fill="black"/>
            <path d="M143.142 11.5168C143.142 12.0098 142.946 12.4825 142.597 12.831C142.248 13.1794 141.775 13.3751 141.282 13.375C140.789 13.3752 140.316 13.1796 139.967 12.8311C139.618 12.4826 139.422 12.0099 139.422 11.5168C139.423 11.0238 139.619 10.5514 139.968 10.2031C140.317 9.85473 140.789 9.65897 141.282 9.65865C141.775 9.65901 142.248 9.85481 142.596 10.2031C142.945 10.5515 143.141 11.0239 143.142 11.5168ZM139.805 11.5168C139.805 11.7105 139.844 11.9022 139.918 12.0811C139.992 12.26 140.101 12.4224 140.238 12.5592C140.376 12.696 140.538 12.8044 140.718 12.8782C140.897 12.9521 141.089 12.9899 141.282 12.9896C141.673 12.9899 142.048 12.835 142.325 12.5588C142.602 12.2826 142.758 11.9077 142.758 11.5168C142.757 11.126 142.601 10.7516 142.324 10.4756C142.048 10.1996 141.673 10.0443 141.282 10.0439C140.891 10.044 140.516 10.199 140.239 10.4751C139.962 10.7511 139.806 11.1257 139.805 11.5168Z" fill="black"/>
            <path d="M143.371 11.5089C143.371 12.0629 143.15 12.5939 142.758 12.9855C142.366 13.3771 141.835 13.5973 141.281 13.5977C140.727 13.5975 140.196 13.3774 139.803 12.9858C139.411 12.5942 139.19 12.0631 139.189 11.5089C139.19 10.9547 139.411 10.4236 139.803 10.032C140.196 9.6404 140.727 9.42032 141.281 9.42011C141.835 9.42054 142.366 9.64072 142.758 10.0323C143.15 10.4239 143.371 10.9549 143.371 11.5089ZM140.035 11.5089C140.036 11.8388 140.168 12.155 140.401 12.3879C140.635 12.6209 140.951 12.7515 141.281 12.7512C141.611 12.7512 141.927 12.6204 142.16 12.3874C142.394 12.1545 142.525 11.8386 142.526 11.5089C142.525 11.1793 142.393 10.8635 142.16 10.6307C141.927 10.3979 141.611 10.267 141.281 10.2667C140.951 10.2666 140.635 10.3974 140.401 10.6302C140.168 10.8631 140.036 11.1791 140.035 11.5089Z" fill="black"/>
            <path d="M156.622 3.81865C156.622 4.31224 156.426 4.78554 156.076 5.13449C155.727 5.48344 155.254 5.67953 154.76 5.67969C154.267 5.67893 153.795 5.48255 153.446 5.13365C153.097 4.78475 152.902 4.31181 152.901 3.81865C152.902 3.32585 153.098 2.85344 153.447 2.50505C153.795 2.15666 154.268 1.96078 154.76 1.9604C155.254 1.96018 155.727 2.15577 156.076 2.50421C156.425 2.85265 156.621 3.32542 156.622 3.81865ZM153.286 3.81865C153.287 4.20961 153.442 4.5844 153.718 4.86098C153.995 5.13756 154.369 5.29343 154.76 5.29442C155.152 5.29404 155.527 5.13849 155.804 4.86186C156.081 4.58524 156.237 4.21006 156.238 3.81865C156.237 3.42754 156.081 3.05279 155.804 2.77665C155.527 2.5005 155.152 2.34553 154.76 2.34582C154.37 2.34615 153.995 2.50139 153.719 2.77748C153.442 3.05358 153.287 3.42799 153.286 3.81865Z" fill="black"/>
            <path d="M156.852 3.81848C156.852 4.37322 156.631 4.90501 156.238 5.29713C155.846 5.68924 155.314 5.9097 154.759 5.91016C154.205 5.90923 153.674 5.68853 153.282 5.29643C152.89 4.90433 152.67 4.37281 152.669 3.81848C152.67 3.26452 152.89 2.73353 153.282 2.34197C153.674 1.9504 154.205 1.73023 154.759 1.72973C155.314 1.72976 155.845 1.94969 156.238 2.34127C156.63 2.73286 156.851 3.26411 156.852 3.81848ZM153.516 3.81848C153.516 4.14813 153.647 4.46424 153.881 4.69739C154.114 4.93055 154.43 5.06173 154.759 5.06221C155.089 5.06217 155.406 4.93121 155.639 4.69804C155.873 4.46487 156.004 4.14852 156.005 3.81848C156.004 3.48858 155.873 3.17246 155.639 2.93952C155.406 2.70657 155.089 2.57587 154.759 2.57614C154.43 2.57631 154.114 2.70724 153.881 2.94017C153.648 3.1731 153.516 3.48897 153.516 3.81848Z" fill="black"/>
            <path d="M225.786 11.8497C225.786 12.2173 225.676 12.5766 225.472 12.8821C225.267 13.1877 224.977 13.4257 224.637 13.5661C224.297 13.7065 223.923 13.743 223.563 13.671C223.202 13.5991 222.871 13.4218 222.611 13.1616C222.351 12.9015 222.174 12.5702 222.103 12.2096C222.031 11.8489 222.068 11.4752 222.209 11.1356C222.35 10.796 222.588 10.5057 222.894 10.3016C223.2 10.0974 223.559 9.98847 223.927 9.98854C224.42 9.98927 224.893 10.1856 225.241 10.5346C225.59 10.8835 225.786 11.3565 225.786 11.8497ZM222.452 11.8497C222.452 12.1413 222.539 12.4263 222.701 12.6687C222.863 12.911 223.094 13.0998 223.363 13.2113C223.632 13.3228 223.929 13.3518 224.215 13.2948C224.501 13.2378 224.764 13.0973 224.97 12.8911C225.176 12.6848 225.316 12.4221 225.373 12.1361C225.43 11.85 225.401 11.5536 225.289 11.2842C225.178 11.0148 224.989 10.7845 224.746 10.6224C224.504 10.4604 224.219 10.3739 223.927 10.3738C223.536 10.3749 223.161 10.5308 222.885 10.8073C222.608 11.0839 222.453 11.4586 222.452 11.8497Z" fill="black"/>
            <path d="M226.017 11.8519C226.017 12.2653 225.894 12.6695 225.664 13.0131C225.434 13.3568 225.108 13.6246 224.726 13.7826C224.344 13.9407 223.923 13.9819 223.518 13.9011C223.112 13.8202 222.74 13.621 222.448 13.3285C222.155 13.0361 221.957 12.6635 221.876 12.258C221.795 11.8524 221.837 11.4321 221.995 11.0501C222.154 10.6682 222.422 10.3418 222.765 10.1122C223.109 9.88255 223.514 9.76003 223.927 9.7601C224.481 9.76105 225.013 9.9818 225.405 10.3739C225.796 10.7661 226.017 11.2975 226.017 11.8519ZM222.683 11.8519C222.684 12.0977 222.757 12.3379 222.894 12.5421C223.031 12.7463 223.225 12.9054 223.452 12.9992C223.679 13.093 223.929 13.1174 224.17 13.0692C224.411 13.0211 224.633 12.9025 224.806 12.7286C224.98 12.5547 225.098 12.3332 225.146 12.0921C225.194 11.851 225.169 11.6011 225.075 11.374C224.981 11.1469 224.822 10.9528 224.617 10.8162C224.413 10.6797 224.173 10.6067 223.927 10.6067C223.597 10.607 223.281 10.7384 223.047 10.9718C222.814 11.2053 222.683 11.5219 222.683 11.8519Z" fill="black"/>
            <path d="M235.108 12.5505C235.107 12.9184 234.998 13.2779 234.794 13.5838C234.589 13.8896 234.299 14.1279 233.959 14.2686C233.619 14.4094 233.245 14.4462 232.884 14.3744C232.523 14.3027 232.192 14.1256 231.932 13.8655C231.672 13.6055 231.494 13.2741 231.423 12.9134C231.351 12.5526 231.387 12.1786 231.528 11.8387C231.669 11.4988 231.907 11.2082 232.213 11.0036C232.518 10.799 232.878 10.6897 233.246 10.6894C233.49 10.6891 233.732 10.737 233.958 10.8305C234.184 10.9239 234.39 11.0609 234.563 11.2338C234.735 11.4067 234.873 11.612 234.966 11.8379C235.06 12.0639 235.108 12.306 235.108 12.5505ZM231.771 12.5505C231.772 12.8424 231.859 13.1277 232.021 13.3702C232.183 13.6128 232.414 13.8017 232.684 13.9131C232.954 14.0246 233.25 14.0535 233.537 13.9962C233.823 13.939 234.086 13.7982 234.292 13.5916C234.498 13.385 234.638 13.1218 234.695 12.8355C234.752 12.5491 234.722 12.2524 234.61 11.9829C234.498 11.7133 234.309 11.483 234.066 11.3211C233.823 11.1592 233.537 11.073 233.246 11.0733C233.052 11.0733 232.86 11.1116 232.681 11.1859C232.502 11.2602 232.339 11.3691 232.202 11.5063C232.065 11.6435 231.957 11.8063 231.883 11.9855C231.809 12.1647 231.771 12.3567 231.771 12.5505Z" fill="black"/>
            <path d="M235.344 12.5503C235.343 12.9639 235.22 13.3681 234.991 13.7119C234.761 14.0556 234.434 14.3235 234.052 14.4817C233.67 14.6398 233.249 14.6811 232.844 14.6004C232.438 14.5196 232.065 14.3204 231.773 14.028C231.48 13.7356 231.281 13.363 231.2 12.9574C231.12 12.5518 231.161 12.1314 231.319 11.7492C231.477 11.3671 231.745 11.0403 232.089 10.8104C232.433 10.5804 232.837 10.4575 233.25 10.4572C233.525 10.4571 233.797 10.5111 234.051 10.6163C234.305 10.7214 234.536 10.8756 234.731 11.07C234.925 11.2644 235.079 11.4952 235.184 11.7492C235.29 12.0032 235.344 12.2754 235.344 12.5503ZM232.007 12.5503C232.007 12.7965 232.081 13.0371 232.218 13.2417C232.354 13.4463 232.549 13.6057 232.776 13.6997C233.004 13.7937 233.254 13.8182 233.496 13.7699C233.737 13.7217 233.959 13.603 234.133 13.4287C234.307 13.2545 234.425 13.0327 234.473 12.7912C234.52 12.5497 234.495 12.2994 234.401 12.0721C234.307 11.8448 234.147 11.6505 233.942 11.514C233.737 11.3775 233.496 11.3048 233.25 11.3051C233.087 11.3051 232.925 11.3373 232.774 11.3999C232.623 11.4625 232.486 11.5543 232.371 11.6699C232.255 11.7856 232.164 11.9229 232.101 12.074C232.039 12.225 232.007 12.3869 232.007 12.5503Z" fill="black"/>
            <path d="M247.739 25.8989C247.739 26.2666 247.63 26.6261 247.425 26.9318C247.221 27.2375 246.931 27.4758 246.591 27.6164C246.251 27.7571 245.877 27.7938 245.517 27.722C245.156 27.6502 244.825 27.4731 244.565 27.213C244.305 26.9529 244.128 26.6216 244.056 26.2609C243.984 25.9002 244.021 25.5264 244.162 25.1867C244.303 24.847 244.541 24.5567 244.847 24.3524C245.153 24.1482 245.512 24.0392 245.88 24.0393C246.373 24.0402 246.845 24.2365 247.194 24.5851C247.542 24.9336 247.738 25.4061 247.739 25.8989ZM244.405 25.8989C244.405 26.1906 244.491 26.4758 244.653 26.7183C244.815 26.9609 245.046 27.15 245.315 27.2617C245.584 27.3733 245.881 27.4026 246.167 27.3458C246.453 27.289 246.716 27.1486 246.922 26.9424C247.129 26.7362 247.269 26.4734 247.326 26.1874C247.383 25.9013 247.354 25.6048 247.242 25.3353C247.131 25.0658 246.942 24.8354 246.699 24.6733C246.457 24.5112 246.172 24.4246 245.88 24.4245C245.489 24.4249 245.114 24.5804 244.838 24.8568C244.561 25.1332 244.406 25.5079 244.405 25.8989Z" fill="black"/>
            <path d="M247.969 25.8971C247.97 26.3106 247.847 26.7149 247.617 27.0588C247.388 27.4027 247.061 27.6707 246.679 27.829C246.297 27.9873 245.877 28.0288 245.471 27.9482C245.065 27.8675 244.693 27.6684 244.4 27.376C244.108 27.0836 243.909 26.711 243.828 26.3054C243.748 25.8999 243.789 25.4795 243.947 25.0974C244.106 24.7154 244.374 24.3888 244.717 24.1591C245.061 23.9294 245.466 23.8069 245.879 23.807C246.433 23.8076 246.965 24.028 247.356 24.4198C247.748 24.8116 247.969 25.3429 247.969 25.8971ZM244.635 25.8971C244.635 26.1429 244.708 26.3833 244.845 26.5877C244.982 26.7921 245.176 26.9514 245.403 27.0454C245.63 27.1395 245.88 27.1641 246.121 27.1161C246.363 27.0681 246.584 26.9497 246.758 26.7759C246.932 26.602 247.05 26.3805 247.098 26.1393C247.146 25.8982 247.122 25.6482 247.028 25.421C246.933 25.1939 246.774 24.9997 246.57 24.8631C246.365 24.7264 246.125 24.6534 245.879 24.6533C245.549 24.6534 245.233 24.7845 245 25.0177C244.767 25.2509 244.635 25.5672 244.635 25.8971Z" fill="black"/>
            <path d="M178.227 55.5993C177.814 55.5987 177.411 55.7205 177.068 55.9492C176.724 56.1779 176.457 56.5033 176.298 56.8842C176.14 57.2651 176.098 57.6844 176.178 58.089C176.258 58.4937 176.457 58.8655 176.748 59.1574C177.039 59.4494 177.411 59.6484 177.815 59.7291C178.22 59.8099 178.639 59.7689 179.02 59.6113C179.402 59.4537 179.728 59.1866 179.957 58.8437C180.186 58.5009 180.309 58.0977 180.309 57.6852C180.309 57.1327 180.089 56.6029 179.699 56.2119C179.309 55.8208 178.779 55.6005 178.227 55.5993Z" fill="black"/>
            <path d="M151.534 24.8228C151.26 24.8226 150.989 24.8765 150.736 24.9812C150.483 25.086 150.253 25.2396 150.059 25.4333C149.866 25.6271 149.712 25.857 149.607 26.1102C149.503 26.3633 149.449 26.6346 149.449 26.9085C149.45 27.4608 149.67 27.9901 150.061 28.3802C150.452 28.7702 150.982 28.989 151.534 28.9883C152.086 28.9886 152.616 28.7698 153.007 28.3798C153.397 27.9898 153.617 27.4606 153.618 26.9085C153.618 26.6347 153.565 26.3635 153.46 26.1105C153.355 25.8574 153.202 25.6275 153.008 25.4338C152.815 25.2401 152.585 25.0864 152.332 24.9815C152.079 24.8767 151.808 24.8228 151.534 24.8228Z" fill="black"/>
            <path d="M170.526 9.43069C170.114 9.431 169.711 9.55346 169.369 9.78262C169.027 10.0118 168.76 10.3374 168.602 10.7182C168.445 11.0989 168.404 11.5178 168.485 11.9219C168.565 12.326 168.764 12.6971 169.055 12.9883C169.347 13.2795 169.718 13.4777 170.122 13.5578C170.527 13.638 170.946 13.5965 171.326 13.4387C171.707 13.2808 172.032 13.0136 172.261 12.6709C172.489 12.3282 172.612 11.9254 172.611 11.5133C172.611 10.9607 172.391 10.4308 172 10.0402C171.609 9.64962 171.079 9.4304 170.526 9.43069Z" fill="black"/>
            <path d="M216.704 1.73141C216.292 1.73184 215.89 1.85441 215.547 2.08358C215.205 2.31274 214.938 2.63823 214.781 3.01893C214.624 3.39963 214.583 3.81845 214.663 4.22244C214.744 4.62644 214.942 4.99747 215.234 5.28867C215.525 5.57986 215.896 5.77816 216.3 5.85846C216.704 5.93877 217.123 5.8975 217.504 5.73986C217.884 5.58223 218.21 5.31528 218.439 4.97281C218.668 4.63034 218.79 4.22769 218.79 3.81574C218.79 3.54189 218.736 3.27073 218.631 3.01772C218.527 2.76472 218.373 2.53486 218.179 2.34128C217.986 2.1477 217.756 1.99417 217.502 1.88952C217.249 1.78488 216.978 1.73116 216.704 1.73141Z" fill="black"/>
            <path d="M237.254 40.2133C236.842 40.2134 236.44 40.3357 236.097 40.5646C235.755 40.7935 235.488 41.1187 235.33 41.4992C235.173 41.8798 235.132 42.2984 235.212 42.7024C235.292 43.1063 235.491 43.4774 235.782 43.7687C236.073 44.0599 236.444 44.2583 236.848 44.3388C237.252 44.4192 237.67 44.3781 238.051 44.2207C238.432 44.0632 238.757 43.7965 238.986 43.4541C239.215 43.1118 239.337 42.7093 239.338 42.2974C239.338 42.0237 239.284 41.7527 239.179 41.4998C239.075 41.2469 238.921 41.0171 238.728 40.8235C238.534 40.63 238.304 40.4765 238.052 40.3717C237.799 40.267 237.528 40.2132 237.254 40.2133Z" fill="black"/>
            <path d="M190.472 49.9925C190.472 50.3602 190.363 50.7196 190.159 51.0253C189.955 51.331 189.665 51.5693 189.325 51.71C188.985 51.8507 188.612 51.8876 188.251 51.8159C187.89 51.7442 187.559 51.5672 187.299 51.3072C187.039 51.0473 186.862 50.7161 186.791 50.3555C186.719 49.9949 186.756 49.6212 186.896 49.2815C187.037 48.9419 187.275 48.6516 187.581 48.4475C187.887 48.2433 188.246 48.1343 188.614 48.1344C189.107 48.1346 189.579 48.3304 189.928 48.6788C190.276 49.0273 190.472 49.4998 190.472 49.9925ZM187.138 49.9925C187.138 50.2843 187.224 50.5695 187.386 50.8122C187.548 51.0548 187.778 51.244 188.048 51.3558C188.317 51.4676 188.614 51.497 188.9 51.4403C189.186 51.3835 189.449 51.2432 189.655 51.037C189.862 50.8308 190.003 50.568 190.06 50.2819C190.117 49.9958 190.088 49.6993 189.976 49.4297C189.865 49.1601 189.676 48.9296 189.433 48.7674C189.191 48.6052 188.906 48.5185 188.614 48.5183C188.223 48.5181 187.847 48.6734 187.571 48.9498C187.294 49.2263 187.138 49.6013 187.138 49.9925Z" fill="black"/>
            <path d="M190.703 49.9924C190.703 50.4057 190.581 50.8098 190.351 51.1534C190.121 51.4971 189.795 51.7649 189.413 51.923C189.031 52.0812 188.611 52.1225 188.205 52.0418C187.8 51.9611 187.428 51.762 187.135 51.4697C186.843 51.1774 186.644 50.8049 186.564 50.3995C186.483 49.9941 186.524 49.5739 186.683 49.1921C186.841 48.8102 187.109 48.4838 187.453 48.2542C187.796 48.0247 188.2 47.9021 188.614 47.9022C189.168 47.9029 189.699 48.1233 190.091 48.5152C190.482 48.907 190.703 49.4383 190.703 49.9924ZM187.369 49.9924C187.369 50.2383 187.442 50.4787 187.579 50.6833C187.715 50.8878 187.91 51.0472 188.137 51.1413C188.364 51.2355 188.614 51.2602 188.855 51.2122C189.097 51.1643 189.318 51.0459 189.492 50.8721C189.666 50.6982 189.785 50.4767 189.833 50.2355C189.881 49.9943 189.856 49.7442 189.762 49.5169C189.668 49.2897 189.509 49.0954 189.304 48.9586C189.1 48.8219 188.86 48.7488 188.614 48.7486C188.284 48.7488 187.968 48.8799 187.734 49.1131C187.501 49.3463 187.37 49.6625 187.369 49.9924Z" fill="black"/>
            <path d="M170.621 34.5989C170.622 34.9668 170.513 35.3267 170.309 35.6329C170.105 35.9391 169.814 36.1778 169.475 36.3188C169.135 36.4599 168.761 36.497 168.4 36.4254C168.039 36.3537 167.707 36.1766 167.447 35.9164C167.187 35.6562 167.01 35.3247 166.938 34.9638C166.866 34.6029 166.903 34.2288 167.044 33.8889C167.185 33.549 167.424 33.2587 167.73 33.0546C168.036 32.8505 168.396 32.7417 168.764 32.7422C169.257 32.7426 169.729 32.9383 170.077 33.2864C170.425 33.6345 170.621 34.1066 170.621 34.5989ZM167.287 34.5989C167.287 34.9907 167.443 35.3665 167.72 35.6437C167.997 35.9209 168.372 36.077 168.764 36.0777C169.155 36.0764 169.53 35.92 169.806 35.6427C170.082 35.3655 170.237 34.9901 170.236 34.5989C170.236 34.2083 170.081 33.8337 169.805 33.5574C169.529 33.281 169.155 33.1254 168.764 33.1246C168.373 33.1248 167.998 33.28 167.721 33.5564C167.444 33.8328 167.288 34.2076 167.287 34.5989Z" fill="black"/>
            <path d="M170.849 34.5957C170.849 35.1498 170.629 35.6813 170.238 36.0735C169.846 36.4657 169.315 36.6866 168.761 36.6875C168.207 36.6875 167.675 36.4673 167.283 36.0753C166.891 35.6833 166.671 35.1516 166.671 34.5972C166.671 34.0428 166.891 33.5111 167.283 33.1191C167.675 32.7271 168.207 32.5069 168.761 32.5069C169.315 32.5077 169.846 32.728 170.237 33.1195C170.628 33.5111 170.849 34.042 170.849 34.5957ZM167.515 34.5957C167.515 34.9263 167.647 35.2433 167.88 35.4773C168.114 35.7113 168.431 35.8432 168.761 35.844C169.091 35.8425 169.407 35.7102 169.64 35.4762C169.872 35.2422 170.002 34.9256 170.002 34.5957C170.002 34.2663 169.871 33.9504 169.639 33.7172C169.406 33.484 169.091 33.3527 168.761 33.352C168.431 33.352 168.115 33.4829 167.881 33.7161C167.647 33.9493 167.516 34.2656 167.515 34.5957Z" fill="black"/>
            <path d="M206.571 26.9049C206.57 27.2726 206.461 27.6319 206.256 27.9373C206.051 28.2428 205.761 28.4807 205.421 28.621C205.081 28.7613 204.707 28.7977 204.346 28.7256C203.986 28.6535 203.655 28.4761 203.395 28.2158C203.135 27.9555 202.958 27.6241 202.887 27.2634C202.816 26.9027 202.853 26.5289 202.994 26.1892C203.135 25.8496 203.373 25.5594 203.679 25.3552C203.985 25.1511 204.344 25.0422 204.712 25.0423C204.956 25.0424 205.198 25.0907 205.424 25.1844C205.65 25.278 205.855 25.4153 206.028 25.5883C206.2 25.7613 206.337 25.9666 206.43 26.1925C206.524 26.4184 206.571 26.6605 206.571 26.9049ZM203.235 26.9049C203.235 27.1968 203.322 27.4822 203.484 27.7249C203.646 27.9676 203.877 28.1568 204.147 28.2685C204.416 28.3802 204.713 28.4093 205 28.3523C205.286 28.2953 205.549 28.1547 205.755 27.9483C205.962 27.7418 206.102 27.4788 206.159 27.1924C206.216 26.906 206.187 26.6092 206.076 26.3394C205.964 26.0697 205.775 25.839 205.532 25.6767C205.289 25.5144 205.004 25.4277 204.712 25.4276C204.32 25.4277 203.945 25.5834 203.668 25.8604C203.391 26.1374 203.235 26.5131 203.235 26.9049Z" fill="black"/>
            <path d="M206.802 26.9073C206.802 27.3208 206.679 27.7249 206.449 28.0685C206.218 28.412 205.892 28.6797 205.51 28.8376C205.127 28.9955 204.707 29.0366 204.302 28.9556C203.896 28.8746 203.524 28.6752 203.232 28.3826C202.939 28.0901 202.74 27.7174 202.66 27.3118C202.58 26.9062 202.621 26.4859 202.78 26.104C202.938 25.722 203.206 25.3956 203.55 25.1661C203.894 24.9365 204.298 24.814 204.712 24.8141C205.266 24.815 205.798 25.0359 206.19 25.4283C206.582 25.8208 206.802 26.3527 206.802 26.9073ZM203.466 26.9073C203.466 27.1535 203.54 27.3941 203.676 27.5986C203.813 27.8032 204.008 27.9625 204.236 28.0565C204.463 28.1505 204.713 28.175 204.955 28.1268C205.196 28.0786 205.418 27.96 205.592 27.7859C205.766 27.6118 205.884 27.3899 205.932 27.1485C205.98 26.907 205.956 26.6568 205.862 26.4293C205.767 26.2019 205.608 26.0075 205.403 25.8706C205.199 25.7338 204.958 25.6607 204.712 25.6605C204.381 25.6608 204.064 25.7923 203.831 26.0261C203.597 26.2599 203.466 26.5769 203.466 26.9073Z" fill="black"/>
            <path opacity="0.78" d="M170.981 11.5087C170.982 11.568 170.97 11.6269 170.948 11.6818C170.925 11.7367 170.892 11.7866 170.85 11.8287C170.808 11.8707 170.758 11.9041 170.703 11.9268C170.649 11.9495 170.59 11.9611 170.53 11.9609L142.953 11.9609C142.894 11.9608 142.835 11.949 142.781 11.9262C142.726 11.9034 142.676 11.87 142.635 11.8279C142.593 11.7859 142.56 11.736 142.538 11.6812C142.516 11.6265 142.504 11.5678 142.505 11.5087C142.505 11.4499 142.517 11.3918 142.539 11.3375C142.562 11.2833 142.595 11.2341 142.636 11.1926C142.678 11.1512 142.727 11.1184 142.782 11.096C142.836 11.0737 142.894 11.0623 142.953 11.0625L170.53 11.0624C170.589 11.062 170.648 11.0732 170.702 11.0955C170.757 11.1177 170.807 11.1504 170.849 11.1919C170.89 11.2333 170.924 11.2827 170.946 11.337C170.969 11.3914 170.981 11.4497 170.981 11.5087Z" fill="black"/>
            <path opacity="0.96" d="M217.148 3.81511C217.148 3.93425 217.101 4.04859 217.017 4.13339L209.322 11.8309C209.237 11.9149 209.122 11.9619 209.003 11.9617L186.105 11.9617L178.54 19.5254C178.499 19.5673 178.449 19.6004 178.395 19.6229C178.34 19.6454 178.282 19.6567 178.223 19.6562L173.497 19.6562C173.438 19.6563 173.379 19.6448 173.325 19.6222C173.27 19.5997 173.221 19.5666 173.179 19.5249C173.137 19.4831 173.104 19.4336 173.081 19.3791C173.059 19.3245 173.047 19.266 173.047 19.207C173.047 19.1479 173.058 19.0893 173.081 19.0347C173.103 18.98 173.136 18.9303 173.178 18.8886C173.22 18.8468 173.27 18.8137 173.324 18.7913C173.379 18.7688 173.438 18.7574 173.497 18.7578L178.038 18.7577L185.598 11.1941C185.64 11.1522 185.69 11.1191 185.745 11.0966C185.8 11.0742 185.859 11.0628 185.918 11.0633L208.817 11.0632L216.381 3.49674C216.444 3.43369 216.524 3.39071 216.611 3.3733C216.699 3.3559 216.789 3.36485 216.871 3.39897C216.954 3.43309 217.024 3.49084 217.073 3.56494C217.122 3.63904 217.148 3.72612 217.148 3.81511Z" fill="black"/>
            <path opacity="0.37" d="M223.428 12.9375C223.428 13.0558 223.381 13.1692 223.297 13.253L217.02 19.5311C216.979 19.5733 216.929 19.6066 216.875 19.6291C216.82 19.6516 216.761 19.6628 216.702 19.662L201.498 19.662L193.936 27.2255C193.894 27.2676 193.845 27.3011 193.79 27.324C193.736 27.347 193.677 27.359 193.618 27.3594L151.291 27.3594C151.232 27.3595 151.174 27.348 151.119 27.3254C151.064 27.3029 151.015 27.2698 150.973 27.2281C150.931 27.1863 150.898 27.1368 150.876 27.0822C150.853 27.0276 150.842 26.9692 150.842 26.9101C150.842 26.7911 150.889 26.6769 150.974 26.5927C151.058 26.5085 151.172 26.4611 151.291 26.4608L193.433 26.4608L200.993 18.8943C201.077 18.8105 201.192 18.7635 201.311 18.7635L216.515 18.7635L222.661 12.6191C222.703 12.577 222.752 12.5437 222.807 12.5209C222.861 12.4981 222.92 12.4864 222.979 12.4864C223.038 12.4864 223.097 12.4981 223.151 12.5209C223.206 12.5437 223.255 12.577 223.297 12.6191C223.339 12.6607 223.372 12.7104 223.395 12.765C223.417 12.8197 223.428 12.8784 223.428 12.9375Z" fill="black"/>
            <path opacity="0.83" d="M232.544 11.5162C232.544 11.6054 232.518 11.6927 232.469 11.767C232.419 11.8414 232.349 11.8994 232.267 11.9339C232.185 11.9683 232.094 11.9775 232.006 11.9604C231.919 11.9432 231.838 11.9005 231.775 11.8376L216.515 -3.42646L209.192 -3.42646L201.628 4.1401C201.543 4.22383 201.429 4.27089 201.31 4.27111L156.426 4.27111C156.367 4.27135 156.308 4.25989 156.254 4.23741C156.199 4.21492 156.149 4.18182 156.108 4.14005C156.066 4.09829 156.033 4.04869 156.01 3.99407C155.988 3.93946 155.976 3.88089 155.977 3.82182C155.976 3.76255 155.987 3.7038 156.01 3.64892C156.032 3.59404 156.065 3.54415 156.107 3.5021C156.149 3.46006 156.199 3.42671 156.253 3.40396C156.308 3.38121 156.367 3.36952 156.426 3.36956L201.125 3.36956L208.69 -4.19258C208.774 -4.27591 208.887 -4.32335 209.005 -4.32494L216.701 -4.32494C216.821 -4.32396 216.935 -4.27649 217.02 -4.19258L232.411 11.2008C232.453 11.2421 232.486 11.2911 232.509 11.3452C232.532 11.3993 232.544 11.4574 232.544 11.5162Z" fill="black"/>
            <path opacity="0.79" d="M245.242 26.9078C245.243 26.9665 245.231 27.0246 245.208 27.0788C245.186 27.1329 245.153 27.182 245.111 27.2232L237.415 34.9207C237.33 35.0041 237.216 35.0506 237.098 35.05L222.793 35.05L229.589 41.8473L237.098 41.8473C237.158 41.8462 237.217 41.8571 237.272 41.8791C237.328 41.9012 237.378 41.9342 237.421 41.976C237.464 42.0178 237.497 42.0677 237.521 42.1228C237.544 42.1779 237.556 42.237 237.556 42.2967C237.556 42.3564 237.544 42.4155 237.521 42.4706C237.497 42.5257 237.464 42.5755 237.421 42.6174C237.378 42.6592 237.328 42.6921 237.272 42.7142C237.217 42.7363 237.158 42.7471 237.098 42.746L229.403 42.746C229.344 42.7467 229.285 42.7356 229.231 42.7134C229.176 42.6912 229.126 42.6582 229.084 42.6165L221.391 34.9207C221.327 34.8577 221.284 34.7774 221.267 34.6899C221.249 34.6024 221.258 34.5117 221.292 34.4292C221.326 34.3467 221.384 34.2761 221.458 34.2264C221.532 34.1767 221.619 34.1501 221.708 34.15L236.911 34.15L244.473 26.5894C244.536 26.5263 244.616 26.4834 244.704 26.4659C244.791 26.4485 244.882 26.4574 244.964 26.4915C245.047 26.5255 245.117 26.5833 245.166 26.6574C245.216 26.7315 245.242 26.8187 245.242 26.9078Z" fill="black"/>
            <path opacity="0.97" d="M263.33 3.82087C263.33 3.88003 263.318 3.9386 263.295 3.99321C263.273 4.04782 263.239 4.09743 263.197 4.13914L247.806 19.5311C247.765 19.5732 247.715 19.6065 247.66 19.6289C247.606 19.6514 247.547 19.6627 247.488 19.662L232.284 19.662L224.718 27.2255C224.677 27.2677 224.627 27.3013 224.573 27.3243C224.518 27.3473 224.459 27.3592 224.4 27.3594L206.318 27.3594C206.199 27.3594 206.085 27.3121 206.001 27.2278C205.916 27.1436 205.869 27.0293 205.869 26.9101C205.869 26.791 205.916 26.6767 206.001 26.5925C206.085 26.5082 206.199 26.4608 206.318 26.4608L224.214 26.4608L231.778 18.8943C231.863 18.8105 231.978 18.7635 232.097 18.7635L247.301 18.7635L262.561 3.5025C262.624 3.43971 262.705 3.39698 262.792 3.37971C262.879 3.36245 262.97 3.37142 263.052 3.40547C263.134 3.43952 263.204 3.49714 263.254 3.57107C263.303 3.645 263.33 3.73191 263.33 3.82087Z" fill="black"/>
            <path opacity="0.83" d="M294.113 11.507C294.114 11.5664 294.102 11.6252 294.08 11.6802C294.057 11.7351 294.024 11.7851 293.982 11.8272C293.94 11.8692 293.89 11.9026 293.836 11.9252C293.781 11.9479 293.722 11.9595 293.662 11.9593L270.762 11.9593L247.938 34.7809L247.938 42.2922C247.938 42.3513 247.927 42.4099 247.904 42.4646C247.882 42.5192 247.848 42.5689 247.807 42.6106L240.11 50.3036C240.026 50.388 239.912 50.4361 239.793 50.4375L224.401 50.4375C224.281 50.4361 224.168 50.388 224.083 50.3036L208.823 35.0441L170.531 35.0441C170.412 35.0441 170.297 34.9967 170.213 34.9123C170.128 34.8279 170.081 34.7135 170.081 34.5941C170.081 34.4747 170.128 34.3603 170.213 34.2759C170.297 34.1915 170.412 34.1441 170.531 34.1441L209.009 34.1441C209.069 34.1439 209.128 34.1557 209.182 34.1787C209.237 34.2017 209.287 34.2355 209.328 34.278L224.587 49.539L239.606 49.539L247.039 42.1064L247.039 34.5934C247.039 34.5346 247.051 34.4764 247.074 34.4223C247.097 34.3681 247.13 34.3191 247.172 34.278L270.257 11.1917C270.299 11.1498 270.349 11.1166 270.403 11.0942C270.458 11.0717 270.517 11.0604 270.576 11.0608L293.662 11.0608C293.721 11.0603 293.78 11.0715 293.834 11.0937C293.889 11.1159 293.939 11.1486 293.981 11.1901C294.023 11.2316 294.056 11.2809 294.079 11.3353C294.101 11.3897 294.113 11.4481 294.113 11.507Z" fill="black"/>
            <path opacity="0.72" d="M235.623 71.9257C235.623 71.9847 235.612 72.0432 235.589 72.0978C235.567 72.1523 235.533 72.2019 235.492 72.2437C235.45 72.2854 235.4 72.3185 235.346 72.341C235.291 72.3635 235.233 72.3751 235.174 72.375L227.479 72.375C227.42 72.3748 227.361 72.363 227.307 72.3403C227.253 72.3176 227.204 72.2844 227.162 72.2426L205.361 50.4431L190.156 50.4431C190.037 50.4431 189.923 50.3958 189.839 50.3115C189.754 50.2273 189.707 50.113 189.707 49.9938C189.707 49.8747 189.754 49.7604 189.839 49.6762C189.923 49.5919 190.037 49.5446 190.156 49.5446L205.547 49.5446C205.606 49.544 205.665 49.5551 205.719 49.5773C205.774 49.5995 205.823 49.6324 205.865 49.6739L227.665 71.4749L235.174 71.4749C235.233 71.4748 235.291 71.4865 235.346 71.5091C235.401 71.5317 235.45 71.565 235.492 71.6069C235.534 71.6488 235.567 71.6985 235.589 71.7532C235.612 71.8079 235.623 71.8666 235.623 71.9257Z" fill="black"/>
            <path opacity="0.65" d="M278.267 82.2344C278.385 82.2346 278.498 82.1881 278.583 82.105L278.08 81.3343L224.582 80.3238L201.627 57.3713C201.542 57.2878 201.428 57.2404 201.309 57.2389L178.224 57.2389C178.105 57.2389 177.991 57.2864 177.906 57.3707C177.822 57.4551 177.774 57.5696 177.774 57.689C177.774 57.8083 177.822 57.9228 177.906 58.0072C177.991 58.0916 178.105 58.139 178.224 58.139L201.124 58.139L224.079 81.0945C224.163 81.1776 224.277 81.2241 224.396 81.2238L278.267 82.2344Z" fill="black"/>
            <path opacity="0.53" d="M262.995 34.9267L278.448 20.0451L278.267 19.1466C278.151 19.146 278.038 19.1908 277.955 19.2715L262.368 34.2796L254.48 41.98C254.437 42.0212 254.403 42.0709 254.379 42.1259C254.356 42.1809 254.345 42.2401 254.345 42.2998L254.345 49.8203L247.285 57.6247L224.583 57.6247L209.324 42.3668C209.283 42.324 209.233 42.2901 209.178 42.2668C209.123 42.2435 209.064 42.2315 209.005 42.2314L166.162 42.2314C166.102 42.2313 166.044 42.2429 165.989 42.2655C165.934 42.2882 165.885 42.3213 165.843 42.3632C165.801 42.4051 165.768 42.4548 165.745 42.5096C165.722 42.5643 165.711 42.6229 165.711 42.6821C165.711 42.8013 165.759 42.9154 165.844 42.9994C165.928 43.0834 166.043 43.1304 166.162 43.13L208.819 43.13L224.079 58.3924C224.164 58.476 224.277 58.5231 224.396 58.5234L247.484 58.5234C247.547 58.5242 247.609 58.5115 247.666 58.4864C247.723 58.4613 247.775 58.4242 247.816 58.3776L255.129 50.2963C255.203 50.2131 255.244 50.1057 255.244 49.9943L255.244 42.4917L262.995 34.9267Z" fill="black"/>
        </g>
    </g>
</svg>
